{
  "title" : "",
  "description" : "",
  "author" : "",
  "targetLoudness" : -18.0,
  "shouldApplyLoudnessNormalization" : true,
  "videoFormatFrameRate" : 30,
  "audioFormatSampleRate" : 44100,
  "width" : 1920.0,
  "height" : 1080.0,
  "version" : "4.0",
  "editRate" : 30,
  "authoringClientName" :  {
    "name" : "Camtasia",
    "platform" : "Windows",
    "version" : "20.0"
  },
  "sourceBin" : [
    {
      "id" : 1,
      "src" : "C:\\Users\\David\\Documents\\Camtasia\\Grabación 26-12-{AA}_003.trec",
      "rect" : [0, 0, 1920, 1080],
      "lastMod" : "20201226T152834",
      "sourceTracks" : [
        {
          "range" : [0, 5088],
          "type" : 0,
          "editRate" : 30,
          "trackRect" : [0, 0, 1920, 1080],
          "sampleRate" : 9,
          "bitDepth" : 0,
          "numChannels" : 0,
          "integratedLUFS" : 100.0,
          "peakLevel" : -1.0,
          "metaData" : "2b7b6a00-7a1f-11e2-83d0-0017f200be7f;2b7b6aef-7a1f-11e2-83d0-0017f200be7f;2b7b6af0-7a1f-11e2-83d0-0017f200be7f;2b7b6af1-7a1f-11e2-83d0-0017f200be7f;2b7b6af2-7a1f-11e2-83d0-0017f200be7f;2b7b6af3-7a1f-11e2-83d0-0017f200be7f;2b7b6af5-7a1f-11e2-83d0-0017f200be7f;2b7b6af6-7a1f-11e2-83d0-0017f200be7f;2b7b6af7-7a1f-11e2-83d0-0017f200be7f;2b7b6af8-7a1f-11e2-83d0-0017f200be7f;2b7b6af9-7a1f-11e2-83d0-0017f200be7f;2b7b6afa-7a1f-11e2-83d0-0017f200be7f;"
        },
        {
          "range" : [0, 5097599],
          "type" : 0,
          "editRate" : 30000,
          "trackRect" : [0, 0, 640, 480],
          "sampleRate" : 18,
          "bitDepth" : 0,
          "numChannels" : 0,
          "integratedLUFS" : 100.0,
          "peakLevel" : -1.0,
          "metaData" : ""
        },
        {
          "range" : [0, 7499776],
          "type" : 2,
          "editRate" : 44100,
          "trackRect" : [0, 0, 0, 0],
          "sampleRate" : 44100,
          "bitDepth" : 16,
          "numChannels" : 2,
          "integratedLUFS" : -19.3017419957113,
          "peakLevel" : 0.992889404296875,
          "metaData" : ""
        },
        {
          "range" : [0, 7497728],
          "type" : 2,
          "editRate" : 44100,
          "trackRect" : [0, 0, 0, 0],
          "sampleRate" : 44100,
          "bitDepth" : 16,
          "numChannels" : 2,
          "integratedLUFS" : 0.0,
          "peakLevel" : 0.0,
          "metaData" : ""
        }
      ],
      "metadata" : {
        "timeAdded" : "20201226T152835.268912"
      }
    },
    {
      "id" : 2,
      "src" : "C:\\Users\\David\\Documents\\Camtasia\\Grabación 26-12-{AA}_004.trec",
      "rect" : [0, 0, 1920, 1080],
      "lastMod" : "20201226T153250",
      "sourceTracks" : [
        {
          "range" : [0, 2170],
          "type" : 0,
          "editRate" : 30,
          "trackRect" : [0, 0, 1920, 1080],
          "sampleRate" : 8,
          "bitDepth" : 0,
          "numChannels" : 0,
          "integratedLUFS" : 100.0,
          "peakLevel" : -1.0,
          "metaData" : "2b7b6a00-7a1f-11e2-83d0-0017f200be7f;2b7b6aef-7a1f-11e2-83d0-0017f200be7f;2b7b6af0-7a1f-11e2-83d0-0017f200be7f;2b7b6af1-7a1f-11e2-83d0-0017f200be7f;2b7b6af2-7a1f-11e2-83d0-0017f200be7f;2b7b6af3-7a1f-11e2-83d0-0017f200be7f;2b7b6af5-7a1f-11e2-83d0-0017f200be7f;2b7b6af6-7a1f-11e2-83d0-0017f200be7f;2b7b6af7-7a1f-11e2-83d0-0017f200be7f;2b7b6af8-7a1f-11e2-83d0-0017f200be7f;2b7b6af9-7a1f-11e2-83d0-0017f200be7f;2b7b6afa-7a1f-11e2-83d0-0017f200be7f;"
        },
        {
          "range" : [0, 2183807],
          "type" : 0,
          "editRate" : 30000,
          "trackRect" : [0, 0, 640, 480],
          "sampleRate" : 16,
          "bitDepth" : 0,
          "numChannels" : 0,
          "integratedLUFS" : 100.0,
          "peakLevel" : -1.0,
          "metaData" : ""
        },
        {
          "range" : [0, 3216384],
          "type" : 2,
          "editRate" : 44100,
          "trackRect" : [0, 0, 0, 0],
          "sampleRate" : 44100,
          "bitDepth" : 16,
          "numChannels" : 2,
          "integratedLUFS" : -20.6040375128477,
          "peakLevel" : 0.9725341796875,
          "metaData" : ""
        },
        {
          "range" : [0, 3214336],
          "type" : 2,
          "editRate" : 44100,
          "trackRect" : [0, 0, 0, 0],
          "sampleRate" : 44100,
          "bitDepth" : 16,
          "numChannels" : 2,
          "integratedLUFS" : 0.0,
          "peakLevel" : 0.0,
          "metaData" : ""
        }
      ],
      "metadata" : {
        "timeAdded" : "20201226T153251.222621"
      }
    },
    {
      "id" : 3,
      "src" : "C:\\Users\\David\\Documents\\Camtasia\\Grabación 26-12-{AA}_007.trec",
      "rect" : [0, 0, 1920, 1080],
      "lastMod" : "20201226T153831",
      "sourceTracks" : [
        {
          "range" : [0, 128],
          "type" : 0,
          "editRate" : 30,
          "trackRect" : [0, 0, 1920, 1080],
          "sampleRate" : 11,
          "bitDepth" : 0,
          "numChannels" : 0,
          "integratedLUFS" : 100.0,
          "peakLevel" : -1.0,
          "metaData" : "2b7b6a00-7a1f-11e2-83d0-0017f200be7f;2b7b6aef-7a1f-11e2-83d0-0017f200be7f;2b7b6af0-7a1f-11e2-83d0-0017f200be7f;2b7b6af1-7a1f-11e2-83d0-0017f200be7f;2b7b6af2-7a1f-11e2-83d0-0017f200be7f;2b7b6af3-7a1f-11e2-83d0-0017f200be7f;2b7b6af5-7a1f-11e2-83d0-0017f200be7f;2b7b6af6-7a1f-11e2-83d0-0017f200be7f;2b7b6af7-7a1f-11e2-83d0-0017f200be7f;2b7b6af8-7a1f-11e2-83d0-0017f200be7f;2b7b6af9-7a1f-11e2-83d0-0017f200be7f;2b7b6afa-7a1f-11e2-83d0-0017f200be7f;"
        },
        {
          "range" : [0, 141981],
          "type" : 0,
          "editRate" : 30000,
          "trackRect" : [0, 0, 640, 480],
          "sampleRate" : 10,
          "bitDepth" : 0,
          "numChannels" : 0,
          "integratedLUFS" : 100.0,
          "peakLevel" : -1.0,
          "metaData" : ""
        },
        {
          "range" : [0, 212992],
          "type" : 2,
          "editRate" : 44100,
          "trackRect" : [0, 0, 0, 0],
          "sampleRate" : 44100,
          "bitDepth" : 16,
          "numChannels" : 2,
          "integratedLUFS" : -17.0094059775591,
          "peakLevel" : 0.872344970703125,
          "metaData" : ""
        },
        {
          "range" : [0, 211968],
          "type" : 2,
          "editRate" : 44100,
          "trackRect" : [0, 0, 0, 0],
          "sampleRate" : 44100,
          "bitDepth" : 16,
          "numChannels" : 2,
          "integratedLUFS" : 0.0,
          "peakLevel" : 0.0,
          "metaData" : ""
        }
      ],
      "metadata" : {
        "timeAdded" : "20201226T153831.502796"
      }
    },
    {
      "id" : 4,
      "src" : "C:\\Users\\David\\Documents\\Camtasia\\Grabación 26-12-{AA}_008.trec",
      "rect" : [0, 0, 1920, 1080],
      "lastMod" : "20201226T154228",
      "sourceTracks" : [
        {
          "range" : [0, 4649],
          "type" : 0,
          "editRate" : 30,
          "trackRect" : [0, 0, 1920, 1080],
          "sampleRate" : 10,
          "bitDepth" : 0,
          "numChannels" : 0,
          "integratedLUFS" : 100.0,
          "peakLevel" : -1.0,
          "metaData" : "2b7b6a00-7a1f-11e2-83d0-0017f200be7f;2b7b6aef-7a1f-11e2-83d0-0017f200be7f;2b7b6af0-7a1f-11e2-83d0-0017f200be7f;2b7b6af1-7a1f-11e2-83d0-0017f200be7f;2b7b6af2-7a1f-11e2-83d0-0017f200be7f;2b7b6af3-7a1f-11e2-83d0-0017f200be7f;2b7b6af5-7a1f-11e2-83d0-0017f200be7f;2b7b6af6-7a1f-11e2-83d0-0017f200be7f;2b7b6af7-7a1f-11e2-83d0-0017f200be7f;2b7b6af8-7a1f-11e2-83d0-0017f200be7f;2b7b6af9-7a1f-11e2-83d0-0017f200be7f;2b7b6afa-7a1f-11e2-83d0-0017f200be7f;"
        },
        {
          "range" : [0, 4658384],
          "type" : 0,
          "editRate" : 30000,
          "trackRect" : [0, 0, 640, 480],
          "sampleRate" : 14,
          "bitDepth" : 0,
          "numChannels" : 0,
          "integratedLUFS" : 100.0,
          "peakLevel" : -1.0,
          "metaData" : ""
        },
        {
          "range" : [0, 6852608],
          "type" : 2,
          "editRate" : 44100,
          "trackRect" : [0, 0, 0, 0],
          "sampleRate" : 44100,
          "bitDepth" : 16,
          "numChannels" : 2,
          "integratedLUFS" : -20.1286685080434,
          "peakLevel" : 0.991943359375,
          "metaData" : ""
        },
        {
          "range" : [0, 6853632],
          "type" : 2,
          "editRate" : 44100,
          "trackRect" : [0, 0, 0, 0],
          "sampleRate" : 44100,
          "bitDepth" : 16,
          "numChannels" : 2,
          "integratedLUFS" : 0.0,
          "peakLevel" : 0.0,
          "metaData" : ""
        }
      ],
      "metadata" : {
        "timeAdded" : "20201226T154229.054875"
      }
    },
    {
      "id" : 5,
      "src" : "C:\\Users\\David\\Documents\\Camtasia\\Grabación 26-12-{AA}_013.trec",
      "rect" : [0, 0, 1920, 1080],
      "lastMod" : "20201226T175500",
      "sourceTracks" : [
        {
          "range" : [0, 974],
          "type" : 0,
          "editRate" : 30,
          "trackRect" : [0, 0, 1920, 1080],
          "sampleRate" : 8,
          "bitDepth" : 0,
          "numChannels" : 0,
          "integratedLUFS" : 100.0,
          "peakLevel" : -1.0,
          "metaData" : "2b7b6a00-7a1f-11e2-83d0-0017f200be7f;2b7b6aef-7a1f-11e2-83d0-0017f200be7f;2b7b6af0-7a1f-11e2-83d0-0017f200be7f;2b7b6af1-7a1f-11e2-83d0-0017f200be7f;2b7b6af2-7a1f-11e2-83d0-0017f200be7f;2b7b6af3-7a1f-11e2-83d0-0017f200be7f;2b7b6af5-7a1f-11e2-83d0-0017f200be7f;2b7b6af6-7a1f-11e2-83d0-0017f200be7f;2b7b6af7-7a1f-11e2-83d0-0017f200be7f;2b7b6af8-7a1f-11e2-83d0-0017f200be7f;2b7b6af9-7a1f-11e2-83d0-0017f200be7f;2b7b6afa-7a1f-11e2-83d0-0017f200be7f;"
        },
        {
          "range" : [0, 982069],
          "type" : 0,
          "editRate" : 30000,
          "trackRect" : [0, 0, 640, 480],
          "sampleRate" : 9,
          "bitDepth" : 0,
          "numChannels" : 0,
          "integratedLUFS" : 100.0,
          "peakLevel" : -1.0,
          "metaData" : ""
        },
        {
          "range" : [0, 1453056],
          "type" : 2,
          "editRate" : 44100,
          "trackRect" : [0, 0, 0, 0],
          "sampleRate" : 44100,
          "bitDepth" : 16,
          "numChannels" : 2,
          "integratedLUFS" : -20.590311032392,
          "peakLevel" : 0.90838623046875,
          "metaData" : ""
        },
        {
          "range" : [0, 1452032],
          "type" : 2,
          "editRate" : 44100,
          "trackRect" : [0, 0, 0, 0],
          "sampleRate" : 44100,
          "bitDepth" : 16,
          "numChannels" : 2,
          "integratedLUFS" : 0.0,
          "peakLevel" : 0.0,
          "metaData" : ""
        }
      ],
      "metadata" : {
        "timeAdded" : "20201226T175501.261480"
      }
    },
    {
      "id" : 6,
      "src" : "C:\\Users\\David\\Desktop\\UPV - 3º\\ISW\\Prácticas\\Vídeo\\Vídeo - lógica\\Grabación 26-12-{AA}_018.trec",
      "rect" : [0, 0, 1920, 1080],
      "lastMod" : "20201226T174010",
      "sourceTracks" : [
        {
          "range" : [0, 4874],
          "type" : 0,
          "editRate" : 30,
          "trackRect" : [0, 0, 1920, 1080],
          "sampleRate" : 4,
          "bitDepth" : 0,
          "numChannels" : 0,
          "integratedLUFS" : 100.0,
          "peakLevel" : -1.0,
          "metaData" : "2b7b6a00-7a1f-11e2-83d0-0017f200be7f;2b7b6aef-7a1f-11e2-83d0-0017f200be7f;2b7b6af0-7a1f-11e2-83d0-0017f200be7f;2b7b6af1-7a1f-11e2-83d0-0017f200be7f;2b7b6af2-7a1f-11e2-83d0-0017f200be7f;2b7b6af3-7a1f-11e2-83d0-0017f200be7f;2b7b6af5-7a1f-11e2-83d0-0017f200be7f;2b7b6af6-7a1f-11e2-83d0-0017f200be7f;2b7b6af7-7a1f-11e2-83d0-0017f200be7f;2b7b6af8-7a1f-11e2-83d0-0017f200be7f;2b7b6af9-7a1f-11e2-83d0-0017f200be7f;2b7b6afa-7a1f-11e2-83d0-0017f200be7f;"
        },
        {
          "range" : [0, 4875302],
          "type" : 0,
          "editRate" : 30000,
          "trackRect" : [0, 0, 1280, 720],
          "sampleRate" : 15,
          "bitDepth" : 0,
          "numChannels" : 0,
          "integratedLUFS" : 100.0,
          "peakLevel" : -1.0,
          "metaData" : ""
        },
        {
          "range" : [0, 7174144],
          "type" : 2,
          "editRate" : 44100,
          "trackRect" : [0, 0, 0, 0],
          "sampleRate" : 44100,
          "bitDepth" : 16,
          "numChannels" : 2,
          "integratedLUFS" : -37.5736357113332,
          "peakLevel" : 0.22576904296875,
          "metaData" : ""
        },
        {
          "range" : [0, 7170048],
          "type" : 2,
          "editRate" : 44100,
          "trackRect" : [0, 0, 0, 0],
          "sampleRate" : 44100,
          "bitDepth" : 16,
          "numChannels" : 2,
          "integratedLUFS" : 0.0,
          "peakLevel" : 0.0,
          "metaData" : ""
        }
      ],
      "metadata" : {
        "timeAdded" : "20201226T181112.560125"
      }
    },
    {
      "id" : 7,
      "src" : "C:\\Users\\David\\Desktop\\UPV - 3º\\ISW\\Prácticas\\Vídeo\\Vídeo - lógica\\Luis_Alberto.mp4",
      "rect" : [0, 0, 1920, 1080],
      "lastMod" : "20201226T162321",
      "sourceTracks" : [
        {
          "range" : [0, 126817],
          "type" : 0,
          "editRate" : 1000,
          "trackRect" : [0, 0, 1920, 1080],
          "sampleRate" : "300001/5000",
          "bitDepth" : 24,
          "numChannels" : 0,
          "integratedLUFS" : 100.0,
          "peakLevel" : -1.0,
          "metaData" : ""
        },
        {
          "range" : [0, 126805],
          "type" : 2,
          "editRate" : 1000,
          "trackRect" : [0, 0, 0, 0],
          "sampleRate" : 48000,
          "bitDepth" : 16,
          "numChannels" : 2,
          "integratedLUFS" : -26.2293079280359,
          "peakLevel" : 0.388774424791336,
          "metaData" : ""
        }
      ],
      "metadata" : {
        "timeAdded" : "20201226T183330.084398"
      }
    },
    {
      "id" : 8,
      "src" : "C:\\Users\\David\\Desktop\\UPV - 3º\\ISW\\Prácticas\\Vídeo\\Vídeo - lógica\\WhatsApp Video 2020-12-26 at 14.43.15.mp4",
      "rect" : [0, 0, 1920, 1080],
      "lastMod" : "20201227T161722",
      "sourceTracks" : [
        {
          "range" : [0, 2213333],
          "type" : 0,
          "editRate" : 16000,
          "trackRect" : [0, 0, 1920, 1080],
          "sampleRate" : "150001/5000",
          "bitDepth" : 24,
          "numChannels" : 0,
          "integratedLUFS" : 100.0,
          "peakLevel" : -1.0,
          "metaData" : ""
        },
        {
          "range" : [0, 6099958],
          "type" : 2,
          "editRate" : 44100,
          "trackRect" : [0, 0, 0, 0],
          "sampleRate" : 44100,
          "bitDepth" : 16,
          "numChannels" : 2,
          "integratedLUFS" : -18.9128478786158,
          "peakLevel" : 0.974251210689545,
          "metaData" : ""
        }
      ],
      "metadata" : {
        "timeAdded" : "20201227T161752.097721"
      }
    },
    {
      "id" : 9,
      "src" : "C:\\Users\\David\\Documents\\Camtasia\\Grabación 27-12-{AA}.trec",
      "rect" : [0, 0, 1920, 1080],
      "lastMod" : "20201227T162818",
      "sourceTracks" : [
        {
          "range" : [0, 157],
          "type" : 0,
          "editRate" : 30,
          "trackRect" : [0, 0, 1920, 1080],
          "sampleRate" : 5,
          "bitDepth" : 0,
          "numChannels" : 0,
          "integratedLUFS" : 100.0,
          "peakLevel" : -1.0,
          "metaData" : "2b7b6a00-7a1f-11e2-83d0-0017f200be7f;2b7b6aef-7a1f-11e2-83d0-0017f200be7f;2b7b6af0-7a1f-11e2-83d0-0017f200be7f;2b7b6af1-7a1f-11e2-83d0-0017f200be7f;2b7b6af2-7a1f-11e2-83d0-0017f200be7f;2b7b6af3-7a1f-11e2-83d0-0017f200be7f;2b7b6af5-7a1f-11e2-83d0-0017f200be7f;2b7b6af6-7a1f-11e2-83d0-0017f200be7f;2b7b6af7-7a1f-11e2-83d0-0017f200be7f;2b7b6af8-7a1f-11e2-83d0-0017f200be7f;2b7b6af9-7a1f-11e2-83d0-0017f200be7f;2b7b6afa-7a1f-11e2-83d0-0017f200be7f;"
        },
        {
          "range" : [0, 168759],
          "type" : 0,
          "editRate" : 30000,
          "trackRect" : [0, 0, 640, 480],
          "sampleRate" : 9,
          "bitDepth" : 0,
          "numChannels" : 0,
          "integratedLUFS" : 100.0,
          "peakLevel" : -1.0,
          "metaData" : ""
        },
        {
          "range" : [0, 254976],
          "type" : 2,
          "editRate" : 44100,
          "trackRect" : [0, 0, 0, 0],
          "sampleRate" : 44100,
          "bitDepth" : 16,
          "numChannels" : 2,
          "integratedLUFS" : -19.2920766538714,
          "peakLevel" : 0.799285888671875,
          "metaData" : ""
        },
        {
          "range" : [0, 252928],
          "type" : 2,
          "editRate" : 44100,
          "trackRect" : [0, 0, 0, 0],
          "sampleRate" : 44100,
          "bitDepth" : 16,
          "numChannels" : 2,
          "integratedLUFS" : -1.79769313486232e+308,
          "peakLevel" : 0.0,
          "metaData" : ""
        }
      ],
      "metadata" : {
        "timeAdded" : "20201227T162819.223612"
      }
    },
    {
      "id" : 10,
      "src" : "C:\\Users\\David\\Documents\\Camtasia\\Grabación 27-12-{AA}_001.trec",
      "rect" : [0, 0, 1920, 1080],
      "lastMod" : "20201227T162927",
      "sourceTracks" : [
        {
          "range" : [0, 795],
          "type" : 0,
          "editRate" : 30,
          "trackRect" : [0, 0, 1920, 1080],
          "sampleRate" : 4,
          "bitDepth" : 0,
          "numChannels" : 0,
          "integratedLUFS" : 100.0,
          "peakLevel" : -1.0,
          "metaData" : "2b7b6a00-7a1f-11e2-83d0-0017f200be7f;2b7b6aef-7a1f-11e2-83d0-0017f200be7f;2b7b6af0-7a1f-11e2-83d0-0017f200be7f;2b7b6af1-7a1f-11e2-83d0-0017f200be7f;2b7b6af2-7a1f-11e2-83d0-0017f200be7f;2b7b6af3-7a1f-11e2-83d0-0017f200be7f;2b7b6af5-7a1f-11e2-83d0-0017f200be7f;2b7b6af6-7a1f-11e2-83d0-0017f200be7f;2b7b6af7-7a1f-11e2-83d0-0017f200be7f;2b7b6af8-7a1f-11e2-83d0-0017f200be7f;2b7b6af9-7a1f-11e2-83d0-0017f200be7f;2b7b6afa-7a1f-11e2-83d0-0017f200be7f;"
        },
        {
          "range" : [0, 803193],
          "type" : 0,
          "editRate" : 30000,
          "trackRect" : [0, 0, 640, 480],
          "sampleRate" : 8,
          "bitDepth" : 0,
          "numChannels" : 0,
          "integratedLUFS" : 100.0,
          "peakLevel" : -1.0,
          "metaData" : ""
        },
        {
          "range" : [0, 1187840],
          "type" : 2,
          "editRate" : 44100,
          "trackRect" : [0, 0, 0, 0],
          "sampleRate" : 44100,
          "bitDepth" : 16,
          "numChannels" : 2,
          "integratedLUFS" : -21.9904670877581,
          "peakLevel" : 0.829193115234375,
          "metaData" : ""
        },
        {
          "range" : [0, 1184768],
          "type" : 2,
          "editRate" : 44100,
          "trackRect" : [0, 0, 0, 0],
          "sampleRate" : 44100,
          "bitDepth" : 16,
          "numChannels" : 2,
          "integratedLUFS" : -1.79769313486232e+308,
          "peakLevel" : 0.0,
          "metaData" : ""
        }
      ],
      "metadata" : {
        "timeAdded" : "20201227T162928.259922"
      }
    }
  ],
  "timeline" : {
    "id" : 11,
    "sceneTrack" : {
      "scenes" : [
        {
          "csml" : {
            "tracks" : [
              {
                "trackIndex" : 0,
                "medias" : [
                  {
                    "id" : 12,
                    "_type" : "UnifiedMedia",
                    "video" : 
                        {
                          "id" : 13,
                          "_type" : "ScreenVMFile",
                          "src" : 2,
                          "trackNumber" : 0,
                          "attributes" : {
                            "ident" : "Grabación 26-12-{AA}_004"
                          },
                          "parameters" : {
                            "sourceCrop0" : {
                              "type" : "double",
                              "defaultValue" : 0.0,
                              "interp" : "eioe"
                            },
                            "sourceCrop1" : {
                              "type" : "double",
                              "defaultValue" : 0.0,
                              "interp" : "eioe"
                            },
                            "sourceCrop2" : {
                              "type" : "double",
                              "defaultValue" : 0.0,
                              "interp" : "eioe"
                            },
                            "sourceCrop3" : {
                              "type" : "double",
                              "defaultValue" : 0.0,
                              "interp" : "eioe"
                            },
                            "geometryCrop0" : {
                              "type" : "double",
                              "defaultValue" : 0.0,
                              "interp" : "eioe"
                            },
                            "geometryCrop1" : {
                              "type" : "double",
                              "defaultValue" : 0.0,
                              "interp" : "eioe"
                            },
                            "geometryCrop2" : {
                              "type" : "double",
                              "defaultValue" : 0.0,
                              "interp" : "eioe"
                            },
                            "geometryCrop3" : {
                              "type" : "double",
                              "defaultValue" : 0.0,
                              "interp" : "eioe"
                            },
                            "cursorScale" : {
                              "type" : "double",
                              "defaultValue" : 1.0,
                              "interp" : "linr"
                            },
                            "cursorOpacity" : {
                              "type" : "double",
                              "defaultValue" : 1.0,
                              "interp" : "linr"
                            }
                          },
                          "effects" : [

                          ],
                          "start" : 0,
                          "duration" : 166,
                          "mediaStart" : 0,
                          "mediaDuration" : 166,
                          "scalar" : 1,
                          "animationTracks" : {

                          }
                        },
                    "audio" : 
                        {
                          "id" : 14,
                          "_type" : "AMFile",
                          "src" : 2,
                          "trackNumber" : 3,
                          "attributes" : {
                            "ident" : "",
                            "gain" : 1.0,
                            "mixToMono" : false
                          },
                            "channelNumber" : "0,1",
                          "effects" : [

                          ],
                          "start" : 0,
                          "duration" : 166,
                          "mediaStart" : 0,
                          "mediaDuration" : 166,
                          "scalar" : 1,
                          "animationTracks" : {

                          }
                        }
,
                    "start" : 0,
                    "duration" : 166,
                    "mediaStart" : 0,
                    "mediaDuration" : 2170,
                    "scalar" : 1,
                    "metadata" : {
                      "AutoAppliedSmartFocus" : "False",
                      "clipSpeedAttribute" : false
                    }
                  },
                  {
                    "id" : 15,
                    "_type" : "UnifiedMedia",
                    "video" : 
                        {
                          "id" : 16,
                          "_type" : "ScreenVMFile",
                          "src" : 2,
                          "trackNumber" : 0,
                          "attributes" : {
                            "ident" : "Grabación 26-12-{AA}_004"
                          },
                          "parameters" : {
                            "sourceCrop0" : {
                              "type" : "double",
                              "defaultValue" : 0.0,
                              "interp" : "eioe"
                            },
                            "sourceCrop1" : {
                              "type" : "double",
                              "defaultValue" : 0.0,
                              "interp" : "eioe"
                            },
                            "sourceCrop2" : {
                              "type" : "double",
                              "defaultValue" : 0.0,
                              "interp" : "eioe"
                            },
                            "sourceCrop3" : {
                              "type" : "double",
                              "defaultValue" : 0.0,
                              "interp" : "eioe"
                            },
                            "geometryCrop0" : {
                              "type" : "double",
                              "defaultValue" : 0.0,
                              "interp" : "eioe"
                            },
                            "geometryCrop1" : {
                              "type" : "double",
                              "defaultValue" : 0.0,
                              "interp" : "eioe"
                            },
                            "geometryCrop2" : {
                              "type" : "double",
                              "defaultValue" : 0.0,
                              "interp" : "eioe"
                            },
                            "geometryCrop3" : {
                              "type" : "double",
                              "defaultValue" : 0.0,
                              "interp" : "eioe"
                            },
                            "cursorScale" : {
                              "type" : "double",
                              "defaultValue" : 1.0,
                              "interp" : "linr"
                            },
                            "cursorOpacity" : {
                              "type" : "double",
                              "defaultValue" : 1.0,
                              "interp" : "linr"
                            }
                          },
                          "effects" : [

                          ],
                          "start" : 166,
                          "duration" : 182,
                          "mediaStart" : 254,
                          "mediaDuration" : 182,
                          "scalar" : 1,
                          "animationTracks" : {

                          }
                        },
                    "audio" : 
                        {
                          "id" : 17,
                          "_type" : "AMFile",
                          "src" : 2,
                          "trackNumber" : 3,
                          "attributes" : {
                            "ident" : "",
                            "gain" : 1.0,
                            "mixToMono" : false
                          },
                            "channelNumber" : "0,1",
                          "effects" : [

                          ],
                          "start" : 166,
                          "duration" : 182,
                          "mediaStart" : 254,
                          "mediaDuration" : 182,
                          "scalar" : 1,
                          "animationTracks" : {

                          }
                        }
,
                    "start" : 166,
                    "duration" : 182,
                    "mediaStart" : 0,
                    "mediaDuration" : 2170,
                    "scalar" : 1,
                    "metadata" : {
                      "AutoAppliedSmartFocus" : "False",
                      "clipSpeedAttribute" : false
                    }
                  },
                  {
                    "id" : 18,
                    "_type" : "UnifiedMedia",
                    "video" : 
                        {
                          "id" : 19,
                          "_type" : "ScreenVMFile",
                          "src" : 2,
                          "trackNumber" : 0,
                          "attributes" : {
                            "ident" : "Grabación 26-12-{AA}_004"
                          },
                          "parameters" : {
                            "sourceCrop0" : {
                              "type" : "double",
                              "defaultValue" : 0.0,
                              "interp" : "eioe"
                            },
                            "sourceCrop1" : {
                              "type" : "double",
                              "defaultValue" : 0.0,
                              "interp" : "eioe"
                            },
                            "sourceCrop2" : {
                              "type" : "double",
                              "defaultValue" : 0.0,
                              "interp" : "eioe"
                            },
                            "sourceCrop3" : {
                              "type" : "double",
                              "defaultValue" : 0.0,
                              "interp" : "eioe"
                            },
                            "geometryCrop0" : {
                              "type" : "double",
                              "defaultValue" : 0.0,
                              "interp" : "eioe"
                            },
                            "geometryCrop1" : {
                              "type" : "double",
                              "defaultValue" : 0.0,
                              "interp" : "eioe"
                            },
                            "geometryCrop2" : {
                              "type" : "double",
                              "defaultValue" : 0.0,
                              "interp" : "eioe"
                            },
                            "geometryCrop3" : {
                              "type" : "double",
                              "defaultValue" : 0.0,
                              "interp" : "eioe"
                            },
                            "cursorScale" : {
                              "type" : "double",
                              "defaultValue" : 1.0,
                              "interp" : "linr"
                            },
                            "cursorOpacity" : {
                              "type" : "double",
                              "defaultValue" : 1.0,
                              "interp" : "linr"
                            }
                          },
                          "effects" : [

                          ],
                          "start" : 348,
                          "duration" : 24,
                          "mediaStart" : 443,
                          "mediaDuration" : 24,
                          "scalar" : 1,
                          "animationTracks" : {

                          }
                        },
                    "audio" : 
                        {
                          "id" : 20,
                          "_type" : "AMFile",
                          "src" : 2,
                          "trackNumber" : 3,
                          "attributes" : {
                            "ident" : "",
                            "gain" : 1.0,
                            "mixToMono" : false
                          },
                            "channelNumber" : "0,1",
                          "effects" : [

                          ],
                          "start" : 348,
                          "duration" : 24,
                          "mediaStart" : 443,
                          "mediaDuration" : 24,
                          "scalar" : 1,
                          "animationTracks" : {

                          }
                        }
,
                    "start" : 348,
                    "duration" : 24,
                    "mediaStart" : 0,
                    "mediaDuration" : 2170,
                    "scalar" : 1,
                    "metadata" : {
                      "AutoAppliedSmartFocus" : "False",
                      "clipSpeedAttribute" : false
                    }
                  },
                  {
                    "id" : 21,
                    "_type" : "UnifiedMedia",
                    "video" : 
                        {
                          "id" : 22,
                          "_type" : "ScreenVMFile",
                          "src" : 2,
                          "trackNumber" : 0,
                          "attributes" : {
                            "ident" : "Grabación 26-12-{AA}_004"
                          },
                          "parameters" : {
                            "sourceCrop0" : {
                              "type" : "double",
                              "defaultValue" : 0.0,
                              "interp" : "eioe"
                            },
                            "sourceCrop1" : {
                              "type" : "double",
                              "defaultValue" : 0.0,
                              "interp" : "eioe"
                            },
                            "sourceCrop2" : {
                              "type" : "double",
                              "defaultValue" : 0.0,
                              "interp" : "eioe"
                            },
                            "sourceCrop3" : {
                              "type" : "double",
                              "defaultValue" : 0.0,
                              "interp" : "eioe"
                            },
                            "geometryCrop0" : {
                              "type" : "double",
                              "defaultValue" : 0.0,
                              "interp" : "eioe"
                            },
                            "geometryCrop1" : {
                              "type" : "double",
                              "defaultValue" : 0.0,
                              "interp" : "eioe"
                            },
                            "geometryCrop2" : {
                              "type" : "double",
                              "defaultValue" : 0.0,
                              "interp" : "eioe"
                            },
                            "geometryCrop3" : {
                              "type" : "double",
                              "defaultValue" : 0.0,
                              "interp" : "eioe"
                            },
                            "cursorScale" : {
                              "type" : "double",
                              "defaultValue" : 1.0,
                              "interp" : "linr"
                            },
                            "cursorOpacity" : {
                              "type" : "double",
                              "defaultValue" : 1.0,
                              "interp" : "linr"
                            }
                          },
                          "effects" : [

                          ],
                          "start" : 372,
                          "duration" : 20,
                          "mediaStart" : 474,
                          "mediaDuration" : 20,
                          "scalar" : 1,
                          "animationTracks" : {

                          }
                        },
                    "audio" : 
                        {
                          "id" : 23,
                          "_type" : "AMFile",
                          "src" : 2,
                          "trackNumber" : 3,
                          "attributes" : {
                            "ident" : "",
                            "gain" : 1.0,
                            "mixToMono" : false
                          },
                            "channelNumber" : "0,1",
                          "effects" : [

                          ],
                          "start" : 372,
                          "duration" : 20,
                          "mediaStart" : 474,
                          "mediaDuration" : 20,
                          "scalar" : 1,
                          "animationTracks" : {

                          }
                        }
,
                    "start" : 372,
                    "duration" : 20,
                    "mediaStart" : 0,
                    "mediaDuration" : 2170,
                    "scalar" : 1,
                    "metadata" : {
                      "AutoAppliedSmartFocus" : "False",
                      "clipSpeedAttribute" : false
                    }
                  },
                  {
                    "id" : 24,
                    "_type" : "UnifiedMedia",
                    "video" : 
                        {
                          "id" : 25,
                          "_type" : "ScreenVMFile",
                          "src" : 2,
                          "trackNumber" : 0,
                          "attributes" : {
                            "ident" : "Grabación 26-12-{AA}_004"
                          },
                          "parameters" : {
                            "sourceCrop0" : {
                              "type" : "double",
                              "defaultValue" : 0.0,
                              "interp" : "eioe"
                            },
                            "sourceCrop1" : {
                              "type" : "double",
                              "defaultValue" : 0.0,
                              "interp" : "eioe"
                            },
                            "sourceCrop2" : {
                              "type" : "double",
                              "defaultValue" : 0.0,
                              "interp" : "eioe"
                            },
                            "sourceCrop3" : {
                              "type" : "double",
                              "defaultValue" : 0.0,
                              "interp" : "eioe"
                            },
                            "geometryCrop0" : {
                              "type" : "double",
                              "defaultValue" : 0.0,
                              "interp" : "eioe"
                            },
                            "geometryCrop1" : {
                              "type" : "double",
                              "defaultValue" : 0.0,
                              "interp" : "eioe"
                            },
                            "geometryCrop2" : {
                              "type" : "double",
                              "defaultValue" : 0.0,
                              "interp" : "eioe"
                            },
                            "geometryCrop3" : {
                              "type" : "double",
                              "defaultValue" : 0.0,
                              "interp" : "eioe"
                            },
                            "cursorScale" : {
                              "type" : "double",
                              "defaultValue" : 1.0,
                              "interp" : "linr"
                            },
                            "cursorOpacity" : {
                              "type" : "double",
                              "defaultValue" : 1.0,
                              "interp" : "linr"
                            }
                          },
                          "effects" : [

                          ],
                          "start" : 392,
                          "duration" : 81,
                          "mediaStart" : 517,
                          "mediaDuration" : 81,
                          "scalar" : 1,
                          "animationTracks" : {

                          }
                        },
                    "audio" : 
                        {
                          "id" : 26,
                          "_type" : "AMFile",
                          "src" : 2,
                          "trackNumber" : 3,
                          "attributes" : {
                            "ident" : "",
                            "gain" : 1.0,
                            "mixToMono" : false
                          },
                            "channelNumber" : "0,1",
                          "effects" : [

                          ],
                          "start" : 392,
                          "duration" : 81,
                          "mediaStart" : 517,
                          "mediaDuration" : 81,
                          "scalar" : 1,
                          "animationTracks" : {

                          }
                        }
,
                    "start" : 392,
                    "duration" : 81,
                    "mediaStart" : 0,
                    "mediaDuration" : 2170,
                    "scalar" : 1,
                    "metadata" : {
                      "AutoAppliedSmartFocus" : "False",
                      "clipSpeedAttribute" : false
                    }
                  },
                  {
                    "id" : 27,
                    "_type" : "UnifiedMedia",
                    "video" : 
                        {
                          "id" : 28,
                          "_type" : "ScreenVMFile",
                          "src" : 2,
                          "trackNumber" : 0,
                          "attributes" : {
                            "ident" : "Grabación 26-12-{AA}_004"
                          },
                          "parameters" : {
                            "sourceCrop0" : {
                              "type" : "double",
                              "defaultValue" : 0.0,
                              "interp" : "eioe"
                            },
                            "sourceCrop1" : {
                              "type" : "double",
                              "defaultValue" : 0.0,
                              "interp" : "eioe"
                            },
                            "sourceCrop2" : {
                              "type" : "double",
                              "defaultValue" : 0.0,
                              "interp" : "eioe"
                            },
                            "sourceCrop3" : {
                              "type" : "double",
                              "defaultValue" : 0.0,
                              "interp" : "eioe"
                            },
                            "geometryCrop0" : {
                              "type" : "double",
                              "defaultValue" : 0.0,
                              "interp" : "eioe"
                            },
                            "geometryCrop1" : {
                              "type" : "double",
                              "defaultValue" : 0.0,
                              "interp" : "eioe"
                            },
                            "geometryCrop2" : {
                              "type" : "double",
                              "defaultValue" : 0.0,
                              "interp" : "eioe"
                            },
                            "geometryCrop3" : {
                              "type" : "double",
                              "defaultValue" : 0.0,
                              "interp" : "eioe"
                            },
                            "cursorScale" : {
                              "type" : "double",
                              "defaultValue" : 1.0,
                              "interp" : "linr"
                            },
                            "cursorOpacity" : {
                              "type" : "double",
                              "defaultValue" : 1.0,
                              "interp" : "linr"
                            }
                          },
                          "effects" : [

                          ],
                          "start" : 473,
                          "duration" : 153,
                          "mediaStart" : 654,
                          "mediaDuration" : 153,
                          "scalar" : 1,
                          "animationTracks" : {

                          }
                        },
                    "audio" : 
                        {
                          "id" : 29,
                          "_type" : "AMFile",
                          "src" : 2,
                          "trackNumber" : 3,
                          "attributes" : {
                            "ident" : "",
                            "gain" : 1.0,
                            "mixToMono" : false
                          },
                            "channelNumber" : "0,1",
                          "effects" : [

                          ],
                          "start" : 473,
                          "duration" : 153,
                          "mediaStart" : 654,
                          "mediaDuration" : 153,
                          "scalar" : 1,
                          "animationTracks" : {

                          }
                        }
,
                    "start" : 473,
                    "duration" : 153,
                    "mediaStart" : 0,
                    "mediaDuration" : 2170,
                    "scalar" : 1,
                    "metadata" : {
                      "AutoAppliedSmartFocus" : "False",
                      "clipSpeedAttribute" : false
                    }
                  },
                  {
                    "id" : 30,
                    "_type" : "UnifiedMedia",
                    "video" : 
                        {
                          "id" : 31,
                          "_type" : "ScreenVMFile",
                          "src" : 2,
                          "trackNumber" : 0,
                          "attributes" : {
                            "ident" : "Grabación 26-12-{AA}_004"
                          },
                          "parameters" : {
                            "sourceCrop0" : {
                              "type" : "double",
                              "defaultValue" : 0.0,
                              "interp" : "eioe"
                            },
                            "sourceCrop1" : {
                              "type" : "double",
                              "defaultValue" : 0.0,
                              "interp" : "eioe"
                            },
                            "sourceCrop2" : {
                              "type" : "double",
                              "defaultValue" : 0.0,
                              "interp" : "eioe"
                            },
                            "sourceCrop3" : {
                              "type" : "double",
                              "defaultValue" : 0.0,
                              "interp" : "eioe"
                            },
                            "geometryCrop0" : {
                              "type" : "double",
                              "defaultValue" : 0.0,
                              "interp" : "eioe"
                            },
                            "geometryCrop1" : {
                              "type" : "double",
                              "defaultValue" : 0.0,
                              "interp" : "eioe"
                            },
                            "geometryCrop2" : {
                              "type" : "double",
                              "defaultValue" : 0.0,
                              "interp" : "eioe"
                            },
                            "geometryCrop3" : {
                              "type" : "double",
                              "defaultValue" : 0.0,
                              "interp" : "eioe"
                            },
                            "cursorScale" : {
                              "type" : "double",
                              "defaultValue" : 1.0,
                              "interp" : "linr"
                            },
                            "cursorOpacity" : {
                              "type" : "double",
                              "defaultValue" : 1.0,
                              "interp" : "linr"
                            }
                          },
                          "effects" : [

                          ],
                          "start" : 626,
                          "duration" : 51,
                          "mediaStart" : 825,
                          "mediaDuration" : 51,
                          "scalar" : 1,
                          "animationTracks" : {

                          }
                        },
                    "audio" : 
                        {
                          "id" : 32,
                          "_type" : "AMFile",
                          "src" : 2,
                          "trackNumber" : 3,
                          "attributes" : {
                            "ident" : "",
                            "gain" : 1.0,
                            "mixToMono" : false
                          },
                            "channelNumber" : "0,1",
                          "effects" : [

                          ],
                          "start" : 626,
                          "duration" : 51,
                          "mediaStart" : 825,
                          "mediaDuration" : 51,
                          "scalar" : 1,
                          "animationTracks" : {

                          }
                        }
,
                    "start" : 626,
                    "duration" : 51,
                    "mediaStart" : 0,
                    "mediaDuration" : 2170,
                    "scalar" : 1,
                    "metadata" : {
                      "AutoAppliedSmartFocus" : "False",
                      "clipSpeedAttribute" : false
                    }
                  },
                  {
                    "id" : 33,
                    "_type" : "UnifiedMedia",
                    "video" : 
                        {
                          "id" : 34,
                          "_type" : "ScreenVMFile",
                          "src" : 2,
                          "trackNumber" : 0,
                          "attributes" : {
                            "ident" : "Grabación 26-12-{AA}_004"
                          },
                          "parameters" : {
                            "sourceCrop0" : {
                              "type" : "double",
                              "defaultValue" : 0.0,
                              "interp" : "eioe"
                            },
                            "sourceCrop1" : {
                              "type" : "double",
                              "defaultValue" : 0.0,
                              "interp" : "eioe"
                            },
                            "sourceCrop2" : {
                              "type" : "double",
                              "defaultValue" : 0.0,
                              "interp" : "eioe"
                            },
                            "sourceCrop3" : {
                              "type" : "double",
                              "defaultValue" : 0.0,
                              "interp" : "eioe"
                            },
                            "geometryCrop0" : {
                              "type" : "double",
                              "defaultValue" : 0.0,
                              "interp" : "eioe"
                            },
                            "geometryCrop1" : {
                              "type" : "double",
                              "defaultValue" : 0.0,
                              "interp" : "eioe"
                            },
                            "geometryCrop2" : {
                              "type" : "double",
                              "defaultValue" : 0.0,
                              "interp" : "eioe"
                            },
                            "geometryCrop3" : {
                              "type" : "double",
                              "defaultValue" : 0.0,
                              "interp" : "eioe"
                            },
                            "cursorScale" : {
                              "type" : "double",
                              "defaultValue" : 1.0,
                              "interp" : "linr"
                            },
                            "cursorOpacity" : {
                              "type" : "double",
                              "defaultValue" : 1.0,
                              "interp" : "linr"
                            }
                          },
                          "effects" : [

                          ],
                          "start" : 677,
                          "duration" : 36,
                          "mediaStart" : 882,
                          "mediaDuration" : 36,
                          "scalar" : 1,
                          "animationTracks" : {

                          }
                        },
                    "audio" : 
                        {
                          "id" : 35,
                          "_type" : "AMFile",
                          "src" : 2,
                          "trackNumber" : 3,
                          "attributes" : {
                            "ident" : "",
                            "gain" : 1.0,
                            "mixToMono" : false
                          },
                            "channelNumber" : "0,1",
                          "effects" : [

                          ],
                          "start" : 677,
                          "duration" : 36,
                          "mediaStart" : 882,
                          "mediaDuration" : 36,
                          "scalar" : 1,
                          "animationTracks" : {

                          }
                        }
,
                    "start" : 677,
                    "duration" : 36,
                    "mediaStart" : 0,
                    "mediaDuration" : 2170,
                    "scalar" : 1,
                    "metadata" : {
                      "AutoAppliedSmartFocus" : "False",
                      "clipSpeedAttribute" : false
                    }
                  },
                  {
                    "id" : 36,
                    "_type" : "UnifiedMedia",
                    "video" : 
                        {
                          "id" : 37,
                          "_type" : "ScreenVMFile",
                          "src" : 2,
                          "trackNumber" : 0,
                          "attributes" : {
                            "ident" : "Grabación 26-12-{AA}_004"
                          },
                          "parameters" : {
                            "sourceCrop0" : {
                              "type" : "double",
                              "defaultValue" : 0.0,
                              "interp" : "eioe"
                            },
                            "sourceCrop1" : {
                              "type" : "double",
                              "defaultValue" : 0.0,
                              "interp" : "eioe"
                            },
                            "sourceCrop2" : {
                              "type" : "double",
                              "defaultValue" : 0.0,
                              "interp" : "eioe"
                            },
                            "sourceCrop3" : {
                              "type" : "double",
                              "defaultValue" : 0.0,
                              "interp" : "eioe"
                            },
                            "geometryCrop0" : {
                              "type" : "double",
                              "defaultValue" : 0.0,
                              "interp" : "eioe"
                            },
                            "geometryCrop1" : {
                              "type" : "double",
                              "defaultValue" : 0.0,
                              "interp" : "eioe"
                            },
                            "geometryCrop2" : {
                              "type" : "double",
                              "defaultValue" : 0.0,
                              "interp" : "eioe"
                            },
                            "geometryCrop3" : {
                              "type" : "double",
                              "defaultValue" : 0.0,
                              "interp" : "eioe"
                            },
                            "cursorScale" : {
                              "type" : "double",
                              "defaultValue" : 1.0,
                              "interp" : "linr"
                            },
                            "cursorOpacity" : {
                              "type" : "double",
                              "defaultValue" : 1.0,
                              "interp" : "linr"
                            }
                          },
                          "effects" : [

                          ],
                          "start" : 713,
                          "duration" : 69,
                          "mediaStart" : 927,
                          "mediaDuration" : 69,
                          "scalar" : 1,
                          "animationTracks" : {

                          }
                        },
                    "audio" : 
                        {
                          "id" : 38,
                          "_type" : "AMFile",
                          "src" : 2,
                          "trackNumber" : 3,
                          "attributes" : {
                            "ident" : "",
                            "gain" : 1.0,
                            "mixToMono" : false
                          },
                            "channelNumber" : "0,1",
                          "effects" : [

                          ],
                          "start" : 713,
                          "duration" : 69,
                          "mediaStart" : 927,
                          "mediaDuration" : 69,
                          "scalar" : 1,
                          "animationTracks" : {

                          }
                        }
,
                    "start" : 713,
                    "duration" : 69,
                    "mediaStart" : 0,
                    "mediaDuration" : 2170,
                    "scalar" : 1,
                    "metadata" : {
                      "AutoAppliedSmartFocus" : "False",
                      "clipSpeedAttribute" : false
                    }
                  },
                  {
                    "id" : 39,
                    "_type" : "UnifiedMedia",
                    "video" : 
                        {
                          "id" : 40,
                          "_type" : "ScreenVMFile",
                          "src" : 2,
                          "trackNumber" : 0,
                          "attributes" : {
                            "ident" : "Grabación 26-12-{AA}_004"
                          },
                          "parameters" : {
                            "sourceCrop0" : {
                              "type" : "double",
                              "defaultValue" : 0.0,
                              "interp" : "eioe"
                            },
                            "sourceCrop1" : {
                              "type" : "double",
                              "defaultValue" : 0.0,
                              "interp" : "eioe"
                            },
                            "sourceCrop2" : {
                              "type" : "double",
                              "defaultValue" : 0.0,
                              "interp" : "eioe"
                            },
                            "sourceCrop3" : {
                              "type" : "double",
                              "defaultValue" : 0.0,
                              "interp" : "eioe"
                            },
                            "geometryCrop0" : {
                              "type" : "double",
                              "defaultValue" : 0.0,
                              "interp" : "eioe"
                            },
                            "geometryCrop1" : {
                              "type" : "double",
                              "defaultValue" : 0.0,
                              "interp" : "eioe"
                            },
                            "geometryCrop2" : {
                              "type" : "double",
                              "defaultValue" : 0.0,
                              "interp" : "eioe"
                            },
                            "geometryCrop3" : {
                              "type" : "double",
                              "defaultValue" : 0.0,
                              "interp" : "eioe"
                            },
                            "cursorScale" : {
                              "type" : "double",
                              "defaultValue" : 1.0,
                              "interp" : "linr"
                            },
                            "cursorOpacity" : {
                              "type" : "double",
                              "defaultValue" : 1.0,
                              "interp" : "linr"
                            }
                          },
                          "effects" : [

                          ],
                          "start" : 782,
                          "duration" : 26,
                          "mediaStart" : 1007,
                          "mediaDuration" : 26,
                          "scalar" : 1,
                          "animationTracks" : {

                          }
                        },
                    "audio" : 
                        {
                          "id" : 41,
                          "_type" : "AMFile",
                          "src" : 2,
                          "trackNumber" : 3,
                          "attributes" : {
                            "ident" : "",
                            "gain" : 1.0,
                            "mixToMono" : false
                          },
                            "channelNumber" : "0,1",
                          "effects" : [

                          ],
                          "start" : 782,
                          "duration" : 26,
                          "mediaStart" : 1007,
                          "mediaDuration" : 26,
                          "scalar" : 1,
                          "animationTracks" : {

                          }
                        }
,
                    "start" : 782,
                    "duration" : 26,
                    "mediaStart" : 0,
                    "mediaDuration" : 2170,
                    "scalar" : 1,
                    "metadata" : {
                      "AutoAppliedSmartFocus" : "False",
                      "clipSpeedAttribute" : false
                    }
                  },
                  {
                    "id" : 42,
                    "_type" : "StitchedMedia",
                    "minMediaStart" : 0,
                    "attributes" : {
                      "ident" : "Grabación 26-12-{AA}_004",
                      "gain" : 1.0,
                      "mixToMono" : false
                    },
                    "parameters" : {
                      "sourceCrop0" : 0.0,
                      "sourceCrop1" : 0.0,
                      "sourceCrop2" : 0.0,
                      "sourceCrop3" : 0.0,
                      "geometryCrop0" : 0.0,
                      "geometryCrop1" : 0.0,
                      "geometryCrop2" : 0.0,
                      "geometryCrop3" : 0.0,
                      "volume" : 1.0,
                      "cursorOpacity" : 1.0,
                      "cursorScale" : 1.0
                    },
                    "medias" : [
                        {
                          "id" : 43,
                          "_type" : "UnifiedMedia",
                          "video" : 
                              {
                                "id" : 44,
                                "_type" : "ScreenVMFile",
                                "src" : 2,
                                "trackNumber" : 0,
                                "attributes" : {
                                  "ident" : "Grabación 26-12-{AA}_004"
                                },
                                "parameters" : {
                                  "sourceCrop0" : {
                                    "type" : "double",
                                    "defaultValue" : 0.0,
                                    "interp" : "eioe"
                                  },
                                  "sourceCrop1" : {
                                    "type" : "double",
                                    "defaultValue" : 0.0,
                                    "interp" : "eioe"
                                  },
                                  "sourceCrop2" : {
                                    "type" : "double",
                                    "defaultValue" : 0.0,
                                    "interp" : "eioe"
                                  },
                                  "sourceCrop3" : {
                                    "type" : "double",
                                    "defaultValue" : 0.0,
                                    "interp" : "eioe"
                                  },
                                  "geometryCrop0" : {
                                    "type" : "double",
                                    "defaultValue" : 0.0,
                                    "interp" : "eioe"
                                  },
                                  "geometryCrop1" : {
                                    "type" : "double",
                                    "defaultValue" : 0.0,
                                    "interp" : "eioe"
                                  },
                                  "geometryCrop2" : {
                                    "type" : "double",
                                    "defaultValue" : 0.0,
                                    "interp" : "eioe"
                                  },
                                  "geometryCrop3" : {
                                    "type" : "double",
                                    "defaultValue" : 0.0,
                                    "interp" : "eioe"
                                  },
                                  "cursorScale" : {
                                    "type" : "double",
                                    "defaultValue" : 0.0,
                                    "interp" : "linr"
                                  },
                                  "cursorOpacity" : {
                                    "type" : "double",
                                    "defaultValue" : 0.0,
                                    "interp" : "linr"
                                  }
                                },
                                "effects" : [

                                ],
                                "start" : 0,
                                "duration" : 166,
                                "mediaStart" : 0,
                                "mediaDuration" : 166,
                                "scalar" : 1,
                                "animationTracks" : {

                                }
                              },
                          "audio" : 
                              {
                                "id" : 45,
                                "_type" : "AMFile",
                                "src" : 2,
                                "trackNumber" : 3,
                                "attributes" : {
                                  "ident" : "",
                                  "gain" : 1.0,
                                  "mixToMono" : false
                                },
                                  "channelNumber" : "0,1",
                                "effects" : [

                                ],
                                "start" : 0,
                                "duration" : 166,
                                "mediaStart" : 0,
                                "mediaDuration" : 166,
                                "scalar" : 1,
                                "animationTracks" : {

                                }
                              }
,
                          "start" : 0,
                          "duration" : 166,
                          "mediaStart" : 0,
                          "mediaDuration" : 2170,
                          "scalar" : 1,
                          "metadata" : {
                            "AutoAppliedSmartFocus" : "False",
                            "clipSpeedAttribute" : false
                          }
                        },
                        {
                          "id" : 46,
                          "_type" : "UnifiedMedia",
                          "video" : 
                              {
                                "id" : 47,
                                "_type" : "ScreenVMFile",
                                "src" : 2,
                                "trackNumber" : 0,
                                "attributes" : {
                                  "ident" : "Grabación 26-12-{AA}_004"
                                },
                                "parameters" : {
                                  "sourceCrop0" : {
                                    "type" : "double",
                                    "defaultValue" : 0.0,
                                    "interp" : "eioe"
                                  },
                                  "sourceCrop1" : {
                                    "type" : "double",
                                    "defaultValue" : 0.0,
                                    "interp" : "eioe"
                                  },
                                  "sourceCrop2" : {
                                    "type" : "double",
                                    "defaultValue" : 0.0,
                                    "interp" : "eioe"
                                  },
                                  "sourceCrop3" : {
                                    "type" : "double",
                                    "defaultValue" : 0.0,
                                    "interp" : "eioe"
                                  },
                                  "geometryCrop0" : {
                                    "type" : "double",
                                    "defaultValue" : 0.0,
                                    "interp" : "eioe"
                                  },
                                  "geometryCrop1" : {
                                    "type" : "double",
                                    "defaultValue" : 0.0,
                                    "interp" : "eioe"
                                  },
                                  "geometryCrop2" : {
                                    "type" : "double",
                                    "defaultValue" : 0.0,
                                    "interp" : "eioe"
                                  },
                                  "geometryCrop3" : {
                                    "type" : "double",
                                    "defaultValue" : 0.0,
                                    "interp" : "eioe"
                                  },
                                  "cursorScale" : {
                                    "type" : "double",
                                    "defaultValue" : 0.0,
                                    "interp" : "linr"
                                  },
                                  "cursorOpacity" : {
                                    "type" : "double",
                                    "defaultValue" : 0.0,
                                    "interp" : "linr"
                                  }
                                },
                                "effects" : [

                                ],
                                "start" : 166,
                                "duration" : 1967,
                                "mediaStart" : 203,
                                "mediaDuration" : 1967,
                                "scalar" : 1,
                                "animationTracks" : {

                                }
                              },
                          "audio" : 
                              {
                                "id" : 48,
                                "_type" : "AMFile",
                                "src" : 2,
                                "trackNumber" : 3,
                                "attributes" : {
                                  "ident" : "",
                                  "gain" : 1.0,
                                  "mixToMono" : false
                                },
                                  "channelNumber" : "0,1",
                                "effects" : [

                                ],
                                "start" : 166,
                                "duration" : 1967,
                                "mediaStart" : 203,
                                "mediaDuration" : 1967,
                                "scalar" : 1,
                                "animationTracks" : {

                                }
                              }
,
                          "start" : 166,
                          "duration" : 1967,
                          "mediaStart" : 0,
                          "mediaDuration" : 2170,
                          "scalar" : 1,
                          "metadata" : {
                            "AutoAppliedSmartFocus" : "False",
                            "clipSpeedAttribute" : false
                          }
                        }
                    ],
                    "effects" : [

                    ],
                    "start" : 808,
                    "duration" : 30,
                    "mediaStart" : 1037,
                    "mediaDuration" : 30,
                    "scalar" : 1,
                    "metadata" : {
                      "AutoAppliedSmartFocus" : "False",
                      "clipSpeedAttribute" : false
                    },
                    "animationTracks" : {

                    }
                  },
                  {
                    "id" : 49,
                    "_type" : "StitchedMedia",
                    "minMediaStart" : 0,
                    "attributes" : {
                      "ident" : "Grabación 26-12-{AA}_004",
                      "gain" : 1.0,
                      "mixToMono" : false
                    },
                    "parameters" : {
                      "sourceCrop0" : 0.0,
                      "sourceCrop1" : 0.0,
                      "sourceCrop2" : 0.0,
                      "sourceCrop3" : 0.0,
                      "geometryCrop0" : 0.0,
                      "geometryCrop1" : 0.0,
                      "geometryCrop2" : 0.0,
                      "geometryCrop3" : 0.0,
                      "volume" : 1.0,
                      "cursorOpacity" : 1.0,
                      "cursorScale" : 1.0
                    },
                    "medias" : [
                        {
                          "id" : 50,
                          "_type" : "UnifiedMedia",
                          "video" : 
                              {
                                "id" : 51,
                                "_type" : "ScreenVMFile",
                                "src" : 2,
                                "trackNumber" : 0,
                                "attributes" : {
                                  "ident" : "Grabación 26-12-{AA}_004"
                                },
                                "parameters" : {
                                  "sourceCrop0" : {
                                    "type" : "double",
                                    "defaultValue" : 0.0,
                                    "interp" : "eioe"
                                  },
                                  "sourceCrop1" : {
                                    "type" : "double",
                                    "defaultValue" : 0.0,
                                    "interp" : "eioe"
                                  },
                                  "sourceCrop2" : {
                                    "type" : "double",
                                    "defaultValue" : 0.0,
                                    "interp" : "eioe"
                                  },
                                  "sourceCrop3" : {
                                    "type" : "double",
                                    "defaultValue" : 0.0,
                                    "interp" : "eioe"
                                  },
                                  "geometryCrop0" : {
                                    "type" : "double",
                                    "defaultValue" : 0.0,
                                    "interp" : "eioe"
                                  },
                                  "geometryCrop1" : {
                                    "type" : "double",
                                    "defaultValue" : 0.0,
                                    "interp" : "eioe"
                                  },
                                  "geometryCrop2" : {
                                    "type" : "double",
                                    "defaultValue" : 0.0,
                                    "interp" : "eioe"
                                  },
                                  "geometryCrop3" : {
                                    "type" : "double",
                                    "defaultValue" : 0.0,
                                    "interp" : "eioe"
                                  },
                                  "cursorScale" : {
                                    "type" : "double",
                                    "defaultValue" : 0.0,
                                    "interp" : "linr"
                                  },
                                  "cursorOpacity" : {
                                    "type" : "double",
                                    "defaultValue" : 0.0,
                                    "interp" : "linr"
                                  }
                                },
                                "effects" : [

                                ],
                                "start" : 0,
                                "duration" : 166,
                                "mediaStart" : 0,
                                "mediaDuration" : 166,
                                "scalar" : 1,
                                "animationTracks" : {

                                }
                              },
                          "audio" : 
                              {
                                "id" : 52,
                                "_type" : "AMFile",
                                "src" : 2,
                                "trackNumber" : 3,
                                "attributes" : {
                                  "ident" : "",
                                  "gain" : 1.0,
                                  "mixToMono" : false
                                },
                                  "channelNumber" : "0,1",
                                "effects" : [

                                ],
                                "start" : 0,
                                "duration" : 166,
                                "mediaStart" : 0,
                                "mediaDuration" : 166,
                                "scalar" : 1,
                                "animationTracks" : {

                                }
                              }
,
                          "start" : 0,
                          "duration" : 166,
                          "mediaStart" : 0,
                          "mediaDuration" : 2170,
                          "scalar" : 1,
                          "metadata" : {
                            "AutoAppliedSmartFocus" : "False",
                            "clipSpeedAttribute" : false
                          }
                        },
                        {
                          "id" : 53,
                          "_type" : "UnifiedMedia",
                          "video" : 
                              {
                                "id" : 54,
                                "_type" : "ScreenVMFile",
                                "src" : 2,
                                "trackNumber" : 0,
                                "attributes" : {
                                  "ident" : "Grabación 26-12-{AA}_004"
                                },
                                "parameters" : {
                                  "sourceCrop0" : {
                                    "type" : "double",
                                    "defaultValue" : 0.0,
                                    "interp" : "eioe"
                                  },
                                  "sourceCrop1" : {
                                    "type" : "double",
                                    "defaultValue" : 0.0,
                                    "interp" : "eioe"
                                  },
                                  "sourceCrop2" : {
                                    "type" : "double",
                                    "defaultValue" : 0.0,
                                    "interp" : "eioe"
                                  },
                                  "sourceCrop3" : {
                                    "type" : "double",
                                    "defaultValue" : 0.0,
                                    "interp" : "eioe"
                                  },
                                  "geometryCrop0" : {
                                    "type" : "double",
                                    "defaultValue" : 0.0,
                                    "interp" : "eioe"
                                  },
                                  "geometryCrop1" : {
                                    "type" : "double",
                                    "defaultValue" : 0.0,
                                    "interp" : "eioe"
                                  },
                                  "geometryCrop2" : {
                                    "type" : "double",
                                    "defaultValue" : 0.0,
                                    "interp" : "eioe"
                                  },
                                  "geometryCrop3" : {
                                    "type" : "double",
                                    "defaultValue" : 0.0,
                                    "interp" : "eioe"
                                  },
                                  "cursorScale" : {
                                    "type" : "double",
                                    "defaultValue" : 0.0,
                                    "interp" : "linr"
                                  },
                                  "cursorOpacity" : {
                                    "type" : "double",
                                    "defaultValue" : 0.0,
                                    "interp" : "linr"
                                  }
                                },
                                "effects" : [

                                ],
                                "start" : 166,
                                "duration" : 1967,
                                "mediaStart" : 203,
                                "mediaDuration" : 1967,
                                "scalar" : 1,
                                "animationTracks" : {

                                }
                              },
                          "audio" : 
                              {
                                "id" : 55,
                                "_type" : "AMFile",
                                "src" : 2,
                                "trackNumber" : 3,
                                "attributes" : {
                                  "ident" : "",
                                  "gain" : 1.0,
                                  "mixToMono" : false
                                },
                                  "channelNumber" : "0,1",
                                "effects" : [

                                ],
                                "start" : 166,
                                "duration" : 1967,
                                "mediaStart" : 203,
                                "mediaDuration" : 1967,
                                "scalar" : 1,
                                "animationTracks" : {

                                }
                              }
,
                          "start" : 166,
                          "duration" : 1967,
                          "mediaStart" : 0,
                          "mediaDuration" : 2170,
                          "scalar" : 1,
                          "metadata" : {
                            "AutoAppliedSmartFocus" : "False",
                            "clipSpeedAttribute" : false
                          }
                        }
                    ],
                    "effects" : [

                    ],
                    "start" : 838,
                    "duration" : 28,
                    "mediaStart" : 1091,
                    "mediaDuration" : 28,
                    "scalar" : 1,
                    "metadata" : {
                      "AutoAppliedSmartFocus" : "False",
                      "clipSpeedAttribute" : false
                    },
                    "animationTracks" : {

                    }
                  },
                  {
                    "id" : 56,
                    "_type" : "StitchedMedia",
                    "minMediaStart" : 0,
                    "attributes" : {
                      "ident" : "Grabación 26-12-{AA}_004",
                      "gain" : 1.0,
                      "mixToMono" : false
                    },
                    "parameters" : {
                      "sourceCrop0" : 0.0,
                      "sourceCrop1" : 0.0,
                      "sourceCrop2" : 0.0,
                      "sourceCrop3" : 0.0,
                      "geometryCrop0" : 0.0,
                      "geometryCrop1" : 0.0,
                      "geometryCrop2" : 0.0,
                      "geometryCrop3" : 0.0,
                      "volume" : 1.0,
                      "cursorOpacity" : 1.0,
                      "cursorScale" : 1.0
                    },
                    "medias" : [
                        {
                          "id" : 57,
                          "_type" : "UnifiedMedia",
                          "video" : 
                              {
                                "id" : 58,
                                "_type" : "ScreenVMFile",
                                "src" : 2,
                                "trackNumber" : 0,
                                "attributes" : {
                                  "ident" : "Grabación 26-12-{AA}_004"
                                },
                                "parameters" : {
                                  "sourceCrop0" : {
                                    "type" : "double",
                                    "defaultValue" : 0.0,
                                    "interp" : "eioe"
                                  },
                                  "sourceCrop1" : {
                                    "type" : "double",
                                    "defaultValue" : 0.0,
                                    "interp" : "eioe"
                                  },
                                  "sourceCrop2" : {
                                    "type" : "double",
                                    "defaultValue" : 0.0,
                                    "interp" : "eioe"
                                  },
                                  "sourceCrop3" : {
                                    "type" : "double",
                                    "defaultValue" : 0.0,
                                    "interp" : "eioe"
                                  },
                                  "geometryCrop0" : {
                                    "type" : "double",
                                    "defaultValue" : 0.0,
                                    "interp" : "eioe"
                                  },
                                  "geometryCrop1" : {
                                    "type" : "double",
                                    "defaultValue" : 0.0,
                                    "interp" : "eioe"
                                  },
                                  "geometryCrop2" : {
                                    "type" : "double",
                                    "defaultValue" : 0.0,
                                    "interp" : "eioe"
                                  },
                                  "geometryCrop3" : {
                                    "type" : "double",
                                    "defaultValue" : 0.0,
                                    "interp" : "eioe"
                                  },
                                  "cursorScale" : {
                                    "type" : "double",
                                    "defaultValue" : 0.0,
                                    "interp" : "linr"
                                  },
                                  "cursorOpacity" : {
                                    "type" : "double",
                                    "defaultValue" : 0.0,
                                    "interp" : "linr"
                                  }
                                },
                                "effects" : [

                                ],
                                "start" : 0,
                                "duration" : 166,
                                "mediaStart" : 0,
                                "mediaDuration" : 166,
                                "scalar" : 1,
                                "animationTracks" : {

                                }
                              },
                          "audio" : 
                              {
                                "id" : 59,
                                "_type" : "AMFile",
                                "src" : 2,
                                "trackNumber" : 3,
                                "attributes" : {
                                  "ident" : "",
                                  "gain" : 1.0,
                                  "mixToMono" : false
                                },
                                  "channelNumber" : "0,1",
                                "effects" : [

                                ],
                                "start" : 0,
                                "duration" : 166,
                                "mediaStart" : 0,
                                "mediaDuration" : 166,
                                "scalar" : 1,
                                "animationTracks" : {

                                }
                              }
,
                          "start" : 0,
                          "duration" : 166,
                          "mediaStart" : 0,
                          "mediaDuration" : 2170,
                          "scalar" : 1,
                          "metadata" : {
                            "AutoAppliedSmartFocus" : "False",
                            "clipSpeedAttribute" : false
                          }
                        },
                        {
                          "id" : 60,
                          "_type" : "UnifiedMedia",
                          "video" : 
                              {
                                "id" : 61,
                                "_type" : "ScreenVMFile",
                                "src" : 2,
                                "trackNumber" : 0,
                                "attributes" : {
                                  "ident" : "Grabación 26-12-{AA}_004"
                                },
                                "parameters" : {
                                  "sourceCrop0" : {
                                    "type" : "double",
                                    "defaultValue" : 0.0,
                                    "interp" : "eioe"
                                  },
                                  "sourceCrop1" : {
                                    "type" : "double",
                                    "defaultValue" : 0.0,
                                    "interp" : "eioe"
                                  },
                                  "sourceCrop2" : {
                                    "type" : "double",
                                    "defaultValue" : 0.0,
                                    "interp" : "eioe"
                                  },
                                  "sourceCrop3" : {
                                    "type" : "double",
                                    "defaultValue" : 0.0,
                                    "interp" : "eioe"
                                  },
                                  "geometryCrop0" : {
                                    "type" : "double",
                                    "defaultValue" : 0.0,
                                    "interp" : "eioe"
                                  },
                                  "geometryCrop1" : {
                                    "type" : "double",
                                    "defaultValue" : 0.0,
                                    "interp" : "eioe"
                                  },
                                  "geometryCrop2" : {
                                    "type" : "double",
                                    "defaultValue" : 0.0,
                                    "interp" : "eioe"
                                  },
                                  "geometryCrop3" : {
                                    "type" : "double",
                                    "defaultValue" : 0.0,
                                    "interp" : "eioe"
                                  },
                                  "cursorScale" : {
                                    "type" : "double",
                                    "defaultValue" : 0.0,
                                    "interp" : "linr"
                                  },
                                  "cursorOpacity" : {
                                    "type" : "double",
                                    "defaultValue" : 0.0,
                                    "interp" : "linr"
                                  }
                                },
                                "effects" : [

                                ],
                                "start" : 166,
                                "duration" : 1967,
                                "mediaStart" : 203,
                                "mediaDuration" : 1967,
                                "scalar" : 1,
                                "animationTracks" : {

                                }
                              },
                          "audio" : 
                              {
                                "id" : 62,
                                "_type" : "AMFile",
                                "src" : 2,
                                "trackNumber" : 3,
                                "attributes" : {
                                  "ident" : "",
                                  "gain" : 1.0,
                                  "mixToMono" : false
                                },
                                  "channelNumber" : "0,1",
                                "effects" : [

                                ],
                                "start" : 166,
                                "duration" : 1967,
                                "mediaStart" : 203,
                                "mediaDuration" : 1967,
                                "scalar" : 1,
                                "animationTracks" : {

                                }
                              }
,
                          "start" : 166,
                          "duration" : 1967,
                          "mediaStart" : 0,
                          "mediaDuration" : 2170,
                          "scalar" : 1,
                          "metadata" : {
                            "AutoAppliedSmartFocus" : "False",
                            "clipSpeedAttribute" : false
                          }
                        }
                    ],
                    "effects" : [

                    ],
                    "start" : 866,
                    "duration" : 91,
                    "mediaStart" : 1167,
                    "mediaDuration" : 91,
                    "scalar" : 1,
                    "metadata" : {
                      "AutoAppliedSmartFocus" : "False",
                      "clipSpeedAttribute" : false
                    },
                    "animationTracks" : {

                    }
                  },
                  {
                    "id" : 63,
                    "_type" : "UnifiedMedia",
                    "video" : 
                        {
                          "id" : 64,
                          "_type" : "ScreenVMFile",
                          "src" : 5,
                          "trackNumber" : 0,
                          "attributes" : {
                            "ident" : "Grabación 26-12-{AA}_013"
                          },
                          "parameters" : {
                            "sourceCrop0" : {
                              "type" : "double",
                              "defaultValue" : 0.0,
                              "interp" : "eioe"
                            },
                            "sourceCrop1" : {
                              "type" : "double",
                              "defaultValue" : 0.0,
                              "interp" : "eioe"
                            },
                            "sourceCrop2" : {
                              "type" : "double",
                              "defaultValue" : 0.0,
                              "interp" : "eioe"
                            },
                            "sourceCrop3" : {
                              "type" : "double",
                              "defaultValue" : 0.0,
                              "interp" : "eioe"
                            },
                            "geometryCrop0" : {
                              "type" : "double",
                              "defaultValue" : 0.0,
                              "interp" : "eioe"
                            },
                            "geometryCrop1" : {
                              "type" : "double",
                              "defaultValue" : 0.0,
                              "interp" : "eioe"
                            },
                            "geometryCrop2" : {
                              "type" : "double",
                              "defaultValue" : 0.0,
                              "interp" : "eioe"
                            },
                            "geometryCrop3" : {
                              "type" : "double",
                              "defaultValue" : 0.0,
                              "interp" : "eioe"
                            },
                            "opacity" : {
                              "type" : "double",
                              "defaultValue" : 0.8,
                              "interp" : "linr"
                            },
                            "cursorScale" : {
                              "type" : "double",
                              "defaultValue" : 1.0,
                              "interp" : "linr"
                            },
                            "cursorOpacity" : {
                              "type" : "double",
                              "defaultValue" : 1.0,
                              "interp" : "linr"
                            }
                          },
                          "effects" : [

                          ],
                          "start" : 3376,
                          "duration" : 151,
                          "mediaStart" : 15,
                          "mediaDuration" : 151,
                          "scalar" : 1,
                          "animationTracks" : {

                          }
                        },
                    "audio" : 
                        {
                          "id" : 65,
                          "_type" : "AMFile",
                          "src" : 5,
                          "trackNumber" : 3,
                          "attributes" : {
                            "ident" : "",
                            "gain" : 1.0,
                            "mixToMono" : false
                          },
                            "channelNumber" : "0,1",
                          "effects" : [

                          ],
                          "start" : 3376,
                          "duration" : 151,
                          "mediaStart" : 15,
                          "mediaDuration" : 151,
                          "scalar" : 1,
                          "animationTracks" : {

                          }
                        }
,
                    "start" : 3376,
                    "duration" : 151,
                    "mediaStart" : 0,
                    "mediaDuration" : 974,
                    "scalar" : 1,
                    "metadata" : {
                      "AutoAppliedSmartFocus" : "False",
                      "clipSpeedAttribute" : false,
                      "default-height" : 1080.0,
                      "default-opacity" : 1.0,
                      "default-width" : 1920.0
                    }
                  },
                  {
                    "id" : 66,
                    "_type" : "UnifiedMedia",
                    "video" : 
                        {
                          "id" : 67,
                          "_type" : "ScreenVMFile",
                          "src" : 5,
                          "trackNumber" : 0,
                          "attributes" : {
                            "ident" : "Grabación 26-12-{AA}_013"
                          },
                          "parameters" : {
                            "sourceCrop0" : {
                              "type" : "double",
                              "defaultValue" : 0.0,
                              "interp" : "eioe"
                            },
                            "sourceCrop1" : {
                              "type" : "double",
                              "defaultValue" : 0.0,
                              "interp" : "eioe"
                            },
                            "sourceCrop2" : {
                              "type" : "double",
                              "defaultValue" : 0.0,
                              "interp" : "eioe"
                            },
                            "sourceCrop3" : {
                              "type" : "double",
                              "defaultValue" : 0.0,
                              "interp" : "eioe"
                            },
                            "geometryCrop0" : {
                              "type" : "double",
                              "defaultValue" : 0.0,
                              "interp" : "eioe"
                            },
                            "geometryCrop1" : {
                              "type" : "double",
                              "defaultValue" : 0.0,
                              "interp" : "eioe"
                            },
                            "geometryCrop2" : {
                              "type" : "double",
                              "defaultValue" : 0.0,
                              "interp" : "eioe"
                            },
                            "geometryCrop3" : {
                              "type" : "double",
                              "defaultValue" : 0.0,
                              "interp" : "eioe"
                            },
                            "opacity" : {
                              "type" : "double",
                              "defaultValue" : 0.8,
                              "interp" : "linr"
                            },
                            "cursorScale" : {
                              "type" : "double",
                              "defaultValue" : 1.0,
                              "interp" : "linr"
                            },
                            "cursorOpacity" : {
                              "type" : "double",
                              "defaultValue" : 1.0,
                              "interp" : "linr"
                            }
                          },
                          "effects" : [

                          ],
                          "start" : 3527,
                          "duration" : 28,
                          "mediaStart" : 177,
                          "mediaDuration" : 28,
                          "scalar" : 1,
                          "animationTracks" : {

                          }
                        },
                    "audio" : 
                        {
                          "id" : 68,
                          "_type" : "AMFile",
                          "src" : 5,
                          "trackNumber" : 3,
                          "attributes" : {
                            "ident" : "",
                            "gain" : 1.0,
                            "mixToMono" : false
                          },
                            "channelNumber" : "0,1",
                          "effects" : [

                          ],
                          "start" : 3527,
                          "duration" : 28,
                          "mediaStart" : 177,
                          "mediaDuration" : 28,
                          "scalar" : 1,
                          "animationTracks" : {

                          }
                        }
,
                    "start" : 3527,
                    "duration" : 28,
                    "mediaStart" : 0,
                    "mediaDuration" : 974,
                    "scalar" : 1,
                    "metadata" : {
                      "AutoAppliedSmartFocus" : "False",
                      "clipSpeedAttribute" : false,
                      "default-height" : 1080.0,
                      "default-opacity" : 1.0,
                      "default-width" : 1920.0
                    }
                  },
                  {
                    "id" : 69,
                    "_type" : "UnifiedMedia",
                    "video" : 
                        {
                          "id" : 70,
                          "_type" : "ScreenVMFile",
                          "src" : 5,
                          "trackNumber" : 0,
                          "attributes" : {
                            "ident" : "Grabación 26-12-{AA}_013"
                          },
                          "parameters" : {
                            "sourceCrop0" : {
                              "type" : "double",
                              "defaultValue" : 0.0,
                              "interp" : "eioe"
                            },
                            "sourceCrop1" : {
                              "type" : "double",
                              "defaultValue" : 0.0,
                              "interp" : "eioe"
                            },
                            "sourceCrop2" : {
                              "type" : "double",
                              "defaultValue" : 0.0,
                              "interp" : "eioe"
                            },
                            "sourceCrop3" : {
                              "type" : "double",
                              "defaultValue" : 0.0,
                              "interp" : "eioe"
                            },
                            "geometryCrop0" : {
                              "type" : "double",
                              "defaultValue" : 0.0,
                              "interp" : "eioe"
                            },
                            "geometryCrop1" : {
                              "type" : "double",
                              "defaultValue" : 0.0,
                              "interp" : "eioe"
                            },
                            "geometryCrop2" : {
                              "type" : "double",
                              "defaultValue" : 0.0,
                              "interp" : "eioe"
                            },
                            "geometryCrop3" : {
                              "type" : "double",
                              "defaultValue" : 0.0,
                              "interp" : "eioe"
                            },
                            "opacity" : {
                              "type" : "double",
                              "defaultValue" : 0.8,
                              "interp" : "linr"
                            },
                            "cursorScale" : {
                              "type" : "double",
                              "defaultValue" : 1.0,
                              "interp" : "linr"
                            },
                            "cursorOpacity" : {
                              "type" : "double",
                              "defaultValue" : 1.0,
                              "interp" : "linr"
                            }
                          },
                          "effects" : [

                          ],
                          "start" : 3555,
                          "duration" : 47,
                          "mediaStart" : 355,
                          "mediaDuration" : 47,
                          "scalar" : 1,
                          "animationTracks" : {

                          }
                        },
                    "audio" : 
                        {
                          "id" : 71,
                          "_type" : "AMFile",
                          "src" : 5,
                          "trackNumber" : 3,
                          "attributes" : {
                            "ident" : "",
                            "gain" : 1.0,
                            "mixToMono" : false
                          },
                            "channelNumber" : "0,1",
                          "effects" : [

                          ],
                          "start" : 3555,
                          "duration" : 47,
                          "mediaStart" : 355,
                          "mediaDuration" : 47,
                          "scalar" : 1,
                          "animationTracks" : {

                          }
                        }
,
                    "start" : 3555,
                    "duration" : 47,
                    "mediaStart" : 0,
                    "mediaDuration" : 974,
                    "scalar" : 1,
                    "metadata" : {
                      "AutoAppliedSmartFocus" : "False",
                      "clipSpeedAttribute" : false,
                      "default-height" : 1080.0,
                      "default-opacity" : 1.0,
                      "default-width" : 1920.0
                    }
                  },
                  {
                    "id" : 72,
                    "_type" : "UnifiedMedia",
                    "video" : 
                        {
                          "id" : 73,
                          "_type" : "ScreenVMFile",
                          "src" : 5,
                          "trackNumber" : 0,
                          "attributes" : {
                            "ident" : "Grabación 26-12-{AA}_013"
                          },
                          "parameters" : {
                            "sourceCrop0" : {
                              "type" : "double",
                              "defaultValue" : 0.0,
                              "interp" : "eioe"
                            },
                            "sourceCrop1" : {
                              "type" : "double",
                              "defaultValue" : 0.0,
                              "interp" : "eioe"
                            },
                            "sourceCrop2" : {
                              "type" : "double",
                              "defaultValue" : 0.0,
                              "interp" : "eioe"
                            },
                            "sourceCrop3" : {
                              "type" : "double",
                              "defaultValue" : 0.0,
                              "interp" : "eioe"
                            },
                            "geometryCrop0" : {
                              "type" : "double",
                              "defaultValue" : 0.0,
                              "interp" : "eioe"
                            },
                            "geometryCrop1" : {
                              "type" : "double",
                              "defaultValue" : 0.0,
                              "interp" : "eioe"
                            },
                            "geometryCrop2" : {
                              "type" : "double",
                              "defaultValue" : 0.0,
                              "interp" : "eioe"
                            },
                            "geometryCrop3" : {
                              "type" : "double",
                              "defaultValue" : 0.0,
                              "interp" : "eioe"
                            },
                            "opacity" : {
                              "type" : "double",
                              "defaultValue" : 0.8,
                              "interp" : "linr"
                            },
                            "cursorScale" : {
                              "type" : "double",
                              "defaultValue" : 1.0,
                              "interp" : "linr"
                            },
                            "cursorOpacity" : {
                              "type" : "double",
                              "defaultValue" : 1.0,
                              "interp" : "linr"
                            }
                          },
                          "effects" : [

                          ],
                          "start" : 3602,
                          "duration" : 60,
                          "mediaStart" : 423,
                          "mediaDuration" : 60,
                          "scalar" : 1,
                          "animationTracks" : {

                          }
                        },
                    "audio" : 
                        {
                          "id" : 74,
                          "_type" : "AMFile",
                          "src" : 5,
                          "trackNumber" : 3,
                          "attributes" : {
                            "ident" : "",
                            "gain" : 1.0,
                            "mixToMono" : false
                          },
                            "channelNumber" : "0,1",
                          "effects" : [

                          ],
                          "start" : 3602,
                          "duration" : 60,
                          "mediaStart" : 423,
                          "mediaDuration" : 60,
                          "scalar" : 1,
                          "animationTracks" : {

                          }
                        }
,
                    "start" : 3602,
                    "duration" : 60,
                    "mediaStart" : 0,
                    "mediaDuration" : 974,
                    "scalar" : 1,
                    "metadata" : {
                      "AutoAppliedSmartFocus" : "False",
                      "clipSpeedAttribute" : false,
                      "default-height" : 1080.0,
                      "default-opacity" : 1.0,
                      "default-width" : 1920.0
                    }
                  },
                  {
                    "id" : 75,
                    "_type" : "UnifiedMedia",
                    "video" : 
                        {
                          "id" : 76,
                          "_type" : "ScreenVMFile",
                          "src" : 5,
                          "trackNumber" : 0,
                          "attributes" : {
                            "ident" : "Grabación 26-12-{AA}_013"
                          },
                          "parameters" : {
                            "sourceCrop0" : {
                              "type" : "double",
                              "defaultValue" : 0.0,
                              "interp" : "eioe"
                            },
                            "sourceCrop1" : {
                              "type" : "double",
                              "defaultValue" : 0.0,
                              "interp" : "eioe"
                            },
                            "sourceCrop2" : {
                              "type" : "double",
                              "defaultValue" : 0.0,
                              "interp" : "eioe"
                            },
                            "sourceCrop3" : {
                              "type" : "double",
                              "defaultValue" : 0.0,
                              "interp" : "eioe"
                            },
                            "geometryCrop0" : {
                              "type" : "double",
                              "defaultValue" : 0.0,
                              "interp" : "eioe"
                            },
                            "geometryCrop1" : {
                              "type" : "double",
                              "defaultValue" : 0.0,
                              "interp" : "eioe"
                            },
                            "geometryCrop2" : {
                              "type" : "double",
                              "defaultValue" : 0.0,
                              "interp" : "eioe"
                            },
                            "geometryCrop3" : {
                              "type" : "double",
                              "defaultValue" : 0.0,
                              "interp" : "eioe"
                            },
                            "opacity" : {
                              "type" : "double",
                              "defaultValue" : 0.8,
                              "interp" : "linr"
                            },
                            "cursorScale" : {
                              "type" : "double",
                              "defaultValue" : 1.0,
                              "interp" : "linr"
                            },
                            "cursorOpacity" : {
                              "type" : "double",
                              "defaultValue" : 1.0,
                              "interp" : "linr"
                            }
                          },
                          "effects" : [

                          ],
                          "start" : 3662,
                          "duration" : 20,
                          "mediaStart" : 492,
                          "mediaDuration" : 20,
                          "scalar" : 1,
                          "animationTracks" : {

                          }
                        },
                    "audio" : 
                        {
                          "id" : 77,
                          "_type" : "AMFile",
                          "src" : 5,
                          "trackNumber" : 3,
                          "attributes" : {
                            "ident" : "",
                            "gain" : 1.0,
                            "mixToMono" : false
                          },
                            "channelNumber" : "0,1",
                          "effects" : [

                          ],
                          "start" : 3662,
                          "duration" : 20,
                          "mediaStart" : 492,
                          "mediaDuration" : 20,
                          "scalar" : 1,
                          "animationTracks" : {

                          }
                        }
,
                    "start" : 3662,
                    "duration" : 20,
                    "mediaStart" : 0,
                    "mediaDuration" : 974,
                    "scalar" : 1,
                    "metadata" : {
                      "AutoAppliedSmartFocus" : "False",
                      "clipSpeedAttribute" : false,
                      "default-height" : 1080.0,
                      "default-opacity" : 1.0,
                      "default-width" : 1920.0
                    }
                  },
                  {
                    "id" : 78,
                    "_type" : "UnifiedMedia",
                    "video" : 
                        {
                          "id" : 79,
                          "_type" : "ScreenVMFile",
                          "src" : 5,
                          "trackNumber" : 0,
                          "attributes" : {
                            "ident" : "Grabación 26-12-{AA}_013"
                          },
                          "parameters" : {
                            "sourceCrop0" : {
                              "type" : "double",
                              "defaultValue" : 0.0,
                              "interp" : "eioe"
                            },
                            "sourceCrop1" : {
                              "type" : "double",
                              "defaultValue" : 0.0,
                              "interp" : "eioe"
                            },
                            "sourceCrop2" : {
                              "type" : "double",
                              "defaultValue" : 0.0,
                              "interp" : "eioe"
                            },
                            "sourceCrop3" : {
                              "type" : "double",
                              "defaultValue" : 0.0,
                              "interp" : "eioe"
                            },
                            "geometryCrop0" : {
                              "type" : "double",
                              "defaultValue" : 0.0,
                              "interp" : "eioe"
                            },
                            "geometryCrop1" : {
                              "type" : "double",
                              "defaultValue" : 0.0,
                              "interp" : "eioe"
                            },
                            "geometryCrop2" : {
                              "type" : "double",
                              "defaultValue" : 0.0,
                              "interp" : "eioe"
                            },
                            "geometryCrop3" : {
                              "type" : "double",
                              "defaultValue" : 0.0,
                              "interp" : "eioe"
                            },
                            "opacity" : {
                              "type" : "double",
                              "defaultValue" : 0.8,
                              "interp" : "linr"
                            },
                            "cursorScale" : {
                              "type" : "double",
                              "defaultValue" : 1.0,
                              "interp" : "linr"
                            },
                            "cursorOpacity" : {
                              "type" : "double",
                              "defaultValue" : 1.0,
                              "interp" : "linr"
                            }
                          },
                          "effects" : [

                          ],
                          "start" : 3682,
                          "duration" : 42,
                          "mediaStart" : 520,
                          "mediaDuration" : 42,
                          "scalar" : 1,
                          "animationTracks" : {

                          }
                        },
                    "audio" : 
                        {
                          "id" : 80,
                          "_type" : "AMFile",
                          "src" : 5,
                          "trackNumber" : 3,
                          "attributes" : {
                            "ident" : "",
                            "gain" : 1.0,
                            "mixToMono" : false
                          },
                            "channelNumber" : "0,1",
                          "effects" : [

                          ],
                          "start" : 3682,
                          "duration" : 42,
                          "mediaStart" : 520,
                          "mediaDuration" : 42,
                          "scalar" : 1,
                          "animationTracks" : {

                          }
                        }
,
                    "start" : 3682,
                    "duration" : 42,
                    "mediaStart" : 0,
                    "mediaDuration" : 974,
                    "scalar" : 1,
                    "metadata" : {
                      "AutoAppliedSmartFocus" : "False",
                      "clipSpeedAttribute" : false,
                      "default-height" : 1080.0,
                      "default-opacity" : 1.0,
                      "default-width" : 1920.0
                    }
                  },
                  {
                    "id" : 81,
                    "_type" : "UnifiedMedia",
                    "video" : 
                        {
                          "id" : 82,
                          "_type" : "ScreenVMFile",
                          "src" : 5,
                          "trackNumber" : 0,
                          "attributes" : {
                            "ident" : "Grabación 26-12-{AA}_013"
                          },
                          "parameters" : {
                            "sourceCrop0" : {
                              "type" : "double",
                              "defaultValue" : 0.0,
                              "interp" : "eioe"
                            },
                            "sourceCrop1" : {
                              "type" : "double",
                              "defaultValue" : 0.0,
                              "interp" : "eioe"
                            },
                            "sourceCrop2" : {
                              "type" : "double",
                              "defaultValue" : 0.0,
                              "interp" : "eioe"
                            },
                            "sourceCrop3" : {
                              "type" : "double",
                              "defaultValue" : 0.0,
                              "interp" : "eioe"
                            },
                            "geometryCrop0" : {
                              "type" : "double",
                              "defaultValue" : 0.0,
                              "interp" : "eioe"
                            },
                            "geometryCrop1" : {
                              "type" : "double",
                              "defaultValue" : 0.0,
                              "interp" : "eioe"
                            },
                            "geometryCrop2" : {
                              "type" : "double",
                              "defaultValue" : 0.0,
                              "interp" : "eioe"
                            },
                            "geometryCrop3" : {
                              "type" : "double",
                              "defaultValue" : 0.0,
                              "interp" : "eioe"
                            },
                            "opacity" : {
                              "type" : "double",
                              "defaultValue" : 0.8,
                              "interp" : "linr"
                            },
                            "cursorScale" : {
                              "type" : "double",
                              "defaultValue" : 1.0,
                              "interp" : "linr"
                            },
                            "cursorOpacity" : {
                              "type" : "double",
                              "defaultValue" : 1.0,
                              "interp" : "linr"
                            }
                          },
                          "effects" : [

                          ],
                          "start" : 3724,
                          "duration" : 135,
                          "mediaStart" : 568,
                          "mediaDuration" : 135,
                          "scalar" : 1,
                          "animationTracks" : {

                          }
                        },
                    "audio" : 
                        {
                          "id" : 83,
                          "_type" : "AMFile",
                          "src" : 5,
                          "trackNumber" : 3,
                          "attributes" : {
                            "ident" : "",
                            "gain" : 1.0,
                            "mixToMono" : false
                          },
                            "channelNumber" : "0,1",
                          "effects" : [

                          ],
                          "start" : 3724,
                          "duration" : 135,
                          "mediaStart" : 568,
                          "mediaDuration" : 135,
                          "scalar" : 1,
                          "animationTracks" : {

                          }
                        }
,
                    "start" : 3724,
                    "duration" : 135,
                    "mediaStart" : 0,
                    "mediaDuration" : 974,
                    "scalar" : 1,
                    "metadata" : {
                      "AutoAppliedSmartFocus" : "False",
                      "clipSpeedAttribute" : false,
                      "default-height" : 1080.0,
                      "default-opacity" : 1.0,
                      "default-width" : 1920.0
                    }
                  },
                  {
                    "id" : 84,
                    "_type" : "UnifiedMedia",
                    "video" : 
                        {
                          "id" : 85,
                          "_type" : "ScreenVMFile",
                          "src" : 5,
                          "trackNumber" : 0,
                          "attributes" : {
                            "ident" : "Grabación 26-12-{AA}_013"
                          },
                          "parameters" : {
                            "sourceCrop0" : {
                              "type" : "double",
                              "defaultValue" : 0.0,
                              "interp" : "eioe"
                            },
                            "sourceCrop1" : {
                              "type" : "double",
                              "defaultValue" : 0.0,
                              "interp" : "eioe"
                            },
                            "sourceCrop2" : {
                              "type" : "double",
                              "defaultValue" : 0.0,
                              "interp" : "eioe"
                            },
                            "sourceCrop3" : {
                              "type" : "double",
                              "defaultValue" : 0.0,
                              "interp" : "eioe"
                            },
                            "geometryCrop0" : {
                              "type" : "double",
                              "defaultValue" : 0.0,
                              "interp" : "eioe"
                            },
                            "geometryCrop1" : {
                              "type" : "double",
                              "defaultValue" : 0.0,
                              "interp" : "eioe"
                            },
                            "geometryCrop2" : {
                              "type" : "double",
                              "defaultValue" : 0.0,
                              "interp" : "eioe"
                            },
                            "geometryCrop3" : {
                              "type" : "double",
                              "defaultValue" : 0.0,
                              "interp" : "eioe"
                            },
                            "opacity" : {
                              "type" : "double",
                              "defaultValue" : 0.8,
                              "interp" : "linr"
                            },
                            "cursorScale" : {
                              "type" : "double",
                              "defaultValue" : 1.0,
                              "interp" : "linr"
                            },
                            "cursorOpacity" : {
                              "type" : "double",
                              "defaultValue" : 1.0,
                              "interp" : "linr"
                            }
                          },
                          "effects" : [

                          ],
                          "start" : 3859,
                          "duration" : 36,
                          "mediaStart" : 727,
                          "mediaDuration" : 36,
                          "scalar" : 1,
                          "animationTracks" : {

                          }
                        },
                    "audio" : 
                        {
                          "id" : 86,
                          "_type" : "AMFile",
                          "src" : 5,
                          "trackNumber" : 3,
                          "attributes" : {
                            "ident" : "",
                            "gain" : 1.0,
                            "mixToMono" : false
                          },
                            "channelNumber" : "0,1",
                          "effects" : [

                          ],
                          "start" : 3859,
                          "duration" : 36,
                          "mediaStart" : 727,
                          "mediaDuration" : 36,
                          "scalar" : 1,
                          "animationTracks" : {

                          }
                        }
,
                    "start" : 3859,
                    "duration" : 36,
                    "mediaStart" : 0,
                    "mediaDuration" : 974,
                    "scalar" : 1,
                    "metadata" : {
                      "AutoAppliedSmartFocus" : "False",
                      "clipSpeedAttribute" : false,
                      "default-height" : 1080.0,
                      "default-opacity" : 1.0,
                      "default-width" : 1920.0
                    }
                  },
                  {
                    "id" : 87,
                    "_type" : "UnifiedMedia",
                    "video" : 
                        {
                          "id" : 88,
                          "_type" : "ScreenVMFile",
                          "src" : 5,
                          "trackNumber" : 0,
                          "attributes" : {
                            "ident" : "Grabación 26-12-{AA}_013"
                          },
                          "parameters" : {
                            "sourceCrop0" : {
                              "type" : "double",
                              "defaultValue" : 0.0,
                              "interp" : "eioe"
                            },
                            "sourceCrop1" : {
                              "type" : "double",
                              "defaultValue" : 0.0,
                              "interp" : "eioe"
                            },
                            "sourceCrop2" : {
                              "type" : "double",
                              "defaultValue" : 0.0,
                              "interp" : "eioe"
                            },
                            "sourceCrop3" : {
                              "type" : "double",
                              "defaultValue" : 0.0,
                              "interp" : "eioe"
                            },
                            "geometryCrop0" : {
                              "type" : "double",
                              "defaultValue" : 0.0,
                              "interp" : "eioe"
                            },
                            "geometryCrop1" : {
                              "type" : "double",
                              "defaultValue" : 0.0,
                              "interp" : "eioe"
                            },
                            "geometryCrop2" : {
                              "type" : "double",
                              "defaultValue" : 0.0,
                              "interp" : "eioe"
                            },
                            "geometryCrop3" : {
                              "type" : "double",
                              "defaultValue" : 0.0,
                              "interp" : "eioe"
                            },
                            "opacity" : {
                              "type" : "double",
                              "defaultValue" : 0.8,
                              "interp" : "linr"
                            },
                            "cursorScale" : {
                              "type" : "double",
                              "defaultValue" : 1.0,
                              "interp" : "linr"
                            },
                            "cursorOpacity" : {
                              "type" : "double",
                              "defaultValue" : 1.0,
                              "interp" : "linr"
                            }
                          },
                          "effects" : [

                          ],
                          "start" : 3895,
                          "duration" : 90,
                          "mediaStart" : 771,
                          "mediaDuration" : 90,
                          "scalar" : 1,
                          "animationTracks" : {

                          }
                        },
                    "audio" : 
                        {
                          "id" : 89,
                          "_type" : "AMFile",
                          "src" : 5,
                          "trackNumber" : 3,
                          "attributes" : {
                            "ident" : "",
                            "gain" : 1.0,
                            "mixToMono" : false
                          },
                            "channelNumber" : "0,1",
                          "effects" : [

                          ],
                          "start" : 3895,
                          "duration" : 90,
                          "mediaStart" : 771,
                          "mediaDuration" : 90,
                          "scalar" : 1,
                          "animationTracks" : {

                          }
                        }
,
                    "start" : 3895,
                    "duration" : 90,
                    "mediaStart" : 0,
                    "mediaDuration" : 974,
                    "scalar" : 1,
                    "metadata" : {
                      "AutoAppliedSmartFocus" : "False",
                      "clipSpeedAttribute" : false,
                      "default-height" : 1080.0,
                      "default-opacity" : 1.0,
                      "default-width" : 1920.0
                    }
                  },
                  {
                    "id" : 90,
                    "_type" : "UnifiedMedia",
                    "video" : 
                        {
                          "id" : 91,
                          "_type" : "ScreenVMFile",
                          "src" : 5,
                          "trackNumber" : 0,
                          "attributes" : {
                            "ident" : "Grabación 26-12-{AA}_013"
                          },
                          "parameters" : {
                            "sourceCrop0" : {
                              "type" : "double",
                              "defaultValue" : 0.0,
                              "interp" : "eioe"
                            },
                            "sourceCrop1" : {
                              "type" : "double",
                              "defaultValue" : 0.0,
                              "interp" : "eioe"
                            },
                            "sourceCrop2" : {
                              "type" : "double",
                              "defaultValue" : 0.0,
                              "interp" : "eioe"
                            },
                            "sourceCrop3" : {
                              "type" : "double",
                              "defaultValue" : 0.0,
                              "interp" : "eioe"
                            },
                            "geometryCrop0" : {
                              "type" : "double",
                              "defaultValue" : 0.0,
                              "interp" : "eioe"
                            },
                            "geometryCrop1" : {
                              "type" : "double",
                              "defaultValue" : 0.0,
                              "interp" : "eioe"
                            },
                            "geometryCrop2" : {
                              "type" : "double",
                              "defaultValue" : 0.0,
                              "interp" : "eioe"
                            },
                            "geometryCrop3" : {
                              "type" : "double",
                              "defaultValue" : 0.0,
                              "interp" : "eioe"
                            },
                            "opacity" : {
                              "type" : "double",
                              "defaultValue" : 0.8,
                              "interp" : "linr"
                            },
                            "cursorScale" : {
                              "type" : "double",
                              "defaultValue" : 1.0,
                              "interp" : "linr"
                            },
                            "cursorOpacity" : {
                              "type" : "double",
                              "defaultValue" : 1.0,
                              "interp" : "linr"
                            }
                          },
                          "effects" : [

                          ],
                          "start" : 3985,
                          "duration" : 59,
                          "mediaStart" : 881,
                          "mediaDuration" : 59,
                          "scalar" : 1,
                          "animationTracks" : {

                          }
                        },
                    "audio" : 
                        {
                          "id" : 92,
                          "_type" : "AMFile",
                          "src" : 5,
                          "trackNumber" : 3,
                          "attributes" : {
                            "ident" : "",
                            "gain" : 1.0,
                            "mixToMono" : false
                          },
                            "channelNumber" : "0,1",
                          "effects" : [

                          ],
                          "start" : 3985,
                          "duration" : 59,
                          "mediaStart" : 881,
                          "mediaDuration" : 59,
                          "scalar" : 1,
                          "animationTracks" : {

                          }
                        }
,
                    "start" : 3985,
                    "duration" : 59,
                    "mediaStart" : 0,
                    "mediaDuration" : 974,
                    "scalar" : 1,
                    "metadata" : {
                      "AutoAppliedSmartFocus" : "False",
                      "clipSpeedAttribute" : false,
                      "default-height" : 1080.0,
                      "default-opacity" : 1.0,
                      "default-width" : 1920.0
                    }
                  }
                ]
              },
              {
                "trackIndex" : 1,
                "medias" : [
                  {
                    "id" : 93,
                    "_type" : "UnifiedMedia",
                    "video" : 
                        {
                          "id" : 94,
                          "_type" : "VMFile",
                          "src" : 2,
                          "trackNumber" : 1,
                          "attributes" : {
                            "ident" : "Grabación 26-12-{AA}_004"
                          },
                          "parameters" : {
                            "translation0" : 880.0,
                            "translation1" : -480.0,
                            "scale0" : 0.25,
                            "scale1" : 0.25,
                            "sourceCrop0" : 0.0,
                            "sourceCrop1" : 0.0,
                            "sourceCrop2" : 0.0,
                            "sourceCrop3" : 0.0,
                            "geometryCrop0" : 0.0,
                            "geometryCrop1" : 0.0,
                            "geometryCrop2" : 0.0,
                            "geometryCrop3" : 0.0
                          },
                          "effects" : [

                          ],
                          "start" : 0,
                          "duration" : 166,
                          "mediaStart" : 0,
                          "mediaDuration" : 166,
                          "scalar" : 1,
                          "animationTracks" : {

                          }
                        },
                    "audio" : 
                        {
                          "id" : 95,
                          "_type" : "AMFile",
                          "src" : 2,
                          "trackNumber" : 2,
                          "attributes" : {
                            "ident" : "",
                            "gain" : 1.0,
                            "mixToMono" : false
                          },
                            "channelNumber" : "0,1",
                          "effects" : [

                          ],
                          "start" : 0,
                          "duration" : 166,
                          "mediaStart" : 0,
                          "mediaDuration" : 166,
                          "scalar" : 1,
                          "animationTracks" : {

                          }
                        }
,
                    "start" : 0,
                    "duration" : 166,
                    "mediaStart" : 0,
                    "mediaDuration" : 2184,
                    "scalar" : 1,
                    "metadata" : {
                      "clipSpeedAttribute" : false
                    }
                  },
                  {
                    "id" : 96,
                    "_type" : "UnifiedMedia",
                    "video" : 
                        {
                          "id" : 97,
                          "_type" : "VMFile",
                          "src" : 2,
                          "trackNumber" : 1,
                          "attributes" : {
                            "ident" : "Grabación 26-12-{AA}_004"
                          },
                          "parameters" : {
                            "translation0" : 880.0,
                            "translation1" : -480.0,
                            "scale0" : 0.25,
                            "scale1" : 0.25,
                            "sourceCrop0" : 0.0,
                            "sourceCrop1" : 0.0,
                            "sourceCrop2" : 0.0,
                            "sourceCrop3" : 0.0,
                            "geometryCrop0" : 0.0,
                            "geometryCrop1" : 0.0,
                            "geometryCrop2" : 0.0,
                            "geometryCrop3" : 0.0
                          },
                          "effects" : [

                          ],
                          "start" : 166,
                          "duration" : 182,
                          "mediaStart" : 254,
                          "mediaDuration" : 182,
                          "scalar" : 1,
                          "animationTracks" : {

                          }
                        },
                    "audio" : 
                        {
                          "id" : 98,
                          "_type" : "AMFile",
                          "src" : 2,
                          "trackNumber" : 2,
                          "attributes" : {
                            "ident" : "",
                            "gain" : 1.0,
                            "mixToMono" : false
                          },
                            "channelNumber" : "0,1",
                          "effects" : [

                          ],
                          "start" : 166,
                          "duration" : 182,
                          "mediaStart" : 254,
                          "mediaDuration" : 182,
                          "scalar" : 1,
                          "animationTracks" : {

                          }
                        }
,
                    "start" : 166,
                    "duration" : 182,
                    "mediaStart" : 0,
                    "mediaDuration" : 2184,
                    "scalar" : 1,
                    "metadata" : {
                      "clipSpeedAttribute" : false
                    }
                  },
                  {
                    "id" : 99,
                    "_type" : "UnifiedMedia",
                    "video" : 
                        {
                          "id" : 100,
                          "_type" : "VMFile",
                          "src" : 2,
                          "trackNumber" : 1,
                          "attributes" : {
                            "ident" : "Grabación 26-12-{AA}_004"
                          },
                          "parameters" : {
                            "translation0" : 880.0,
                            "translation1" : -480.0,
                            "scale0" : 0.25,
                            "scale1" : 0.25,
                            "sourceCrop0" : 0.0,
                            "sourceCrop1" : 0.0,
                            "sourceCrop2" : 0.0,
                            "sourceCrop3" : 0.0,
                            "geometryCrop0" : 0.0,
                            "geometryCrop1" : 0.0,
                            "geometryCrop2" : 0.0,
                            "geometryCrop3" : 0.0
                          },
                          "effects" : [

                          ],
                          "start" : 348,
                          "duration" : 24,
                          "mediaStart" : 443,
                          "mediaDuration" : 24,
                          "scalar" : 1,
                          "animationTracks" : {

                          }
                        },
                    "audio" : 
                        {
                          "id" : 101,
                          "_type" : "AMFile",
                          "src" : 2,
                          "trackNumber" : 2,
                          "attributes" : {
                            "ident" : "",
                            "gain" : 1.0,
                            "mixToMono" : false
                          },
                            "channelNumber" : "0,1",
                          "effects" : [

                          ],
                          "start" : 348,
                          "duration" : 24,
                          "mediaStart" : 443,
                          "mediaDuration" : 24,
                          "scalar" : 1,
                          "animationTracks" : {

                          }
                        }
,
                    "start" : 348,
                    "duration" : 24,
                    "mediaStart" : 0,
                    "mediaDuration" : 2184,
                    "scalar" : 1,
                    "metadata" : {
                      "clipSpeedAttribute" : false
                    }
                  },
                  {
                    "id" : 102,
                    "_type" : "UnifiedMedia",
                    "video" : 
                        {
                          "id" : 103,
                          "_type" : "VMFile",
                          "src" : 2,
                          "trackNumber" : 1,
                          "attributes" : {
                            "ident" : "Grabación 26-12-{AA}_004"
                          },
                          "parameters" : {
                            "translation0" : 880.0,
                            "translation1" : -480.0,
                            "scale0" : 0.25,
                            "scale1" : 0.25,
                            "sourceCrop0" : 0.0,
                            "sourceCrop1" : 0.0,
                            "sourceCrop2" : 0.0,
                            "sourceCrop3" : 0.0,
                            "geometryCrop0" : 0.0,
                            "geometryCrop1" : 0.0,
                            "geometryCrop2" : 0.0,
                            "geometryCrop3" : 0.0
                          },
                          "effects" : [

                          ],
                          "start" : 372,
                          "duration" : 20,
                          "mediaStart" : 474,
                          "mediaDuration" : 20,
                          "scalar" : 1,
                          "animationTracks" : {

                          }
                        },
                    "audio" : 
                        {
                          "id" : 104,
                          "_type" : "AMFile",
                          "src" : 2,
                          "trackNumber" : 2,
                          "attributes" : {
                            "ident" : "",
                            "gain" : 1.0,
                            "mixToMono" : false
                          },
                            "channelNumber" : "0,1",
                          "effects" : [

                          ],
                          "start" : 372,
                          "duration" : 20,
                          "mediaStart" : 474,
                          "mediaDuration" : 20,
                          "scalar" : 1,
                          "animationTracks" : {

                          }
                        }
,
                    "start" : 372,
                    "duration" : 20,
                    "mediaStart" : 0,
                    "mediaDuration" : 2184,
                    "scalar" : 1,
                    "metadata" : {
                      "clipSpeedAttribute" : false
                    }
                  },
                  {
                    "id" : 105,
                    "_type" : "UnifiedMedia",
                    "video" : 
                        {
                          "id" : 106,
                          "_type" : "VMFile",
                          "src" : 2,
                          "trackNumber" : 1,
                          "attributes" : {
                            "ident" : "Grabación 26-12-{AA}_004"
                          },
                          "parameters" : {
                            "translation0" : 880.0,
                            "translation1" : -480.0,
                            "scale0" : 0.25,
                            "scale1" : 0.25,
                            "sourceCrop0" : 0.0,
                            "sourceCrop1" : 0.0,
                            "sourceCrop2" : 0.0,
                            "sourceCrop3" : 0.0,
                            "geometryCrop0" : 0.0,
                            "geometryCrop1" : 0.0,
                            "geometryCrop2" : 0.0,
                            "geometryCrop3" : 0.0
                          },
                          "effects" : [

                          ],
                          "start" : 392,
                          "duration" : 81,
                          "mediaStart" : 517,
                          "mediaDuration" : 81,
                          "scalar" : 1,
                          "animationTracks" : {

                          }
                        },
                    "audio" : 
                        {
                          "id" : 107,
                          "_type" : "AMFile",
                          "src" : 2,
                          "trackNumber" : 2,
                          "attributes" : {
                            "ident" : "",
                            "gain" : 1.0,
                            "mixToMono" : false
                          },
                            "channelNumber" : "0,1",
                          "effects" : [

                          ],
                          "start" : 392,
                          "duration" : 81,
                          "mediaStart" : 517,
                          "mediaDuration" : 81,
                          "scalar" : 1,
                          "animationTracks" : {

                          }
                        }
,
                    "start" : 392,
                    "duration" : 81,
                    "mediaStart" : 0,
                    "mediaDuration" : 2184,
                    "scalar" : 1,
                    "metadata" : {
                      "clipSpeedAttribute" : false
                    }
                  },
                  {
                    "id" : 108,
                    "_type" : "UnifiedMedia",
                    "video" : 
                        {
                          "id" : 109,
                          "_type" : "VMFile",
                          "src" : 2,
                          "trackNumber" : 1,
                          "attributes" : {
                            "ident" : "Grabación 26-12-{AA}_004"
                          },
                          "parameters" : {
                            "translation0" : 880.0,
                            "translation1" : -480.0,
                            "scale0" : 0.25,
                            "scale1" : 0.25,
                            "sourceCrop0" : 0.0,
                            "sourceCrop1" : 0.0,
                            "sourceCrop2" : 0.0,
                            "sourceCrop3" : 0.0,
                            "geometryCrop0" : 0.0,
                            "geometryCrop1" : 0.0,
                            "geometryCrop2" : 0.0,
                            "geometryCrop3" : 0.0
                          },
                          "effects" : [

                          ],
                          "start" : 473,
                          "duration" : 153,
                          "mediaStart" : 654,
                          "mediaDuration" : 153,
                          "scalar" : 1,
                          "animationTracks" : {

                          }
                        },
                    "audio" : 
                        {
                          "id" : 110,
                          "_type" : "AMFile",
                          "src" : 2,
                          "trackNumber" : 2,
                          "attributes" : {
                            "ident" : "",
                            "gain" : 1.0,
                            "mixToMono" : false
                          },
                            "channelNumber" : "0,1",
                          "effects" : [

                          ],
                          "start" : 473,
                          "duration" : 153,
                          "mediaStart" : 654,
                          "mediaDuration" : 153,
                          "scalar" : 1,
                          "animationTracks" : {

                          }
                        }
,
                    "start" : 473,
                    "duration" : 153,
                    "mediaStart" : 0,
                    "mediaDuration" : 2184,
                    "scalar" : 1,
                    "metadata" : {
                      "clipSpeedAttribute" : false
                    }
                  },
                  {
                    "id" : 111,
                    "_type" : "UnifiedMedia",
                    "video" : 
                        {
                          "id" : 112,
                          "_type" : "VMFile",
                          "src" : 2,
                          "trackNumber" : 1,
                          "attributes" : {
                            "ident" : "Grabación 26-12-{AA}_004"
                          },
                          "parameters" : {
                            "translation0" : 880.0,
                            "translation1" : -480.0,
                            "scale0" : 0.25,
                            "scale1" : 0.25,
                            "sourceCrop0" : 0.0,
                            "sourceCrop1" : 0.0,
                            "sourceCrop2" : 0.0,
                            "sourceCrop3" : 0.0,
                            "geometryCrop0" : 0.0,
                            "geometryCrop1" : 0.0,
                            "geometryCrop2" : 0.0,
                            "geometryCrop3" : 0.0
                          },
                          "effects" : [

                          ],
                          "start" : 626,
                          "duration" : 51,
                          "mediaStart" : 825,
                          "mediaDuration" : 51,
                          "scalar" : 1,
                          "animationTracks" : {

                          }
                        },
                    "audio" : 
                        {
                          "id" : 113,
                          "_type" : "AMFile",
                          "src" : 2,
                          "trackNumber" : 2,
                          "attributes" : {
                            "ident" : "",
                            "gain" : 1.0,
                            "mixToMono" : false
                          },
                            "channelNumber" : "0,1",
                          "effects" : [

                          ],
                          "start" : 626,
                          "duration" : 51,
                          "mediaStart" : 825,
                          "mediaDuration" : 51,
                          "scalar" : 1,
                          "animationTracks" : {

                          }
                        }
,
                    "start" : 626,
                    "duration" : 51,
                    "mediaStart" : 0,
                    "mediaDuration" : 2184,
                    "scalar" : 1,
                    "metadata" : {
                      "clipSpeedAttribute" : false
                    }
                  },
                  {
                    "id" : 114,
                    "_type" : "UnifiedMedia",
                    "video" : 
                        {
                          "id" : 115,
                          "_type" : "VMFile",
                          "src" : 2,
                          "trackNumber" : 1,
                          "attributes" : {
                            "ident" : "Grabación 26-12-{AA}_004"
                          },
                          "parameters" : {
                            "translation0" : 880.0,
                            "translation1" : -480.0,
                            "scale0" : 0.25,
                            "scale1" : 0.25,
                            "sourceCrop0" : 0.0,
                            "sourceCrop1" : 0.0,
                            "sourceCrop2" : 0.0,
                            "sourceCrop3" : 0.0,
                            "geometryCrop0" : 0.0,
                            "geometryCrop1" : 0.0,
                            "geometryCrop2" : 0.0,
                            "geometryCrop3" : 0.0
                          },
                          "effects" : [

                          ],
                          "start" : 677,
                          "duration" : 36,
                          "mediaStart" : 882,
                          "mediaDuration" : 36,
                          "scalar" : 1,
                          "animationTracks" : {

                          }
                        },
                    "audio" : 
                        {
                          "id" : 116,
                          "_type" : "AMFile",
                          "src" : 2,
                          "trackNumber" : 2,
                          "attributes" : {
                            "ident" : "",
                            "gain" : 1.0,
                            "mixToMono" : false
                          },
                            "channelNumber" : "0,1",
                          "effects" : [

                          ],
                          "start" : 677,
                          "duration" : 36,
                          "mediaStart" : 882,
                          "mediaDuration" : 36,
                          "scalar" : 1,
                          "animationTracks" : {

                          }
                        }
,
                    "start" : 677,
                    "duration" : 36,
                    "mediaStart" : 0,
                    "mediaDuration" : 2184,
                    "scalar" : 1,
                    "metadata" : {
                      "clipSpeedAttribute" : false
                    }
                  },
                  {
                    "id" : 117,
                    "_type" : "UnifiedMedia",
                    "video" : 
                        {
                          "id" : 118,
                          "_type" : "VMFile",
                          "src" : 2,
                          "trackNumber" : 1,
                          "attributes" : {
                            "ident" : "Grabación 26-12-{AA}_004"
                          },
                          "parameters" : {
                            "translation0" : 880.0,
                            "translation1" : -480.0,
                            "scale0" : 0.25,
                            "scale1" : 0.25,
                            "sourceCrop0" : 0.0,
                            "sourceCrop1" : 0.0,
                            "sourceCrop2" : 0.0,
                            "sourceCrop3" : 0.0,
                            "geometryCrop0" : 0.0,
                            "geometryCrop1" : 0.0,
                            "geometryCrop2" : 0.0,
                            "geometryCrop3" : 0.0
                          },
                          "effects" : [

                          ],
                          "start" : 713,
                          "duration" : 69,
                          "mediaStart" : 927,
                          "mediaDuration" : 69,
                          "scalar" : 1,
                          "animationTracks" : {

                          }
                        },
                    "audio" : 
                        {
                          "id" : 119,
                          "_type" : "AMFile",
                          "src" : 2,
                          "trackNumber" : 2,
                          "attributes" : {
                            "ident" : "",
                            "gain" : 1.0,
                            "mixToMono" : false
                          },
                            "channelNumber" : "0,1",
                          "effects" : [

                          ],
                          "start" : 713,
                          "duration" : 69,
                          "mediaStart" : 927,
                          "mediaDuration" : 69,
                          "scalar" : 1,
                          "animationTracks" : {

                          }
                        }
,
                    "start" : 713,
                    "duration" : 69,
                    "mediaStart" : 0,
                    "mediaDuration" : 2184,
                    "scalar" : 1,
                    "metadata" : {
                      "clipSpeedAttribute" : false
                    }
                  },
                  {
                    "id" : 120,
                    "_type" : "UnifiedMedia",
                    "video" : 
                        {
                          "id" : 121,
                          "_type" : "VMFile",
                          "src" : 2,
                          "trackNumber" : 1,
                          "attributes" : {
                            "ident" : "Grabación 26-12-{AA}_004"
                          },
                          "parameters" : {
                            "translation0" : 880.0,
                            "translation1" : -480.0,
                            "scale0" : 0.25,
                            "scale1" : 0.25,
                            "sourceCrop0" : 0.0,
                            "sourceCrop1" : 0.0,
                            "sourceCrop2" : 0.0,
                            "sourceCrop3" : 0.0,
                            "geometryCrop0" : 0.0,
                            "geometryCrop1" : 0.0,
                            "geometryCrop2" : 0.0,
                            "geometryCrop3" : 0.0
                          },
                          "effects" : [

                          ],
                          "start" : 782,
                          "duration" : 26,
                          "mediaStart" : 1007,
                          "mediaDuration" : 26,
                          "scalar" : 1,
                          "animationTracks" : {

                          }
                        },
                    "audio" : 
                        {
                          "id" : 122,
                          "_type" : "AMFile",
                          "src" : 2,
                          "trackNumber" : 2,
                          "attributes" : {
                            "ident" : "",
                            "gain" : 1.0,
                            "mixToMono" : false
                          },
                            "channelNumber" : "0,1",
                          "effects" : [

                          ],
                          "start" : 782,
                          "duration" : 26,
                          "mediaStart" : 1007,
                          "mediaDuration" : 26,
                          "scalar" : 1,
                          "animationTracks" : {

                          }
                        }
,
                    "start" : 782,
                    "duration" : 26,
                    "mediaStart" : 0,
                    "mediaDuration" : 2184,
                    "scalar" : 1,
                    "metadata" : {
                      "clipSpeedAttribute" : false
                    }
                  },
                  {
                    "id" : 123,
                    "_type" : "StitchedMedia",
                    "minMediaStart" : 0,
                    "attributes" : {
                      "ident" : "Grabación 26-12-{AA}_004",
                      "gain" : 1.0,
                      "mixToMono" : false
                    },
                    "parameters" : {
                      "translation0" : 880.0,
                      "translation1" : -480.0,
                      "scale0" : 0.25,
                      "scale1" : 0.25,
                      "sourceCrop0" : 0.0,
                      "sourceCrop1" : 0.0,
                      "sourceCrop2" : 0.0,
                      "sourceCrop3" : 0.0,
                      "geometryCrop0" : 0.0,
                      "geometryCrop1" : 0.0,
                      "geometryCrop2" : 0.0,
                      "geometryCrop3" : 0.0,
                      "volume" : 1.0,
                      "cursorOpacity" : 1.0,
                      "cursorScale" : 1.0
                    },
                    "medias" : [
                        {
                          "id" : 124,
                          "_type" : "UnifiedMedia",
                          "video" : 
                              {
                                "id" : 125,
                                "_type" : "VMFile",
                                "src" : 2,
                                "trackNumber" : 1,
                                "attributes" : {
                                  "ident" : "Grabación 26-12-{AA}_004"
                                },
                                "parameters" : {
                                  "sourceCrop0" : 0.0,
                                  "sourceCrop1" : 0.0,
                                  "sourceCrop2" : 0.0,
                                  "sourceCrop3" : 0.0,
                                  "geometryCrop0" : 0.0,
                                  "geometryCrop1" : 0.0,
                                  "geometryCrop2" : 0.0,
                                  "geometryCrop3" : 0.0
                                },
                                "effects" : [

                                ],
                                "start" : 0,
                                "duration" : 166,
                                "mediaStart" : 0,
                                "mediaDuration" : 166,
                                "scalar" : 1,
                                "animationTracks" : {

                                }
                              },
                          "audio" : 
                              {
                                "id" : 126,
                                "_type" : "AMFile",
                                "src" : 2,
                                "trackNumber" : 2,
                                "attributes" : {
                                  "ident" : "",
                                  "gain" : 1.0,
                                  "mixToMono" : false
                                },
                                  "channelNumber" : "0,1",
                                "effects" : [

                                ],
                                "start" : 0,
                                "duration" : 166,
                                "mediaStart" : 0,
                                "mediaDuration" : 166,
                                "scalar" : 1,
                                "animationTracks" : {

                                }
                              }
,
                          "start" : 0,
                          "duration" : 166,
                          "mediaStart" : 0,
                          "mediaDuration" : 2184,
                          "scalar" : 1,
                          "metadata" : {
                            "clipSpeedAttribute" : false
                          }
                        },
                        {
                          "id" : 127,
                          "_type" : "UnifiedMedia",
                          "video" : 
                              {
                                "id" : 128,
                                "_type" : "VMFile",
                                "src" : 2,
                                "trackNumber" : 1,
                                "attributes" : {
                                  "ident" : "Grabación 26-12-{AA}_004"
                                },
                                "parameters" : {
                                  "sourceCrop0" : 0.0,
                                  "sourceCrop1" : 0.0,
                                  "sourceCrop2" : 0.0,
                                  "sourceCrop3" : 0.0,
                                  "geometryCrop0" : 0.0,
                                  "geometryCrop1" : 0.0,
                                  "geometryCrop2" : 0.0,
                                  "geometryCrop3" : 0.0
                                },
                                "effects" : [

                                ],
                                "start" : 166,
                                "duration" : 1981,
                                "mediaStart" : 203,
                                "mediaDuration" : 1981,
                                "scalar" : 1,
                                "animationTracks" : {

                                }
                              },
                          "audio" : 
                              {
                                "id" : 129,
                                "_type" : "AMFile",
                                "src" : 2,
                                "trackNumber" : 2,
                                "attributes" : {
                                  "ident" : "",
                                  "gain" : 1.0,
                                  "mixToMono" : false
                                },
                                  "channelNumber" : "0,1",
                                "effects" : [

                                ],
                                "start" : 166,
                                "duration" : 1981,
                                "mediaStart" : 203,
                                "mediaDuration" : 1981,
                                "scalar" : 1,
                                "animationTracks" : {

                                }
                              }
,
                          "start" : 166,
                          "duration" : 1981,
                          "mediaStart" : 0,
                          "mediaDuration" : 2184,
                          "scalar" : 1,
                          "metadata" : {
                            "clipSpeedAttribute" : false
                          }
                        }
                    ],
                    "effects" : [

                    ],
                    "start" : 808,
                    "duration" : 30,
                    "mediaStart" : 1035,
                    "mediaDuration" : 30,
                    "scalar" : 1,
                    "metadata" : {
                      "clipSpeedAttribute" : false
                    },
                    "animationTracks" : {

                    }
                  },
                  {
                    "id" : 130,
                    "_type" : "StitchedMedia",
                    "minMediaStart" : 0,
                    "attributes" : {
                      "ident" : "Grabación 26-12-{AA}_004",
                      "gain" : 1.0,
                      "mixToMono" : false
                    },
                    "parameters" : {
                      "translation0" : 880.0,
                      "translation1" : -480.0,
                      "scale0" : 0.25,
                      "scale1" : 0.25,
                      "sourceCrop0" : 0.0,
                      "sourceCrop1" : 0.0,
                      "sourceCrop2" : 0.0,
                      "sourceCrop3" : 0.0,
                      "geometryCrop0" : 0.0,
                      "geometryCrop1" : 0.0,
                      "geometryCrop2" : 0.0,
                      "geometryCrop3" : 0.0,
                      "volume" : 1.0,
                      "cursorOpacity" : 1.0,
                      "cursorScale" : 1.0
                    },
                    "medias" : [
                        {
                          "id" : 131,
                          "_type" : "UnifiedMedia",
                          "video" : 
                              {
                                "id" : 132,
                                "_type" : "VMFile",
                                "src" : 2,
                                "trackNumber" : 1,
                                "attributes" : {
                                  "ident" : "Grabación 26-12-{AA}_004"
                                },
                                "parameters" : {
                                  "sourceCrop0" : 0.0,
                                  "sourceCrop1" : 0.0,
                                  "sourceCrop2" : 0.0,
                                  "sourceCrop3" : 0.0,
                                  "geometryCrop0" : 0.0,
                                  "geometryCrop1" : 0.0,
                                  "geometryCrop2" : 0.0,
                                  "geometryCrop3" : 0.0
                                },
                                "effects" : [

                                ],
                                "start" : 0,
                                "duration" : 166,
                                "mediaStart" : 0,
                                "mediaDuration" : 166,
                                "scalar" : 1,
                                "animationTracks" : {

                                }
                              },
                          "audio" : 
                              {
                                "id" : 133,
                                "_type" : "AMFile",
                                "src" : 2,
                                "trackNumber" : 2,
                                "attributes" : {
                                  "ident" : "",
                                  "gain" : 1.0,
                                  "mixToMono" : false
                                },
                                  "channelNumber" : "0,1",
                                "effects" : [

                                ],
                                "start" : 0,
                                "duration" : 166,
                                "mediaStart" : 0,
                                "mediaDuration" : 166,
                                "scalar" : 1,
                                "animationTracks" : {

                                }
                              }
,
                          "start" : 0,
                          "duration" : 166,
                          "mediaStart" : 0,
                          "mediaDuration" : 2184,
                          "scalar" : 1,
                          "metadata" : {
                            "clipSpeedAttribute" : false
                          }
                        },
                        {
                          "id" : 134,
                          "_type" : "UnifiedMedia",
                          "video" : 
                              {
                                "id" : 135,
                                "_type" : "VMFile",
                                "src" : 2,
                                "trackNumber" : 1,
                                "attributes" : {
                                  "ident" : "Grabación 26-12-{AA}_004"
                                },
                                "parameters" : {
                                  "sourceCrop0" : 0.0,
                                  "sourceCrop1" : 0.0,
                                  "sourceCrop2" : 0.0,
                                  "sourceCrop3" : 0.0,
                                  "geometryCrop0" : 0.0,
                                  "geometryCrop1" : 0.0,
                                  "geometryCrop2" : 0.0,
                                  "geometryCrop3" : 0.0
                                },
                                "effects" : [

                                ],
                                "start" : 166,
                                "duration" : 1981,
                                "mediaStart" : 203,
                                "mediaDuration" : 1981,
                                "scalar" : 1,
                                "animationTracks" : {

                                }
                              },
                          "audio" : 
                              {
                                "id" : 136,
                                "_type" : "AMFile",
                                "src" : 2,
                                "trackNumber" : 2,
                                "attributes" : {
                                  "ident" : "",
                                  "gain" : 1.0,
                                  "mixToMono" : false
                                },
                                  "channelNumber" : "0,1",
                                "effects" : [

                                ],
                                "start" : 166,
                                "duration" : 1981,
                                "mediaStart" : 203,
                                "mediaDuration" : 1981,
                                "scalar" : 1,
                                "animationTracks" : {

                                }
                              }
,
                          "start" : 166,
                          "duration" : 1981,
                          "mediaStart" : 0,
                          "mediaDuration" : 2184,
                          "scalar" : 1,
                          "metadata" : {
                            "clipSpeedAttribute" : false
                          }
                        }
                    ],
                    "effects" : [

                    ],
                    "start" : 838,
                    "duration" : 28,
                    "mediaStart" : 1089,
                    "mediaDuration" : 28,
                    "scalar" : 1,
                    "metadata" : {
                      "clipSpeedAttribute" : false
                    },
                    "animationTracks" : {

                    }
                  },
                  {
                    "id" : 137,
                    "_type" : "StitchedMedia",
                    "minMediaStart" : 0,
                    "attributes" : {
                      "ident" : "Grabación 26-12-{AA}_004",
                      "gain" : 1.0,
                      "mixToMono" : false
                    },
                    "parameters" : {
                      "translation0" : 880.0,
                      "translation1" : -480.0,
                      "scale0" : 0.25,
                      "scale1" : 0.25,
                      "sourceCrop0" : 0.0,
                      "sourceCrop1" : 0.0,
                      "sourceCrop2" : 0.0,
                      "sourceCrop3" : 0.0,
                      "geometryCrop0" : 0.0,
                      "geometryCrop1" : 0.0,
                      "geometryCrop2" : 0.0,
                      "geometryCrop3" : 0.0,
                      "volume" : 1.0,
                      "cursorOpacity" : 1.0,
                      "cursorScale" : 1.0
                    },
                    "medias" : [
                        {
                          "id" : 138,
                          "_type" : "UnifiedMedia",
                          "video" : 
                              {
                                "id" : 139,
                                "_type" : "VMFile",
                                "src" : 2,
                                "trackNumber" : 1,
                                "attributes" : {
                                  "ident" : "Grabación 26-12-{AA}_004"
                                },
                                "parameters" : {
                                  "sourceCrop0" : 0.0,
                                  "sourceCrop1" : 0.0,
                                  "sourceCrop2" : 0.0,
                                  "sourceCrop3" : 0.0,
                                  "geometryCrop0" : 0.0,
                                  "geometryCrop1" : 0.0,
                                  "geometryCrop2" : 0.0,
                                  "geometryCrop3" : 0.0
                                },
                                "effects" : [

                                ],
                                "start" : 0,
                                "duration" : 166,
                                "mediaStart" : 0,
                                "mediaDuration" : 166,
                                "scalar" : 1,
                                "animationTracks" : {

                                }
                              },
                          "audio" : 
                              {
                                "id" : 140,
                                "_type" : "AMFile",
                                "src" : 2,
                                "trackNumber" : 2,
                                "attributes" : {
                                  "ident" : "",
                                  "gain" : 1.0,
                                  "mixToMono" : false
                                },
                                  "channelNumber" : "0,1",
                                "effects" : [

                                ],
                                "start" : 0,
                                "duration" : 166,
                                "mediaStart" : 0,
                                "mediaDuration" : 166,
                                "scalar" : 1,
                                "animationTracks" : {

                                }
                              }
,
                          "start" : 0,
                          "duration" : 166,
                          "mediaStart" : 0,
                          "mediaDuration" : 2184,
                          "scalar" : 1,
                          "metadata" : {
                            "clipSpeedAttribute" : false
                          }
                        },
                        {
                          "id" : 141,
                          "_type" : "UnifiedMedia",
                          "video" : 
                              {
                                "id" : 142,
                                "_type" : "VMFile",
                                "src" : 2,
                                "trackNumber" : 1,
                                "attributes" : {
                                  "ident" : "Grabación 26-12-{AA}_004"
                                },
                                "parameters" : {
                                  "sourceCrop0" : 0.0,
                                  "sourceCrop1" : 0.0,
                                  "sourceCrop2" : 0.0,
                                  "sourceCrop3" : 0.0,
                                  "geometryCrop0" : 0.0,
                                  "geometryCrop1" : 0.0,
                                  "geometryCrop2" : 0.0,
                                  "geometryCrop3" : 0.0
                                },
                                "effects" : [

                                ],
                                "start" : 166,
                                "duration" : 1981,
                                "mediaStart" : 203,
                                "mediaDuration" : 1981,
                                "scalar" : 1,
                                "animationTracks" : {

                                }
                              },
                          "audio" : 
                              {
                                "id" : 143,
                                "_type" : "AMFile",
                                "src" : 2,
                                "trackNumber" : 2,
                                "attributes" : {
                                  "ident" : "",
                                  "gain" : 1.0,
                                  "mixToMono" : false
                                },
                                  "channelNumber" : "0,1",
                                "effects" : [

                                ],
                                "start" : 166,
                                "duration" : 1981,
                                "mediaStart" : 203,
                                "mediaDuration" : 1981,
                                "scalar" : 1,
                                "animationTracks" : {

                                }
                              }
,
                          "start" : 166,
                          "duration" : 1981,
                          "mediaStart" : 0,
                          "mediaDuration" : 2184,
                          "scalar" : 1,
                          "metadata" : {
                            "clipSpeedAttribute" : false
                          }
                        }
                    ],
                    "effects" : [

                    ],
                    "start" : 866,
                    "duration" : 91,
                    "mediaStart" : 1165,
                    "mediaDuration" : 91,
                    "scalar" : 1,
                    "metadata" : {
                      "clipSpeedAttribute" : false
                    },
                    "animationTracks" : {

                    }
                  },
                  {
                    "id" : 144,
                    "_type" : "UnifiedMedia",
                    "video" : 
                        {
                          "id" : 145,
                          "_type" : "ScreenVMFile",
                          "src" : 4,
                          "trackNumber" : 0,
                          "attributes" : {
                            "ident" : "Grabación 26-12-{AA}_008"
                          },
                          "parameters" : {
                            "sourceCrop0" : {
                              "type" : "double",
                              "defaultValue" : 0.0,
                              "interp" : "eioe"
                            },
                            "sourceCrop1" : {
                              "type" : "double",
                              "defaultValue" : 0.0,
                              "interp" : "eioe"
                            },
                            "sourceCrop2" : {
                              "type" : "double",
                              "defaultValue" : 0.0,
                              "interp" : "eioe"
                            },
                            "sourceCrop3" : {
                              "type" : "double",
                              "defaultValue" : 0.0,
                              "interp" : "eioe"
                            },
                            "geometryCrop0" : {
                              "type" : "double",
                              "defaultValue" : 0.0,
                              "interp" : "eioe"
                            },
                            "geometryCrop1" : {
                              "type" : "double",
                              "defaultValue" : 0.0,
                              "interp" : "eioe"
                            },
                            "geometryCrop2" : {
                              "type" : "double",
                              "defaultValue" : 0.0,
                              "interp" : "eioe"
                            },
                            "geometryCrop3" : {
                              "type" : "double",
                              "defaultValue" : 0.0,
                              "interp" : "eioe"
                            },
                            "cursorScale" : {
                              "type" : "double",
                              "defaultValue" : 1.0,
                              "interp" : "linr"
                            },
                            "cursorOpacity" : {
                              "type" : "double",
                              "defaultValue" : 1.0,
                              "interp" : "linr"
                            }
                          },
                          "effects" : [

                          ],
                          "start" : 957,
                          "duration" : 98,
                          "mediaStart" : 0,
                          "mediaDuration" : 98,
                          "scalar" : 1,
                          "animationTracks" : {

                          }
                        },
                    "audio" : 
                        {
                          "id" : 146,
                          "_type" : "AMFile",
                          "src" : 4,
                          "trackNumber" : 3,
                          "attributes" : {
                            "ident" : "",
                            "gain" : 1.0,
                            "mixToMono" : false
                          },
                            "channelNumber" : "0,1",
                          "effects" : [

                          ],
                          "start" : 957,
                          "duration" : 98,
                          "mediaStart" : 0,
                          "mediaDuration" : 98,
                          "scalar" : 1,
                          "animationTracks" : {

                          }
                        }
,
                    "start" : 957,
                    "duration" : 98,
                    "mediaStart" : 0,
                    "mediaDuration" : 4649,
                    "scalar" : 1,
                    "metadata" : {
                      "AutoAppliedSmartFocus" : "False",
                      "clipSpeedAttribute" : false
                    }
                  },
                  {
                    "id" : 147,
                    "_type" : "UnifiedMedia",
                    "video" : 
                        {
                          "id" : 148,
                          "_type" : "ScreenVMFile",
                          "src" : 4,
                          "trackNumber" : 0,
                          "attributes" : {
                            "ident" : "Grabación 26-12-{AA}_008"
                          },
                          "parameters" : {
                            "sourceCrop0" : {
                              "type" : "double",
                              "defaultValue" : 0.0,
                              "interp" : "eioe"
                            },
                            "sourceCrop1" : {
                              "type" : "double",
                              "defaultValue" : 0.0,
                              "interp" : "eioe"
                            },
                            "sourceCrop2" : {
                              "type" : "double",
                              "defaultValue" : 0.0,
                              "interp" : "eioe"
                            },
                            "sourceCrop3" : {
                              "type" : "double",
                              "defaultValue" : 0.0,
                              "interp" : "eioe"
                            },
                            "geometryCrop0" : {
                              "type" : "double",
                              "defaultValue" : 0.0,
                              "interp" : "eioe"
                            },
                            "geometryCrop1" : {
                              "type" : "double",
                              "defaultValue" : 0.0,
                              "interp" : "eioe"
                            },
                            "geometryCrop2" : {
                              "type" : "double",
                              "defaultValue" : 0.0,
                              "interp" : "eioe"
                            },
                            "geometryCrop3" : {
                              "type" : "double",
                              "defaultValue" : 0.0,
                              "interp" : "eioe"
                            },
                            "cursorScale" : {
                              "type" : "double",
                              "defaultValue" : 1.0,
                              "interp" : "linr"
                            },
                            "cursorOpacity" : {
                              "type" : "double",
                              "defaultValue" : 1.0,
                              "interp" : "linr"
                            }
                          },
                          "effects" : [

                          ],
                          "start" : 1055,
                          "duration" : 47,
                          "mediaStart" : 112,
                          "mediaDuration" : 47,
                          "scalar" : 1,
                          "animationTracks" : {

                          }
                        },
                    "audio" : 
                        {
                          "id" : 149,
                          "_type" : "AMFile",
                          "src" : 4,
                          "trackNumber" : 3,
                          "attributes" : {
                            "ident" : "",
                            "gain" : 1.0,
                            "mixToMono" : false
                          },
                            "channelNumber" : "0,1",
                          "effects" : [

                          ],
                          "start" : 1055,
                          "duration" : 47,
                          "mediaStart" : 112,
                          "mediaDuration" : 47,
                          "scalar" : 1,
                          "animationTracks" : {

                          }
                        }
,
                    "start" : 1055,
                    "duration" : 47,
                    "mediaStart" : 0,
                    "mediaDuration" : 4649,
                    "scalar" : 1,
                    "metadata" : {
                      "AutoAppliedSmartFocus" : "False",
                      "clipSpeedAttribute" : false
                    }
                  },
                  {
                    "id" : 150,
                    "_type" : "UnifiedMedia",
                    "video" : 
                        {
                          "id" : 151,
                          "_type" : "ScreenVMFile",
                          "src" : 4,
                          "trackNumber" : 0,
                          "attributes" : {
                            "ident" : "Grabación 26-12-{AA}_008"
                          },
                          "parameters" : {
                            "sourceCrop0" : {
                              "type" : "double",
                              "defaultValue" : 0.0,
                              "interp" : "eioe"
                            },
                            "sourceCrop1" : {
                              "type" : "double",
                              "defaultValue" : 0.0,
                              "interp" : "eioe"
                            },
                            "sourceCrop2" : {
                              "type" : "double",
                              "defaultValue" : 0.0,
                              "interp" : "eioe"
                            },
                            "sourceCrop3" : {
                              "type" : "double",
                              "defaultValue" : 0.0,
                              "interp" : "eioe"
                            },
                            "geometryCrop0" : {
                              "type" : "double",
                              "defaultValue" : 0.0,
                              "interp" : "eioe"
                            },
                            "geometryCrop1" : {
                              "type" : "double",
                              "defaultValue" : 0.0,
                              "interp" : "eioe"
                            },
                            "geometryCrop2" : {
                              "type" : "double",
                              "defaultValue" : 0.0,
                              "interp" : "eioe"
                            },
                            "geometryCrop3" : {
                              "type" : "double",
                              "defaultValue" : 0.0,
                              "interp" : "eioe"
                            },
                            "cursorScale" : {
                              "type" : "double",
                              "defaultValue" : 1.0,
                              "interp" : "linr"
                            },
                            "cursorOpacity" : {
                              "type" : "double",
                              "defaultValue" : 1.0,
                              "interp" : "linr"
                            }
                          },
                          "effects" : [

                          ],
                          "start" : 1102,
                          "duration" : 117,
                          "mediaStart" : 168,
                          "mediaDuration" : 117,
                          "scalar" : 1,
                          "animationTracks" : {

                          }
                        },
                    "audio" : 
                        {
                          "id" : 152,
                          "_type" : "AMFile",
                          "src" : 4,
                          "trackNumber" : 3,
                          "attributes" : {
                            "ident" : "",
                            "gain" : 1.0,
                            "mixToMono" : false
                          },
                            "channelNumber" : "0,1",
                          "effects" : [

                          ],
                          "start" : 1102,
                          "duration" : 117,
                          "mediaStart" : 168,
                          "mediaDuration" : 117,
                          "scalar" : 1,
                          "animationTracks" : {

                          }
                        }
,
                    "start" : 1102,
                    "duration" : 117,
                    "mediaStart" : 0,
                    "mediaDuration" : 4649,
                    "scalar" : 1,
                    "metadata" : {
                      "AutoAppliedSmartFocus" : "False",
                      "clipSpeedAttribute" : false
                    }
                  },
                  {
                    "id" : 153,
                    "_type" : "UnifiedMedia",
                    "video" : 
                        {
                          "id" : 154,
                          "_type" : "ScreenVMFile",
                          "src" : 4,
                          "trackNumber" : 0,
                          "attributes" : {
                            "ident" : "Grabación 26-12-{AA}_008"
                          },
                          "parameters" : {
                            "sourceCrop0" : {
                              "type" : "double",
                              "defaultValue" : 0.0,
                              "interp" : "eioe"
                            },
                            "sourceCrop1" : {
                              "type" : "double",
                              "defaultValue" : 0.0,
                              "interp" : "eioe"
                            },
                            "sourceCrop2" : {
                              "type" : "double",
                              "defaultValue" : 0.0,
                              "interp" : "eioe"
                            },
                            "sourceCrop3" : {
                              "type" : "double",
                              "defaultValue" : 0.0,
                              "interp" : "eioe"
                            },
                            "geometryCrop0" : {
                              "type" : "double",
                              "defaultValue" : 0.0,
                              "interp" : "eioe"
                            },
                            "geometryCrop1" : {
                              "type" : "double",
                              "defaultValue" : 0.0,
                              "interp" : "eioe"
                            },
                            "geometryCrop2" : {
                              "type" : "double",
                              "defaultValue" : 0.0,
                              "interp" : "eioe"
                            },
                            "geometryCrop3" : {
                              "type" : "double",
                              "defaultValue" : 0.0,
                              "interp" : "eioe"
                            },
                            "cursorScale" : {
                              "type" : "double",
                              "defaultValue" : 1.0,
                              "interp" : "linr"
                            },
                            "cursorOpacity" : {
                              "type" : "double",
                              "defaultValue" : 1.0,
                              "interp" : "linr"
                            }
                          },
                          "effects" : [

                          ],
                          "start" : 1219,
                          "duration" : 28,
                          "mediaStart" : 301,
                          "mediaDuration" : 28,
                          "scalar" : 1,
                          "animationTracks" : {

                          }
                        },
                    "audio" : 
                        {
                          "id" : 155,
                          "_type" : "AMFile",
                          "src" : 4,
                          "trackNumber" : 3,
                          "attributes" : {
                            "ident" : "",
                            "gain" : 1.0,
                            "mixToMono" : false
                          },
                            "channelNumber" : "0,1",
                          "effects" : [

                          ],
                          "start" : 1219,
                          "duration" : 28,
                          "mediaStart" : 301,
                          "mediaDuration" : 28,
                          "scalar" : 1,
                          "animationTracks" : {

                          }
                        }
,
                    "start" : 1219,
                    "duration" : 28,
                    "mediaStart" : 0,
                    "mediaDuration" : 4649,
                    "scalar" : 1,
                    "metadata" : {
                      "AutoAppliedSmartFocus" : "False",
                      "clipSpeedAttribute" : false
                    }
                  },
                  {
                    "id" : 156,
                    "_type" : "UnifiedMedia",
                    "video" : 
                        {
                          "id" : 157,
                          "_type" : "ScreenVMFile",
                          "src" : 4,
                          "trackNumber" : 0,
                          "attributes" : {
                            "ident" : "Grabación 26-12-{AA}_008"
                          },
                          "parameters" : {
                            "sourceCrop0" : {
                              "type" : "double",
                              "defaultValue" : 0.0,
                              "interp" : "eioe"
                            },
                            "sourceCrop1" : {
                              "type" : "double",
                              "defaultValue" : 0.0,
                              "interp" : "eioe"
                            },
                            "sourceCrop2" : {
                              "type" : "double",
                              "defaultValue" : 0.0,
                              "interp" : "eioe"
                            },
                            "sourceCrop3" : {
                              "type" : "double",
                              "defaultValue" : 0.0,
                              "interp" : "eioe"
                            },
                            "geometryCrop0" : {
                              "type" : "double",
                              "defaultValue" : 0.0,
                              "interp" : "eioe"
                            },
                            "geometryCrop1" : {
                              "type" : "double",
                              "defaultValue" : 0.0,
                              "interp" : "eioe"
                            },
                            "geometryCrop2" : {
                              "type" : "double",
                              "defaultValue" : 0.0,
                              "interp" : "eioe"
                            },
                            "geometryCrop3" : {
                              "type" : "double",
                              "defaultValue" : 0.0,
                              "interp" : "eioe"
                            },
                            "cursorScale" : {
                              "type" : "double",
                              "defaultValue" : 1.0,
                              "interp" : "linr"
                            },
                            "cursorOpacity" : {
                              "type" : "double",
                              "defaultValue" : 1.0,
                              "interp" : "linr"
                            }
                          },
                          "effects" : [

                          ],
                          "start" : 1247,
                          "duration" : 89,
                          "mediaStart" : 339,
                          "mediaDuration" : 89,
                          "scalar" : 1,
                          "animationTracks" : {

                          }
                        },
                    "audio" : 
                        {
                          "id" : 158,
                          "_type" : "AMFile",
                          "src" : 4,
                          "trackNumber" : 3,
                          "attributes" : {
                            "ident" : "",
                            "gain" : 1.0,
                            "mixToMono" : false
                          },
                            "channelNumber" : "0,1",
                          "effects" : [

                          ],
                          "start" : 1247,
                          "duration" : 89,
                          "mediaStart" : 339,
                          "mediaDuration" : 89,
                          "scalar" : 1,
                          "animationTracks" : {

                          }
                        }
,
                    "start" : 1247,
                    "duration" : 89,
                    "mediaStart" : 0,
                    "mediaDuration" : 4649,
                    "scalar" : 1,
                    "metadata" : {
                      "AutoAppliedSmartFocus" : "False",
                      "clipSpeedAttribute" : false
                    }
                  },
                  {
                    "id" : 159,
                    "_type" : "UnifiedMedia",
                    "video" : 
                        {
                          "id" : 160,
                          "_type" : "ScreenVMFile",
                          "src" : 4,
                          "trackNumber" : 0,
                          "attributes" : {
                            "ident" : "Grabación 26-12-{AA}_008"
                          },
                          "parameters" : {
                            "sourceCrop0" : {
                              "type" : "double",
                              "defaultValue" : 0.0,
                              "interp" : "eioe"
                            },
                            "sourceCrop1" : {
                              "type" : "double",
                              "defaultValue" : 0.0,
                              "interp" : "eioe"
                            },
                            "sourceCrop2" : {
                              "type" : "double",
                              "defaultValue" : 0.0,
                              "interp" : "eioe"
                            },
                            "sourceCrop3" : {
                              "type" : "double",
                              "defaultValue" : 0.0,
                              "interp" : "eioe"
                            },
                            "geometryCrop0" : {
                              "type" : "double",
                              "defaultValue" : 0.0,
                              "interp" : "eioe"
                            },
                            "geometryCrop1" : {
                              "type" : "double",
                              "defaultValue" : 0.0,
                              "interp" : "eioe"
                            },
                            "geometryCrop2" : {
                              "type" : "double",
                              "defaultValue" : 0.0,
                              "interp" : "eioe"
                            },
                            "geometryCrop3" : {
                              "type" : "double",
                              "defaultValue" : 0.0,
                              "interp" : "eioe"
                            },
                            "cursorScale" : {
                              "type" : "double",
                              "defaultValue" : 1.0,
                              "interp" : "linr"
                            },
                            "cursorOpacity" : {
                              "type" : "double",
                              "defaultValue" : 1.0,
                              "interp" : "linr"
                            }
                          },
                          "effects" : [

                          ],
                          "start" : 1336,
                          "duration" : 33,
                          "mediaStart" : 436,
                          "mediaDuration" : 33,
                          "scalar" : 1,
                          "animationTracks" : {

                          }
                        },
                    "audio" : 
                        {
                          "id" : 161,
                          "_type" : "AMFile",
                          "src" : 4,
                          "trackNumber" : 3,
                          "attributes" : {
                            "ident" : "",
                            "gain" : 1.0,
                            "mixToMono" : false
                          },
                            "channelNumber" : "0,1",
                          "effects" : [

                          ],
                          "start" : 1336,
                          "duration" : 33,
                          "mediaStart" : 436,
                          "mediaDuration" : 33,
                          "scalar" : 1,
                          "animationTracks" : {

                          }
                        }
,
                    "start" : 1336,
                    "duration" : 33,
                    "mediaStart" : 0,
                    "mediaDuration" : 4649,
                    "scalar" : 1,
                    "metadata" : {
                      "AutoAppliedSmartFocus" : "False",
                      "clipSpeedAttribute" : false
                    }
                  },
                  {
                    "id" : 162,
                    "_type" : "UnifiedMedia",
                    "video" : 
                        {
                          "id" : 163,
                          "_type" : "ScreenVMFile",
                          "src" : 4,
                          "trackNumber" : 0,
                          "attributes" : {
                            "ident" : "Grabación 26-12-{AA}_008"
                          },
                          "parameters" : {
                            "sourceCrop0" : {
                              "type" : "double",
                              "defaultValue" : 0.0,
                              "interp" : "eioe"
                            },
                            "sourceCrop1" : {
                              "type" : "double",
                              "defaultValue" : 0.0,
                              "interp" : "eioe"
                            },
                            "sourceCrop2" : {
                              "type" : "double",
                              "defaultValue" : 0.0,
                              "interp" : "eioe"
                            },
                            "sourceCrop3" : {
                              "type" : "double",
                              "defaultValue" : 0.0,
                              "interp" : "eioe"
                            },
                            "geometryCrop0" : {
                              "type" : "double",
                              "defaultValue" : 0.0,
                              "interp" : "eioe"
                            },
                            "geometryCrop1" : {
                              "type" : "double",
                              "defaultValue" : 0.0,
                              "interp" : "eioe"
                            },
                            "geometryCrop2" : {
                              "type" : "double",
                              "defaultValue" : 0.0,
                              "interp" : "eioe"
                            },
                            "geometryCrop3" : {
                              "type" : "double",
                              "defaultValue" : 0.0,
                              "interp" : "eioe"
                            },
                            "cursorScale" : {
                              "type" : "double",
                              "defaultValue" : 1.0,
                              "interp" : "linr"
                            },
                            "cursorOpacity" : {
                              "type" : "double",
                              "defaultValue" : 1.0,
                              "interp" : "linr"
                            }
                          },
                          "effects" : [

                          ],
                          "start" : 1369,
                          "duration" : 86,
                          "mediaStart" : 480,
                          "mediaDuration" : 86,
                          "scalar" : 1,
                          "animationTracks" : {

                          }
                        },
                    "audio" : 
                        {
                          "id" : 164,
                          "_type" : "AMFile",
                          "src" : 4,
                          "trackNumber" : 3,
                          "attributes" : {
                            "ident" : "",
                            "gain" : 1.0,
                            "mixToMono" : false
                          },
                            "channelNumber" : "0,1",
                          "effects" : [

                          ],
                          "start" : 1369,
                          "duration" : 86,
                          "mediaStart" : 480,
                          "mediaDuration" : 86,
                          "scalar" : 1,
                          "animationTracks" : {

                          }
                        }
,
                    "start" : 1369,
                    "duration" : 86,
                    "mediaStart" : 0,
                    "mediaDuration" : 4649,
                    "scalar" : 1,
                    "metadata" : {
                      "AutoAppliedSmartFocus" : "False",
                      "clipSpeedAttribute" : false
                    }
                  },
                  {
                    "id" : 165,
                    "_type" : "UnifiedMedia",
                    "video" : 
                        {
                          "id" : 166,
                          "_type" : "ScreenVMFile",
                          "src" : 4,
                          "trackNumber" : 0,
                          "attributes" : {
                            "ident" : "Grabación 26-12-{AA}_008"
                          },
                          "parameters" : {
                            "sourceCrop0" : {
                              "type" : "double",
                              "defaultValue" : 0.0,
                              "interp" : "eioe"
                            },
                            "sourceCrop1" : {
                              "type" : "double",
                              "defaultValue" : 0.0,
                              "interp" : "eioe"
                            },
                            "sourceCrop2" : {
                              "type" : "double",
                              "defaultValue" : 0.0,
                              "interp" : "eioe"
                            },
                            "sourceCrop3" : {
                              "type" : "double",
                              "defaultValue" : 0.0,
                              "interp" : "eioe"
                            },
                            "geometryCrop0" : {
                              "type" : "double",
                              "defaultValue" : 0.0,
                              "interp" : "eioe"
                            },
                            "geometryCrop1" : {
                              "type" : "double",
                              "defaultValue" : 0.0,
                              "interp" : "eioe"
                            },
                            "geometryCrop2" : {
                              "type" : "double",
                              "defaultValue" : 0.0,
                              "interp" : "eioe"
                            },
                            "geometryCrop3" : {
                              "type" : "double",
                              "defaultValue" : 0.0,
                              "interp" : "eioe"
                            },
                            "cursorScale" : {
                              "type" : "double",
                              "defaultValue" : 1.0,
                              "interp" : "linr"
                            },
                            "cursorOpacity" : {
                              "type" : "double",
                              "defaultValue" : 1.0,
                              "interp" : "linr"
                            }
                          },
                          "effects" : [

                          ],
                          "start" : 1455,
                          "duration" : 190,
                          "mediaStart" : 692,
                          "mediaDuration" : 190,
                          "scalar" : 1,
                          "animationTracks" : {

                          }
                        },
                    "audio" : 
                        {
                          "id" : 167,
                          "_type" : "AMFile",
                          "src" : 4,
                          "trackNumber" : 3,
                          "attributes" : {
                            "ident" : "",
                            "gain" : 1.0,
                            "mixToMono" : false
                          },
                            "channelNumber" : "0,1",
                          "effects" : [

                          ],
                          "start" : 1455,
                          "duration" : 190,
                          "mediaStart" : 692,
                          "mediaDuration" : 190,
                          "scalar" : 1,
                          "animationTracks" : {

                          }
                        }
,
                    "start" : 1455,
                    "duration" : 190,
                    "mediaStart" : 0,
                    "mediaDuration" : 4649,
                    "scalar" : 1,
                    "metadata" : {
                      "AutoAppliedSmartFocus" : "False",
                      "clipSpeedAttribute" : false
                    }
                  },
                  {
                    "id" : 168,
                    "_type" : "UnifiedMedia",
                    "video" : 
                        {
                          "id" : 169,
                          "_type" : "ScreenVMFile",
                          "src" : 4,
                          "trackNumber" : 0,
                          "attributes" : {
                            "ident" : "Grabación 26-12-{AA}_008"
                          },
                          "parameters" : {
                            "sourceCrop0" : {
                              "type" : "double",
                              "defaultValue" : 0.0,
                              "interp" : "eioe"
                            },
                            "sourceCrop1" : {
                              "type" : "double",
                              "defaultValue" : 0.0,
                              "interp" : "eioe"
                            },
                            "sourceCrop2" : {
                              "type" : "double",
                              "defaultValue" : 0.0,
                              "interp" : "eioe"
                            },
                            "sourceCrop3" : {
                              "type" : "double",
                              "defaultValue" : 0.0,
                              "interp" : "eioe"
                            },
                            "geometryCrop0" : {
                              "type" : "double",
                              "defaultValue" : 0.0,
                              "interp" : "eioe"
                            },
                            "geometryCrop1" : {
                              "type" : "double",
                              "defaultValue" : 0.0,
                              "interp" : "eioe"
                            },
                            "geometryCrop2" : {
                              "type" : "double",
                              "defaultValue" : 0.0,
                              "interp" : "eioe"
                            },
                            "geometryCrop3" : {
                              "type" : "double",
                              "defaultValue" : 0.0,
                              "interp" : "eioe"
                            },
                            "cursorScale" : {
                              "type" : "double",
                              "defaultValue" : 1.0,
                              "interp" : "linr"
                            },
                            "cursorOpacity" : {
                              "type" : "double",
                              "defaultValue" : 1.0,
                              "interp" : "linr"
                            }
                          },
                          "effects" : [

                          ],
                          "start" : 1645,
                          "duration" : 101,
                          "mediaStart" : 894,
                          "mediaDuration" : 101,
                          "scalar" : 1,
                          "animationTracks" : {

                          }
                        },
                    "audio" : 
                        {
                          "id" : 170,
                          "_type" : "AMFile",
                          "src" : 4,
                          "trackNumber" : 3,
                          "attributes" : {
                            "ident" : "",
                            "gain" : 1.0,
                            "mixToMono" : false
                          },
                            "channelNumber" : "0,1",
                          "effects" : [

                          ],
                          "start" : 1645,
                          "duration" : 101,
                          "mediaStart" : 894,
                          "mediaDuration" : 101,
                          "scalar" : 1,
                          "animationTracks" : {

                          }
                        }
,
                    "start" : 1645,
                    "duration" : 101,
                    "mediaStart" : 0,
                    "mediaDuration" : 4649,
                    "scalar" : 1,
                    "metadata" : {
                      "AutoAppliedSmartFocus" : "False",
                      "clipSpeedAttribute" : false
                    }
                  },
                  {
                    "id" : 171,
                    "_type" : "UnifiedMedia",
                    "video" : 
                        {
                          "id" : 172,
                          "_type" : "ScreenVMFile",
                          "src" : 4,
                          "trackNumber" : 0,
                          "attributes" : {
                            "ident" : "Grabación 26-12-{AA}_008"
                          },
                          "parameters" : {
                            "sourceCrop0" : {
                              "type" : "double",
                              "defaultValue" : 0.0,
                              "interp" : "eioe"
                            },
                            "sourceCrop1" : {
                              "type" : "double",
                              "defaultValue" : 0.0,
                              "interp" : "eioe"
                            },
                            "sourceCrop2" : {
                              "type" : "double",
                              "defaultValue" : 0.0,
                              "interp" : "eioe"
                            },
                            "sourceCrop3" : {
                              "type" : "double",
                              "defaultValue" : 0.0,
                              "interp" : "eioe"
                            },
                            "geometryCrop0" : {
                              "type" : "double",
                              "defaultValue" : 0.0,
                              "interp" : "eioe"
                            },
                            "geometryCrop1" : {
                              "type" : "double",
                              "defaultValue" : 0.0,
                              "interp" : "eioe"
                            },
                            "geometryCrop2" : {
                              "type" : "double",
                              "defaultValue" : 0.0,
                              "interp" : "eioe"
                            },
                            "geometryCrop3" : {
                              "type" : "double",
                              "defaultValue" : 0.0,
                              "interp" : "eioe"
                            },
                            "cursorScale" : {
                              "type" : "double",
                              "defaultValue" : 1.0,
                              "interp" : "linr"
                            },
                            "cursorOpacity" : {
                              "type" : "double",
                              "defaultValue" : 1.0,
                              "interp" : "linr"
                            }
                          },
                          "effects" : [

                          ],
                          "start" : 1746,
                          "duration" : 40,
                          "mediaStart" : 1004,
                          "mediaDuration" : 40,
                          "scalar" : 1,
                          "animationTracks" : {

                          }
                        },
                    "audio" : 
                        {
                          "id" : 173,
                          "_type" : "AMFile",
                          "src" : 4,
                          "trackNumber" : 3,
                          "attributes" : {
                            "ident" : "",
                            "gain" : 1.0,
                            "mixToMono" : false
                          },
                            "channelNumber" : "0,1",
                          "effects" : [

                          ],
                          "start" : 1746,
                          "duration" : 40,
                          "mediaStart" : 1004,
                          "mediaDuration" : 40,
                          "scalar" : 1,
                          "animationTracks" : {

                          }
                        }
,
                    "start" : 1746,
                    "duration" : 40,
                    "mediaStart" : 0,
                    "mediaDuration" : 4649,
                    "scalar" : 1,
                    "metadata" : {
                      "AutoAppliedSmartFocus" : "False",
                      "clipSpeedAttribute" : false
                    }
                  },
                  {
                    "id" : 174,
                    "_type" : "UnifiedMedia",
                    "video" : 
                        {
                          "id" : 175,
                          "_type" : "ScreenVMFile",
                          "src" : 4,
                          "trackNumber" : 0,
                          "attributes" : {
                            "ident" : "Grabación 26-12-{AA}_008"
                          },
                          "parameters" : {
                            "sourceCrop0" : {
                              "type" : "double",
                              "defaultValue" : 0.0,
                              "interp" : "eioe"
                            },
                            "sourceCrop1" : {
                              "type" : "double",
                              "defaultValue" : 0.0,
                              "interp" : "eioe"
                            },
                            "sourceCrop2" : {
                              "type" : "double",
                              "defaultValue" : 0.0,
                              "interp" : "eioe"
                            },
                            "sourceCrop3" : {
                              "type" : "double",
                              "defaultValue" : 0.0,
                              "interp" : "eioe"
                            },
                            "geometryCrop0" : {
                              "type" : "double",
                              "defaultValue" : 0.0,
                              "interp" : "eioe"
                            },
                            "geometryCrop1" : {
                              "type" : "double",
                              "defaultValue" : 0.0,
                              "interp" : "eioe"
                            },
                            "geometryCrop2" : {
                              "type" : "double",
                              "defaultValue" : 0.0,
                              "interp" : "eioe"
                            },
                            "geometryCrop3" : {
                              "type" : "double",
                              "defaultValue" : 0.0,
                              "interp" : "eioe"
                            },
                            "cursorScale" : {
                              "type" : "double",
                              "defaultValue" : 1.0,
                              "interp" : "linr"
                            },
                            "cursorOpacity" : {
                              "type" : "double",
                              "defaultValue" : 1.0,
                              "interp" : "linr"
                            }
                          },
                          "effects" : [

                          ],
                          "start" : 1786,
                          "duration" : 59,
                          "mediaStart" : 1107,
                          "mediaDuration" : 59,
                          "scalar" : 1,
                          "animationTracks" : {

                          }
                        },
                    "audio" : 
                        {
                          "id" : 176,
                          "_type" : "AMFile",
                          "src" : 4,
                          "trackNumber" : 3,
                          "attributes" : {
                            "ident" : "",
                            "gain" : 1.0,
                            "mixToMono" : false
                          },
                            "channelNumber" : "0,1",
                          "effects" : [

                          ],
                          "start" : 1786,
                          "duration" : 59,
                          "mediaStart" : 1107,
                          "mediaDuration" : 59,
                          "scalar" : 1,
                          "animationTracks" : {

                          }
                        }
,
                    "start" : 1786,
                    "duration" : 59,
                    "mediaStart" : 0,
                    "mediaDuration" : 4649,
                    "scalar" : 1,
                    "metadata" : {
                      "AutoAppliedSmartFocus" : "False",
                      "clipSpeedAttribute" : false
                    }
                  },
                  {
                    "id" : 177,
                    "_type" : "UnifiedMedia",
                    "video" : 
                        {
                          "id" : 178,
                          "_type" : "ScreenVMFile",
                          "src" : 4,
                          "trackNumber" : 0,
                          "attributes" : {
                            "ident" : "Grabación 26-12-{AA}_008"
                          },
                          "parameters" : {
                            "sourceCrop0" : {
                              "type" : "double",
                              "defaultValue" : 0.0,
                              "interp" : "eioe"
                            },
                            "sourceCrop1" : {
                              "type" : "double",
                              "defaultValue" : 0.0,
                              "interp" : "eioe"
                            },
                            "sourceCrop2" : {
                              "type" : "double",
                              "defaultValue" : 0.0,
                              "interp" : "eioe"
                            },
                            "sourceCrop3" : {
                              "type" : "double",
                              "defaultValue" : 0.0,
                              "interp" : "eioe"
                            },
                            "geometryCrop0" : {
                              "type" : "double",
                              "defaultValue" : 0.0,
                              "interp" : "eioe"
                            },
                            "geometryCrop1" : {
                              "type" : "double",
                              "defaultValue" : 0.0,
                              "interp" : "eioe"
                            },
                            "geometryCrop2" : {
                              "type" : "double",
                              "defaultValue" : 0.0,
                              "interp" : "eioe"
                            },
                            "geometryCrop3" : {
                              "type" : "double",
                              "defaultValue" : 0.0,
                              "interp" : "eioe"
                            },
                            "cursorScale" : {
                              "type" : "double",
                              "defaultValue" : 1.0,
                              "interp" : "linr"
                            },
                            "cursorOpacity" : {
                              "type" : "double",
                              "defaultValue" : 1.0,
                              "interp" : "linr"
                            }
                          },
                          "effects" : [

                          ],
                          "start" : 1845,
                          "duration" : 23,
                          "mediaStart" : 1179,
                          "mediaDuration" : 23,
                          "scalar" : 1,
                          "animationTracks" : {

                          }
                        },
                    "audio" : 
                        {
                          "id" : 179,
                          "_type" : "AMFile",
                          "src" : 4,
                          "trackNumber" : 3,
                          "attributes" : {
                            "ident" : "",
                            "gain" : 1.0,
                            "mixToMono" : false
                          },
                            "channelNumber" : "0,1",
                          "effects" : [

                          ],
                          "start" : 1845,
                          "duration" : 23,
                          "mediaStart" : 1179,
                          "mediaDuration" : 23,
                          "scalar" : 1,
                          "animationTracks" : {

                          }
                        }
,
                    "start" : 1845,
                    "duration" : 23,
                    "mediaStart" : 0,
                    "mediaDuration" : 4649,
                    "scalar" : 1,
                    "metadata" : {
                      "AutoAppliedSmartFocus" : "False",
                      "clipSpeedAttribute" : false
                    }
                  },
                  {
                    "id" : 180,
                    "_type" : "UnifiedMedia",
                    "video" : 
                        {
                          "id" : 181,
                          "_type" : "ScreenVMFile",
                          "src" : 4,
                          "trackNumber" : 0,
                          "attributes" : {
                            "ident" : "Grabación 26-12-{AA}_008"
                          },
                          "parameters" : {
                            "sourceCrop0" : {
                              "type" : "double",
                              "defaultValue" : 0.0,
                              "interp" : "eioe"
                            },
                            "sourceCrop1" : {
                              "type" : "double",
                              "defaultValue" : 0.0,
                              "interp" : "eioe"
                            },
                            "sourceCrop2" : {
                              "type" : "double",
                              "defaultValue" : 0.0,
                              "interp" : "eioe"
                            },
                            "sourceCrop3" : {
                              "type" : "double",
                              "defaultValue" : 0.0,
                              "interp" : "eioe"
                            },
                            "geometryCrop0" : {
                              "type" : "double",
                              "defaultValue" : 0.0,
                              "interp" : "eioe"
                            },
                            "geometryCrop1" : {
                              "type" : "double",
                              "defaultValue" : 0.0,
                              "interp" : "eioe"
                            },
                            "geometryCrop2" : {
                              "type" : "double",
                              "defaultValue" : 0.0,
                              "interp" : "eioe"
                            },
                            "geometryCrop3" : {
                              "type" : "double",
                              "defaultValue" : 0.0,
                              "interp" : "eioe"
                            },
                            "cursorScale" : {
                              "type" : "double",
                              "defaultValue" : 1.0,
                              "interp" : "linr"
                            },
                            "cursorOpacity" : {
                              "type" : "double",
                              "defaultValue" : 1.0,
                              "interp" : "linr"
                            }
                          },
                          "effects" : [

                          ],
                          "start" : 1868,
                          "duration" : 44,
                          "mediaStart" : 1217,
                          "mediaDuration" : 44,
                          "scalar" : 1,
                          "animationTracks" : {

                          }
                        },
                    "audio" : 
                        {
                          "id" : 182,
                          "_type" : "AMFile",
                          "src" : 4,
                          "trackNumber" : 3,
                          "attributes" : {
                            "ident" : "",
                            "gain" : 1.0,
                            "mixToMono" : false
                          },
                            "channelNumber" : "0,1",
                          "effects" : [

                          ],
                          "start" : 1868,
                          "duration" : 44,
                          "mediaStart" : 1217,
                          "mediaDuration" : 44,
                          "scalar" : 1,
                          "animationTracks" : {

                          }
                        }
,
                    "start" : 1868,
                    "duration" : 44,
                    "mediaStart" : 0,
                    "mediaDuration" : 4649,
                    "scalar" : 1,
                    "metadata" : {
                      "AutoAppliedSmartFocus" : "False",
                      "clipSpeedAttribute" : false
                    }
                  },
                  {
                    "id" : 183,
                    "_type" : "UnifiedMedia",
                    "video" : 
                        {
                          "id" : 184,
                          "_type" : "ScreenVMFile",
                          "src" : 4,
                          "trackNumber" : 0,
                          "attributes" : {
                            "ident" : "Grabación 26-12-{AA}_008"
                          },
                          "parameters" : {
                            "sourceCrop0" : {
                              "type" : "double",
                              "defaultValue" : 0.0,
                              "interp" : "eioe"
                            },
                            "sourceCrop1" : {
                              "type" : "double",
                              "defaultValue" : 0.0,
                              "interp" : "eioe"
                            },
                            "sourceCrop2" : {
                              "type" : "double",
                              "defaultValue" : 0.0,
                              "interp" : "eioe"
                            },
                            "sourceCrop3" : {
                              "type" : "double",
                              "defaultValue" : 0.0,
                              "interp" : "eioe"
                            },
                            "geometryCrop0" : {
                              "type" : "double",
                              "defaultValue" : 0.0,
                              "interp" : "eioe"
                            },
                            "geometryCrop1" : {
                              "type" : "double",
                              "defaultValue" : 0.0,
                              "interp" : "eioe"
                            },
                            "geometryCrop2" : {
                              "type" : "double",
                              "defaultValue" : 0.0,
                              "interp" : "eioe"
                            },
                            "geometryCrop3" : {
                              "type" : "double",
                              "defaultValue" : 0.0,
                              "interp" : "eioe"
                            },
                            "cursorScale" : {
                              "type" : "double",
                              "defaultValue" : 1.0,
                              "interp" : "linr"
                            },
                            "cursorOpacity" : {
                              "type" : "double",
                              "defaultValue" : 1.0,
                              "interp" : "linr"
                            }
                          },
                          "effects" : [

                          ],
                          "start" : 1912,
                          "duration" : 208,
                          "mediaStart" : 1279,
                          "mediaDuration" : 208,
                          "scalar" : 1,
                          "animationTracks" : {

                          }
                        },
                    "audio" : 
                        {
                          "id" : 185,
                          "_type" : "AMFile",
                          "src" : 4,
                          "trackNumber" : 3,
                          "attributes" : {
                            "ident" : "",
                            "gain" : 1.0,
                            "mixToMono" : false
                          },
                            "channelNumber" : "0,1",
                          "effects" : [

                          ],
                          "start" : 1912,
                          "duration" : 208,
                          "mediaStart" : 1279,
                          "mediaDuration" : 208,
                          "scalar" : 1,
                          "animationTracks" : {

                          }
                        }
,
                    "start" : 1912,
                    "duration" : 208,
                    "mediaStart" : 0,
                    "mediaDuration" : 4649,
                    "scalar" : 1,
                    "metadata" : {
                      "AutoAppliedSmartFocus" : "False",
                      "clipSpeedAttribute" : false
                    }
                  },
                  {
                    "id" : 186,
                    "_type" : "UnifiedMedia",
                    "video" : 
                        {
                          "id" : 187,
                          "_type" : "ScreenVMFile",
                          "src" : 4,
                          "trackNumber" : 0,
                          "attributes" : {
                            "ident" : "Grabación 26-12-{AA}_008"
                          },
                          "parameters" : {
                            "sourceCrop0" : {
                              "type" : "double",
                              "defaultValue" : 0.0,
                              "interp" : "eioe"
                            },
                            "sourceCrop1" : {
                              "type" : "double",
                              "defaultValue" : 0.0,
                              "interp" : "eioe"
                            },
                            "sourceCrop2" : {
                              "type" : "double",
                              "defaultValue" : 0.0,
                              "interp" : "eioe"
                            },
                            "sourceCrop3" : {
                              "type" : "double",
                              "defaultValue" : 0.0,
                              "interp" : "eioe"
                            },
                            "geometryCrop0" : {
                              "type" : "double",
                              "defaultValue" : 0.0,
                              "interp" : "eioe"
                            },
                            "geometryCrop1" : {
                              "type" : "double",
                              "defaultValue" : 0.0,
                              "interp" : "eioe"
                            },
                            "geometryCrop2" : {
                              "type" : "double",
                              "defaultValue" : 0.0,
                              "interp" : "eioe"
                            },
                            "geometryCrop3" : {
                              "type" : "double",
                              "defaultValue" : 0.0,
                              "interp" : "eioe"
                            },
                            "cursorScale" : {
                              "type" : "double",
                              "defaultValue" : 1.0,
                              "interp" : "linr"
                            },
                            "cursorOpacity" : {
                              "type" : "double",
                              "defaultValue" : 1.0,
                              "interp" : "linr"
                            }
                          },
                          "effects" : [

                          ],
                          "start" : 2120,
                          "duration" : 52,
                          "mediaStart" : 1498,
                          "mediaDuration" : 52,
                          "scalar" : 1,
                          "animationTracks" : {

                          }
                        },
                    "audio" : 
                        {
                          "id" : 188,
                          "_type" : "AMFile",
                          "src" : 4,
                          "trackNumber" : 3,
                          "attributes" : {
                            "ident" : "",
                            "gain" : 1.0,
                            "mixToMono" : false
                          },
                            "channelNumber" : "0,1",
                          "effects" : [

                          ],
                          "start" : 2120,
                          "duration" : 52,
                          "mediaStart" : 1498,
                          "mediaDuration" : 52,
                          "scalar" : 1,
                          "animationTracks" : {

                          }
                        }
,
                    "start" : 2120,
                    "duration" : 52,
                    "mediaStart" : 0,
                    "mediaDuration" : 4649,
                    "scalar" : 1,
                    "metadata" : {
                      "AutoAppliedSmartFocus" : "False",
                      "clipSpeedAttribute" : false
                    }
                  },
                  {
                    "id" : 189,
                    "_type" : "UnifiedMedia",
                    "video" : 
                        {
                          "id" : 190,
                          "_type" : "ScreenVMFile",
                          "src" : 4,
                          "trackNumber" : 0,
                          "attributes" : {
                            "ident" : "Grabación 26-12-{AA}_008"
                          },
                          "parameters" : {
                            "sourceCrop0" : {
                              "type" : "double",
                              "defaultValue" : 0.0,
                              "interp" : "eioe"
                            },
                            "sourceCrop1" : {
                              "type" : "double",
                              "defaultValue" : 0.0,
                              "interp" : "eioe"
                            },
                            "sourceCrop2" : {
                              "type" : "double",
                              "defaultValue" : 0.0,
                              "interp" : "eioe"
                            },
                            "sourceCrop3" : {
                              "type" : "double",
                              "defaultValue" : 0.0,
                              "interp" : "eioe"
                            },
                            "geometryCrop0" : {
                              "type" : "double",
                              "defaultValue" : 0.0,
                              "interp" : "eioe"
                            },
                            "geometryCrop1" : {
                              "type" : "double",
                              "defaultValue" : 0.0,
                              "interp" : "eioe"
                            },
                            "geometryCrop2" : {
                              "type" : "double",
                              "defaultValue" : 0.0,
                              "interp" : "eioe"
                            },
                            "geometryCrop3" : {
                              "type" : "double",
                              "defaultValue" : 0.0,
                              "interp" : "eioe"
                            },
                            "cursorScale" : {
                              "type" : "double",
                              "defaultValue" : 1.0,
                              "interp" : "linr"
                            },
                            "cursorOpacity" : {
                              "type" : "double",
                              "defaultValue" : 1.0,
                              "interp" : "linr"
                            }
                          },
                          "effects" : [

                          ],
                          "start" : 2172,
                          "duration" : 31,
                          "mediaStart" : 1679,
                          "mediaDuration" : 31,
                          "scalar" : 1,
                          "animationTracks" : {

                          }
                        },
                    "audio" : 
                        {
                          "id" : 191,
                          "_type" : "AMFile",
                          "src" : 4,
                          "trackNumber" : 3,
                          "attributes" : {
                            "ident" : "",
                            "gain" : 1.0,
                            "mixToMono" : false
                          },
                            "channelNumber" : "0,1",
                          "effects" : [

                          ],
                          "start" : 2172,
                          "duration" : 31,
                          "mediaStart" : 1679,
                          "mediaDuration" : 31,
                          "scalar" : 1,
                          "animationTracks" : {

                          }
                        }
,
                    "start" : 2172,
                    "duration" : 31,
                    "mediaStart" : 0,
                    "mediaDuration" : 4649,
                    "scalar" : 1,
                    "metadata" : {
                      "AutoAppliedSmartFocus" : "False",
                      "clipSpeedAttribute" : false
                    }
                  },
                  {
                    "id" : 192,
                    "_type" : "UnifiedMedia",
                    "video" : 
                        {
                          "id" : 193,
                          "_type" : "ScreenVMFile",
                          "src" : 4,
                          "trackNumber" : 0,
                          "attributes" : {
                            "ident" : "Grabación 26-12-{AA}_008"
                          },
                          "parameters" : {
                            "sourceCrop0" : {
                              "type" : "double",
                              "defaultValue" : 0.0,
                              "interp" : "eioe"
                            },
                            "sourceCrop1" : {
                              "type" : "double",
                              "defaultValue" : 0.0,
                              "interp" : "eioe"
                            },
                            "sourceCrop2" : {
                              "type" : "double",
                              "defaultValue" : 0.0,
                              "interp" : "eioe"
                            },
                            "sourceCrop3" : {
                              "type" : "double",
                              "defaultValue" : 0.0,
                              "interp" : "eioe"
                            },
                            "geometryCrop0" : {
                              "type" : "double",
                              "defaultValue" : 0.0,
                              "interp" : "eioe"
                            },
                            "geometryCrop1" : {
                              "type" : "double",
                              "defaultValue" : 0.0,
                              "interp" : "eioe"
                            },
                            "geometryCrop2" : {
                              "type" : "double",
                              "defaultValue" : 0.0,
                              "interp" : "eioe"
                            },
                            "geometryCrop3" : {
                              "type" : "double",
                              "defaultValue" : 0.0,
                              "interp" : "eioe"
                            },
                            "cursorScale" : {
                              "type" : "double",
                              "defaultValue" : 1.0,
                              "interp" : "linr"
                            },
                            "cursorOpacity" : {
                              "type" : "double",
                              "defaultValue" : 1.0,
                              "interp" : "linr"
                            }
                          },
                          "effects" : [

                          ],
                          "start" : 2203,
                          "duration" : 9,
                          "mediaStart" : 1720,
                          "mediaDuration" : 9,
                          "scalar" : 1,
                          "animationTracks" : {

                          }
                        },
                    "audio" : 
                        {
                          "id" : 194,
                          "_type" : "AMFile",
                          "src" : 4,
                          "trackNumber" : 3,
                          "attributes" : {
                            "ident" : "",
                            "gain" : 1.0,
                            "mixToMono" : false
                          },
                            "channelNumber" : "0,1",
                          "effects" : [

                          ],
                          "start" : 2203,
                          "duration" : 9,
                          "mediaStart" : 1720,
                          "mediaDuration" : 9,
                          "scalar" : 1,
                          "animationTracks" : {

                          }
                        }
,
                    "start" : 2203,
                    "duration" : 9,
                    "mediaStart" : 0,
                    "mediaDuration" : 4649,
                    "scalar" : 1,
                    "metadata" : {
                      "AutoAppliedSmartFocus" : "False",
                      "clipSpeedAttribute" : false
                    }
                  },
                  {
                    "id" : 195,
                    "_type" : "UnifiedMedia",
                    "video" : 
                        {
                          "id" : 196,
                          "_type" : "ScreenVMFile",
                          "src" : 4,
                          "trackNumber" : 0,
                          "attributes" : {
                            "ident" : "Grabación 26-12-{AA}_008"
                          },
                          "parameters" : {
                            "sourceCrop0" : {
                              "type" : "double",
                              "defaultValue" : 0.0,
                              "interp" : "eioe"
                            },
                            "sourceCrop1" : {
                              "type" : "double",
                              "defaultValue" : 0.0,
                              "interp" : "eioe"
                            },
                            "sourceCrop2" : {
                              "type" : "double",
                              "defaultValue" : 0.0,
                              "interp" : "eioe"
                            },
                            "sourceCrop3" : {
                              "type" : "double",
                              "defaultValue" : 0.0,
                              "interp" : "eioe"
                            },
                            "geometryCrop0" : {
                              "type" : "double",
                              "defaultValue" : 0.0,
                              "interp" : "eioe"
                            },
                            "geometryCrop1" : {
                              "type" : "double",
                              "defaultValue" : 0.0,
                              "interp" : "eioe"
                            },
                            "geometryCrop2" : {
                              "type" : "double",
                              "defaultValue" : 0.0,
                              "interp" : "eioe"
                            },
                            "geometryCrop3" : {
                              "type" : "double",
                              "defaultValue" : 0.0,
                              "interp" : "eioe"
                            },
                            "cursorScale" : {
                              "type" : "double",
                              "defaultValue" : 1.0,
                              "interp" : "linr"
                            },
                            "cursorOpacity" : {
                              "type" : "double",
                              "defaultValue" : 1.0,
                              "interp" : "linr"
                            }
                          },
                          "effects" : [

                          ],
                          "start" : 2212,
                          "duration" : 71,
                          "mediaStart" : 1817,
                          "mediaDuration" : 71,
                          "scalar" : 1,
                          "animationTracks" : {

                          }
                        },
                    "audio" : 
                        {
                          "id" : 197,
                          "_type" : "AMFile",
                          "src" : 4,
                          "trackNumber" : 3,
                          "attributes" : {
                            "ident" : "",
                            "gain" : 1.0,
                            "mixToMono" : false
                          },
                            "channelNumber" : "0,1",
                          "effects" : [

                          ],
                          "start" : 2212,
                          "duration" : 71,
                          "mediaStart" : 1817,
                          "mediaDuration" : 71,
                          "scalar" : 1,
                          "animationTracks" : {

                          }
                        }
,
                    "start" : 2212,
                    "duration" : 71,
                    "mediaStart" : 0,
                    "mediaDuration" : 4649,
                    "scalar" : 1,
                    "metadata" : {
                      "AutoAppliedSmartFocus" : "False",
                      "clipSpeedAttribute" : false
                    }
                  },
                  {
                    "id" : 198,
                    "_type" : "UnifiedMedia",
                    "video" : 
                        {
                          "id" : 199,
                          "_type" : "ScreenVMFile",
                          "src" : 4,
                          "trackNumber" : 0,
                          "attributes" : {
                            "ident" : "Grabación 26-12-{AA}_008"
                          },
                          "parameters" : {
                            "sourceCrop0" : {
                              "type" : "double",
                              "defaultValue" : 0.0,
                              "interp" : "eioe"
                            },
                            "sourceCrop1" : {
                              "type" : "double",
                              "defaultValue" : 0.0,
                              "interp" : "eioe"
                            },
                            "sourceCrop2" : {
                              "type" : "double",
                              "defaultValue" : 0.0,
                              "interp" : "eioe"
                            },
                            "sourceCrop3" : {
                              "type" : "double",
                              "defaultValue" : 0.0,
                              "interp" : "eioe"
                            },
                            "geometryCrop0" : {
                              "type" : "double",
                              "defaultValue" : 0.0,
                              "interp" : "eioe"
                            },
                            "geometryCrop1" : {
                              "type" : "double",
                              "defaultValue" : 0.0,
                              "interp" : "eioe"
                            },
                            "geometryCrop2" : {
                              "type" : "double",
                              "defaultValue" : 0.0,
                              "interp" : "eioe"
                            },
                            "geometryCrop3" : {
                              "type" : "double",
                              "defaultValue" : 0.0,
                              "interp" : "eioe"
                            },
                            "cursorScale" : {
                              "type" : "double",
                              "defaultValue" : 1.0,
                              "interp" : "linr"
                            },
                            "cursorOpacity" : {
                              "type" : "double",
                              "defaultValue" : 1.0,
                              "interp" : "linr"
                            }
                          },
                          "effects" : [

                          ],
                          "start" : 2283,
                          "duration" : 16,
                          "mediaStart" : 1910,
                          "mediaDuration" : 16,
                          "scalar" : 1,
                          "animationTracks" : {

                          }
                        },
                    "audio" : 
                        {
                          "id" : 200,
                          "_type" : "AMFile",
                          "src" : 4,
                          "trackNumber" : 3,
                          "attributes" : {
                            "ident" : "",
                            "gain" : 1.0,
                            "mixToMono" : false
                          },
                            "channelNumber" : "0,1",
                          "effects" : [

                          ],
                          "start" : 2283,
                          "duration" : 16,
                          "mediaStart" : 1910,
                          "mediaDuration" : 16,
                          "scalar" : 1,
                          "animationTracks" : {

                          }
                        }
,
                    "start" : 2283,
                    "duration" : 16,
                    "mediaStart" : 0,
                    "mediaDuration" : 4649,
                    "scalar" : 1,
                    "metadata" : {
                      "AutoAppliedSmartFocus" : "False",
                      "clipSpeedAttribute" : false
                    }
                  },
                  {
                    "id" : 201,
                    "_type" : "UnifiedMedia",
                    "video" : 
                        {
                          "id" : 202,
                          "_type" : "ScreenVMFile",
                          "src" : 4,
                          "trackNumber" : 0,
                          "attributes" : {
                            "ident" : "Grabación 26-12-{AA}_008"
                          },
                          "parameters" : {
                            "sourceCrop0" : {
                              "type" : "double",
                              "defaultValue" : 0.0,
                              "interp" : "eioe"
                            },
                            "sourceCrop1" : {
                              "type" : "double",
                              "defaultValue" : 0.0,
                              "interp" : "eioe"
                            },
                            "sourceCrop2" : {
                              "type" : "double",
                              "defaultValue" : 0.0,
                              "interp" : "eioe"
                            },
                            "sourceCrop3" : {
                              "type" : "double",
                              "defaultValue" : 0.0,
                              "interp" : "eioe"
                            },
                            "geometryCrop0" : {
                              "type" : "double",
                              "defaultValue" : 0.0,
                              "interp" : "eioe"
                            },
                            "geometryCrop1" : {
                              "type" : "double",
                              "defaultValue" : 0.0,
                              "interp" : "eioe"
                            },
                            "geometryCrop2" : {
                              "type" : "double",
                              "defaultValue" : 0.0,
                              "interp" : "eioe"
                            },
                            "geometryCrop3" : {
                              "type" : "double",
                              "defaultValue" : 0.0,
                              "interp" : "eioe"
                            },
                            "cursorScale" : {
                              "type" : "double",
                              "defaultValue" : 1.0,
                              "interp" : "linr"
                            },
                            "cursorOpacity" : {
                              "type" : "double",
                              "defaultValue" : 1.0,
                              "interp" : "linr"
                            }
                          },
                          "effects" : [

                          ],
                          "start" : 2299,
                          "duration" : 25,
                          "mediaStart" : 1927,
                          "mediaDuration" : 25,
                          "scalar" : 1,
                          "animationTracks" : {

                          }
                        },
                    "audio" : 
                        {
                          "id" : 203,
                          "_type" : "AMFile",
                          "src" : 4,
                          "trackNumber" : 3,
                          "attributes" : {
                            "ident" : "",
                            "gain" : 1.0,
                            "mixToMono" : false
                          },
                            "channelNumber" : "0,1",
                          "effects" : [

                          ],
                          "start" : 2299,
                          "duration" : 25,
                          "mediaStart" : 1927,
                          "mediaDuration" : 25,
                          "scalar" : 1,
                          "animationTracks" : {

                          }
                        }
,
                    "start" : 2299,
                    "duration" : 25,
                    "mediaStart" : 0,
                    "mediaDuration" : 4649,
                    "scalar" : 1,
                    "metadata" : {
                      "AutoAppliedSmartFocus" : "False",
                      "clipSpeedAttribute" : false
                    }
                  },
                  {
                    "id" : 204,
                    "_type" : "UnifiedMedia",
                    "video" : 
                        {
                          "id" : 205,
                          "_type" : "ScreenVMFile",
                          "src" : 4,
                          "trackNumber" : 0,
                          "attributes" : {
                            "ident" : "Grabación 26-12-{AA}_008"
                          },
                          "parameters" : {
                            "sourceCrop0" : {
                              "type" : "double",
                              "defaultValue" : 0.0,
                              "interp" : "eioe"
                            },
                            "sourceCrop1" : {
                              "type" : "double",
                              "defaultValue" : 0.0,
                              "interp" : "eioe"
                            },
                            "sourceCrop2" : {
                              "type" : "double",
                              "defaultValue" : 0.0,
                              "interp" : "eioe"
                            },
                            "sourceCrop3" : {
                              "type" : "double",
                              "defaultValue" : 0.0,
                              "interp" : "eioe"
                            },
                            "geometryCrop0" : {
                              "type" : "double",
                              "defaultValue" : 0.0,
                              "interp" : "eioe"
                            },
                            "geometryCrop1" : {
                              "type" : "double",
                              "defaultValue" : 0.0,
                              "interp" : "eioe"
                            },
                            "geometryCrop2" : {
                              "type" : "double",
                              "defaultValue" : 0.0,
                              "interp" : "eioe"
                            },
                            "geometryCrop3" : {
                              "type" : "double",
                              "defaultValue" : 0.0,
                              "interp" : "eioe"
                            },
                            "cursorScale" : {
                              "type" : "double",
                              "defaultValue" : 1.0,
                              "interp" : "linr"
                            },
                            "cursorOpacity" : {
                              "type" : "double",
                              "defaultValue" : 1.0,
                              "interp" : "linr"
                            }
                          },
                          "effects" : [

                          ],
                          "start" : 2324,
                          "duration" : 16,
                          "mediaStart" : 1956,
                          "mediaDuration" : 16,
                          "scalar" : 1,
                          "animationTracks" : {

                          }
                        },
                    "audio" : 
                        {
                          "id" : 206,
                          "_type" : "AMFile",
                          "src" : 4,
                          "trackNumber" : 3,
                          "attributes" : {
                            "ident" : "",
                            "gain" : 1.0,
                            "mixToMono" : false
                          },
                            "channelNumber" : "0,1",
                          "effects" : [

                          ],
                          "start" : 2324,
                          "duration" : 16,
                          "mediaStart" : 1956,
                          "mediaDuration" : 16,
                          "scalar" : 1,
                          "animationTracks" : {

                          }
                        }
,
                    "start" : 2324,
                    "duration" : 16,
                    "mediaStart" : 0,
                    "mediaDuration" : 4649,
                    "scalar" : 1,
                    "metadata" : {
                      "AutoAppliedSmartFocus" : "False",
                      "clipSpeedAttribute" : false
                    }
                  },
                  {
                    "id" : 207,
                    "_type" : "UnifiedMedia",
                    "video" : 
                        {
                          "id" : 208,
                          "_type" : "ScreenVMFile",
                          "src" : 4,
                          "trackNumber" : 0,
                          "attributes" : {
                            "ident" : "Grabación 26-12-{AA}_008"
                          },
                          "parameters" : {
                            "sourceCrop0" : {
                              "type" : "double",
                              "defaultValue" : 0.0,
                              "interp" : "eioe"
                            },
                            "sourceCrop1" : {
                              "type" : "double",
                              "defaultValue" : 0.0,
                              "interp" : "eioe"
                            },
                            "sourceCrop2" : {
                              "type" : "double",
                              "defaultValue" : 0.0,
                              "interp" : "eioe"
                            },
                            "sourceCrop3" : {
                              "type" : "double",
                              "defaultValue" : 0.0,
                              "interp" : "eioe"
                            },
                            "geometryCrop0" : {
                              "type" : "double",
                              "defaultValue" : 0.0,
                              "interp" : "eioe"
                            },
                            "geometryCrop1" : {
                              "type" : "double",
                              "defaultValue" : 0.0,
                              "interp" : "eioe"
                            },
                            "geometryCrop2" : {
                              "type" : "double",
                              "defaultValue" : 0.0,
                              "interp" : "eioe"
                            },
                            "geometryCrop3" : {
                              "type" : "double",
                              "defaultValue" : 0.0,
                              "interp" : "eioe"
                            },
                            "cursorScale" : {
                              "type" : "double",
                              "defaultValue" : 1.0,
                              "interp" : "linr"
                            },
                            "cursorOpacity" : {
                              "type" : "double",
                              "defaultValue" : 1.0,
                              "interp" : "linr"
                            }
                          },
                          "effects" : [

                          ],
                          "start" : 2340,
                          "duration" : 25,
                          "mediaStart" : 2003,
                          "mediaDuration" : 25,
                          "scalar" : 1,
                          "animationTracks" : {

                          }
                        },
                    "audio" : 
                        {
                          "id" : 209,
                          "_type" : "AMFile",
                          "src" : 4,
                          "trackNumber" : 3,
                          "attributes" : {
                            "ident" : "",
                            "gain" : 1.0,
                            "mixToMono" : false
                          },
                            "channelNumber" : "0,1",
                          "effects" : [

                          ],
                          "start" : 2340,
                          "duration" : 25,
                          "mediaStart" : 2003,
                          "mediaDuration" : 25,
                          "scalar" : 1,
                          "animationTracks" : {

                          }
                        }
,
                    "start" : 2340,
                    "duration" : 25,
                    "mediaStart" : 0,
                    "mediaDuration" : 4649,
                    "scalar" : 1,
                    "metadata" : {
                      "AutoAppliedSmartFocus" : "False",
                      "clipSpeedAttribute" : false
                    }
                  },
                  {
                    "id" : 210,
                    "_type" : "UnifiedMedia",
                    "video" : 
                        {
                          "id" : 211,
                          "_type" : "ScreenVMFile",
                          "src" : 4,
                          "trackNumber" : 0,
                          "attributes" : {
                            "ident" : "Grabación 26-12-{AA}_008"
                          },
                          "parameters" : {
                            "sourceCrop0" : {
                              "type" : "double",
                              "defaultValue" : 0.0,
                              "interp" : "eioe"
                            },
                            "sourceCrop1" : {
                              "type" : "double",
                              "defaultValue" : 0.0,
                              "interp" : "eioe"
                            },
                            "sourceCrop2" : {
                              "type" : "double",
                              "defaultValue" : 0.0,
                              "interp" : "eioe"
                            },
                            "sourceCrop3" : {
                              "type" : "double",
                              "defaultValue" : 0.0,
                              "interp" : "eioe"
                            },
                            "geometryCrop0" : {
                              "type" : "double",
                              "defaultValue" : 0.0,
                              "interp" : "eioe"
                            },
                            "geometryCrop1" : {
                              "type" : "double",
                              "defaultValue" : 0.0,
                              "interp" : "eioe"
                            },
                            "geometryCrop2" : {
                              "type" : "double",
                              "defaultValue" : 0.0,
                              "interp" : "eioe"
                            },
                            "geometryCrop3" : {
                              "type" : "double",
                              "defaultValue" : 0.0,
                              "interp" : "eioe"
                            },
                            "cursorScale" : {
                              "type" : "double",
                              "defaultValue" : 1.0,
                              "interp" : "linr"
                            },
                            "cursorOpacity" : {
                              "type" : "double",
                              "defaultValue" : 1.0,
                              "interp" : "linr"
                            }
                          },
                          "effects" : [

                          ],
                          "start" : 2365,
                          "duration" : 56,
                          "mediaStart" : 2103,
                          "mediaDuration" : 56,
                          "scalar" : 1,
                          "animationTracks" : {

                          }
                        },
                    "audio" : 
                        {
                          "id" : 212,
                          "_type" : "AMFile",
                          "src" : 4,
                          "trackNumber" : 3,
                          "attributes" : {
                            "ident" : "",
                            "gain" : 1.0,
                            "mixToMono" : false
                          },
                            "channelNumber" : "0,1",
                          "effects" : [

                          ],
                          "start" : 2365,
                          "duration" : 56,
                          "mediaStart" : 2103,
                          "mediaDuration" : 56,
                          "scalar" : 1,
                          "animationTracks" : {

                          }
                        }
,
                    "start" : 2365,
                    "duration" : 56,
                    "mediaStart" : 0,
                    "mediaDuration" : 4649,
                    "scalar" : 1,
                    "metadata" : {
                      "AutoAppliedSmartFocus" : "False",
                      "clipSpeedAttribute" : false
                    }
                  },
                  {
                    "id" : 213,
                    "_type" : "UnifiedMedia",
                    "video" : 
                        {
                          "id" : 214,
                          "_type" : "ScreenVMFile",
                          "src" : 4,
                          "trackNumber" : 0,
                          "attributes" : {
                            "ident" : "Grabación 26-12-{AA}_008"
                          },
                          "parameters" : {
                            "sourceCrop0" : {
                              "type" : "double",
                              "defaultValue" : 0.0,
                              "interp" : "eioe"
                            },
                            "sourceCrop1" : {
                              "type" : "double",
                              "defaultValue" : 0.0,
                              "interp" : "eioe"
                            },
                            "sourceCrop2" : {
                              "type" : "double",
                              "defaultValue" : 0.0,
                              "interp" : "eioe"
                            },
                            "sourceCrop3" : {
                              "type" : "double",
                              "defaultValue" : 0.0,
                              "interp" : "eioe"
                            },
                            "geometryCrop0" : {
                              "type" : "double",
                              "defaultValue" : 0.0,
                              "interp" : "eioe"
                            },
                            "geometryCrop1" : {
                              "type" : "double",
                              "defaultValue" : 0.0,
                              "interp" : "eioe"
                            },
                            "geometryCrop2" : {
                              "type" : "double",
                              "defaultValue" : 0.0,
                              "interp" : "eioe"
                            },
                            "geometryCrop3" : {
                              "type" : "double",
                              "defaultValue" : 0.0,
                              "interp" : "eioe"
                            },
                            "cursorScale" : {
                              "type" : "double",
                              "defaultValue" : 1.0,
                              "interp" : "linr"
                            },
                            "cursorOpacity" : {
                              "type" : "double",
                              "defaultValue" : 1.0,
                              "interp" : "linr"
                            }
                          },
                          "effects" : [

                          ],
                          "start" : 2421,
                          "duration" : 8,
                          "mediaStart" : 2163,
                          "mediaDuration" : 8,
                          "scalar" : 1,
                          "animationTracks" : {

                          }
                        },
                    "audio" : 
                        {
                          "id" : 215,
                          "_type" : "AMFile",
                          "src" : 4,
                          "trackNumber" : 3,
                          "attributes" : {
                            "ident" : "",
                            "gain" : 1.0,
                            "mixToMono" : false
                          },
                            "channelNumber" : "0,1",
                          "effects" : [

                          ],
                          "start" : 2421,
                          "duration" : 8,
                          "mediaStart" : 2163,
                          "mediaDuration" : 8,
                          "scalar" : 1,
                          "animationTracks" : {

                          }
                        }
,
                    "start" : 2421,
                    "duration" : 8,
                    "mediaStart" : 0,
                    "mediaDuration" : 4649,
                    "scalar" : 1,
                    "metadata" : {
                      "AutoAppliedSmartFocus" : "False",
                      "clipSpeedAttribute" : false
                    }
                  },
                  {
                    "id" : 216,
                    "_type" : "UnifiedMedia",
                    "video" : 
                        {
                          "id" : 217,
                          "_type" : "ScreenVMFile",
                          "src" : 4,
                          "trackNumber" : 0,
                          "attributes" : {
                            "ident" : "Grabación 26-12-{AA}_008"
                          },
                          "parameters" : {
                            "sourceCrop0" : {
                              "type" : "double",
                              "defaultValue" : 0.0,
                              "interp" : "eioe"
                            },
                            "sourceCrop1" : {
                              "type" : "double",
                              "defaultValue" : 0.0,
                              "interp" : "eioe"
                            },
                            "sourceCrop2" : {
                              "type" : "double",
                              "defaultValue" : 0.0,
                              "interp" : "eioe"
                            },
                            "sourceCrop3" : {
                              "type" : "double",
                              "defaultValue" : 0.0,
                              "interp" : "eioe"
                            },
                            "geometryCrop0" : {
                              "type" : "double",
                              "defaultValue" : 0.0,
                              "interp" : "eioe"
                            },
                            "geometryCrop1" : {
                              "type" : "double",
                              "defaultValue" : 0.0,
                              "interp" : "eioe"
                            },
                            "geometryCrop2" : {
                              "type" : "double",
                              "defaultValue" : 0.0,
                              "interp" : "eioe"
                            },
                            "geometryCrop3" : {
                              "type" : "double",
                              "defaultValue" : 0.0,
                              "interp" : "eioe"
                            },
                            "cursorScale" : {
                              "type" : "double",
                              "defaultValue" : 1.0,
                              "interp" : "linr"
                            },
                            "cursorOpacity" : {
                              "type" : "double",
                              "defaultValue" : 1.0,
                              "interp" : "linr"
                            }
                          },
                          "effects" : [

                          ],
                          "start" : 2429,
                          "duration" : 3,
                          "mediaStart" : 2172,
                          "mediaDuration" : 3,
                          "scalar" : 1,
                          "animationTracks" : {

                          }
                        },
                    "audio" : 
                        {
                          "id" : 218,
                          "_type" : "AMFile",
                          "src" : 4,
                          "trackNumber" : 3,
                          "attributes" : {
                            "ident" : "",
                            "gain" : 1.0,
                            "mixToMono" : false
                          },
                            "channelNumber" : "0,1",
                          "effects" : [

                          ],
                          "start" : 2429,
                          "duration" : 3,
                          "mediaStart" : 2172,
                          "mediaDuration" : 3,
                          "scalar" : 1,
                          "animationTracks" : {

                          }
                        }
,
                    "start" : 2429,
                    "duration" : 3,
                    "mediaStart" : 0,
                    "mediaDuration" : 4649,
                    "scalar" : 1,
                    "metadata" : {
                      "AutoAppliedSmartFocus" : "False",
                      "clipSpeedAttribute" : false
                    }
                  },
                  {
                    "id" : 219,
                    "_type" : "UnifiedMedia",
                    "video" : 
                        {
                          "id" : 220,
                          "_type" : "ScreenVMFile",
                          "src" : 4,
                          "trackNumber" : 0,
                          "attributes" : {
                            "ident" : "Grabación 26-12-{AA}_008"
                          },
                          "parameters" : {
                            "sourceCrop0" : {
                              "type" : "double",
                              "defaultValue" : 0.0,
                              "interp" : "eioe"
                            },
                            "sourceCrop1" : {
                              "type" : "double",
                              "defaultValue" : 0.0,
                              "interp" : "eioe"
                            },
                            "sourceCrop2" : {
                              "type" : "double",
                              "defaultValue" : 0.0,
                              "interp" : "eioe"
                            },
                            "sourceCrop3" : {
                              "type" : "double",
                              "defaultValue" : 0.0,
                              "interp" : "eioe"
                            },
                            "geometryCrop0" : {
                              "type" : "double",
                              "defaultValue" : 0.0,
                              "interp" : "eioe"
                            },
                            "geometryCrop1" : {
                              "type" : "double",
                              "defaultValue" : 0.0,
                              "interp" : "eioe"
                            },
                            "geometryCrop2" : {
                              "type" : "double",
                              "defaultValue" : 0.0,
                              "interp" : "eioe"
                            },
                            "geometryCrop3" : {
                              "type" : "double",
                              "defaultValue" : 0.0,
                              "interp" : "eioe"
                            },
                            "cursorScale" : {
                              "type" : "double",
                              "defaultValue" : 1.0,
                              "interp" : "linr"
                            },
                            "cursorOpacity" : {
                              "type" : "double",
                              "defaultValue" : 1.0,
                              "interp" : "linr"
                            }
                          },
                          "effects" : [

                          ],
                          "start" : 2432,
                          "duration" : 8,
                          "mediaStart" : 2175,
                          "mediaDuration" : 8,
                          "scalar" : 1,
                          "animationTracks" : {

                          }
                        },
                    "audio" : 
                        {
                          "id" : 221,
                          "_type" : "AMFile",
                          "src" : 4,
                          "trackNumber" : 3,
                          "attributes" : {
                            "ident" : "",
                            "gain" : 1.0,
                            "mixToMono" : false
                          },
                            "channelNumber" : "0,1",
                          "effects" : [

                          ],
                          "start" : 2432,
                          "duration" : 8,
                          "mediaStart" : 2175,
                          "mediaDuration" : 8,
                          "scalar" : 1,
                          "animationTracks" : {

                          }
                        }
,
                    "start" : 2432,
                    "duration" : 8,
                    "mediaStart" : 0,
                    "mediaDuration" : 4649,
                    "scalar" : 1,
                    "metadata" : {
                      "AutoAppliedSmartFocus" : "False",
                      "clipSpeedAttribute" : false
                    }
                  },
                  {
                    "id" : 222,
                    "_type" : "UnifiedMedia",
                    "video" : 
                        {
                          "id" : 223,
                          "_type" : "ScreenVMFile",
                          "src" : 4,
                          "trackNumber" : 0,
                          "attributes" : {
                            "ident" : "Grabación 26-12-{AA}_008"
                          },
                          "parameters" : {
                            "sourceCrop0" : {
                              "type" : "double",
                              "defaultValue" : 0.0,
                              "interp" : "eioe"
                            },
                            "sourceCrop1" : {
                              "type" : "double",
                              "defaultValue" : 0.0,
                              "interp" : "eioe"
                            },
                            "sourceCrop2" : {
                              "type" : "double",
                              "defaultValue" : 0.0,
                              "interp" : "eioe"
                            },
                            "sourceCrop3" : {
                              "type" : "double",
                              "defaultValue" : 0.0,
                              "interp" : "eioe"
                            },
                            "geometryCrop0" : {
                              "type" : "double",
                              "defaultValue" : 0.0,
                              "interp" : "eioe"
                            },
                            "geometryCrop1" : {
                              "type" : "double",
                              "defaultValue" : 0.0,
                              "interp" : "eioe"
                            },
                            "geometryCrop2" : {
                              "type" : "double",
                              "defaultValue" : 0.0,
                              "interp" : "eioe"
                            },
                            "geometryCrop3" : {
                              "type" : "double",
                              "defaultValue" : 0.0,
                              "interp" : "eioe"
                            },
                            "cursorScale" : {
                              "type" : "double",
                              "defaultValue" : 1.0,
                              "interp" : "linr"
                            },
                            "cursorOpacity" : {
                              "type" : "double",
                              "defaultValue" : 1.0,
                              "interp" : "linr"
                            }
                          },
                          "effects" : [

                          ],
                          "start" : 2440,
                          "duration" : 5,
                          "mediaStart" : 2183,
                          "mediaDuration" : 5,
                          "scalar" : 1,
                          "animationTracks" : {

                          }
                        },
                    "audio" : 
                        {
                          "id" : 224,
                          "_type" : "AMFile",
                          "src" : 4,
                          "trackNumber" : 3,
                          "attributes" : {
                            "ident" : "",
                            "gain" : 1.0,
                            "mixToMono" : false
                          },
                            "channelNumber" : "0,1",
                          "effects" : [

                          ],
                          "start" : 2440,
                          "duration" : 5,
                          "mediaStart" : 2183,
                          "mediaDuration" : 5,
                          "scalar" : 1,
                          "animationTracks" : {

                          }
                        }
,
                    "start" : 2440,
                    "duration" : 5,
                    "mediaStart" : 0,
                    "mediaDuration" : 4649,
                    "scalar" : 1,
                    "metadata" : {
                      "AutoAppliedSmartFocus" : "False",
                      "clipSpeedAttribute" : false
                    }
                  },
                  {
                    "id" : 225,
                    "_type" : "UnifiedMedia",
                    "video" : 
                        {
                          "id" : 226,
                          "_type" : "ScreenVMFile",
                          "src" : 4,
                          "trackNumber" : 0,
                          "attributes" : {
                            "ident" : "Grabación 26-12-{AA}_008"
                          },
                          "parameters" : {
                            "sourceCrop0" : {
                              "type" : "double",
                              "defaultValue" : 0.0,
                              "interp" : "eioe"
                            },
                            "sourceCrop1" : {
                              "type" : "double",
                              "defaultValue" : 0.0,
                              "interp" : "eioe"
                            },
                            "sourceCrop2" : {
                              "type" : "double",
                              "defaultValue" : 0.0,
                              "interp" : "eioe"
                            },
                            "sourceCrop3" : {
                              "type" : "double",
                              "defaultValue" : 0.0,
                              "interp" : "eioe"
                            },
                            "geometryCrop0" : {
                              "type" : "double",
                              "defaultValue" : 0.0,
                              "interp" : "eioe"
                            },
                            "geometryCrop1" : {
                              "type" : "double",
                              "defaultValue" : 0.0,
                              "interp" : "eioe"
                            },
                            "geometryCrop2" : {
                              "type" : "double",
                              "defaultValue" : 0.0,
                              "interp" : "eioe"
                            },
                            "geometryCrop3" : {
                              "type" : "double",
                              "defaultValue" : 0.0,
                              "interp" : "eioe"
                            },
                            "cursorScale" : {
                              "type" : "double",
                              "defaultValue" : 1.0,
                              "interp" : "linr"
                            },
                            "cursorOpacity" : {
                              "type" : "double",
                              "defaultValue" : 1.0,
                              "interp" : "linr"
                            }
                          },
                          "effects" : [

                          ],
                          "start" : 2445,
                          "duration" : 6,
                          "mediaStart" : 2188,
                          "mediaDuration" : 6,
                          "scalar" : 1,
                          "animationTracks" : {

                          }
                        },
                    "audio" : 
                        {
                          "id" : 227,
                          "_type" : "AMFile",
                          "src" : 4,
                          "trackNumber" : 3,
                          "attributes" : {
                            "ident" : "",
                            "gain" : 1.0,
                            "mixToMono" : false
                          },
                            "channelNumber" : "0,1",
                          "effects" : [

                          ],
                          "start" : 2445,
                          "duration" : 6,
                          "mediaStart" : 2188,
                          "mediaDuration" : 6,
                          "scalar" : 1,
                          "animationTracks" : {

                          }
                        }
,
                    "start" : 2445,
                    "duration" : 6,
                    "mediaStart" : 0,
                    "mediaDuration" : 4649,
                    "scalar" : 1,
                    "metadata" : {
                      "AutoAppliedSmartFocus" : "False",
                      "clipSpeedAttribute" : false
                    }
                  },
                  {
                    "id" : 228,
                    "_type" : "UnifiedMedia",
                    "video" : 
                        {
                          "id" : 229,
                          "_type" : "ScreenVMFile",
                          "src" : 4,
                          "trackNumber" : 0,
                          "attributes" : {
                            "ident" : "Grabación 26-12-{AA}_008"
                          },
                          "parameters" : {
                            "sourceCrop0" : {
                              "type" : "double",
                              "defaultValue" : 0.0,
                              "interp" : "eioe"
                            },
                            "sourceCrop1" : {
                              "type" : "double",
                              "defaultValue" : 0.0,
                              "interp" : "eioe"
                            },
                            "sourceCrop2" : {
                              "type" : "double",
                              "defaultValue" : 0.0,
                              "interp" : "eioe"
                            },
                            "sourceCrop3" : {
                              "type" : "double",
                              "defaultValue" : 0.0,
                              "interp" : "eioe"
                            },
                            "geometryCrop0" : {
                              "type" : "double",
                              "defaultValue" : 0.0,
                              "interp" : "eioe"
                            },
                            "geometryCrop1" : {
                              "type" : "double",
                              "defaultValue" : 0.0,
                              "interp" : "eioe"
                            },
                            "geometryCrop2" : {
                              "type" : "double",
                              "defaultValue" : 0.0,
                              "interp" : "eioe"
                            },
                            "geometryCrop3" : {
                              "type" : "double",
                              "defaultValue" : 0.0,
                              "interp" : "eioe"
                            },
                            "cursorScale" : {
                              "type" : "double",
                              "defaultValue" : 1.0,
                              "interp" : "linr"
                            },
                            "cursorOpacity" : {
                              "type" : "double",
                              "defaultValue" : 1.0,
                              "interp" : "linr"
                            }
                          },
                          "effects" : [

                          ],
                          "start" : 2451,
                          "duration" : 28,
                          "mediaStart" : 2223,
                          "mediaDuration" : 28,
                          "scalar" : 1,
                          "animationTracks" : {

                          }
                        },
                    "audio" : 
                        {
                          "id" : 230,
                          "_type" : "AMFile",
                          "src" : 4,
                          "trackNumber" : 3,
                          "attributes" : {
                            "ident" : "",
                            "gain" : 1.0,
                            "mixToMono" : false
                          },
                            "channelNumber" : "0,1",
                          "effects" : [

                          ],
                          "start" : 2451,
                          "duration" : 28,
                          "mediaStart" : 2223,
                          "mediaDuration" : 28,
                          "scalar" : 1,
                          "animationTracks" : {

                          }
                        }
,
                    "start" : 2451,
                    "duration" : 28,
                    "mediaStart" : 0,
                    "mediaDuration" : 4649,
                    "scalar" : 1,
                    "metadata" : {
                      "AutoAppliedSmartFocus" : "False",
                      "clipSpeedAttribute" : false
                    }
                  },
                  {
                    "id" : 231,
                    "_type" : "UnifiedMedia",
                    "video" : 
                        {
                          "id" : 232,
                          "_type" : "ScreenVMFile",
                          "src" : 4,
                          "trackNumber" : 0,
                          "attributes" : {
                            "ident" : "Grabación 26-12-{AA}_008"
                          },
                          "parameters" : {
                            "sourceCrop0" : {
                              "type" : "double",
                              "defaultValue" : 0.0,
                              "interp" : "eioe"
                            },
                            "sourceCrop1" : {
                              "type" : "double",
                              "defaultValue" : 0.0,
                              "interp" : "eioe"
                            },
                            "sourceCrop2" : {
                              "type" : "double",
                              "defaultValue" : 0.0,
                              "interp" : "eioe"
                            },
                            "sourceCrop3" : {
                              "type" : "double",
                              "defaultValue" : 0.0,
                              "interp" : "eioe"
                            },
                            "geometryCrop0" : {
                              "type" : "double",
                              "defaultValue" : 0.0,
                              "interp" : "eioe"
                            },
                            "geometryCrop1" : {
                              "type" : "double",
                              "defaultValue" : 0.0,
                              "interp" : "eioe"
                            },
                            "geometryCrop2" : {
                              "type" : "double",
                              "defaultValue" : 0.0,
                              "interp" : "eioe"
                            },
                            "geometryCrop3" : {
                              "type" : "double",
                              "defaultValue" : 0.0,
                              "interp" : "eioe"
                            },
                            "cursorScale" : {
                              "type" : "double",
                              "defaultValue" : 1.0,
                              "interp" : "linr"
                            },
                            "cursorOpacity" : {
                              "type" : "double",
                              "defaultValue" : 1.0,
                              "interp" : "linr"
                            }
                          },
                          "effects" : [

                          ],
                          "start" : 2479,
                          "duration" : 58,
                          "mediaStart" : 2254,
                          "mediaDuration" : 58,
                          "scalar" : 1,
                          "animationTracks" : {

                          }
                        },
                    "audio" : 
                        {
                          "id" : 233,
                          "_type" : "AMFile",
                          "src" : 4,
                          "trackNumber" : 3,
                          "attributes" : {
                            "ident" : "",
                            "gain" : 1.0,
                            "mixToMono" : false
                          },
                            "channelNumber" : "0,1",
                          "effects" : [

                          ],
                          "start" : 2479,
                          "duration" : 58,
                          "mediaStart" : 2254,
                          "mediaDuration" : 58,
                          "scalar" : 1,
                          "animationTracks" : {

                          }
                        }
,
                    "start" : 2479,
                    "duration" : 58,
                    "mediaStart" : 0,
                    "mediaDuration" : 4649,
                    "scalar" : 1,
                    "metadata" : {
                      "AutoAppliedSmartFocus" : "False",
                      "clipSpeedAttribute" : false
                    }
                  },
                  {
                    "id" : 234,
                    "_type" : "UnifiedMedia",
                    "video" : 
                        {
                          "id" : 235,
                          "_type" : "ScreenVMFile",
                          "src" : 4,
                          "trackNumber" : 0,
                          "attributes" : {
                            "ident" : "Grabación 26-12-{AA}_008"
                          },
                          "parameters" : {
                            "sourceCrop0" : {
                              "type" : "double",
                              "defaultValue" : 0.0,
                              "interp" : "eioe"
                            },
                            "sourceCrop1" : {
                              "type" : "double",
                              "defaultValue" : 0.0,
                              "interp" : "eioe"
                            },
                            "sourceCrop2" : {
                              "type" : "double",
                              "defaultValue" : 0.0,
                              "interp" : "eioe"
                            },
                            "sourceCrop3" : {
                              "type" : "double",
                              "defaultValue" : 0.0,
                              "interp" : "eioe"
                            },
                            "geometryCrop0" : {
                              "type" : "double",
                              "defaultValue" : 0.0,
                              "interp" : "eioe"
                            },
                            "geometryCrop1" : {
                              "type" : "double",
                              "defaultValue" : 0.0,
                              "interp" : "eioe"
                            },
                            "geometryCrop2" : {
                              "type" : "double",
                              "defaultValue" : 0.0,
                              "interp" : "eioe"
                            },
                            "geometryCrop3" : {
                              "type" : "double",
                              "defaultValue" : 0.0,
                              "interp" : "eioe"
                            },
                            "cursorScale" : {
                              "type" : "double",
                              "defaultValue" : 1.0,
                              "interp" : "linr"
                            },
                            "cursorOpacity" : {
                              "type" : "double",
                              "defaultValue" : 1.0,
                              "interp" : "linr"
                            }
                          },
                          "effects" : [

                          ],
                          "start" : 2537,
                          "duration" : 32,
                          "mediaStart" : 2331,
                          "mediaDuration" : 32,
                          "scalar" : 1,
                          "animationTracks" : {

                          }
                        },
                    "audio" : 
                        {
                          "id" : 236,
                          "_type" : "AMFile",
                          "src" : 4,
                          "trackNumber" : 3,
                          "attributes" : {
                            "ident" : "",
                            "gain" : 1.0,
                            "mixToMono" : false
                          },
                            "channelNumber" : "0,1",
                          "effects" : [

                          ],
                          "start" : 2537,
                          "duration" : 32,
                          "mediaStart" : 2331,
                          "mediaDuration" : 32,
                          "scalar" : 1,
                          "animationTracks" : {

                          }
                        }
,
                    "start" : 2537,
                    "duration" : 32,
                    "mediaStart" : 0,
                    "mediaDuration" : 4649,
                    "scalar" : 1,
                    "metadata" : {
                      "AutoAppliedSmartFocus" : "False",
                      "clipSpeedAttribute" : false
                    }
                  },
                  {
                    "id" : 237,
                    "_type" : "UnifiedMedia",
                    "video" : 
                        {
                          "id" : 238,
                          "_type" : "ScreenVMFile",
                          "src" : 4,
                          "trackNumber" : 0,
                          "attributes" : {
                            "ident" : "Grabación 26-12-{AA}_008"
                          },
                          "parameters" : {
                            "sourceCrop0" : {
                              "type" : "double",
                              "defaultValue" : 0.0,
                              "interp" : "eioe"
                            },
                            "sourceCrop1" : {
                              "type" : "double",
                              "defaultValue" : 0.0,
                              "interp" : "eioe"
                            },
                            "sourceCrop2" : {
                              "type" : "double",
                              "defaultValue" : 0.0,
                              "interp" : "eioe"
                            },
                            "sourceCrop3" : {
                              "type" : "double",
                              "defaultValue" : 0.0,
                              "interp" : "eioe"
                            },
                            "geometryCrop0" : {
                              "type" : "double",
                              "defaultValue" : 0.0,
                              "interp" : "eioe"
                            },
                            "geometryCrop1" : {
                              "type" : "double",
                              "defaultValue" : 0.0,
                              "interp" : "eioe"
                            },
                            "geometryCrop2" : {
                              "type" : "double",
                              "defaultValue" : 0.0,
                              "interp" : "eioe"
                            },
                            "geometryCrop3" : {
                              "type" : "double",
                              "defaultValue" : 0.0,
                              "interp" : "eioe"
                            },
                            "cursorScale" : {
                              "type" : "double",
                              "defaultValue" : 1.0,
                              "interp" : "linr"
                            },
                            "cursorOpacity" : {
                              "type" : "double",
                              "defaultValue" : 1.0,
                              "interp" : "linr"
                            }
                          },
                          "effects" : [

                          ],
                          "start" : 2569,
                          "duration" : 31,
                          "mediaStart" : 2484,
                          "mediaDuration" : 31,
                          "scalar" : 1,
                          "animationTracks" : {

                          }
                        },
                    "audio" : 
                        {
                          "id" : 239,
                          "_type" : "AMFile",
                          "src" : 4,
                          "trackNumber" : 3,
                          "attributes" : {
                            "ident" : "",
                            "gain" : 1.0,
                            "mixToMono" : false
                          },
                            "channelNumber" : "0,1",
                          "effects" : [

                          ],
                          "start" : 2569,
                          "duration" : 31,
                          "mediaStart" : 2484,
                          "mediaDuration" : 31,
                          "scalar" : 1,
                          "animationTracks" : {

                          }
                        }
,
                    "start" : 2569,
                    "duration" : 31,
                    "mediaStart" : 0,
                    "mediaDuration" : 4649,
                    "scalar" : 1,
                    "metadata" : {
                      "AutoAppliedSmartFocus" : "False",
                      "clipSpeedAttribute" : false
                    }
                  },
                  {
                    "id" : 240,
                    "_type" : "UnifiedMedia",
                    "video" : 
                        {
                          "id" : 241,
                          "_type" : "ScreenVMFile",
                          "src" : 4,
                          "trackNumber" : 0,
                          "attributes" : {
                            "ident" : "Grabación 26-12-{AA}_008"
                          },
                          "parameters" : {
                            "sourceCrop0" : {
                              "type" : "double",
                              "defaultValue" : 0.0,
                              "interp" : "eioe"
                            },
                            "sourceCrop1" : {
                              "type" : "double",
                              "defaultValue" : 0.0,
                              "interp" : "eioe"
                            },
                            "sourceCrop2" : {
                              "type" : "double",
                              "defaultValue" : 0.0,
                              "interp" : "eioe"
                            },
                            "sourceCrop3" : {
                              "type" : "double",
                              "defaultValue" : 0.0,
                              "interp" : "eioe"
                            },
                            "geometryCrop0" : {
                              "type" : "double",
                              "defaultValue" : 0.0,
                              "interp" : "eioe"
                            },
                            "geometryCrop1" : {
                              "type" : "double",
                              "defaultValue" : 0.0,
                              "interp" : "eioe"
                            },
                            "geometryCrop2" : {
                              "type" : "double",
                              "defaultValue" : 0.0,
                              "interp" : "eioe"
                            },
                            "geometryCrop3" : {
                              "type" : "double",
                              "defaultValue" : 0.0,
                              "interp" : "eioe"
                            },
                            "cursorScale" : {
                              "type" : "double",
                              "defaultValue" : 1.0,
                              "interp" : "linr"
                            },
                            "cursorOpacity" : {
                              "type" : "double",
                              "defaultValue" : 1.0,
                              "interp" : "linr"
                            }
                          },
                          "effects" : [

                          ],
                          "start" : 2600,
                          "duration" : 57,
                          "mediaStart" : 2565,
                          "mediaDuration" : 57,
                          "scalar" : 1,
                          "animationTracks" : {

                          }
                        },
                    "audio" : 
                        {
                          "id" : 242,
                          "_type" : "AMFile",
                          "src" : 4,
                          "trackNumber" : 3,
                          "attributes" : {
                            "ident" : "",
                            "gain" : 1.0,
                            "mixToMono" : false
                          },
                            "channelNumber" : "0,1",
                          "effects" : [

                          ],
                          "start" : 2600,
                          "duration" : 57,
                          "mediaStart" : 2565,
                          "mediaDuration" : 57,
                          "scalar" : 1,
                          "animationTracks" : {

                          }
                        }
,
                    "start" : 2600,
                    "duration" : 57,
                    "mediaStart" : 0,
                    "mediaDuration" : 4649,
                    "scalar" : 1,
                    "metadata" : {
                      "AutoAppliedSmartFocus" : "False",
                      "clipSpeedAttribute" : false
                    }
                  },
                  {
                    "id" : 243,
                    "_type" : "UnifiedMedia",
                    "video" : 
                        {
                          "id" : 244,
                          "_type" : "ScreenVMFile",
                          "src" : 4,
                          "trackNumber" : 0,
                          "attributes" : {
                            "ident" : "Grabación 26-12-{AA}_008"
                          },
                          "parameters" : {
                            "sourceCrop0" : {
                              "type" : "double",
                              "defaultValue" : 0.0,
                              "interp" : "eioe"
                            },
                            "sourceCrop1" : {
                              "type" : "double",
                              "defaultValue" : 0.0,
                              "interp" : "eioe"
                            },
                            "sourceCrop2" : {
                              "type" : "double",
                              "defaultValue" : 0.0,
                              "interp" : "eioe"
                            },
                            "sourceCrop3" : {
                              "type" : "double",
                              "defaultValue" : 0.0,
                              "interp" : "eioe"
                            },
                            "geometryCrop0" : {
                              "type" : "double",
                              "defaultValue" : 0.0,
                              "interp" : "eioe"
                            },
                            "geometryCrop1" : {
                              "type" : "double",
                              "defaultValue" : 0.0,
                              "interp" : "eioe"
                            },
                            "geometryCrop2" : {
                              "type" : "double",
                              "defaultValue" : 0.0,
                              "interp" : "eioe"
                            },
                            "geometryCrop3" : {
                              "type" : "double",
                              "defaultValue" : 0.0,
                              "interp" : "eioe"
                            },
                            "cursorScale" : {
                              "type" : "double",
                              "defaultValue" : 1.0,
                              "interp" : "linr"
                            },
                            "cursorOpacity" : {
                              "type" : "double",
                              "defaultValue" : 1.0,
                              "interp" : "linr"
                            }
                          },
                          "effects" : [

                          ],
                          "start" : 2657,
                          "duration" : 8,
                          "mediaStart" : 2637,
                          "mediaDuration" : 8,
                          "scalar" : 1,
                          "animationTracks" : {

                          }
                        },
                    "audio" : 
                        {
                          "id" : 245,
                          "_type" : "AMFile",
                          "src" : 4,
                          "trackNumber" : 3,
                          "attributes" : {
                            "ident" : "",
                            "gain" : 1.0,
                            "mixToMono" : false
                          },
                            "channelNumber" : "0,1",
                          "effects" : [

                          ],
                          "start" : 2657,
                          "duration" : 8,
                          "mediaStart" : 2637,
                          "mediaDuration" : 8,
                          "scalar" : 1,
                          "animationTracks" : {

                          }
                        }
,
                    "start" : 2657,
                    "duration" : 8,
                    "mediaStart" : 0,
                    "mediaDuration" : 4649,
                    "scalar" : 1,
                    "metadata" : {
                      "AutoAppliedSmartFocus" : "False",
                      "clipSpeedAttribute" : false
                    }
                  },
                  {
                    "id" : 246,
                    "_type" : "UnifiedMedia",
                    "video" : 
                        {
                          "id" : 247,
                          "_type" : "ScreenVMFile",
                          "src" : 4,
                          "trackNumber" : 0,
                          "attributes" : {
                            "ident" : "Grabación 26-12-{AA}_008"
                          },
                          "parameters" : {
                            "sourceCrop0" : {
                              "type" : "double",
                              "defaultValue" : 0.0,
                              "interp" : "eioe"
                            },
                            "sourceCrop1" : {
                              "type" : "double",
                              "defaultValue" : 0.0,
                              "interp" : "eioe"
                            },
                            "sourceCrop2" : {
                              "type" : "double",
                              "defaultValue" : 0.0,
                              "interp" : "eioe"
                            },
                            "sourceCrop3" : {
                              "type" : "double",
                              "defaultValue" : 0.0,
                              "interp" : "eioe"
                            },
                            "geometryCrop0" : {
                              "type" : "double",
                              "defaultValue" : 0.0,
                              "interp" : "eioe"
                            },
                            "geometryCrop1" : {
                              "type" : "double",
                              "defaultValue" : 0.0,
                              "interp" : "eioe"
                            },
                            "geometryCrop2" : {
                              "type" : "double",
                              "defaultValue" : 0.0,
                              "interp" : "eioe"
                            },
                            "geometryCrop3" : {
                              "type" : "double",
                              "defaultValue" : 0.0,
                              "interp" : "eioe"
                            },
                            "cursorScale" : {
                              "type" : "double",
                              "defaultValue" : 1.0,
                              "interp" : "linr"
                            },
                            "cursorOpacity" : {
                              "type" : "double",
                              "defaultValue" : 1.0,
                              "interp" : "linr"
                            }
                          },
                          "effects" : [

                          ],
                          "start" : 2665,
                          "duration" : 43,
                          "mediaStart" : 2650,
                          "mediaDuration" : 43,
                          "scalar" : 1,
                          "animationTracks" : {

                          }
                        },
                    "audio" : 
                        {
                          "id" : 248,
                          "_type" : "AMFile",
                          "src" : 4,
                          "trackNumber" : 3,
                          "attributes" : {
                            "ident" : "",
                            "gain" : 1.0,
                            "mixToMono" : false
                          },
                            "channelNumber" : "0,1",
                          "effects" : [

                          ],
                          "start" : 2665,
                          "duration" : 43,
                          "mediaStart" : 2650,
                          "mediaDuration" : 43,
                          "scalar" : 1,
                          "animationTracks" : {

                          }
                        }
,
                    "start" : 2665,
                    "duration" : 43,
                    "mediaStart" : 0,
                    "mediaDuration" : 4649,
                    "scalar" : 1,
                    "metadata" : {
                      "AutoAppliedSmartFocus" : "False",
                      "clipSpeedAttribute" : false
                    }
                  },
                  {
                    "id" : 249,
                    "_type" : "UnifiedMedia",
                    "video" : 
                        {
                          "id" : 250,
                          "_type" : "ScreenVMFile",
                          "src" : 4,
                          "trackNumber" : 0,
                          "attributes" : {
                            "ident" : "Grabación 26-12-{AA}_008"
                          },
                          "parameters" : {
                            "sourceCrop0" : {
                              "type" : "double",
                              "defaultValue" : 0.0,
                              "interp" : "eioe"
                            },
                            "sourceCrop1" : {
                              "type" : "double",
                              "defaultValue" : 0.0,
                              "interp" : "eioe"
                            },
                            "sourceCrop2" : {
                              "type" : "double",
                              "defaultValue" : 0.0,
                              "interp" : "eioe"
                            },
                            "sourceCrop3" : {
                              "type" : "double",
                              "defaultValue" : 0.0,
                              "interp" : "eioe"
                            },
                            "geometryCrop0" : {
                              "type" : "double",
                              "defaultValue" : 0.0,
                              "interp" : "eioe"
                            },
                            "geometryCrop1" : {
                              "type" : "double",
                              "defaultValue" : 0.0,
                              "interp" : "eioe"
                            },
                            "geometryCrop2" : {
                              "type" : "double",
                              "defaultValue" : 0.0,
                              "interp" : "eioe"
                            },
                            "geometryCrop3" : {
                              "type" : "double",
                              "defaultValue" : 0.0,
                              "interp" : "eioe"
                            },
                            "cursorScale" : {
                              "type" : "double",
                              "defaultValue" : 1.0,
                              "interp" : "linr"
                            },
                            "cursorOpacity" : {
                              "type" : "double",
                              "defaultValue" : 1.0,
                              "interp" : "linr"
                            }
                          },
                          "effects" : [

                          ],
                          "start" : 2708,
                          "duration" : 63,
                          "mediaStart" : 2706,
                          "mediaDuration" : 63,
                          "scalar" : 1,
                          "animationTracks" : {

                          }
                        },
                    "audio" : 
                        {
                          "id" : 251,
                          "_type" : "AMFile",
                          "src" : 4,
                          "trackNumber" : 3,
                          "attributes" : {
                            "ident" : "",
                            "gain" : 1.0,
                            "mixToMono" : false
                          },
                            "channelNumber" : "0,1",
                          "effects" : [

                          ],
                          "start" : 2708,
                          "duration" : 63,
                          "mediaStart" : 2706,
                          "mediaDuration" : 63,
                          "scalar" : 1,
                          "animationTracks" : {

                          }
                        }
,
                    "start" : 2708,
                    "duration" : 63,
                    "mediaStart" : 0,
                    "mediaDuration" : 4649,
                    "scalar" : 1,
                    "metadata" : {
                      "AutoAppliedSmartFocus" : "False",
                      "clipSpeedAttribute" : false
                    }
                  },
                  {
                    "id" : 252,
                    "_type" : "UnifiedMedia",
                    "video" : 
                        {
                          "id" : 253,
                          "_type" : "ScreenVMFile",
                          "src" : 4,
                          "trackNumber" : 0,
                          "attributes" : {
                            "ident" : "Grabación 26-12-{AA}_008"
                          },
                          "parameters" : {
                            "sourceCrop0" : {
                              "type" : "double",
                              "defaultValue" : 0.0,
                              "interp" : "eioe"
                            },
                            "sourceCrop1" : {
                              "type" : "double",
                              "defaultValue" : 0.0,
                              "interp" : "eioe"
                            },
                            "sourceCrop2" : {
                              "type" : "double",
                              "defaultValue" : 0.0,
                              "interp" : "eioe"
                            },
                            "sourceCrop3" : {
                              "type" : "double",
                              "defaultValue" : 0.0,
                              "interp" : "eioe"
                            },
                            "geometryCrop0" : {
                              "type" : "double",
                              "defaultValue" : 0.0,
                              "interp" : "eioe"
                            },
                            "geometryCrop1" : {
                              "type" : "double",
                              "defaultValue" : 0.0,
                              "interp" : "eioe"
                            },
                            "geometryCrop2" : {
                              "type" : "double",
                              "defaultValue" : 0.0,
                              "interp" : "eioe"
                            },
                            "geometryCrop3" : {
                              "type" : "double",
                              "defaultValue" : 0.0,
                              "interp" : "eioe"
                            },
                            "cursorScale" : {
                              "type" : "double",
                              "defaultValue" : 1.0,
                              "interp" : "linr"
                            },
                            "cursorOpacity" : {
                              "type" : "double",
                              "defaultValue" : 1.0,
                              "interp" : "linr"
                            }
                          },
                          "effects" : [

                          ],
                          "start" : 2771,
                          "duration" : 58,
                          "mediaStart" : 2779,
                          "mediaDuration" : 58,
                          "scalar" : 1,
                          "animationTracks" : {

                          }
                        },
                    "audio" : 
                        {
                          "id" : 254,
                          "_type" : "AMFile",
                          "src" : 4,
                          "trackNumber" : 3,
                          "attributes" : {
                            "ident" : "",
                            "gain" : 1.0,
                            "mixToMono" : false
                          },
                            "channelNumber" : "0,1",
                          "effects" : [

                          ],
                          "start" : 2771,
                          "duration" : 58,
                          "mediaStart" : 2779,
                          "mediaDuration" : 58,
                          "scalar" : 1,
                          "animationTracks" : {

                          }
                        }
,
                    "start" : 2771,
                    "duration" : 58,
                    "mediaStart" : 0,
                    "mediaDuration" : 4649,
                    "scalar" : 1,
                    "metadata" : {
                      "AutoAppliedSmartFocus" : "False",
                      "clipSpeedAttribute" : false
                    }
                  },
                  {
                    "id" : 255,
                    "_type" : "UnifiedMedia",
                    "video" : 
                        {
                          "id" : 256,
                          "_type" : "ScreenVMFile",
                          "src" : 4,
                          "trackNumber" : 0,
                          "attributes" : {
                            "ident" : "Grabación 26-12-{AA}_008"
                          },
                          "parameters" : {
                            "sourceCrop0" : {
                              "type" : "double",
                              "defaultValue" : 0.0,
                              "interp" : "eioe"
                            },
                            "sourceCrop1" : {
                              "type" : "double",
                              "defaultValue" : 0.0,
                              "interp" : "eioe"
                            },
                            "sourceCrop2" : {
                              "type" : "double",
                              "defaultValue" : 0.0,
                              "interp" : "eioe"
                            },
                            "sourceCrop3" : {
                              "type" : "double",
                              "defaultValue" : 0.0,
                              "interp" : "eioe"
                            },
                            "geometryCrop0" : {
                              "type" : "double",
                              "defaultValue" : 0.0,
                              "interp" : "eioe"
                            },
                            "geometryCrop1" : {
                              "type" : "double",
                              "defaultValue" : 0.0,
                              "interp" : "eioe"
                            },
                            "geometryCrop2" : {
                              "type" : "double",
                              "defaultValue" : 0.0,
                              "interp" : "eioe"
                            },
                            "geometryCrop3" : {
                              "type" : "double",
                              "defaultValue" : 0.0,
                              "interp" : "eioe"
                            },
                            "cursorScale" : {
                              "type" : "double",
                              "defaultValue" : 1.0,
                              "interp" : "linr"
                            },
                            "cursorOpacity" : {
                              "type" : "double",
                              "defaultValue" : 1.0,
                              "interp" : "linr"
                            }
                          },
                          "effects" : [

                          ],
                          "start" : 2829,
                          "duration" : 16,
                          "mediaStart" : 2843,
                          "mediaDuration" : 16,
                          "scalar" : 1,
                          "animationTracks" : {

                          }
                        },
                    "audio" : 
                        {
                          "id" : 257,
                          "_type" : "AMFile",
                          "src" : 4,
                          "trackNumber" : 3,
                          "attributes" : {
                            "ident" : "",
                            "gain" : 1.0,
                            "mixToMono" : false
                          },
                            "channelNumber" : "0,1",
                          "effects" : [

                          ],
                          "start" : 2829,
                          "duration" : 16,
                          "mediaStart" : 2843,
                          "mediaDuration" : 16,
                          "scalar" : 1,
                          "animationTracks" : {

                          }
                        }
,
                    "start" : 2829,
                    "duration" : 16,
                    "mediaStart" : 0,
                    "mediaDuration" : 4649,
                    "scalar" : 1,
                    "metadata" : {
                      "AutoAppliedSmartFocus" : "False",
                      "clipSpeedAttribute" : false
                    }
                  },
                  {
                    "id" : 258,
                    "_type" : "UnifiedMedia",
                    "video" : 
                        {
                          "id" : 259,
                          "_type" : "ScreenVMFile",
                          "src" : 4,
                          "trackNumber" : 0,
                          "attributes" : {
                            "ident" : "Grabación 26-12-{AA}_008"
                          },
                          "parameters" : {
                            "sourceCrop0" : {
                              "type" : "double",
                              "defaultValue" : 0.0,
                              "interp" : "eioe"
                            },
                            "sourceCrop1" : {
                              "type" : "double",
                              "defaultValue" : 0.0,
                              "interp" : "eioe"
                            },
                            "sourceCrop2" : {
                              "type" : "double",
                              "defaultValue" : 0.0,
                              "interp" : "eioe"
                            },
                            "sourceCrop3" : {
                              "type" : "double",
                              "defaultValue" : 0.0,
                              "interp" : "eioe"
                            },
                            "geometryCrop0" : {
                              "type" : "double",
                              "defaultValue" : 0.0,
                              "interp" : "eioe"
                            },
                            "geometryCrop1" : {
                              "type" : "double",
                              "defaultValue" : 0.0,
                              "interp" : "eioe"
                            },
                            "geometryCrop2" : {
                              "type" : "double",
                              "defaultValue" : 0.0,
                              "interp" : "eioe"
                            },
                            "geometryCrop3" : {
                              "type" : "double",
                              "defaultValue" : 0.0,
                              "interp" : "eioe"
                            },
                            "cursorScale" : {
                              "type" : "double",
                              "defaultValue" : 1.0,
                              "interp" : "linr"
                            },
                            "cursorOpacity" : {
                              "type" : "double",
                              "defaultValue" : 1.0,
                              "interp" : "linr"
                            }
                          },
                          "effects" : [

                          ],
                          "start" : 2845,
                          "duration" : 76,
                          "mediaStart" : 2888,
                          "mediaDuration" : 76,
                          "scalar" : 1,
                          "animationTracks" : {

                          }
                        },
                    "audio" : 
                        {
                          "id" : 260,
                          "_type" : "AMFile",
                          "src" : 4,
                          "trackNumber" : 3,
                          "attributes" : {
                            "ident" : "",
                            "gain" : 1.0,
                            "mixToMono" : false
                          },
                            "channelNumber" : "0,1",
                          "effects" : [

                          ],
                          "start" : 2845,
                          "duration" : 76,
                          "mediaStart" : 2888,
                          "mediaDuration" : 76,
                          "scalar" : 1,
                          "animationTracks" : {

                          }
                        }
,
                    "start" : 2845,
                    "duration" : 76,
                    "mediaStart" : 0,
                    "mediaDuration" : 4649,
                    "scalar" : 1,
                    "metadata" : {
                      "AutoAppliedSmartFocus" : "False",
                      "clipSpeedAttribute" : false
                    }
                  },
                  {
                    "id" : 261,
                    "_type" : "UnifiedMedia",
                    "video" : 
                        {
                          "id" : 262,
                          "_type" : "ScreenVMFile",
                          "src" : 4,
                          "trackNumber" : 0,
                          "attributes" : {
                            "ident" : "Grabación 26-12-{AA}_008"
                          },
                          "parameters" : {
                            "sourceCrop0" : {
                              "type" : "double",
                              "defaultValue" : 0.0,
                              "interp" : "eioe"
                            },
                            "sourceCrop1" : {
                              "type" : "double",
                              "defaultValue" : 0.0,
                              "interp" : "eioe"
                            },
                            "sourceCrop2" : {
                              "type" : "double",
                              "defaultValue" : 0.0,
                              "interp" : "eioe"
                            },
                            "sourceCrop3" : {
                              "type" : "double",
                              "defaultValue" : 0.0,
                              "interp" : "eioe"
                            },
                            "geometryCrop0" : {
                              "type" : "double",
                              "defaultValue" : 0.0,
                              "interp" : "eioe"
                            },
                            "geometryCrop1" : {
                              "type" : "double",
                              "defaultValue" : 0.0,
                              "interp" : "eioe"
                            },
                            "geometryCrop2" : {
                              "type" : "double",
                              "defaultValue" : 0.0,
                              "interp" : "eioe"
                            },
                            "geometryCrop3" : {
                              "type" : "double",
                              "defaultValue" : 0.0,
                              "interp" : "eioe"
                            },
                            "cursorScale" : {
                              "type" : "double",
                              "defaultValue" : 1.0,
                              "interp" : "linr"
                            },
                            "cursorOpacity" : {
                              "type" : "double",
                              "defaultValue" : 1.0,
                              "interp" : "linr"
                            }
                          },
                          "effects" : [

                          ],
                          "start" : 2921,
                          "duration" : 98,
                          "mediaStart" : 2985,
                          "mediaDuration" : 98,
                          "scalar" : 1,
                          "animationTracks" : {

                          }
                        },
                    "audio" : 
                        {
                          "id" : 263,
                          "_type" : "AMFile",
                          "src" : 4,
                          "trackNumber" : 3,
                          "attributes" : {
                            "ident" : "",
                            "gain" : 1.0,
                            "mixToMono" : false
                          },
                            "channelNumber" : "0,1",
                          "effects" : [

                          ],
                          "start" : 2921,
                          "duration" : 98,
                          "mediaStart" : 2985,
                          "mediaDuration" : 98,
                          "scalar" : 1,
                          "animationTracks" : {

                          }
                        }
,
                    "start" : 2921,
                    "duration" : 98,
                    "mediaStart" : 0,
                    "mediaDuration" : 4649,
                    "scalar" : 1,
                    "metadata" : {
                      "AutoAppliedSmartFocus" : "False",
                      "clipSpeedAttribute" : false
                    }
                  },
                  {
                    "id" : 264,
                    "_type" : "UnifiedMedia",
                    "video" : 
                        {
                          "id" : 265,
                          "_type" : "ScreenVMFile",
                          "src" : 4,
                          "trackNumber" : 0,
                          "attributes" : {
                            "ident" : "Grabación 26-12-{AA}_008"
                          },
                          "parameters" : {
                            "sourceCrop0" : {
                              "type" : "double",
                              "defaultValue" : 0.0,
                              "interp" : "eioe"
                            },
                            "sourceCrop1" : {
                              "type" : "double",
                              "defaultValue" : 0.0,
                              "interp" : "eioe"
                            },
                            "sourceCrop2" : {
                              "type" : "double",
                              "defaultValue" : 0.0,
                              "interp" : "eioe"
                            },
                            "sourceCrop3" : {
                              "type" : "double",
                              "defaultValue" : 0.0,
                              "interp" : "eioe"
                            },
                            "geometryCrop0" : {
                              "type" : "double",
                              "defaultValue" : 0.0,
                              "interp" : "eioe"
                            },
                            "geometryCrop1" : {
                              "type" : "double",
                              "defaultValue" : 0.0,
                              "interp" : "eioe"
                            },
                            "geometryCrop2" : {
                              "type" : "double",
                              "defaultValue" : 0.0,
                              "interp" : "eioe"
                            },
                            "geometryCrop3" : {
                              "type" : "double",
                              "defaultValue" : 0.0,
                              "interp" : "eioe"
                            },
                            "cursorScale" : {
                              "type" : "double",
                              "defaultValue" : 1.0,
                              "interp" : "linr"
                            },
                            "cursorOpacity" : {
                              "type" : "double",
                              "defaultValue" : 1.0,
                              "interp" : "linr"
                            }
                          },
                          "effects" : [

                          ],
                          "start" : 3019,
                          "duration" : 11,
                          "mediaStart" : 3087,
                          "mediaDuration" : 11,
                          "scalar" : 1,
                          "animationTracks" : {

                          }
                        },
                    "audio" : 
                        {
                          "id" : 266,
                          "_type" : "AMFile",
                          "src" : 4,
                          "trackNumber" : 3,
                          "attributes" : {
                            "ident" : "",
                            "gain" : 1.0,
                            "mixToMono" : false
                          },
                            "channelNumber" : "0,1",
                          "effects" : [

                          ],
                          "start" : 3019,
                          "duration" : 11,
                          "mediaStart" : 3087,
                          "mediaDuration" : 11,
                          "scalar" : 1,
                          "animationTracks" : {

                          }
                        }
,
                    "start" : 3019,
                    "duration" : 11,
                    "mediaStart" : 0,
                    "mediaDuration" : 4649,
                    "scalar" : 1,
                    "metadata" : {
                      "AutoAppliedSmartFocus" : "False",
                      "clipSpeedAttribute" : false
                    }
                  },
                  {
                    "id" : 267,
                    "_type" : "UnifiedMedia",
                    "video" : 
                        {
                          "id" : 268,
                          "_type" : "ScreenVMFile",
                          "src" : 4,
                          "trackNumber" : 0,
                          "attributes" : {
                            "ident" : "Grabación 26-12-{AA}_008"
                          },
                          "parameters" : {
                            "sourceCrop0" : {
                              "type" : "double",
                              "defaultValue" : 0.0,
                              "interp" : "eioe"
                            },
                            "sourceCrop1" : {
                              "type" : "double",
                              "defaultValue" : 0.0,
                              "interp" : "eioe"
                            },
                            "sourceCrop2" : {
                              "type" : "double",
                              "defaultValue" : 0.0,
                              "interp" : "eioe"
                            },
                            "sourceCrop3" : {
                              "type" : "double",
                              "defaultValue" : 0.0,
                              "interp" : "eioe"
                            },
                            "geometryCrop0" : {
                              "type" : "double",
                              "defaultValue" : 0.0,
                              "interp" : "eioe"
                            },
                            "geometryCrop1" : {
                              "type" : "double",
                              "defaultValue" : 0.0,
                              "interp" : "eioe"
                            },
                            "geometryCrop2" : {
                              "type" : "double",
                              "defaultValue" : 0.0,
                              "interp" : "eioe"
                            },
                            "geometryCrop3" : {
                              "type" : "double",
                              "defaultValue" : 0.0,
                              "interp" : "eioe"
                            },
                            "cursorScale" : {
                              "type" : "double",
                              "defaultValue" : 1.0,
                              "interp" : "linr"
                            },
                            "cursorOpacity" : {
                              "type" : "double",
                              "defaultValue" : 1.0,
                              "interp" : "linr"
                            }
                          },
                          "effects" : [

                          ],
                          "start" : 3030,
                          "duration" : 156,
                          "mediaStart" : 3158,
                          "mediaDuration" : 156,
                          "scalar" : 1,
                          "animationTracks" : {

                          }
                        },
                    "audio" : 
                        {
                          "id" : 269,
                          "_type" : "AMFile",
                          "src" : 4,
                          "trackNumber" : 3,
                          "attributes" : {
                            "ident" : "",
                            "gain" : 1.0,
                            "mixToMono" : false
                          },
                            "channelNumber" : "0,1",
                          "effects" : [

                          ],
                          "start" : 3030,
                          "duration" : 156,
                          "mediaStart" : 3158,
                          "mediaDuration" : 156,
                          "scalar" : 1,
                          "animationTracks" : {

                          }
                        }
,
                    "start" : 3030,
                    "duration" : 156,
                    "mediaStart" : 0,
                    "mediaDuration" : 4649,
                    "scalar" : 1,
                    "metadata" : {
                      "AutoAppliedSmartFocus" : "False",
                      "clipSpeedAttribute" : false
                    }
                  },
                  {
                    "id" : 270,
                    "_type" : "UnifiedMedia",
                    "video" : 
                        {
                          "id" : 271,
                          "_type" : "ScreenVMFile",
                          "src" : 4,
                          "trackNumber" : 0,
                          "attributes" : {
                            "ident" : "Grabación 26-12-{AA}_008"
                          },
                          "parameters" : {
                            "sourceCrop0" : {
                              "type" : "double",
                              "defaultValue" : 0.0,
                              "interp" : "eioe"
                            },
                            "sourceCrop1" : {
                              "type" : "double",
                              "defaultValue" : 0.0,
                              "interp" : "eioe"
                            },
                            "sourceCrop2" : {
                              "type" : "double",
                              "defaultValue" : 0.0,
                              "interp" : "eioe"
                            },
                            "sourceCrop3" : {
                              "type" : "double",
                              "defaultValue" : 0.0,
                              "interp" : "eioe"
                            },
                            "geometryCrop0" : {
                              "type" : "double",
                              "defaultValue" : 0.0,
                              "interp" : "eioe"
                            },
                            "geometryCrop1" : {
                              "type" : "double",
                              "defaultValue" : 0.0,
                              "interp" : "eioe"
                            },
                            "geometryCrop2" : {
                              "type" : "double",
                              "defaultValue" : 0.0,
                              "interp" : "eioe"
                            },
                            "geometryCrop3" : {
                              "type" : "double",
                              "defaultValue" : 0.0,
                              "interp" : "eioe"
                            },
                            "cursorScale" : {
                              "type" : "double",
                              "defaultValue" : 1.0,
                              "interp" : "linr"
                            },
                            "cursorOpacity" : {
                              "type" : "double",
                              "defaultValue" : 1.0,
                              "interp" : "linr"
                            }
                          },
                          "effects" : [

                          ],
                          "start" : 3186,
                          "duration" : 148,
                          "mediaStart" : 3432,
                          "mediaDuration" : 148,
                          "scalar" : 1,
                          "animationTracks" : {

                          }
                        },
                    "audio" : 
                        {
                          "id" : 272,
                          "_type" : "AMFile",
                          "src" : 4,
                          "trackNumber" : 3,
                          "attributes" : {
                            "ident" : "",
                            "gain" : 1.0,
                            "mixToMono" : false
                          },
                            "channelNumber" : "0,1",
                          "effects" : [

                          ],
                          "start" : 3186,
                          "duration" : 148,
                          "mediaStart" : 3432,
                          "mediaDuration" : 148,
                          "scalar" : 1,
                          "animationTracks" : {

                          }
                        }
,
                    "start" : 3186,
                    "duration" : 148,
                    "mediaStart" : 0,
                    "mediaDuration" : 4649,
                    "scalar" : 1,
                    "metadata" : {
                      "AutoAppliedSmartFocus" : "False",
                      "clipSpeedAttribute" : false
                    }
                  },
                  {
                    "id" : 273,
                    "_type" : "UnifiedMedia",
                    "video" : 
                        {
                          "id" : 274,
                          "_type" : "ScreenVMFile",
                          "src" : 4,
                          "trackNumber" : 0,
                          "attributes" : {
                            "ident" : "Grabación 26-12-{AA}_008"
                          },
                          "parameters" : {
                            "sourceCrop0" : {
                              "type" : "double",
                              "defaultValue" : 0.0,
                              "interp" : "eioe"
                            },
                            "sourceCrop1" : {
                              "type" : "double",
                              "defaultValue" : 0.0,
                              "interp" : "eioe"
                            },
                            "sourceCrop2" : {
                              "type" : "double",
                              "defaultValue" : 0.0,
                              "interp" : "eioe"
                            },
                            "sourceCrop3" : {
                              "type" : "double",
                              "defaultValue" : 0.0,
                              "interp" : "eioe"
                            },
                            "geometryCrop0" : {
                              "type" : "double",
                              "defaultValue" : 0.0,
                              "interp" : "eioe"
                            },
                            "geometryCrop1" : {
                              "type" : "double",
                              "defaultValue" : 0.0,
                              "interp" : "eioe"
                            },
                            "geometryCrop2" : {
                              "type" : "double",
                              "defaultValue" : 0.0,
                              "interp" : "eioe"
                            },
                            "geometryCrop3" : {
                              "type" : "double",
                              "defaultValue" : 0.0,
                              "interp" : "eioe"
                            },
                            "cursorScale" : {
                              "type" : "double",
                              "defaultValue" : 1.0,
                              "interp" : "linr"
                            },
                            "cursorOpacity" : {
                              "type" : "double",
                              "defaultValue" : 1.0,
                              "interp" : "linr"
                            }
                          },
                          "effects" : [

                          ],
                          "start" : 3334,
                          "duration" : 42,
                          "mediaStart" : 3585,
                          "mediaDuration" : 42,
                          "scalar" : 1,
                          "animationTracks" : {

                          }
                        },
                    "audio" : 
                        {
                          "id" : 275,
                          "_type" : "AMFile",
                          "src" : 4,
                          "trackNumber" : 3,
                          "attributes" : {
                            "ident" : "",
                            "gain" : 1.0,
                            "mixToMono" : false
                          },
                            "channelNumber" : "0,1",
                          "effects" : [

                          ],
                          "start" : 3334,
                          "duration" : 42,
                          "mediaStart" : 3585,
                          "mediaDuration" : 42,
                          "scalar" : 1,
                          "animationTracks" : {

                          }
                        }
,
                    "start" : 3334,
                    "duration" : 42,
                    "mediaStart" : 0,
                    "mediaDuration" : 4649,
                    "scalar" : 1,
                    "metadata" : {
                      "AutoAppliedSmartFocus" : "False",
                      "clipSpeedAttribute" : false
                    }
                  },
                  {
                    "id" : 276,
                    "_type" : "UnifiedMedia",
                    "video" : 
                        {
                          "id" : 277,
                          "_type" : "VMFile",
                          "src" : 5,
                          "trackNumber" : 1,
                          "attributes" : {
                            "ident" : "Grabación 26-12-{AA}_013"
                          },
                          "parameters" : {
                            "translation0" : 880.000000000057,
                            "translation1" : -480.000000000119,
                            "scale0" : 0.25,
                            "scale1" : 0.25,
                            "sourceCrop0" : 0.0,
                            "sourceCrop1" : 0.0,
                            "sourceCrop2" : 0.0,
                            "sourceCrop3" : 0.0,
                            "geometryCrop0" : 0.0,
                            "geometryCrop1" : 0.0,
                            "geometryCrop2" : 0.0,
                            "geometryCrop3" : 0.0
                          },
                          "effects" : [
                              {
                                "effectName" : "DropShadow",
                                "bypassed" : false,
                                "category" : "categoryVisualEffects",
                                "parameters" : {
                                  "angle" : 5.49779,
                                  "blur" : 10.0,
                                  "color-alpha" : 1.0,
                                  "color-blue" : 0.1216,
                                  "color-green" : 0.1216,
                                  "color-red" : 0.1216,
                                  "enabled" : 1,
                                  "offset" : 10.0,
                                  "opacity" : 0.4
                                },
                                "metadata" : {
                                  "default-DropShadow_blur" : 10.0,
                                  "default-DropShadow_offset" : 10.0,
                                  "default-DropShadow_opacity" : 0.4,
                                  "effectIndex" : "0",
                                  "presetName" : "Aplicar sombra"
                                }
                              }
                          ],
                          "start" : 3376,
                          "duration" : 151,
                          "mediaStart" : 15,
                          "mediaDuration" : 151,
                          "scalar" : 1,
                          "animationTracks" : {

                          }
                        },
                    "audio" : 
                        {
                          "id" : 278,
                          "_type" : "AMFile",
                          "src" : 5,
                          "trackNumber" : 2,
                          "attributes" : {
                            "ident" : "",
                            "gain" : 1.0,
                            "mixToMono" : false
                          },
                            "channelNumber" : "0,1",
                          "effects" : [

                          ],
                          "start" : 3376,
                          "duration" : 151,
                          "mediaStart" : 15,
                          "mediaDuration" : 151,
                          "scalar" : 1,
                          "animationTracks" : {

                          }
                        }
,
                    "start" : 3376,
                    "duration" : 151,
                    "mediaStart" : 0,
                    "mediaDuration" : 982,
                    "scalar" : 1,
                    "metadata" : {
                      "clipSpeedAttribute" : false,
                      "default-height" : 120.0,
                      "default-opacity" : 1.0,
                      "default-translation0" : 880.0,
                      "default-translation1" : -480.0,
                      "default-width" : 160.0
                    }
                  },
                  {
                    "id" : 279,
                    "_type" : "UnifiedMedia",
                    "video" : 
                        {
                          "id" : 280,
                          "_type" : "VMFile",
                          "src" : 5,
                          "trackNumber" : 1,
                          "attributes" : {
                            "ident" : "Grabación 26-12-{AA}_013"
                          },
                          "parameters" : {
                            "translation0" : 880.000000000057,
                            "translation1" : -480.000000000119,
                            "scale0" : 0.25,
                            "scale1" : 0.25,
                            "sourceCrop0" : 0.0,
                            "sourceCrop1" : 0.0,
                            "sourceCrop2" : 0.0,
                            "sourceCrop3" : 0.0,
                            "geometryCrop0" : 0.0,
                            "geometryCrop1" : 0.0,
                            "geometryCrop2" : 0.0,
                            "geometryCrop3" : 0.0
                          },
                          "effects" : [
                              {
                                "effectName" : "DropShadow",
                                "bypassed" : false,
                                "category" : "categoryVisualEffects",
                                "parameters" : {
                                  "angle" : 5.49779,
                                  "blur" : 10.0,
                                  "color-alpha" : 1.0,
                                  "color-blue" : 0.1216,
                                  "color-green" : 0.1216,
                                  "color-red" : 0.1216,
                                  "enabled" : 1,
                                  "offset" : 10.0,
                                  "opacity" : 0.4
                                },
                                "metadata" : {
                                  "default-DropShadow_blur" : 10.0,
                                  "default-DropShadow_offset" : 10.0,
                                  "default-DropShadow_opacity" : 0.4,
                                  "effectIndex" : "0",
                                  "presetName" : "Aplicar sombra"
                                }
                              }
                          ],
                          "start" : 3527,
                          "duration" : 28,
                          "mediaStart" : 177,
                          "mediaDuration" : 28,
                          "scalar" : 1,
                          "animationTracks" : {

                          }
                        },
                    "audio" : 
                        {
                          "id" : 281,
                          "_type" : "AMFile",
                          "src" : 5,
                          "trackNumber" : 2,
                          "attributes" : {
                            "ident" : "",
                            "gain" : 1.0,
                            "mixToMono" : false
                          },
                            "channelNumber" : "0,1",
                          "effects" : [

                          ],
                          "start" : 3527,
                          "duration" : 28,
                          "mediaStart" : 177,
                          "mediaDuration" : 28,
                          "scalar" : 1,
                          "animationTracks" : {

                          }
                        }
,
                    "start" : 3527,
                    "duration" : 28,
                    "mediaStart" : 0,
                    "mediaDuration" : 982,
                    "scalar" : 1,
                    "metadata" : {
                      "clipSpeedAttribute" : false,
                      "default-height" : 120.0,
                      "default-opacity" : 1.0,
                      "default-translation0" : 880.0,
                      "default-translation1" : -480.0,
                      "default-width" : 160.0
                    }
                  },
                  {
                    "id" : 282,
                    "_type" : "UnifiedMedia",
                    "video" : 
                        {
                          "id" : 283,
                          "_type" : "VMFile",
                          "src" : 5,
                          "trackNumber" : 1,
                          "attributes" : {
                            "ident" : "Grabación 26-12-{AA}_013"
                          },
                          "parameters" : {
                            "translation0" : 880.000000000057,
                            "translation1" : -480.000000000119,
                            "scale0" : 0.25,
                            "scale1" : 0.25,
                            "sourceCrop0" : 0.0,
                            "sourceCrop1" : 0.0,
                            "sourceCrop2" : 0.0,
                            "sourceCrop3" : 0.0,
                            "geometryCrop0" : 0.0,
                            "geometryCrop1" : 0.0,
                            "geometryCrop2" : 0.0,
                            "geometryCrop3" : 0.0
                          },
                          "effects" : [
                              {
                                "effectName" : "DropShadow",
                                "bypassed" : false,
                                "category" : "categoryVisualEffects",
                                "parameters" : {
                                  "angle" : 5.49779,
                                  "blur" : 10.0,
                                  "color-alpha" : 1.0,
                                  "color-blue" : 0.1216,
                                  "color-green" : 0.1216,
                                  "color-red" : 0.1216,
                                  "enabled" : 1,
                                  "offset" : 10.0,
                                  "opacity" : 0.4
                                },
                                "metadata" : {
                                  "default-DropShadow_blur" : 10.0,
                                  "default-DropShadow_offset" : 10.0,
                                  "default-DropShadow_opacity" : 0.4,
                                  "effectIndex" : "0",
                                  "presetName" : "Aplicar sombra"
                                }
                              }
                          ],
                          "start" : 3555,
                          "duration" : 47,
                          "mediaStart" : 355,
                          "mediaDuration" : 47,
                          "scalar" : 1,
                          "animationTracks" : {

                          }
                        },
                    "audio" : 
                        {
                          "id" : 284,
                          "_type" : "AMFile",
                          "src" : 5,
                          "trackNumber" : 2,
                          "attributes" : {
                            "ident" : "",
                            "gain" : 1.0,
                            "mixToMono" : false
                          },
                            "channelNumber" : "0,1",
                          "effects" : [

                          ],
                          "start" : 3555,
                          "duration" : 47,
                          "mediaStart" : 355,
                          "mediaDuration" : 47,
                          "scalar" : 1,
                          "animationTracks" : {

                          }
                        }
,
                    "start" : 3555,
                    "duration" : 47,
                    "mediaStart" : 0,
                    "mediaDuration" : 982,
                    "scalar" : 1,
                    "metadata" : {
                      "clipSpeedAttribute" : false,
                      "default-height" : 120.0,
                      "default-opacity" : 1.0,
                      "default-translation0" : 880.0,
                      "default-translation1" : -480.0,
                      "default-width" : 160.0
                    }
                  },
                  {
                    "id" : 285,
                    "_type" : "UnifiedMedia",
                    "video" : 
                        {
                          "id" : 286,
                          "_type" : "VMFile",
                          "src" : 5,
                          "trackNumber" : 1,
                          "attributes" : {
                            "ident" : "Grabación 26-12-{AA}_013"
                          },
                          "parameters" : {
                            "translation0" : 880.000000000057,
                            "translation1" : -480.000000000119,
                            "scale0" : 0.25,
                            "scale1" : 0.25,
                            "sourceCrop0" : 0.0,
                            "sourceCrop1" : 0.0,
                            "sourceCrop2" : 0.0,
                            "sourceCrop3" : 0.0,
                            "geometryCrop0" : 0.0,
                            "geometryCrop1" : 0.0,
                            "geometryCrop2" : 0.0,
                            "geometryCrop3" : 0.0
                          },
                          "effects" : [

                          ],
                          "start" : 3602,
                          "duration" : 60,
                          "mediaStart" : 423,
                          "mediaDuration" : 60,
                          "scalar" : 1,
                          "animationTracks" : {

                          }
                        },
                    "audio" : 
                        {
                          "id" : 287,
                          "_type" : "AMFile",
                          "src" : 5,
                          "trackNumber" : 2,
                          "attributes" : {
                            "ident" : "",
                            "gain" : 1.0,
                            "mixToMono" : false
                          },
                            "channelNumber" : "0,1",
                          "effects" : [

                          ],
                          "start" : 3602,
                          "duration" : 60,
                          "mediaStart" : 423,
                          "mediaDuration" : 60,
                          "scalar" : 1,
                          "animationTracks" : {

                          }
                        }
,
                    "start" : 3602,
                    "duration" : 60,
                    "mediaStart" : 0,
                    "mediaDuration" : 982,
                    "scalar" : 1,
                    "metadata" : {
                      "clipSpeedAttribute" : false,
                      "default-height" : 120.0,
                      "default-opacity" : 1.0,
                      "default-translation0" : 880.0,
                      "default-translation1" : -480.0,
                      "default-width" : 160.0
                    }
                  },
                  {
                    "id" : 288,
                    "_type" : "UnifiedMedia",
                    "video" : 
                        {
                          "id" : 289,
                          "_type" : "VMFile",
                          "src" : 5,
                          "trackNumber" : 1,
                          "attributes" : {
                            "ident" : "Grabación 26-12-{AA}_013"
                          },
                          "parameters" : {
                            "translation0" : 880.000000000057,
                            "translation1" : -480.000000000119,
                            "scale0" : 0.25,
                            "scale1" : 0.25,
                            "sourceCrop0" : 0.0,
                            "sourceCrop1" : 0.0,
                            "sourceCrop2" : 0.0,
                            "sourceCrop3" : 0.0,
                            "geometryCrop0" : 0.0,
                            "geometryCrop1" : 0.0,
                            "geometryCrop2" : 0.0,
                            "geometryCrop3" : 0.0
                          },
                          "effects" : [

                          ],
                          "start" : 3662,
                          "duration" : 20,
                          "mediaStart" : 492,
                          "mediaDuration" : 20,
                          "scalar" : 1,
                          "animationTracks" : {

                          }
                        },
                    "audio" : 
                        {
                          "id" : 290,
                          "_type" : "AMFile",
                          "src" : 5,
                          "trackNumber" : 2,
                          "attributes" : {
                            "ident" : "",
                            "gain" : 1.0,
                            "mixToMono" : false
                          },
                            "channelNumber" : "0,1",
                          "effects" : [

                          ],
                          "start" : 3662,
                          "duration" : 20,
                          "mediaStart" : 492,
                          "mediaDuration" : 20,
                          "scalar" : 1,
                          "animationTracks" : {

                          }
                        }
,
                    "start" : 3662,
                    "duration" : 20,
                    "mediaStart" : 0,
                    "mediaDuration" : 982,
                    "scalar" : 1,
                    "metadata" : {
                      "clipSpeedAttribute" : false,
                      "default-height" : 120.0,
                      "default-opacity" : 1.0,
                      "default-translation0" : 880.0,
                      "default-translation1" : -480.0,
                      "default-width" : 160.0
                    }
                  },
                  {
                    "id" : 291,
                    "_type" : "UnifiedMedia",
                    "video" : 
                        {
                          "id" : 292,
                          "_type" : "VMFile",
                          "src" : 5,
                          "trackNumber" : 1,
                          "attributes" : {
                            "ident" : "Grabación 26-12-{AA}_013"
                          },
                          "parameters" : {
                            "translation0" : 880.000000000057,
                            "translation1" : -480.000000000119,
                            "scale0" : 0.25,
                            "scale1" : 0.25,
                            "sourceCrop0" : 0.0,
                            "sourceCrop1" : 0.0,
                            "sourceCrop2" : 0.0,
                            "sourceCrop3" : 0.0,
                            "geometryCrop0" : 0.0,
                            "geometryCrop1" : 0.0,
                            "geometryCrop2" : 0.0,
                            "geometryCrop3" : 0.0
                          },
                          "effects" : [

                          ],
                          "start" : 3682,
                          "duration" : 30,
                          "mediaStart" : 520,
                          "mediaDuration" : 30,
                          "scalar" : 1,
                          "animationTracks" : {

                          }
                        },
                    "audio" : 
                        {
                          "id" : 293,
                          "_type" : "AMFile",
                          "src" : 5,
                          "trackNumber" : 2,
                          "attributes" : {
                            "ident" : "",
                            "gain" : 1.0,
                            "mixToMono" : false
                          },
                            "channelNumber" : "0,1",
                          "effects" : [

                          ],
                          "start" : 3682,
                          "duration" : 30,
                          "mediaStart" : 520,
                          "mediaDuration" : 30,
                          "scalar" : 1,
                          "animationTracks" : {

                          }
                        }
,
                    "start" : 3682,
                    "duration" : 30,
                    "mediaStart" : 0,
                    "mediaDuration" : 982,
                    "scalar" : 1,
                    "metadata" : {
                      "clipSpeedAttribute" : false,
                      "default-height" : 120.0,
                      "default-opacity" : 1.0,
                      "default-translation0" : 880.0,
                      "default-translation1" : -480.0,
                      "default-width" : 160.0
                    }
                  },
                  {
                    "id" : 294,
                    "_type" : "UnifiedMedia",
                    "video" : 
                        {
                          "id" : 295,
                          "_type" : "VMFile",
                          "src" : 5,
                          "trackNumber" : 1,
                          "attributes" : {
                            "ident" : "Grabación 26-12-{AA}_013"
                          },
                          "parameters" : {
                            "translation0" : 880.000000000057,
                            "translation1" : -480.000000000119,
                            "scale0" : 0.25,
                            "scale1" : 0.25,
                            "sourceCrop0" : 0.0,
                            "sourceCrop1" : 0.0,
                            "sourceCrop2" : 0.0,
                            "sourceCrop3" : 0.0,
                            "geometryCrop0" : 0.0,
                            "geometryCrop1" : 0.0,
                            "geometryCrop2" : 0.0,
                            "geometryCrop3" : 0.0
                          },
                          "effects" : [

                          ],
                          "start" : 3712,
                          "duration" : 12,
                          "mediaStart" : 550,
                          "mediaDuration" : 12,
                          "scalar" : 1,
                          "animationTracks" : {

                          }
                        },
                    "audio" : 
                        {
                          "id" : 296,
                          "_type" : "AMFile",
                          "src" : 5,
                          "trackNumber" : 2,
                          "attributes" : {
                            "ident" : "",
                            "gain" : 1.0,
                            "mixToMono" : false
                          },
                            "channelNumber" : "0,1",
                          "effects" : [

                          ],
                          "start" : 3712,
                          "duration" : 12,
                          "mediaStart" : 550,
                          "mediaDuration" : 12,
                          "scalar" : 1,
                          "animationTracks" : {

                          }
                        }
,
                    "start" : 3712,
                    "duration" : 12,
                    "mediaStart" : 0,
                    "mediaDuration" : 982,
                    "scalar" : 1,
                    "metadata" : {
                      "clipSpeedAttribute" : false,
                      "default-height" : 120.0,
                      "default-opacity" : 1.0,
                      "default-translation0" : 880.0,
                      "default-translation1" : -480.0,
                      "default-width" : 160.0
                    }
                  },
                  {
                    "id" : 297,
                    "_type" : "UnifiedMedia",
                    "video" : 
                        {
                          "id" : 298,
                          "_type" : "VMFile",
                          "src" : 5,
                          "trackNumber" : 1,
                          "attributes" : {
                            "ident" : "Grabación 26-12-{AA}_013"
                          },
                          "parameters" : {
                            "translation0" : 880.000000000057,
                            "translation1" : -480.000000000119,
                            "scale0" : 0.25,
                            "scale1" : 0.25,
                            "sourceCrop0" : 0.0,
                            "sourceCrop1" : 0.0,
                            "sourceCrop2" : 0.0,
                            "sourceCrop3" : 0.0,
                            "geometryCrop0" : 0.0,
                            "geometryCrop1" : 0.0,
                            "geometryCrop2" : 0.0,
                            "geometryCrop3" : 0.0
                          },
                          "effects" : [

                          ],
                          "start" : 3724,
                          "duration" : 124,
                          "mediaStart" : 568,
                          "mediaDuration" : 124,
                          "scalar" : 1,
                          "animationTracks" : {

                          }
                        },
                    "audio" : 
                        {
                          "id" : 299,
                          "_type" : "AMFile",
                          "src" : 5,
                          "trackNumber" : 2,
                          "attributes" : {
                            "ident" : "",
                            "gain" : 1.0,
                            "mixToMono" : false
                          },
                            "channelNumber" : "0,1",
                          "effects" : [

                          ],
                          "start" : 3724,
                          "duration" : 124,
                          "mediaStart" : 568,
                          "mediaDuration" : 124,
                          "scalar" : 1,
                          "animationTracks" : {

                          }
                        }
,
                    "start" : 3724,
                    "duration" : 124,
                    "mediaStart" : 0,
                    "mediaDuration" : 982,
                    "scalar" : 1,
                    "metadata" : {
                      "clipSpeedAttribute" : false,
                      "default-height" : 120.0,
                      "default-opacity" : 1.0,
                      "default-translation0" : 880.0,
                      "default-translation1" : -480.0,
                      "default-width" : 160.0
                    }
                  },
                  {
                    "id" : 300,
                    "_type" : "UnifiedMedia",
                    "video" : 
                        {
                          "id" : 301,
                          "_type" : "VMFile",
                          "src" : 5,
                          "trackNumber" : 1,
                          "attributes" : {
                            "ident" : "Grabación 26-12-{AA}_013"
                          },
                          "parameters" : {
                            "translation0" : 880.000000000057,
                            "translation1" : -480.000000000119,
                            "scale0" : 0.25,
                            "scale1" : 0.25,
                            "sourceCrop0" : 0.0,
                            "sourceCrop1" : 0.0,
                            "sourceCrop2" : 0.0,
                            "sourceCrop3" : 0.0,
                            "geometryCrop0" : 0.0,
                            "geometryCrop1" : 0.0,
                            "geometryCrop2" : 0.0,
                            "geometryCrop3" : 0.0
                          },
                          "effects" : [

                          ],
                          "start" : 3848,
                          "duration" : 11,
                          "mediaStart" : 550,
                          "mediaDuration" : 11,
                          "scalar" : 1,
                          "animationTracks" : {

                          }
                        },
                    "audio" : 
                        {
                          "id" : 302,
                          "_type" : "AMFile",
                          "src" : 5,
                          "trackNumber" : 2,
                          "attributes" : {
                            "ident" : "",
                            "gain" : 1.0,
                            "mixToMono" : false
                          },
                            "channelNumber" : "0,1",
                          "effects" : [

                          ],
                          "start" : 3848,
                          "duration" : 11,
                          "mediaStart" : 550,
                          "mediaDuration" : 11,
                          "scalar" : 1,
                          "animationTracks" : {

                          }
                        }
,
                    "start" : 3848,
                    "duration" : 11,
                    "mediaStart" : 0,
                    "mediaDuration" : 982,
                    "scalar" : 1,
                    "metadata" : {
                      "clipSpeedAttribute" : false,
                      "default-height" : 120.0,
                      "default-opacity" : 1.0,
                      "default-translation0" : 880.0,
                      "default-translation1" : -480.0,
                      "default-width" : 160.0
                    }
                  },
                  {
                    "id" : 303,
                    "_type" : "UnifiedMedia",
                    "video" : 
                        {
                          "id" : 304,
                          "_type" : "VMFile",
                          "src" : 5,
                          "trackNumber" : 1,
                          "attributes" : {
                            "ident" : "Grabación 26-12-{AA}_013"
                          },
                          "parameters" : {
                            "translation0" : 880.000000000057,
                            "translation1" : -480.000000000119,
                            "scale0" : 0.25,
                            "scale1" : 0.25,
                            "sourceCrop0" : 0.0,
                            "sourceCrop1" : 0.0,
                            "sourceCrop2" : 0.0,
                            "sourceCrop3" : 0.0,
                            "geometryCrop0" : 0.0,
                            "geometryCrop1" : 0.0,
                            "geometryCrop2" : 0.0,
                            "geometryCrop3" : 0.0
                          },
                          "effects" : [

                          ],
                          "start" : 3859,
                          "duration" : 36,
                          "mediaStart" : 727,
                          "mediaDuration" : 36,
                          "scalar" : 1,
                          "animationTracks" : {

                          }
                        },
                    "audio" : 
                        {
                          "id" : 305,
                          "_type" : "AMFile",
                          "src" : 5,
                          "trackNumber" : 2,
                          "attributes" : {
                            "ident" : "",
                            "gain" : 1.0,
                            "mixToMono" : false
                          },
                            "channelNumber" : "0,1",
                          "effects" : [

                          ],
                          "start" : 3859,
                          "duration" : 36,
                          "mediaStart" : 727,
                          "mediaDuration" : 36,
                          "scalar" : 1,
                          "animationTracks" : {

                          }
                        }
,
                    "start" : 3859,
                    "duration" : 36,
                    "mediaStart" : 0,
                    "mediaDuration" : 982,
                    "scalar" : 1,
                    "metadata" : {
                      "clipSpeedAttribute" : false,
                      "default-height" : 120.0,
                      "default-opacity" : 1.0,
                      "default-translation0" : 880.0,
                      "default-translation1" : -480.0,
                      "default-width" : 160.0
                    }
                  },
                  {
                    "id" : 306,
                    "_type" : "UnifiedMedia",
                    "video" : 
                        {
                          "id" : 307,
                          "_type" : "VMFile",
                          "src" : 5,
                          "trackNumber" : 1,
                          "attributes" : {
                            "ident" : "Grabación 26-12-{AA}_013"
                          },
                          "parameters" : {
                            "translation0" : 880.000000000057,
                            "translation1" : -480.000000000119,
                            "scale0" : 0.25,
                            "scale1" : 0.25,
                            "sourceCrop0" : 0.0,
                            "sourceCrop1" : 0.0,
                            "sourceCrop2" : 0.0,
                            "sourceCrop3" : 0.0,
                            "geometryCrop0" : 0.0,
                            "geometryCrop1" : 0.0,
                            "geometryCrop2" : 0.0,
                            "geometryCrop3" : 0.0
                          },
                          "effects" : [

                          ],
                          "start" : 3895,
                          "duration" : 90,
                          "mediaStart" : 771,
                          "mediaDuration" : 90,
                          "scalar" : 1,
                          "animationTracks" : {

                          }
                        },
                    "audio" : 
                        {
                          "id" : 308,
                          "_type" : "AMFile",
                          "src" : 5,
                          "trackNumber" : 2,
                          "attributes" : {
                            "ident" : "",
                            "gain" : 1.0,
                            "mixToMono" : false
                          },
                            "channelNumber" : "0,1",
                          "effects" : [

                          ],
                          "start" : 3895,
                          "duration" : 90,
                          "mediaStart" : 771,
                          "mediaDuration" : 90,
                          "scalar" : 1,
                          "animationTracks" : {

                          }
                        }
,
                    "start" : 3895,
                    "duration" : 90,
                    "mediaStart" : 0,
                    "mediaDuration" : 982,
                    "scalar" : 1,
                    "metadata" : {
                      "clipSpeedAttribute" : false,
                      "default-height" : 120.0,
                      "default-opacity" : 1.0,
                      "default-translation0" : 880.0,
                      "default-translation1" : -480.0,
                      "default-width" : 160.0
                    }
                  },
                  {
                    "id" : 309,
                    "_type" : "UnifiedMedia",
                    "video" : 
                        {
                          "id" : 310,
                          "_type" : "VMFile",
                          "src" : 5,
                          "trackNumber" : 1,
                          "attributes" : {
                            "ident" : "Grabación 26-12-{AA}_013"
                          },
                          "parameters" : {
                            "translation0" : 880.000000000057,
                            "translation1" : -480.000000000119,
                            "scale0" : 0.25,
                            "scale1" : 0.25,
                            "sourceCrop0" : 0.0,
                            "sourceCrop1" : 0.0,
                            "sourceCrop2" : 0.0,
                            "sourceCrop3" : 0.0,
                            "geometryCrop0" : 0.0,
                            "geometryCrop1" : 0.0,
                            "geometryCrop2" : 0.0,
                            "geometryCrop3" : 0.0
                          },
                          "effects" : [

                          ],
                          "start" : 3985,
                          "duration" : 59,
                          "mediaStart" : 881,
                          "mediaDuration" : 59,
                          "scalar" : 1,
                          "animationTracks" : {

                          }
                        },
                    "audio" : 
                        {
                          "id" : 311,
                          "_type" : "AMFile",
                          "src" : 5,
                          "trackNumber" : 2,
                          "attributes" : {
                            "ident" : "",
                            "gain" : 1.0,
                            "mixToMono" : false
                          },
                            "channelNumber" : "0,1",
                          "effects" : [

                          ],
                          "start" : 3985,
                          "duration" : 59,
                          "mediaStart" : 881,
                          "mediaDuration" : 59,
                          "scalar" : 1,
                          "animationTracks" : {

                          }
                        }
,
                    "start" : 3985,
                    "duration" : 59,
                    "mediaStart" : 0,
                    "mediaDuration" : 982,
                    "scalar" : 1,
                    "metadata" : {
                      "clipSpeedAttribute" : false,
                      "default-height" : 120.0,
                      "default-opacity" : 1.0,
                      "default-translation0" : 880.0,
                      "default-translation1" : -480.0,
                      "default-width" : 160.0
                    }
                  },
                  {
                    "id" : 312,
                    "_type" : "UnifiedMedia",
                    "video" : 
                        {
                          "id" : 313,
                          "_type" : "ScreenVMFile",
                          "src" : 6,
                          "trackNumber" : 0,
                          "attributes" : {
                            "ident" : "Grabación 26-12-{AA}_018"
                          },
                          "parameters" : {
                            "sourceCrop0" : {
                              "type" : "double",
                              "defaultValue" : 0.0,
                              "interp" : "eioe"
                            },
                            "sourceCrop1" : {
                              "type" : "double",
                              "defaultValue" : 0.0,
                              "interp" : "eioe"
                            },
                            "sourceCrop2" : {
                              "type" : "double",
                              "defaultValue" : 0.0,
                              "interp" : "eioe"
                            },
                            "sourceCrop3" : {
                              "type" : "double",
                              "defaultValue" : 0.0,
                              "interp" : "eioe"
                            },
                            "geometryCrop0" : {
                              "type" : "double",
                              "defaultValue" : 0.0,
                              "interp" : "eioe"
                            },
                            "geometryCrop1" : {
                              "type" : "double",
                              "defaultValue" : 0.0,
                              "interp" : "eioe"
                            },
                            "geometryCrop2" : {
                              "type" : "double",
                              "defaultValue" : 0.0,
                              "interp" : "eioe"
                            },
                            "geometryCrop3" : {
                              "type" : "double",
                              "defaultValue" : 0.0,
                              "interp" : "eioe"
                            },
                            "cursorScale" : {
                              "type" : "double",
                              "defaultValue" : 1.0,
                              "interp" : "linr"
                            },
                            "cursorOpacity" : {
                              "type" : "double",
                              "defaultValue" : 1.0,
                              "interp" : "linr"
                            }
                          },
                          "effects" : [

                          ],
                          "start" : 4044,
                          "duration" : 168,
                          "mediaStart" : 749,
                          "mediaDuration" : 168,
                          "scalar" : 1,
                          "animationTracks" : {

                          }
                        },
                    "audio" : 
                        {
                          "id" : 314,
                          "_type" : "AMFile",
                          "src" : 6,
                          "trackNumber" : 3,
                          "attributes" : {
                            "ident" : "",
                            "gain" : 1.0,
                            "mixToMono" : false
                          },
                            "channelNumber" : "0,1",
                          "effects" : [

                          ],
                          "start" : 4044,
                          "duration" : 168,
                          "mediaStart" : 749,
                          "mediaDuration" : 168,
                          "scalar" : 1,
                          "animationTracks" : {

                          }
                        }
,
                    "start" : 4044,
                    "duration" : 168,
                    "mediaStart" : 0,
                    "mediaDuration" : 4874,
                    "scalar" : 1,
                    "metadata" : {
                      "AutoAppliedSmartFocus" : "False",
                      "clipSpeedAttribute" : false
                    }
                  },
                  {
                    "id" : 315,
                    "_type" : "UnifiedMedia",
                    "video" : 
                        {
                          "id" : 316,
                          "_type" : "ScreenVMFile",
                          "src" : 6,
                          "trackNumber" : 0,
                          "attributes" : {
                            "ident" : "Grabación 26-12-{AA}_018"
                          },
                          "parameters" : {
                            "sourceCrop0" : {
                              "type" : "double",
                              "defaultValue" : 0.0,
                              "interp" : "eioe"
                            },
                            "sourceCrop1" : {
                              "type" : "double",
                              "defaultValue" : 0.0,
                              "interp" : "eioe"
                            },
                            "sourceCrop2" : {
                              "type" : "double",
                              "defaultValue" : 0.0,
                              "interp" : "eioe"
                            },
                            "sourceCrop3" : {
                              "type" : "double",
                              "defaultValue" : 0.0,
                              "interp" : "eioe"
                            },
                            "geometryCrop0" : {
                              "type" : "double",
                              "defaultValue" : 0.0,
                              "interp" : "eioe"
                            },
                            "geometryCrop1" : {
                              "type" : "double",
                              "defaultValue" : 0.0,
                              "interp" : "eioe"
                            },
                            "geometryCrop2" : {
                              "type" : "double",
                              "defaultValue" : 0.0,
                              "interp" : "eioe"
                            },
                            "geometryCrop3" : {
                              "type" : "double",
                              "defaultValue" : 0.0,
                              "interp" : "eioe"
                            },
                            "cursorScale" : {
                              "type" : "double",
                              "defaultValue" : 1.0,
                              "interp" : "linr"
                            },
                            "cursorOpacity" : {
                              "type" : "double",
                              "defaultValue" : 1.0,
                              "interp" : "linr"
                            }
                          },
                          "effects" : [

                          ],
                          "start" : 4212,
                          "duration" : 149,
                          "mediaStart" : 933,
                          "mediaDuration" : 149,
                          "scalar" : 1,
                          "animationTracks" : {

                          }
                        },
                    "audio" : 
                        {
                          "id" : 317,
                          "_type" : "AMFile",
                          "src" : 6,
                          "trackNumber" : 3,
                          "attributes" : {
                            "ident" : "",
                            "gain" : 1.0,
                            "mixToMono" : false
                          },
                            "channelNumber" : "0,1",
                          "effects" : [

                          ],
                          "start" : 4212,
                          "duration" : 149,
                          "mediaStart" : 933,
                          "mediaDuration" : 149,
                          "scalar" : 1,
                          "animationTracks" : {

                          }
                        }
,
                    "start" : 4212,
                    "duration" : 149,
                    "mediaStart" : 0,
                    "mediaDuration" : 4874,
                    "scalar" : 1,
                    "metadata" : {
                      "AutoAppliedSmartFocus" : "False",
                      "clipSpeedAttribute" : false
                    }
                  },
                  {
                    "id" : 318,
                    "_type" : "UnifiedMedia",
                    "video" : 
                        {
                          "id" : 319,
                          "_type" : "ScreenVMFile",
                          "src" : 6,
                          "trackNumber" : 0,
                          "attributes" : {
                            "ident" : "Grabación 26-12-{AA}_018"
                          },
                          "parameters" : {
                            "sourceCrop0" : {
                              "type" : "double",
                              "defaultValue" : 0.0,
                              "interp" : "eioe"
                            },
                            "sourceCrop1" : {
                              "type" : "double",
                              "defaultValue" : 0.0,
                              "interp" : "eioe"
                            },
                            "sourceCrop2" : {
                              "type" : "double",
                              "defaultValue" : 0.0,
                              "interp" : "eioe"
                            },
                            "sourceCrop3" : {
                              "type" : "double",
                              "defaultValue" : 0.0,
                              "interp" : "eioe"
                            },
                            "geometryCrop0" : {
                              "type" : "double",
                              "defaultValue" : 0.0,
                              "interp" : "eioe"
                            },
                            "geometryCrop1" : {
                              "type" : "double",
                              "defaultValue" : 0.0,
                              "interp" : "eioe"
                            },
                            "geometryCrop2" : {
                              "type" : "double",
                              "defaultValue" : 0.0,
                              "interp" : "eioe"
                            },
                            "geometryCrop3" : {
                              "type" : "double",
                              "defaultValue" : 0.0,
                              "interp" : "eioe"
                            },
                            "cursorScale" : {
                              "type" : "double",
                              "defaultValue" : 1.0,
                              "interp" : "linr"
                            },
                            "cursorOpacity" : {
                              "type" : "double",
                              "defaultValue" : 1.0,
                              "interp" : "linr"
                            }
                          },
                          "effects" : [

                          ],
                          "start" : 4361,
                          "duration" : 38,
                          "mediaStart" : 1100,
                          "mediaDuration" : 38,
                          "scalar" : 1,
                          "animationTracks" : {

                          }
                        },
                    "audio" : 
                        {
                          "id" : 320,
                          "_type" : "AMFile",
                          "src" : 6,
                          "trackNumber" : 3,
                          "attributes" : {
                            "ident" : "",
                            "gain" : 1.0,
                            "mixToMono" : false
                          },
                            "channelNumber" : "0,1",
                          "effects" : [

                          ],
                          "start" : 4361,
                          "duration" : 38,
                          "mediaStart" : 1100,
                          "mediaDuration" : 38,
                          "scalar" : 1,
                          "animationTracks" : {

                          }
                        }
,
                    "start" : 4361,
                    "duration" : 38,
                    "mediaStart" : 0,
                    "mediaDuration" : 4874,
                    "scalar" : 1,
                    "metadata" : {
                      "AutoAppliedSmartFocus" : "False",
                      "clipSpeedAttribute" : false
                    }
                  },
                  {
                    "id" : 321,
                    "_type" : "UnifiedMedia",
                    "video" : 
                        {
                          "id" : 322,
                          "_type" : "ScreenVMFile",
                          "src" : 6,
                          "trackNumber" : 0,
                          "attributes" : {
                            "ident" : "Grabación 26-12-{AA}_018"
                          },
                          "parameters" : {
                            "sourceCrop0" : {
                              "type" : "double",
                              "defaultValue" : 0.0,
                              "interp" : "eioe"
                            },
                            "sourceCrop1" : {
                              "type" : "double",
                              "defaultValue" : 0.0,
                              "interp" : "eioe"
                            },
                            "sourceCrop2" : {
                              "type" : "double",
                              "defaultValue" : 0.0,
                              "interp" : "eioe"
                            },
                            "sourceCrop3" : {
                              "type" : "double",
                              "defaultValue" : 0.0,
                              "interp" : "eioe"
                            },
                            "geometryCrop0" : {
                              "type" : "double",
                              "defaultValue" : 0.0,
                              "interp" : "eioe"
                            },
                            "geometryCrop1" : {
                              "type" : "double",
                              "defaultValue" : 0.0,
                              "interp" : "eioe"
                            },
                            "geometryCrop2" : {
                              "type" : "double",
                              "defaultValue" : 0.0,
                              "interp" : "eioe"
                            },
                            "geometryCrop3" : {
                              "type" : "double",
                              "defaultValue" : 0.0,
                              "interp" : "eioe"
                            },
                            "cursorScale" : {
                              "type" : "double",
                              "defaultValue" : 1.0,
                              "interp" : "linr"
                            },
                            "cursorOpacity" : {
                              "type" : "double",
                              "defaultValue" : 1.0,
                              "interp" : "linr"
                            }
                          },
                          "effects" : [

                          ],
                          "start" : 4399,
                          "duration" : 87,
                          "mediaStart" : 1157,
                          "mediaDuration" : 87,
                          "scalar" : 1,
                          "animationTracks" : {

                          }
                        },
                    "audio" : 
                        {
                          "id" : 323,
                          "_type" : "AMFile",
                          "src" : 6,
                          "trackNumber" : 3,
                          "attributes" : {
                            "ident" : "",
                            "gain" : 1.0,
                            "mixToMono" : false
                          },
                            "channelNumber" : "0,1",
                          "effects" : [

                          ],
                          "start" : 4399,
                          "duration" : 87,
                          "mediaStart" : 1157,
                          "mediaDuration" : 87,
                          "scalar" : 1,
                          "animationTracks" : {

                          }
                        }
,
                    "start" : 4399,
                    "duration" : 87,
                    "mediaStart" : 0,
                    "mediaDuration" : 4874,
                    "scalar" : 1,
                    "metadata" : {
                      "AutoAppliedSmartFocus" : "False",
                      "clipSpeedAttribute" : false
                    }
                  },
                  {
                    "id" : 324,
                    "_type" : "UnifiedMedia",
                    "video" : 
                        {
                          "id" : 325,
                          "_type" : "ScreenVMFile",
                          "src" : 6,
                          "trackNumber" : 0,
                          "attributes" : {
                            "ident" : "Grabación 26-12-{AA}_018"
                          },
                          "parameters" : {
                            "sourceCrop0" : {
                              "type" : "double",
                              "defaultValue" : 0.0,
                              "interp" : "eioe"
                            },
                            "sourceCrop1" : {
                              "type" : "double",
                              "defaultValue" : 0.0,
                              "interp" : "eioe"
                            },
                            "sourceCrop2" : {
                              "type" : "double",
                              "defaultValue" : 0.0,
                              "interp" : "eioe"
                            },
                            "sourceCrop3" : {
                              "type" : "double",
                              "defaultValue" : 0.0,
                              "interp" : "eioe"
                            },
                            "geometryCrop0" : {
                              "type" : "double",
                              "defaultValue" : 0.0,
                              "interp" : "eioe"
                            },
                            "geometryCrop1" : {
                              "type" : "double",
                              "defaultValue" : 0.0,
                              "interp" : "eioe"
                            },
                            "geometryCrop2" : {
                              "type" : "double",
                              "defaultValue" : 0.0,
                              "interp" : "eioe"
                            },
                            "geometryCrop3" : {
                              "type" : "double",
                              "defaultValue" : 0.0,
                              "interp" : "eioe"
                            },
                            "cursorScale" : {
                              "type" : "double",
                              "defaultValue" : 1.0,
                              "interp" : "linr"
                            },
                            "cursorOpacity" : {
                              "type" : "double",
                              "defaultValue" : 1.0,
                              "interp" : "linr"
                            }
                          },
                          "effects" : [

                          ],
                          "start" : 4486,
                          "duration" : 54,
                          "mediaStart" : 1256,
                          "mediaDuration" : 54,
                          "scalar" : 1,
                          "animationTracks" : {

                          }
                        },
                    "audio" : 
                        {
                          "id" : 326,
                          "_type" : "AMFile",
                          "src" : 6,
                          "trackNumber" : 3,
                          "attributes" : {
                            "ident" : "",
                            "gain" : 1.0,
                            "mixToMono" : false
                          },
                            "channelNumber" : "0,1",
                          "effects" : [

                          ],
                          "start" : 4486,
                          "duration" : 54,
                          "mediaStart" : 1256,
                          "mediaDuration" : 54,
                          "scalar" : 1,
                          "animationTracks" : {

                          }
                        }
,
                    "start" : 4486,
                    "duration" : 54,
                    "mediaStart" : 0,
                    "mediaDuration" : 4874,
                    "scalar" : 1,
                    "metadata" : {
                      "AutoAppliedSmartFocus" : "False",
                      "clipSpeedAttribute" : false
                    }
                  },
                  {
                    "id" : 327,
                    "_type" : "UnifiedMedia",
                    "video" : 
                        {
                          "id" : 328,
                          "_type" : "ScreenVMFile",
                          "src" : 6,
                          "trackNumber" : 0,
                          "attributes" : {
                            "ident" : "Grabación 26-12-{AA}_018"
                          },
                          "parameters" : {
                            "sourceCrop0" : {
                              "type" : "double",
                              "defaultValue" : 0.0,
                              "interp" : "eioe"
                            },
                            "sourceCrop1" : {
                              "type" : "double",
                              "defaultValue" : 0.0,
                              "interp" : "eioe"
                            },
                            "sourceCrop2" : {
                              "type" : "double",
                              "defaultValue" : 0.0,
                              "interp" : "eioe"
                            },
                            "sourceCrop3" : {
                              "type" : "double",
                              "defaultValue" : 0.0,
                              "interp" : "eioe"
                            },
                            "geometryCrop0" : {
                              "type" : "double",
                              "defaultValue" : 0.0,
                              "interp" : "eioe"
                            },
                            "geometryCrop1" : {
                              "type" : "double",
                              "defaultValue" : 0.0,
                              "interp" : "eioe"
                            },
                            "geometryCrop2" : {
                              "type" : "double",
                              "defaultValue" : 0.0,
                              "interp" : "eioe"
                            },
                            "geometryCrop3" : {
                              "type" : "double",
                              "defaultValue" : 0.0,
                              "interp" : "eioe"
                            },
                            "cursorScale" : {
                              "type" : "double",
                              "defaultValue" : 1.0,
                              "interp" : "linr"
                            },
                            "cursorOpacity" : {
                              "type" : "double",
                              "defaultValue" : 1.0,
                              "interp" : "linr"
                            }
                          },
                          "effects" : [

                          ],
                          "start" : 4540,
                          "duration" : 35,
                          "mediaStart" : 1317,
                          "mediaDuration" : 35,
                          "scalar" : 1,
                          "animationTracks" : {

                          }
                        },
                    "audio" : 
                        {
                          "id" : 329,
                          "_type" : "AMFile",
                          "src" : 6,
                          "trackNumber" : 3,
                          "attributes" : {
                            "ident" : "",
                            "gain" : 1.0,
                            "mixToMono" : false
                          },
                            "channelNumber" : "0,1",
                          "effects" : [

                          ],
                          "start" : 4540,
                          "duration" : 35,
                          "mediaStart" : 1317,
                          "mediaDuration" : 35,
                          "scalar" : 1,
                          "animationTracks" : {

                          }
                        }
,
                    "start" : 4540,
                    "duration" : 35,
                    "mediaStart" : 0,
                    "mediaDuration" : 4874,
                    "scalar" : 1,
                    "metadata" : {
                      "AutoAppliedSmartFocus" : "False",
                      "clipSpeedAttribute" : false
                    }
                  },
                  {
                    "id" : 330,
                    "_type" : "UnifiedMedia",
                    "video" : 
                        {
                          "id" : 331,
                          "_type" : "ScreenVMFile",
                          "src" : 6,
                          "trackNumber" : 0,
                          "attributes" : {
                            "ident" : "Grabación 26-12-{AA}_018"
                          },
                          "parameters" : {
                            "sourceCrop0" : {
                              "type" : "double",
                              "defaultValue" : 0.0,
                              "interp" : "eioe"
                            },
                            "sourceCrop1" : {
                              "type" : "double",
                              "defaultValue" : 0.0,
                              "interp" : "eioe"
                            },
                            "sourceCrop2" : {
                              "type" : "double",
                              "defaultValue" : 0.0,
                              "interp" : "eioe"
                            },
                            "sourceCrop3" : {
                              "type" : "double",
                              "defaultValue" : 0.0,
                              "interp" : "eioe"
                            },
                            "geometryCrop0" : {
                              "type" : "double",
                              "defaultValue" : 0.0,
                              "interp" : "eioe"
                            },
                            "geometryCrop1" : {
                              "type" : "double",
                              "defaultValue" : 0.0,
                              "interp" : "eioe"
                            },
                            "geometryCrop2" : {
                              "type" : "double",
                              "defaultValue" : 0.0,
                              "interp" : "eioe"
                            },
                            "geometryCrop3" : {
                              "type" : "double",
                              "defaultValue" : 0.0,
                              "interp" : "eioe"
                            },
                            "cursorScale" : {
                              "type" : "double",
                              "defaultValue" : 1.0,
                              "interp" : "linr"
                            },
                            "cursorOpacity" : {
                              "type" : "double",
                              "defaultValue" : 1.0,
                              "interp" : "linr"
                            }
                          },
                          "effects" : [

                          ],
                          "start" : 4575,
                          "duration" : 41,
                          "mediaStart" : 1369,
                          "mediaDuration" : 41,
                          "scalar" : 1,
                          "animationTracks" : {

                          }
                        },
                    "audio" : 
                        {
                          "id" : 332,
                          "_type" : "AMFile",
                          "src" : 6,
                          "trackNumber" : 3,
                          "attributes" : {
                            "ident" : "",
                            "gain" : 1.0,
                            "mixToMono" : false
                          },
                            "channelNumber" : "0,1",
                          "effects" : [

                          ],
                          "start" : 4575,
                          "duration" : 41,
                          "mediaStart" : 1369,
                          "mediaDuration" : 41,
                          "scalar" : 1,
                          "animationTracks" : {

                          }
                        }
,
                    "start" : 4575,
                    "duration" : 41,
                    "mediaStart" : 0,
                    "mediaDuration" : 4874,
                    "scalar" : 1,
                    "metadata" : {
                      "AutoAppliedSmartFocus" : "False",
                      "clipSpeedAttribute" : false
                    }
                  },
                  {
                    "id" : 333,
                    "_type" : "UnifiedMedia",
                    "video" : 
                        {
                          "id" : 334,
                          "_type" : "ScreenVMFile",
                          "src" : 6,
                          "trackNumber" : 0,
                          "attributes" : {
                            "ident" : "Grabación 26-12-{AA}_018"
                          },
                          "parameters" : {
                            "sourceCrop0" : {
                              "type" : "double",
                              "defaultValue" : 0.0,
                              "interp" : "eioe"
                            },
                            "sourceCrop1" : {
                              "type" : "double",
                              "defaultValue" : 0.0,
                              "interp" : "eioe"
                            },
                            "sourceCrop2" : {
                              "type" : "double",
                              "defaultValue" : 0.0,
                              "interp" : "eioe"
                            },
                            "sourceCrop3" : {
                              "type" : "double",
                              "defaultValue" : 0.0,
                              "interp" : "eioe"
                            },
                            "geometryCrop0" : {
                              "type" : "double",
                              "defaultValue" : 0.0,
                              "interp" : "eioe"
                            },
                            "geometryCrop1" : {
                              "type" : "double",
                              "defaultValue" : 0.0,
                              "interp" : "eioe"
                            },
                            "geometryCrop2" : {
                              "type" : "double",
                              "defaultValue" : 0.0,
                              "interp" : "eioe"
                            },
                            "geometryCrop3" : {
                              "type" : "double",
                              "defaultValue" : 0.0,
                              "interp" : "eioe"
                            },
                            "cursorScale" : {
                              "type" : "double",
                              "defaultValue" : 1.0,
                              "interp" : "linr"
                            },
                            "cursorOpacity" : {
                              "type" : "double",
                              "defaultValue" : 1.0,
                              "interp" : "linr"
                            }
                          },
                          "effects" : [

                          ],
                          "start" : 4616,
                          "duration" : 84,
                          "mediaStart" : 1425,
                          "mediaDuration" : 84,
                          "scalar" : 1,
                          "animationTracks" : {

                          }
                        },
                    "audio" : 
                        {
                          "id" : 335,
                          "_type" : "AMFile",
                          "src" : 6,
                          "trackNumber" : 3,
                          "attributes" : {
                            "ident" : "",
                            "gain" : 1.0,
                            "mixToMono" : false
                          },
                            "channelNumber" : "0,1",
                          "effects" : [

                          ],
                          "start" : 4616,
                          "duration" : 84,
                          "mediaStart" : 1425,
                          "mediaDuration" : 84,
                          "scalar" : 1,
                          "animationTracks" : {

                          }
                        }
,
                    "start" : 4616,
                    "duration" : 84,
                    "mediaStart" : 0,
                    "mediaDuration" : 4874,
                    "scalar" : 1,
                    "metadata" : {
                      "AutoAppliedSmartFocus" : "False",
                      "clipSpeedAttribute" : false
                    }
                  },
                  {
                    "id" : 336,
                    "_type" : "UnifiedMedia",
                    "video" : 
                        {
                          "id" : 337,
                          "_type" : "ScreenVMFile",
                          "src" : 6,
                          "trackNumber" : 0,
                          "attributes" : {
                            "ident" : "Grabación 26-12-{AA}_018"
                          },
                          "parameters" : {
                            "sourceCrop0" : {
                              "type" : "double",
                              "defaultValue" : 0.0,
                              "interp" : "eioe"
                            },
                            "sourceCrop1" : {
                              "type" : "double",
                              "defaultValue" : 0.0,
                              "interp" : "eioe"
                            },
                            "sourceCrop2" : {
                              "type" : "double",
                              "defaultValue" : 0.0,
                              "interp" : "eioe"
                            },
                            "sourceCrop3" : {
                              "type" : "double",
                              "defaultValue" : 0.0,
                              "interp" : "eioe"
                            },
                            "geometryCrop0" : {
                              "type" : "double",
                              "defaultValue" : 0.0,
                              "interp" : "eioe"
                            },
                            "geometryCrop1" : {
                              "type" : "double",
                              "defaultValue" : 0.0,
                              "interp" : "eioe"
                            },
                            "geometryCrop2" : {
                              "type" : "double",
                              "defaultValue" : 0.0,
                              "interp" : "eioe"
                            },
                            "geometryCrop3" : {
                              "type" : "double",
                              "defaultValue" : 0.0,
                              "interp" : "eioe"
                            },
                            "cursorScale" : {
                              "type" : "double",
                              "defaultValue" : 1.0,
                              "interp" : "linr"
                            },
                            "cursorOpacity" : {
                              "type" : "double",
                              "defaultValue" : 1.0,
                              "interp" : "linr"
                            }
                          },
                          "effects" : [

                          ],
                          "start" : 4700,
                          "duration" : 69,
                          "mediaStart" : 1521,
                          "mediaDuration" : 69,
                          "scalar" : 1,
                          "animationTracks" : {

                          }
                        },
                    "audio" : 
                        {
                          "id" : 338,
                          "_type" : "AMFile",
                          "src" : 6,
                          "trackNumber" : 3,
                          "attributes" : {
                            "ident" : "",
                            "gain" : 1.0,
                            "mixToMono" : false
                          },
                            "channelNumber" : "0,1",
                          "effects" : [

                          ],
                          "start" : 4700,
                          "duration" : 69,
                          "mediaStart" : 1521,
                          "mediaDuration" : 69,
                          "scalar" : 1,
                          "animationTracks" : {

                          }
                        }
,
                    "start" : 4700,
                    "duration" : 69,
                    "mediaStart" : 0,
                    "mediaDuration" : 4874,
                    "scalar" : 1,
                    "metadata" : {
                      "AutoAppliedSmartFocus" : "False",
                      "clipSpeedAttribute" : false
                    }
                  },
                  {
                    "id" : 339,
                    "_type" : "UnifiedMedia",
                    "video" : 
                        {
                          "id" : 340,
                          "_type" : "ScreenVMFile",
                          "src" : 6,
                          "trackNumber" : 0,
                          "attributes" : {
                            "ident" : "Grabación 26-12-{AA}_018"
                          },
                          "parameters" : {
                            "sourceCrop0" : {
                              "type" : "double",
                              "defaultValue" : 0.0,
                              "interp" : "eioe"
                            },
                            "sourceCrop1" : {
                              "type" : "double",
                              "defaultValue" : 0.0,
                              "interp" : "eioe"
                            },
                            "sourceCrop2" : {
                              "type" : "double",
                              "defaultValue" : 0.0,
                              "interp" : "eioe"
                            },
                            "sourceCrop3" : {
                              "type" : "double",
                              "defaultValue" : 0.0,
                              "interp" : "eioe"
                            },
                            "geometryCrop0" : {
                              "type" : "double",
                              "defaultValue" : 0.0,
                              "interp" : "eioe"
                            },
                            "geometryCrop1" : {
                              "type" : "double",
                              "defaultValue" : 0.0,
                              "interp" : "eioe"
                            },
                            "geometryCrop2" : {
                              "type" : "double",
                              "defaultValue" : 0.0,
                              "interp" : "eioe"
                            },
                            "geometryCrop3" : {
                              "type" : "double",
                              "defaultValue" : 0.0,
                              "interp" : "eioe"
                            },
                            "cursorScale" : {
                              "type" : "double",
                              "defaultValue" : 1.0,
                              "interp" : "linr"
                            },
                            "cursorOpacity" : {
                              "type" : "double",
                              "defaultValue" : 1.0,
                              "interp" : "linr"
                            }
                          },
                          "effects" : [

                          ],
                          "start" : 4769,
                          "duration" : 63,
                          "mediaStart" : 1602,
                          "mediaDuration" : 63,
                          "scalar" : 1,
                          "animationTracks" : {

                          }
                        },
                    "audio" : 
                        {
                          "id" : 341,
                          "_type" : "AMFile",
                          "src" : 6,
                          "trackNumber" : 3,
                          "attributes" : {
                            "ident" : "",
                            "gain" : 1.0,
                            "mixToMono" : false
                          },
                            "channelNumber" : "0,1",
                          "effects" : [

                          ],
                          "start" : 4769,
                          "duration" : 63,
                          "mediaStart" : 1602,
                          "mediaDuration" : 63,
                          "scalar" : 1,
                          "animationTracks" : {

                          }
                        }
,
                    "start" : 4769,
                    "duration" : 63,
                    "mediaStart" : 0,
                    "mediaDuration" : 4874,
                    "scalar" : 1,
                    "metadata" : {
                      "AutoAppliedSmartFocus" : "False",
                      "clipSpeedAttribute" : false
                    }
                  },
                  {
                    "id" : 342,
                    "_type" : "UnifiedMedia",
                    "video" : 
                        {
                          "id" : 343,
                          "_type" : "ScreenVMFile",
                          "src" : 6,
                          "trackNumber" : 0,
                          "attributes" : {
                            "ident" : "Grabación 26-12-{AA}_018"
                          },
                          "parameters" : {
                            "sourceCrop0" : {
                              "type" : "double",
                              "defaultValue" : 0.0,
                              "interp" : "eioe"
                            },
                            "sourceCrop1" : {
                              "type" : "double",
                              "defaultValue" : 0.0,
                              "interp" : "eioe"
                            },
                            "sourceCrop2" : {
                              "type" : "double",
                              "defaultValue" : 0.0,
                              "interp" : "eioe"
                            },
                            "sourceCrop3" : {
                              "type" : "double",
                              "defaultValue" : 0.0,
                              "interp" : "eioe"
                            },
                            "geometryCrop0" : {
                              "type" : "double",
                              "defaultValue" : 0.0,
                              "interp" : "eioe"
                            },
                            "geometryCrop1" : {
                              "type" : "double",
                              "defaultValue" : 0.0,
                              "interp" : "eioe"
                            },
                            "geometryCrop2" : {
                              "type" : "double",
                              "defaultValue" : 0.0,
                              "interp" : "eioe"
                            },
                            "geometryCrop3" : {
                              "type" : "double",
                              "defaultValue" : 0.0,
                              "interp" : "eioe"
                            },
                            "cursorScale" : {
                              "type" : "double",
                              "defaultValue" : 1.0,
                              "interp" : "linr"
                            },
                            "cursorOpacity" : {
                              "type" : "double",
                              "defaultValue" : 1.0,
                              "interp" : "linr"
                            }
                          },
                          "effects" : [

                          ],
                          "start" : 4832,
                          "duration" : 104,
                          "mediaStart" : 1677,
                          "mediaDuration" : 104,
                          "scalar" : 1,
                          "animationTracks" : {

                          }
                        },
                    "audio" : 
                        {
                          "id" : 344,
                          "_type" : "AMFile",
                          "src" : 6,
                          "trackNumber" : 3,
                          "attributes" : {
                            "ident" : "",
                            "gain" : 1.0,
                            "mixToMono" : false
                          },
                            "channelNumber" : "0,1",
                          "effects" : [

                          ],
                          "start" : 4832,
                          "duration" : 104,
                          "mediaStart" : 1677,
                          "mediaDuration" : 104,
                          "scalar" : 1,
                          "animationTracks" : {

                          }
                        }
,
                    "start" : 4832,
                    "duration" : 104,
                    "mediaStart" : 0,
                    "mediaDuration" : 4874,
                    "scalar" : 1,
                    "metadata" : {
                      "AutoAppliedSmartFocus" : "False",
                      "clipSpeedAttribute" : false
                    }
                  },
                  {
                    "id" : 345,
                    "_type" : "UnifiedMedia",
                    "video" : 
                        {
                          "id" : 346,
                          "_type" : "ScreenVMFile",
                          "src" : 6,
                          "trackNumber" : 0,
                          "attributes" : {
                            "ident" : "Grabación 26-12-{AA}_018"
                          },
                          "parameters" : {
                            "sourceCrop0" : {
                              "type" : "double",
                              "defaultValue" : 0.0,
                              "interp" : "eioe"
                            },
                            "sourceCrop1" : {
                              "type" : "double",
                              "defaultValue" : 0.0,
                              "interp" : "eioe"
                            },
                            "sourceCrop2" : {
                              "type" : "double",
                              "defaultValue" : 0.0,
                              "interp" : "eioe"
                            },
                            "sourceCrop3" : {
                              "type" : "double",
                              "defaultValue" : 0.0,
                              "interp" : "eioe"
                            },
                            "geometryCrop0" : {
                              "type" : "double",
                              "defaultValue" : 0.0,
                              "interp" : "eioe"
                            },
                            "geometryCrop1" : {
                              "type" : "double",
                              "defaultValue" : 0.0,
                              "interp" : "eioe"
                            },
                            "geometryCrop2" : {
                              "type" : "double",
                              "defaultValue" : 0.0,
                              "interp" : "eioe"
                            },
                            "geometryCrop3" : {
                              "type" : "double",
                              "defaultValue" : 0.0,
                              "interp" : "eioe"
                            },
                            "cursorScale" : {
                              "type" : "double",
                              "defaultValue" : 1.0,
                              "interp" : "linr"
                            },
                            "cursorOpacity" : {
                              "type" : "double",
                              "defaultValue" : 1.0,
                              "interp" : "linr"
                            }
                          },
                          "effects" : [

                          ],
                          "start" : 4936,
                          "duration" : 46,
                          "mediaStart" : 1814,
                          "mediaDuration" : 46,
                          "scalar" : 1,
                          "animationTracks" : {

                          }
                        },
                    "audio" : 
                        {
                          "id" : 347,
                          "_type" : "AMFile",
                          "src" : 6,
                          "trackNumber" : 3,
                          "attributes" : {
                            "ident" : "",
                            "gain" : 1.0,
                            "mixToMono" : false
                          },
                            "channelNumber" : "0,1",
                          "effects" : [

                          ],
                          "start" : 4936,
                          "duration" : 46,
                          "mediaStart" : 1814,
                          "mediaDuration" : 46,
                          "scalar" : 1,
                          "animationTracks" : {

                          }
                        }
,
                    "start" : 4936,
                    "duration" : 46,
                    "mediaStart" : 0,
                    "mediaDuration" : 4874,
                    "scalar" : 1,
                    "metadata" : {
                      "AutoAppliedSmartFocus" : "False",
                      "clipSpeedAttribute" : false
                    }
                  },
                  {
                    "id" : 348,
                    "_type" : "UnifiedMedia",
                    "video" : 
                        {
                          "id" : 349,
                          "_type" : "ScreenVMFile",
                          "src" : 6,
                          "trackNumber" : 0,
                          "attributes" : {
                            "ident" : "Grabación 26-12-{AA}_018"
                          },
                          "parameters" : {
                            "sourceCrop0" : {
                              "type" : "double",
                              "defaultValue" : 0.0,
                              "interp" : "eioe"
                            },
                            "sourceCrop1" : {
                              "type" : "double",
                              "defaultValue" : 0.0,
                              "interp" : "eioe"
                            },
                            "sourceCrop2" : {
                              "type" : "double",
                              "defaultValue" : 0.0,
                              "interp" : "eioe"
                            },
                            "sourceCrop3" : {
                              "type" : "double",
                              "defaultValue" : 0.0,
                              "interp" : "eioe"
                            },
                            "geometryCrop0" : {
                              "type" : "double",
                              "defaultValue" : 0.0,
                              "interp" : "eioe"
                            },
                            "geometryCrop1" : {
                              "type" : "double",
                              "defaultValue" : 0.0,
                              "interp" : "eioe"
                            },
                            "geometryCrop2" : {
                              "type" : "double",
                              "defaultValue" : 0.0,
                              "interp" : "eioe"
                            },
                            "geometryCrop3" : {
                              "type" : "double",
                              "defaultValue" : 0.0,
                              "interp" : "eioe"
                            },
                            "cursorScale" : {
                              "type" : "double",
                              "defaultValue" : 1.0,
                              "interp" : "linr"
                            },
                            "cursorOpacity" : {
                              "type" : "double",
                              "defaultValue" : 1.0,
                              "interp" : "linr"
                            }
                          },
                          "effects" : [

                          ],
                          "start" : 4982,
                          "duration" : 43,
                          "mediaStart" : 1871,
                          "mediaDuration" : 43,
                          "scalar" : 1,
                          "animationTracks" : {

                          }
                        },
                    "audio" : 
                        {
                          "id" : 350,
                          "_type" : "AMFile",
                          "src" : 6,
                          "trackNumber" : 3,
                          "attributes" : {
                            "ident" : "",
                            "gain" : 1.0,
                            "mixToMono" : false
                          },
                            "channelNumber" : "0,1",
                          "effects" : [

                          ],
                          "start" : 4982,
                          "duration" : 43,
                          "mediaStart" : 1871,
                          "mediaDuration" : 43,
                          "scalar" : 1,
                          "animationTracks" : {

                          }
                        }
,
                    "start" : 4982,
                    "duration" : 43,
                    "mediaStart" : 0,
                    "mediaDuration" : 4874,
                    "scalar" : 1,
                    "metadata" : {
                      "AutoAppliedSmartFocus" : "False",
                      "clipSpeedAttribute" : false
                    }
                  },
                  {
                    "id" : 351,
                    "_type" : "UnifiedMedia",
                    "video" : 
                        {
                          "id" : 352,
                          "_type" : "ScreenVMFile",
                          "src" : 6,
                          "trackNumber" : 0,
                          "attributes" : {
                            "ident" : "Grabación 26-12-{AA}_018"
                          },
                          "parameters" : {
                            "sourceCrop0" : {
                              "type" : "double",
                              "defaultValue" : 0.0,
                              "interp" : "eioe"
                            },
                            "sourceCrop1" : {
                              "type" : "double",
                              "defaultValue" : 0.0,
                              "interp" : "eioe"
                            },
                            "sourceCrop2" : {
                              "type" : "double",
                              "defaultValue" : 0.0,
                              "interp" : "eioe"
                            },
                            "sourceCrop3" : {
                              "type" : "double",
                              "defaultValue" : 0.0,
                              "interp" : "eioe"
                            },
                            "geometryCrop0" : {
                              "type" : "double",
                              "defaultValue" : 0.0,
                              "interp" : "eioe"
                            },
                            "geometryCrop1" : {
                              "type" : "double",
                              "defaultValue" : 0.0,
                              "interp" : "eioe"
                            },
                            "geometryCrop2" : {
                              "type" : "double",
                              "defaultValue" : 0.0,
                              "interp" : "eioe"
                            },
                            "geometryCrop3" : {
                              "type" : "double",
                              "defaultValue" : 0.0,
                              "interp" : "eioe"
                            },
                            "cursorScale" : {
                              "type" : "double",
                              "defaultValue" : 1.0,
                              "interp" : "linr"
                            },
                            "cursorOpacity" : {
                              "type" : "double",
                              "defaultValue" : 1.0,
                              "interp" : "linr"
                            }
                          },
                          "effects" : [

                          ],
                          "start" : 5025,
                          "duration" : 99,
                          "mediaStart" : 1928,
                          "mediaDuration" : 99,
                          "scalar" : 1,
                          "animationTracks" : {

                          }
                        },
                    "audio" : 
                        {
                          "id" : 353,
                          "_type" : "AMFile",
                          "src" : 6,
                          "trackNumber" : 3,
                          "attributes" : {
                            "ident" : "",
                            "gain" : 1.0,
                            "mixToMono" : false
                          },
                            "channelNumber" : "0,1",
                          "effects" : [

                          ],
                          "start" : 5025,
                          "duration" : 99,
                          "mediaStart" : 1928,
                          "mediaDuration" : 99,
                          "scalar" : 1,
                          "animationTracks" : {

                          }
                        }
,
                    "start" : 5025,
                    "duration" : 99,
                    "mediaStart" : 0,
                    "mediaDuration" : 4874,
                    "scalar" : 1,
                    "metadata" : {
                      "AutoAppliedSmartFocus" : "False",
                      "clipSpeedAttribute" : false
                    }
                  },
                  {
                    "id" : 354,
                    "_type" : "UnifiedMedia",
                    "video" : 
                        {
                          "id" : 355,
                          "_type" : "ScreenVMFile",
                          "src" : 6,
                          "trackNumber" : 0,
                          "attributes" : {
                            "ident" : "Grabación 26-12-{AA}_018"
                          },
                          "parameters" : {
                            "sourceCrop0" : {
                              "type" : "double",
                              "defaultValue" : 0.0,
                              "interp" : "eioe"
                            },
                            "sourceCrop1" : {
                              "type" : "double",
                              "defaultValue" : 0.0,
                              "interp" : "eioe"
                            },
                            "sourceCrop2" : {
                              "type" : "double",
                              "defaultValue" : 0.0,
                              "interp" : "eioe"
                            },
                            "sourceCrop3" : {
                              "type" : "double",
                              "defaultValue" : 0.0,
                              "interp" : "eioe"
                            },
                            "geometryCrop0" : {
                              "type" : "double",
                              "defaultValue" : 0.0,
                              "interp" : "eioe"
                            },
                            "geometryCrop1" : {
                              "type" : "double",
                              "defaultValue" : 0.0,
                              "interp" : "eioe"
                            },
                            "geometryCrop2" : {
                              "type" : "double",
                              "defaultValue" : 0.0,
                              "interp" : "eioe"
                            },
                            "geometryCrop3" : {
                              "type" : "double",
                              "defaultValue" : 0.0,
                              "interp" : "eioe"
                            },
                            "cursorScale" : {
                              "type" : "double",
                              "defaultValue" : 1.0,
                              "interp" : "linr"
                            },
                            "cursorOpacity" : {
                              "type" : "double",
                              "defaultValue" : 1.0,
                              "interp" : "linr"
                            }
                          },
                          "effects" : [

                          ],
                          "start" : 5124,
                          "duration" : 33,
                          "mediaStart" : 2040,
                          "mediaDuration" : 33,
                          "scalar" : 1,
                          "animationTracks" : {

                          }
                        },
                    "audio" : 
                        {
                          "id" : 356,
                          "_type" : "AMFile",
                          "src" : 6,
                          "trackNumber" : 3,
                          "attributes" : {
                            "ident" : "",
                            "gain" : 1.0,
                            "mixToMono" : false
                          },
                            "channelNumber" : "0,1",
                          "effects" : [

                          ],
                          "start" : 5124,
                          "duration" : 33,
                          "mediaStart" : 2040,
                          "mediaDuration" : 33,
                          "scalar" : 1,
                          "animationTracks" : {

                          }
                        }
,
                    "start" : 5124,
                    "duration" : 33,
                    "mediaStart" : 0,
                    "mediaDuration" : 4874,
                    "scalar" : 1,
                    "metadata" : {
                      "AutoAppliedSmartFocus" : "False",
                      "clipSpeedAttribute" : false
                    }
                  },
                  {
                    "id" : 357,
                    "_type" : "UnifiedMedia",
                    "video" : 
                        {
                          "id" : 358,
                          "_type" : "ScreenVMFile",
                          "src" : 6,
                          "trackNumber" : 0,
                          "attributes" : {
                            "ident" : "Grabación 26-12-{AA}_018"
                          },
                          "parameters" : {
                            "sourceCrop0" : {
                              "type" : "double",
                              "defaultValue" : 0.0,
                              "interp" : "eioe"
                            },
                            "sourceCrop1" : {
                              "type" : "double",
                              "defaultValue" : 0.0,
                              "interp" : "eioe"
                            },
                            "sourceCrop2" : {
                              "type" : "double",
                              "defaultValue" : 0.0,
                              "interp" : "eioe"
                            },
                            "sourceCrop3" : {
                              "type" : "double",
                              "defaultValue" : 0.0,
                              "interp" : "eioe"
                            },
                            "geometryCrop0" : {
                              "type" : "double",
                              "defaultValue" : 0.0,
                              "interp" : "eioe"
                            },
                            "geometryCrop1" : {
                              "type" : "double",
                              "defaultValue" : 0.0,
                              "interp" : "eioe"
                            },
                            "geometryCrop2" : {
                              "type" : "double",
                              "defaultValue" : 0.0,
                              "interp" : "eioe"
                            },
                            "geometryCrop3" : {
                              "type" : "double",
                              "defaultValue" : 0.0,
                              "interp" : "eioe"
                            },
                            "cursorScale" : {
                              "type" : "double",
                              "defaultValue" : 1.0,
                              "interp" : "linr"
                            },
                            "cursorOpacity" : {
                              "type" : "double",
                              "defaultValue" : 1.0,
                              "interp" : "linr"
                            }
                          },
                          "effects" : [

                          ],
                          "start" : 5157,
                          "duration" : 65,
                          "mediaStart" : 2112,
                          "mediaDuration" : 65,
                          "scalar" : 1,
                          "animationTracks" : {

                          }
                        },
                    "audio" : 
                        {
                          "id" : 359,
                          "_type" : "AMFile",
                          "src" : 6,
                          "trackNumber" : 3,
                          "attributes" : {
                            "ident" : "",
                            "gain" : 1.0,
                            "mixToMono" : false
                          },
                            "channelNumber" : "0,1",
                          "effects" : [

                          ],
                          "start" : 5157,
                          "duration" : 65,
                          "mediaStart" : 2112,
                          "mediaDuration" : 65,
                          "scalar" : 1,
                          "animationTracks" : {

                          }
                        }
,
                    "start" : 5157,
                    "duration" : 65,
                    "mediaStart" : 0,
                    "mediaDuration" : 4874,
                    "scalar" : 1,
                    "metadata" : {
                      "AutoAppliedSmartFocus" : "False",
                      "clipSpeedAttribute" : false
                    }
                  },
                  {
                    "id" : 360,
                    "_type" : "UnifiedMedia",
                    "video" : 
                        {
                          "id" : 361,
                          "_type" : "ScreenVMFile",
                          "src" : 6,
                          "trackNumber" : 0,
                          "attributes" : {
                            "ident" : "Grabación 26-12-{AA}_018"
                          },
                          "parameters" : {
                            "sourceCrop0" : {
                              "type" : "double",
                              "defaultValue" : 0.0,
                              "interp" : "eioe"
                            },
                            "sourceCrop1" : {
                              "type" : "double",
                              "defaultValue" : 0.0,
                              "interp" : "eioe"
                            },
                            "sourceCrop2" : {
                              "type" : "double",
                              "defaultValue" : 0.0,
                              "interp" : "eioe"
                            },
                            "sourceCrop3" : {
                              "type" : "double",
                              "defaultValue" : 0.0,
                              "interp" : "eioe"
                            },
                            "geometryCrop0" : {
                              "type" : "double",
                              "defaultValue" : 0.0,
                              "interp" : "eioe"
                            },
                            "geometryCrop1" : {
                              "type" : "double",
                              "defaultValue" : 0.0,
                              "interp" : "eioe"
                            },
                            "geometryCrop2" : {
                              "type" : "double",
                              "defaultValue" : 0.0,
                              "interp" : "eioe"
                            },
                            "geometryCrop3" : {
                              "type" : "double",
                              "defaultValue" : 0.0,
                              "interp" : "eioe"
                            },
                            "cursorScale" : {
                              "type" : "double",
                              "defaultValue" : 1.0,
                              "interp" : "linr"
                            },
                            "cursorOpacity" : {
                              "type" : "double",
                              "defaultValue" : 1.0,
                              "interp" : "linr"
                            }
                          },
                          "effects" : [

                          ],
                          "start" : 5222,
                          "duration" : 38,
                          "mediaStart" : 2189,
                          "mediaDuration" : 38,
                          "scalar" : 1,
                          "animationTracks" : {

                          }
                        },
                    "audio" : 
                        {
                          "id" : 362,
                          "_type" : "AMFile",
                          "src" : 6,
                          "trackNumber" : 3,
                          "attributes" : {
                            "ident" : "",
                            "gain" : 1.0,
                            "mixToMono" : false
                          },
                            "channelNumber" : "0,1",
                          "effects" : [

                          ],
                          "start" : 5222,
                          "duration" : 38,
                          "mediaStart" : 2189,
                          "mediaDuration" : 38,
                          "scalar" : 1,
                          "animationTracks" : {

                          }
                        }
,
                    "start" : 5222,
                    "duration" : 38,
                    "mediaStart" : 0,
                    "mediaDuration" : 4874,
                    "scalar" : 1,
                    "metadata" : {
                      "AutoAppliedSmartFocus" : "False",
                      "clipSpeedAttribute" : false
                    }
                  },
                  {
                    "id" : 363,
                    "_type" : "UnifiedMedia",
                    "video" : 
                        {
                          "id" : 364,
                          "_type" : "ScreenVMFile",
                          "src" : 6,
                          "trackNumber" : 0,
                          "attributes" : {
                            "ident" : "Grabación 26-12-{AA}_018"
                          },
                          "parameters" : {
                            "sourceCrop0" : {
                              "type" : "double",
                              "defaultValue" : 0.0,
                              "interp" : "eioe"
                            },
                            "sourceCrop1" : {
                              "type" : "double",
                              "defaultValue" : 0.0,
                              "interp" : "eioe"
                            },
                            "sourceCrop2" : {
                              "type" : "double",
                              "defaultValue" : 0.0,
                              "interp" : "eioe"
                            },
                            "sourceCrop3" : {
                              "type" : "double",
                              "defaultValue" : 0.0,
                              "interp" : "eioe"
                            },
                            "geometryCrop0" : {
                              "type" : "double",
                              "defaultValue" : 0.0,
                              "interp" : "eioe"
                            },
                            "geometryCrop1" : {
                              "type" : "double",
                              "defaultValue" : 0.0,
                              "interp" : "eioe"
                            },
                            "geometryCrop2" : {
                              "type" : "double",
                              "defaultValue" : 0.0,
                              "interp" : "eioe"
                            },
                            "geometryCrop3" : {
                              "type" : "double",
                              "defaultValue" : 0.0,
                              "interp" : "eioe"
                            },
                            "cursorScale" : {
                              "type" : "double",
                              "defaultValue" : 1.0,
                              "interp" : "linr"
                            },
                            "cursorOpacity" : {
                              "type" : "double",
                              "defaultValue" : 1.0,
                              "interp" : "linr"
                            }
                          },
                          "effects" : [

                          ],
                          "start" : 5260,
                          "duration" : 130,
                          "mediaStart" : 2239,
                          "mediaDuration" : 130,
                          "scalar" : 1,
                          "animationTracks" : {

                          }
                        },
                    "audio" : 
                        {
                          "id" : 365,
                          "_type" : "AMFile",
                          "src" : 6,
                          "trackNumber" : 3,
                          "attributes" : {
                            "ident" : "",
                            "gain" : 1.0,
                            "mixToMono" : false
                          },
                            "channelNumber" : "0,1",
                          "effects" : [

                          ],
                          "start" : 5260,
                          "duration" : 130,
                          "mediaStart" : 2239,
                          "mediaDuration" : 130,
                          "scalar" : 1,
                          "animationTracks" : {

                          }
                        }
,
                    "start" : 5260,
                    "duration" : 130,
                    "mediaStart" : 0,
                    "mediaDuration" : 4874,
                    "scalar" : 1,
                    "metadata" : {
                      "AutoAppliedSmartFocus" : "False",
                      "clipSpeedAttribute" : false
                    }
                  },
                  {
                    "id" : 366,
                    "_type" : "UnifiedMedia",
                    "video" : 
                        {
                          "id" : 367,
                          "_type" : "ScreenVMFile",
                          "src" : 6,
                          "trackNumber" : 0,
                          "attributes" : {
                            "ident" : "Grabación 26-12-{AA}_018"
                          },
                          "parameters" : {
                            "sourceCrop0" : {
                              "type" : "double",
                              "defaultValue" : 0.0,
                              "interp" : "eioe"
                            },
                            "sourceCrop1" : {
                              "type" : "double",
                              "defaultValue" : 0.0,
                              "interp" : "eioe"
                            },
                            "sourceCrop2" : {
                              "type" : "double",
                              "defaultValue" : 0.0,
                              "interp" : "eioe"
                            },
                            "sourceCrop3" : {
                              "type" : "double",
                              "defaultValue" : 0.0,
                              "interp" : "eioe"
                            },
                            "geometryCrop0" : {
                              "type" : "double",
                              "defaultValue" : 0.0,
                              "interp" : "eioe"
                            },
                            "geometryCrop1" : {
                              "type" : "double",
                              "defaultValue" : 0.0,
                              "interp" : "eioe"
                            },
                            "geometryCrop2" : {
                              "type" : "double",
                              "defaultValue" : 0.0,
                              "interp" : "eioe"
                            },
                            "geometryCrop3" : {
                              "type" : "double",
                              "defaultValue" : 0.0,
                              "interp" : "eioe"
                            },
                            "cursorScale" : {
                              "type" : "double",
                              "defaultValue" : 1.0,
                              "interp" : "linr"
                            },
                            "cursorOpacity" : {
                              "type" : "double",
                              "defaultValue" : 1.0,
                              "interp" : "linr"
                            }
                          },
                          "effects" : [

                          ],
                          "start" : 5390,
                          "duration" : 36,
                          "mediaStart" : 2385,
                          "mediaDuration" : 36,
                          "scalar" : 1,
                          "animationTracks" : {

                          }
                        },
                    "audio" : 
                        {
                          "id" : 368,
                          "_type" : "AMFile",
                          "src" : 6,
                          "trackNumber" : 3,
                          "attributes" : {
                            "ident" : "",
                            "gain" : 1.0,
                            "mixToMono" : false
                          },
                            "channelNumber" : "0,1",
                          "effects" : [

                          ],
                          "start" : 5390,
                          "duration" : 36,
                          "mediaStart" : 2385,
                          "mediaDuration" : 36,
                          "scalar" : 1,
                          "animationTracks" : {

                          }
                        }
,
                    "start" : 5390,
                    "duration" : 36,
                    "mediaStart" : 0,
                    "mediaDuration" : 4874,
                    "scalar" : 1,
                    "metadata" : {
                      "AutoAppliedSmartFocus" : "False",
                      "clipSpeedAttribute" : false
                    }
                  },
                  {
                    "id" : 369,
                    "_type" : "UnifiedMedia",
                    "video" : 
                        {
                          "id" : 370,
                          "_type" : "ScreenVMFile",
                          "src" : 6,
                          "trackNumber" : 0,
                          "attributes" : {
                            "ident" : "Grabación 26-12-{AA}_018"
                          },
                          "parameters" : {
                            "sourceCrop0" : {
                              "type" : "double",
                              "defaultValue" : 0.0,
                              "interp" : "eioe"
                            },
                            "sourceCrop1" : {
                              "type" : "double",
                              "defaultValue" : 0.0,
                              "interp" : "eioe"
                            },
                            "sourceCrop2" : {
                              "type" : "double",
                              "defaultValue" : 0.0,
                              "interp" : "eioe"
                            },
                            "sourceCrop3" : {
                              "type" : "double",
                              "defaultValue" : 0.0,
                              "interp" : "eioe"
                            },
                            "geometryCrop0" : {
                              "type" : "double",
                              "defaultValue" : 0.0,
                              "interp" : "eioe"
                            },
                            "geometryCrop1" : {
                              "type" : "double",
                              "defaultValue" : 0.0,
                              "interp" : "eioe"
                            },
                            "geometryCrop2" : {
                              "type" : "double",
                              "defaultValue" : 0.0,
                              "interp" : "eioe"
                            },
                            "geometryCrop3" : {
                              "type" : "double",
                              "defaultValue" : 0.0,
                              "interp" : "eioe"
                            },
                            "cursorScale" : {
                              "type" : "double",
                              "defaultValue" : 1.0,
                              "interp" : "linr"
                            },
                            "cursorOpacity" : {
                              "type" : "double",
                              "defaultValue" : 1.0,
                              "interp" : "linr"
                            }
                          },
                          "effects" : [

                          ],
                          "start" : 5426,
                          "duration" : 39,
                          "mediaStart" : 2432,
                          "mediaDuration" : 39,
                          "scalar" : 1,
                          "animationTracks" : {

                          }
                        },
                    "audio" : 
                        {
                          "id" : 371,
                          "_type" : "AMFile",
                          "src" : 6,
                          "trackNumber" : 3,
                          "attributes" : {
                            "ident" : "",
                            "gain" : 1.0,
                            "mixToMono" : false
                          },
                            "channelNumber" : "0,1",
                          "effects" : [

                          ],
                          "start" : 5426,
                          "duration" : 39,
                          "mediaStart" : 2432,
                          "mediaDuration" : 39,
                          "scalar" : 1,
                          "animationTracks" : {

                          }
                        }
,
                    "start" : 5426,
                    "duration" : 39,
                    "mediaStart" : 0,
                    "mediaDuration" : 4874,
                    "scalar" : 1,
                    "metadata" : {
                      "AutoAppliedSmartFocus" : "False",
                      "clipSpeedAttribute" : false
                    }
                  },
                  {
                    "id" : 372,
                    "_type" : "UnifiedMedia",
                    "video" : 
                        {
                          "id" : 373,
                          "_type" : "ScreenVMFile",
                          "src" : 6,
                          "trackNumber" : 0,
                          "attributes" : {
                            "ident" : "Grabación 26-12-{AA}_018"
                          },
                          "parameters" : {
                            "sourceCrop0" : {
                              "type" : "double",
                              "defaultValue" : 0.0,
                              "interp" : "eioe"
                            },
                            "sourceCrop1" : {
                              "type" : "double",
                              "defaultValue" : 0.0,
                              "interp" : "eioe"
                            },
                            "sourceCrop2" : {
                              "type" : "double",
                              "defaultValue" : 0.0,
                              "interp" : "eioe"
                            },
                            "sourceCrop3" : {
                              "type" : "double",
                              "defaultValue" : 0.0,
                              "interp" : "eioe"
                            },
                            "geometryCrop0" : {
                              "type" : "double",
                              "defaultValue" : 0.0,
                              "interp" : "eioe"
                            },
                            "geometryCrop1" : {
                              "type" : "double",
                              "defaultValue" : 0.0,
                              "interp" : "eioe"
                            },
                            "geometryCrop2" : {
                              "type" : "double",
                              "defaultValue" : 0.0,
                              "interp" : "eioe"
                            },
                            "geometryCrop3" : {
                              "type" : "double",
                              "defaultValue" : 0.0,
                              "interp" : "eioe"
                            },
                            "cursorScale" : {
                              "type" : "double",
                              "defaultValue" : 1.0,
                              "interp" : "linr"
                            },
                            "cursorOpacity" : {
                              "type" : "double",
                              "defaultValue" : 1.0,
                              "interp" : "linr"
                            }
                          },
                          "effects" : [

                          ],
                          "start" : 5465,
                          "duration" : 12,
                          "mediaStart" : 2483,
                          "mediaDuration" : 12,
                          "scalar" : 1,
                          "animationTracks" : {

                          }
                        },
                    "audio" : 
                        {
                          "id" : 374,
                          "_type" : "AMFile",
                          "src" : 6,
                          "trackNumber" : 3,
                          "attributes" : {
                            "ident" : "",
                            "gain" : 1.0,
                            "mixToMono" : false
                          },
                            "channelNumber" : "0,1",
                          "effects" : [

                          ],
                          "start" : 5465,
                          "duration" : 12,
                          "mediaStart" : 2483,
                          "mediaDuration" : 12,
                          "scalar" : 1,
                          "animationTracks" : {

                          }
                        }
,
                    "start" : 5465,
                    "duration" : 12,
                    "mediaStart" : 0,
                    "mediaDuration" : 4874,
                    "scalar" : 1,
                    "metadata" : {
                      "AutoAppliedSmartFocus" : "False",
                      "clipSpeedAttribute" : false
                    }
                  },
                  {
                    "id" : 375,
                    "_type" : "UnifiedMedia",
                    "video" : 
                        {
                          "id" : 376,
                          "_type" : "ScreenVMFile",
                          "src" : 6,
                          "trackNumber" : 0,
                          "attributes" : {
                            "ident" : "Grabación 26-12-{AA}_018"
                          },
                          "parameters" : {
                            "sourceCrop0" : {
                              "type" : "double",
                              "defaultValue" : 0.0,
                              "interp" : "eioe"
                            },
                            "sourceCrop1" : {
                              "type" : "double",
                              "defaultValue" : 0.0,
                              "interp" : "eioe"
                            },
                            "sourceCrop2" : {
                              "type" : "double",
                              "defaultValue" : 0.0,
                              "interp" : "eioe"
                            },
                            "sourceCrop3" : {
                              "type" : "double",
                              "defaultValue" : 0.0,
                              "interp" : "eioe"
                            },
                            "geometryCrop0" : {
                              "type" : "double",
                              "defaultValue" : 0.0,
                              "interp" : "eioe"
                            },
                            "geometryCrop1" : {
                              "type" : "double",
                              "defaultValue" : 0.0,
                              "interp" : "eioe"
                            },
                            "geometryCrop2" : {
                              "type" : "double",
                              "defaultValue" : 0.0,
                              "interp" : "eioe"
                            },
                            "geometryCrop3" : {
                              "type" : "double",
                              "defaultValue" : 0.0,
                              "interp" : "eioe"
                            },
                            "cursorScale" : {
                              "type" : "double",
                              "defaultValue" : 1.0,
                              "interp" : "linr"
                            },
                            "cursorOpacity" : {
                              "type" : "double",
                              "defaultValue" : 1.0,
                              "interp" : "linr"
                            }
                          },
                          "effects" : [

                          ],
                          "start" : 5477,
                          "duration" : 44,
                          "mediaStart" : 2520,
                          "mediaDuration" : 44,
                          "scalar" : 1,
                          "animationTracks" : {

                          }
                        },
                    "audio" : 
                        {
                          "id" : 377,
                          "_type" : "AMFile",
                          "src" : 6,
                          "trackNumber" : 3,
                          "attributes" : {
                            "ident" : "",
                            "gain" : 1.0,
                            "mixToMono" : false
                          },
                            "channelNumber" : "0,1",
                          "effects" : [

                          ],
                          "start" : 5477,
                          "duration" : 44,
                          "mediaStart" : 2520,
                          "mediaDuration" : 44,
                          "scalar" : 1,
                          "animationTracks" : {

                          }
                        }
,
                    "start" : 5477,
                    "duration" : 44,
                    "mediaStart" : 0,
                    "mediaDuration" : 4874,
                    "scalar" : 1,
                    "metadata" : {
                      "AutoAppliedSmartFocus" : "False",
                      "clipSpeedAttribute" : false
                    }
                  },
                  {
                    "id" : 378,
                    "_type" : "UnifiedMedia",
                    "video" : 
                        {
                          "id" : 379,
                          "_type" : "ScreenVMFile",
                          "src" : 6,
                          "trackNumber" : 0,
                          "attributes" : {
                            "ident" : "Grabación 26-12-{AA}_018"
                          },
                          "parameters" : {
                            "sourceCrop0" : {
                              "type" : "double",
                              "defaultValue" : 0.0,
                              "interp" : "eioe"
                            },
                            "sourceCrop1" : {
                              "type" : "double",
                              "defaultValue" : 0.0,
                              "interp" : "eioe"
                            },
                            "sourceCrop2" : {
                              "type" : "double",
                              "defaultValue" : 0.0,
                              "interp" : "eioe"
                            },
                            "sourceCrop3" : {
                              "type" : "double",
                              "defaultValue" : 0.0,
                              "interp" : "eioe"
                            },
                            "geometryCrop0" : {
                              "type" : "double",
                              "defaultValue" : 0.0,
                              "interp" : "eioe"
                            },
                            "geometryCrop1" : {
                              "type" : "double",
                              "defaultValue" : 0.0,
                              "interp" : "eioe"
                            },
                            "geometryCrop2" : {
                              "type" : "double",
                              "defaultValue" : 0.0,
                              "interp" : "eioe"
                            },
                            "geometryCrop3" : {
                              "type" : "double",
                              "defaultValue" : 0.0,
                              "interp" : "eioe"
                            },
                            "cursorScale" : {
                              "type" : "double",
                              "defaultValue" : 1.0,
                              "interp" : "linr"
                            },
                            "cursorOpacity" : {
                              "type" : "double",
                              "defaultValue" : 1.0,
                              "interp" : "linr"
                            }
                          },
                          "effects" : [

                          ],
                          "start" : 5521,
                          "duration" : 42,
                          "mediaStart" : 2574,
                          "mediaDuration" : 42,
                          "scalar" : 1,
                          "animationTracks" : {

                          }
                        },
                    "audio" : 
                        {
                          "id" : 380,
                          "_type" : "AMFile",
                          "src" : 6,
                          "trackNumber" : 3,
                          "attributes" : {
                            "ident" : "",
                            "gain" : 1.0,
                            "mixToMono" : false
                          },
                            "channelNumber" : "0,1",
                          "effects" : [

                          ],
                          "start" : 5521,
                          "duration" : 42,
                          "mediaStart" : 2574,
                          "mediaDuration" : 42,
                          "scalar" : 1,
                          "animationTracks" : {

                          }
                        }
,
                    "start" : 5521,
                    "duration" : 42,
                    "mediaStart" : 0,
                    "mediaDuration" : 4874,
                    "scalar" : 1,
                    "metadata" : {
                      "AutoAppliedSmartFocus" : "False",
                      "clipSpeedAttribute" : false
                    }
                  },
                  {
                    "id" : 381,
                    "_type" : "UnifiedMedia",
                    "video" : 
                        {
                          "id" : 382,
                          "_type" : "ScreenVMFile",
                          "src" : 6,
                          "trackNumber" : 0,
                          "attributes" : {
                            "ident" : "Grabación 26-12-{AA}_018"
                          },
                          "parameters" : {
                            "sourceCrop0" : {
                              "type" : "double",
                              "defaultValue" : 0.0,
                              "interp" : "eioe"
                            },
                            "sourceCrop1" : {
                              "type" : "double",
                              "defaultValue" : 0.0,
                              "interp" : "eioe"
                            },
                            "sourceCrop2" : {
                              "type" : "double",
                              "defaultValue" : 0.0,
                              "interp" : "eioe"
                            },
                            "sourceCrop3" : {
                              "type" : "double",
                              "defaultValue" : 0.0,
                              "interp" : "eioe"
                            },
                            "geometryCrop0" : {
                              "type" : "double",
                              "defaultValue" : 0.0,
                              "interp" : "eioe"
                            },
                            "geometryCrop1" : {
                              "type" : "double",
                              "defaultValue" : 0.0,
                              "interp" : "eioe"
                            },
                            "geometryCrop2" : {
                              "type" : "double",
                              "defaultValue" : 0.0,
                              "interp" : "eioe"
                            },
                            "geometryCrop3" : {
                              "type" : "double",
                              "defaultValue" : 0.0,
                              "interp" : "eioe"
                            },
                            "cursorScale" : {
                              "type" : "double",
                              "defaultValue" : 1.0,
                              "interp" : "linr"
                            },
                            "cursorOpacity" : {
                              "type" : "double",
                              "defaultValue" : 1.0,
                              "interp" : "linr"
                            }
                          },
                          "effects" : [

                          ],
                          "start" : 5563,
                          "duration" : 54,
                          "mediaStart" : 2646,
                          "mediaDuration" : 54,
                          "scalar" : 1,
                          "animationTracks" : {

                          }
                        },
                    "audio" : 
                        {
                          "id" : 383,
                          "_type" : "AMFile",
                          "src" : 6,
                          "trackNumber" : 3,
                          "attributes" : {
                            "ident" : "",
                            "gain" : 1.0,
                            "mixToMono" : false
                          },
                            "channelNumber" : "0,1",
                          "effects" : [

                          ],
                          "start" : 5563,
                          "duration" : 54,
                          "mediaStart" : 2646,
                          "mediaDuration" : 54,
                          "scalar" : 1,
                          "animationTracks" : {

                          }
                        }
,
                    "start" : 5563,
                    "duration" : 54,
                    "mediaStart" : 0,
                    "mediaDuration" : 4874,
                    "scalar" : 1,
                    "metadata" : {
                      "AutoAppliedSmartFocus" : "False",
                      "clipSpeedAttribute" : false
                    }
                  },
                  {
                    "id" : 384,
                    "_type" : "UnifiedMedia",
                    "video" : 
                        {
                          "id" : 385,
                          "_type" : "ScreenVMFile",
                          "src" : 6,
                          "trackNumber" : 0,
                          "attributes" : {
                            "ident" : "Grabación 26-12-{AA}_018"
                          },
                          "parameters" : {
                            "sourceCrop0" : {
                              "type" : "double",
                              "defaultValue" : 0.0,
                              "interp" : "eioe"
                            },
                            "sourceCrop1" : {
                              "type" : "double",
                              "defaultValue" : 0.0,
                              "interp" : "eioe"
                            },
                            "sourceCrop2" : {
                              "type" : "double",
                              "defaultValue" : 0.0,
                              "interp" : "eioe"
                            },
                            "sourceCrop3" : {
                              "type" : "double",
                              "defaultValue" : 0.0,
                              "interp" : "eioe"
                            },
                            "geometryCrop0" : {
                              "type" : "double",
                              "defaultValue" : 0.0,
                              "interp" : "eioe"
                            },
                            "geometryCrop1" : {
                              "type" : "double",
                              "defaultValue" : 0.0,
                              "interp" : "eioe"
                            },
                            "geometryCrop2" : {
                              "type" : "double",
                              "defaultValue" : 0.0,
                              "interp" : "eioe"
                            },
                            "geometryCrop3" : {
                              "type" : "double",
                              "defaultValue" : 0.0,
                              "interp" : "eioe"
                            },
                            "cursorScale" : {
                              "type" : "double",
                              "defaultValue" : 1.0,
                              "interp" : "linr"
                            },
                            "cursorOpacity" : {
                              "type" : "double",
                              "defaultValue" : 1.0,
                              "interp" : "linr"
                            }
                          },
                          "effects" : [

                          ],
                          "start" : 5617,
                          "duration" : 25,
                          "mediaStart" : 2705,
                          "mediaDuration" : 25,
                          "scalar" : 1,
                          "animationTracks" : {

                          }
                        },
                    "audio" : 
                        {
                          "id" : 386,
                          "_type" : "AMFile",
                          "src" : 6,
                          "trackNumber" : 3,
                          "attributes" : {
                            "ident" : "",
                            "gain" : 1.0,
                            "mixToMono" : false
                          },
                            "channelNumber" : "0,1",
                          "effects" : [

                          ],
                          "start" : 5617,
                          "duration" : 25,
                          "mediaStart" : 2705,
                          "mediaDuration" : 25,
                          "scalar" : 1,
                          "animationTracks" : {

                          }
                        }
,
                    "start" : 5617,
                    "duration" : 25,
                    "mediaStart" : 0,
                    "mediaDuration" : 4874,
                    "scalar" : 1,
                    "metadata" : {
                      "AutoAppliedSmartFocus" : "False",
                      "clipSpeedAttribute" : false
                    }
                  },
                  {
                    "id" : 387,
                    "_type" : "UnifiedMedia",
                    "video" : 
                        {
                          "id" : 388,
                          "_type" : "ScreenVMFile",
                          "src" : 6,
                          "trackNumber" : 0,
                          "attributes" : {
                            "ident" : "Grabación 26-12-{AA}_018"
                          },
                          "parameters" : {
                            "sourceCrop0" : {
                              "type" : "double",
                              "defaultValue" : 0.0,
                              "interp" : "eioe"
                            },
                            "sourceCrop1" : {
                              "type" : "double",
                              "defaultValue" : 0.0,
                              "interp" : "eioe"
                            },
                            "sourceCrop2" : {
                              "type" : "double",
                              "defaultValue" : 0.0,
                              "interp" : "eioe"
                            },
                            "sourceCrop3" : {
                              "type" : "double",
                              "defaultValue" : 0.0,
                              "interp" : "eioe"
                            },
                            "geometryCrop0" : {
                              "type" : "double",
                              "defaultValue" : 0.0,
                              "interp" : "eioe"
                            },
                            "geometryCrop1" : {
                              "type" : "double",
                              "defaultValue" : 0.0,
                              "interp" : "eioe"
                            },
                            "geometryCrop2" : {
                              "type" : "double",
                              "defaultValue" : 0.0,
                              "interp" : "eioe"
                            },
                            "geometryCrop3" : {
                              "type" : "double",
                              "defaultValue" : 0.0,
                              "interp" : "eioe"
                            },
                            "cursorScale" : {
                              "type" : "double",
                              "defaultValue" : 1.0,
                              "interp" : "linr"
                            },
                            "cursorOpacity" : {
                              "type" : "double",
                              "defaultValue" : 1.0,
                              "interp" : "linr"
                            }
                          },
                          "effects" : [

                          ],
                          "start" : 5642,
                          "duration" : 54,
                          "mediaStart" : 2742,
                          "mediaDuration" : 54,
                          "scalar" : 1,
                          "animationTracks" : {

                          }
                        },
                    "audio" : 
                        {
                          "id" : 389,
                          "_type" : "AMFile",
                          "src" : 6,
                          "trackNumber" : 3,
                          "attributes" : {
                            "ident" : "",
                            "gain" : 1.0,
                            "mixToMono" : false
                          },
                            "channelNumber" : "0,1",
                          "effects" : [

                          ],
                          "start" : 5642,
                          "duration" : 54,
                          "mediaStart" : 2742,
                          "mediaDuration" : 54,
                          "scalar" : 1,
                          "animationTracks" : {

                          }
                        }
,
                    "start" : 5642,
                    "duration" : 54,
                    "mediaStart" : 0,
                    "mediaDuration" : 4874,
                    "scalar" : 1,
                    "metadata" : {
                      "AutoAppliedSmartFocus" : "False",
                      "clipSpeedAttribute" : false
                    }
                  },
                  {
                    "id" : 390,
                    "_type" : "UnifiedMedia",
                    "video" : 
                        {
                          "id" : 391,
                          "_type" : "ScreenVMFile",
                          "src" : 6,
                          "trackNumber" : 0,
                          "attributes" : {
                            "ident" : "Grabación 26-12-{AA}_018"
                          },
                          "parameters" : {
                            "sourceCrop0" : {
                              "type" : "double",
                              "defaultValue" : 0.0,
                              "interp" : "eioe"
                            },
                            "sourceCrop1" : {
                              "type" : "double",
                              "defaultValue" : 0.0,
                              "interp" : "eioe"
                            },
                            "sourceCrop2" : {
                              "type" : "double",
                              "defaultValue" : 0.0,
                              "interp" : "eioe"
                            },
                            "sourceCrop3" : {
                              "type" : "double",
                              "defaultValue" : 0.0,
                              "interp" : "eioe"
                            },
                            "geometryCrop0" : {
                              "type" : "double",
                              "defaultValue" : 0.0,
                              "interp" : "eioe"
                            },
                            "geometryCrop1" : {
                              "type" : "double",
                              "defaultValue" : 0.0,
                              "interp" : "eioe"
                            },
                            "geometryCrop2" : {
                              "type" : "double",
                              "defaultValue" : 0.0,
                              "interp" : "eioe"
                            },
                            "geometryCrop3" : {
                              "type" : "double",
                              "defaultValue" : 0.0,
                              "interp" : "eioe"
                            },
                            "cursorScale" : {
                              "type" : "double",
                              "defaultValue" : 1.0,
                              "interp" : "linr"
                            },
                            "cursorOpacity" : {
                              "type" : "double",
                              "defaultValue" : 1.0,
                              "interp" : "linr"
                            }
                          },
                          "effects" : [

                          ],
                          "start" : 5696,
                          "duration" : 124,
                          "mediaStart" : 2807,
                          "mediaDuration" : 124,
                          "scalar" : 1,
                          "animationTracks" : {

                          }
                        },
                    "audio" : 
                        {
                          "id" : 392,
                          "_type" : "AMFile",
                          "src" : 6,
                          "trackNumber" : 3,
                          "attributes" : {
                            "ident" : "",
                            "gain" : 1.0,
                            "mixToMono" : false
                          },
                            "channelNumber" : "0,1",
                          "effects" : [

                          ],
                          "start" : 5696,
                          "duration" : 124,
                          "mediaStart" : 2807,
                          "mediaDuration" : 124,
                          "scalar" : 1,
                          "animationTracks" : {

                          }
                        }
,
                    "start" : 5696,
                    "duration" : 124,
                    "mediaStart" : 0,
                    "mediaDuration" : 4874,
                    "scalar" : 1,
                    "metadata" : {
                      "AutoAppliedSmartFocus" : "False",
                      "clipSpeedAttribute" : false
                    }
                  },
                  {
                    "id" : 393,
                    "_type" : "UnifiedMedia",
                    "video" : 
                        {
                          "id" : 394,
                          "_type" : "ScreenVMFile",
                          "src" : 6,
                          "trackNumber" : 0,
                          "attributes" : {
                            "ident" : "Grabación 26-12-{AA}_018"
                          },
                          "parameters" : {
                            "sourceCrop0" : {
                              "type" : "double",
                              "defaultValue" : 0.0,
                              "interp" : "eioe"
                            },
                            "sourceCrop1" : {
                              "type" : "double",
                              "defaultValue" : 0.0,
                              "interp" : "eioe"
                            },
                            "sourceCrop2" : {
                              "type" : "double",
                              "defaultValue" : 0.0,
                              "interp" : "eioe"
                            },
                            "sourceCrop3" : {
                              "type" : "double",
                              "defaultValue" : 0.0,
                              "interp" : "eioe"
                            },
                            "geometryCrop0" : {
                              "type" : "double",
                              "defaultValue" : 0.0,
                              "interp" : "eioe"
                            },
                            "geometryCrop1" : {
                              "type" : "double",
                              "defaultValue" : 0.0,
                              "interp" : "eioe"
                            },
                            "geometryCrop2" : {
                              "type" : "double",
                              "defaultValue" : 0.0,
                              "interp" : "eioe"
                            },
                            "geometryCrop3" : {
                              "type" : "double",
                              "defaultValue" : 0.0,
                              "interp" : "eioe"
                            },
                            "cursorScale" : {
                              "type" : "double",
                              "defaultValue" : 1.0,
                              "interp" : "linr"
                            },
                            "cursorOpacity" : {
                              "type" : "double",
                              "defaultValue" : 1.0,
                              "interp" : "linr"
                            }
                          },
                          "effects" : [

                          ],
                          "start" : 5820,
                          "duration" : 105,
                          "mediaStart" : 2943,
                          "mediaDuration" : 105,
                          "scalar" : 1,
                          "animationTracks" : {

                          }
                        },
                    "audio" : 
                        {
                          "id" : 395,
                          "_type" : "AMFile",
                          "src" : 6,
                          "trackNumber" : 3,
                          "attributes" : {
                            "ident" : "",
                            "gain" : 1.0,
                            "mixToMono" : false
                          },
                            "channelNumber" : "0,1",
                          "effects" : [

                          ],
                          "start" : 5820,
                          "duration" : 105,
                          "mediaStart" : 2943,
                          "mediaDuration" : 105,
                          "scalar" : 1,
                          "animationTracks" : {

                          }
                        }
,
                    "start" : 5820,
                    "duration" : 105,
                    "mediaStart" : 0,
                    "mediaDuration" : 4874,
                    "scalar" : 1,
                    "metadata" : {
                      "AutoAppliedSmartFocus" : "False",
                      "clipSpeedAttribute" : false
                    }
                  },
                  {
                    "id" : 396,
                    "_type" : "UnifiedMedia",
                    "video" : 
                        {
                          "id" : 397,
                          "_type" : "ScreenVMFile",
                          "src" : 6,
                          "trackNumber" : 0,
                          "attributes" : {
                            "ident" : "Grabación 26-12-{AA}_018"
                          },
                          "parameters" : {
                            "sourceCrop0" : {
                              "type" : "double",
                              "defaultValue" : 0.0,
                              "interp" : "eioe"
                            },
                            "sourceCrop1" : {
                              "type" : "double",
                              "defaultValue" : 0.0,
                              "interp" : "eioe"
                            },
                            "sourceCrop2" : {
                              "type" : "double",
                              "defaultValue" : 0.0,
                              "interp" : "eioe"
                            },
                            "sourceCrop3" : {
                              "type" : "double",
                              "defaultValue" : 0.0,
                              "interp" : "eioe"
                            },
                            "geometryCrop0" : {
                              "type" : "double",
                              "defaultValue" : 0.0,
                              "interp" : "eioe"
                            },
                            "geometryCrop1" : {
                              "type" : "double",
                              "defaultValue" : 0.0,
                              "interp" : "eioe"
                            },
                            "geometryCrop2" : {
                              "type" : "double",
                              "defaultValue" : 0.0,
                              "interp" : "eioe"
                            },
                            "geometryCrop3" : {
                              "type" : "double",
                              "defaultValue" : 0.0,
                              "interp" : "eioe"
                            },
                            "cursorScale" : {
                              "type" : "double",
                              "defaultValue" : 1.0,
                              "interp" : "linr"
                            },
                            "cursorOpacity" : {
                              "type" : "double",
                              "defaultValue" : 1.0,
                              "interp" : "linr"
                            }
                          },
                          "effects" : [

                          ],
                          "start" : 5925,
                          "duration" : 148,
                          "mediaStart" : 3077,
                          "mediaDuration" : 148,
                          "scalar" : 1,
                          "animationTracks" : {

                          }
                        },
                    "audio" : 
                        {
                          "id" : 398,
                          "_type" : "AMFile",
                          "src" : 6,
                          "trackNumber" : 3,
                          "attributes" : {
                            "ident" : "",
                            "gain" : 1.0,
                            "mixToMono" : false
                          },
                            "channelNumber" : "0,1",
                          "effects" : [

                          ],
                          "start" : 5925,
                          "duration" : 148,
                          "mediaStart" : 3077,
                          "mediaDuration" : 148,
                          "scalar" : 1,
                          "animationTracks" : {

                          }
                        }
,
                    "start" : 5925,
                    "duration" : 148,
                    "mediaStart" : 0,
                    "mediaDuration" : 4874,
                    "scalar" : 1,
                    "metadata" : {
                      "AutoAppliedSmartFocus" : "False",
                      "clipSpeedAttribute" : false
                    }
                  },
                  {
                    "id" : 399,
                    "_type" : "UnifiedMedia",
                    "video" : 
                        {
                          "id" : 400,
                          "_type" : "ScreenVMFile",
                          "src" : 6,
                          "trackNumber" : 0,
                          "attributes" : {
                            "ident" : "Grabación 26-12-{AA}_018"
                          },
                          "parameters" : {
                            "sourceCrop0" : {
                              "type" : "double",
                              "defaultValue" : 0.0,
                              "interp" : "eioe"
                            },
                            "sourceCrop1" : {
                              "type" : "double",
                              "defaultValue" : 0.0,
                              "interp" : "eioe"
                            },
                            "sourceCrop2" : {
                              "type" : "double",
                              "defaultValue" : 0.0,
                              "interp" : "eioe"
                            },
                            "sourceCrop3" : {
                              "type" : "double",
                              "defaultValue" : 0.0,
                              "interp" : "eioe"
                            },
                            "geometryCrop0" : {
                              "type" : "double",
                              "defaultValue" : 0.0,
                              "interp" : "eioe"
                            },
                            "geometryCrop1" : {
                              "type" : "double",
                              "defaultValue" : 0.0,
                              "interp" : "eioe"
                            },
                            "geometryCrop2" : {
                              "type" : "double",
                              "defaultValue" : 0.0,
                              "interp" : "eioe"
                            },
                            "geometryCrop3" : {
                              "type" : "double",
                              "defaultValue" : 0.0,
                              "interp" : "eioe"
                            },
                            "cursorScale" : {
                              "type" : "double",
                              "defaultValue" : 1.0,
                              "interp" : "linr"
                            },
                            "cursorOpacity" : {
                              "type" : "double",
                              "defaultValue" : 1.0,
                              "interp" : "linr"
                            }
                          },
                          "effects" : [

                          ],
                          "start" : 6073,
                          "duration" : 116,
                          "mediaStart" : 3235,
                          "mediaDuration" : 116,
                          "scalar" : 1,
                          "animationTracks" : {

                          }
                        },
                    "audio" : 
                        {
                          "id" : 401,
                          "_type" : "AMFile",
                          "src" : 6,
                          "trackNumber" : 3,
                          "attributes" : {
                            "ident" : "",
                            "gain" : 1.0,
                            "mixToMono" : false
                          },
                            "channelNumber" : "0,1",
                          "effects" : [

                          ],
                          "start" : 6073,
                          "duration" : 116,
                          "mediaStart" : 3235,
                          "mediaDuration" : 116,
                          "scalar" : 1,
                          "animationTracks" : {

                          }
                        }
,
                    "start" : 6073,
                    "duration" : 116,
                    "mediaStart" : 0,
                    "mediaDuration" : 4874,
                    "scalar" : 1,
                    "metadata" : {
                      "AutoAppliedSmartFocus" : "False",
                      "clipSpeedAttribute" : false
                    }
                  },
                  {
                    "id" : 402,
                    "_type" : "UnifiedMedia",
                    "video" : 
                        {
                          "id" : 403,
                          "_type" : "ScreenVMFile",
                          "src" : 6,
                          "trackNumber" : 0,
                          "attributes" : {
                            "ident" : "Grabación 26-12-{AA}_018"
                          },
                          "parameters" : {
                            "sourceCrop0" : {
                              "type" : "double",
                              "defaultValue" : 0.0,
                              "interp" : "eioe"
                            },
                            "sourceCrop1" : {
                              "type" : "double",
                              "defaultValue" : 0.0,
                              "interp" : "eioe"
                            },
                            "sourceCrop2" : {
                              "type" : "double",
                              "defaultValue" : 0.0,
                              "interp" : "eioe"
                            },
                            "sourceCrop3" : {
                              "type" : "double",
                              "defaultValue" : 0.0,
                              "interp" : "eioe"
                            },
                            "geometryCrop0" : {
                              "type" : "double",
                              "defaultValue" : 0.0,
                              "interp" : "eioe"
                            },
                            "geometryCrop1" : {
                              "type" : "double",
                              "defaultValue" : 0.0,
                              "interp" : "eioe"
                            },
                            "geometryCrop2" : {
                              "type" : "double",
                              "defaultValue" : 0.0,
                              "interp" : "eioe"
                            },
                            "geometryCrop3" : {
                              "type" : "double",
                              "defaultValue" : 0.0,
                              "interp" : "eioe"
                            },
                            "cursorScale" : {
                              "type" : "double",
                              "defaultValue" : 1.0,
                              "interp" : "linr"
                            },
                            "cursorOpacity" : {
                              "type" : "double",
                              "defaultValue" : 1.0,
                              "interp" : "linr"
                            }
                          },
                          "effects" : [

                          ],
                          "start" : 6189,
                          "duration" : 31,
                          "mediaStart" : 3363,
                          "mediaDuration" : 31,
                          "scalar" : 1,
                          "animationTracks" : {

                          }
                        },
                    "audio" : 
                        {
                          "id" : 404,
                          "_type" : "AMFile",
                          "src" : 6,
                          "trackNumber" : 3,
                          "attributes" : {
                            "ident" : "",
                            "gain" : 1.0,
                            "mixToMono" : false
                          },
                            "channelNumber" : "0,1",
                          "effects" : [

                          ],
                          "start" : 6189,
                          "duration" : 31,
                          "mediaStart" : 3363,
                          "mediaDuration" : 31,
                          "scalar" : 1,
                          "animationTracks" : {

                          }
                        }
,
                    "start" : 6189,
                    "duration" : 31,
                    "mediaStart" : 0,
                    "mediaDuration" : 4874,
                    "scalar" : 1,
                    "metadata" : {
                      "AutoAppliedSmartFocus" : "False",
                      "clipSpeedAttribute" : false
                    }
                  },
                  {
                    "id" : 405,
                    "_type" : "UnifiedMedia",
                    "video" : 
                        {
                          "id" : 406,
                          "_type" : "ScreenVMFile",
                          "src" : 6,
                          "trackNumber" : 0,
                          "attributes" : {
                            "ident" : "Grabación 26-12-{AA}_018"
                          },
                          "parameters" : {
                            "sourceCrop0" : {
                              "type" : "double",
                              "defaultValue" : 0.0,
                              "interp" : "eioe"
                            },
                            "sourceCrop1" : {
                              "type" : "double",
                              "defaultValue" : 0.0,
                              "interp" : "eioe"
                            },
                            "sourceCrop2" : {
                              "type" : "double",
                              "defaultValue" : 0.0,
                              "interp" : "eioe"
                            },
                            "sourceCrop3" : {
                              "type" : "double",
                              "defaultValue" : 0.0,
                              "interp" : "eioe"
                            },
                            "geometryCrop0" : {
                              "type" : "double",
                              "defaultValue" : 0.0,
                              "interp" : "eioe"
                            },
                            "geometryCrop1" : {
                              "type" : "double",
                              "defaultValue" : 0.0,
                              "interp" : "eioe"
                            },
                            "geometryCrop2" : {
                              "type" : "double",
                              "defaultValue" : 0.0,
                              "interp" : "eioe"
                            },
                            "geometryCrop3" : {
                              "type" : "double",
                              "defaultValue" : 0.0,
                              "interp" : "eioe"
                            },
                            "cursorScale" : {
                              "type" : "double",
                              "defaultValue" : 1.0,
                              "interp" : "linr"
                            },
                            "cursorOpacity" : {
                              "type" : "double",
                              "defaultValue" : 1.0,
                              "interp" : "linr"
                            }
                          },
                          "effects" : [

                          ],
                          "start" : 6220,
                          "duration" : 48,
                          "mediaStart" : 3404,
                          "mediaDuration" : 48,
                          "scalar" : 1,
                          "animationTracks" : {

                          }
                        },
                    "audio" : 
                        {
                          "id" : 407,
                          "_type" : "AMFile",
                          "src" : 6,
                          "trackNumber" : 3,
                          "attributes" : {
                            "ident" : "",
                            "gain" : 1.0,
                            "mixToMono" : false
                          },
                            "channelNumber" : "0,1",
                          "effects" : [

                          ],
                          "start" : 6220,
                          "duration" : 48,
                          "mediaStart" : 3404,
                          "mediaDuration" : 48,
                          "scalar" : 1,
                          "animationTracks" : {

                          }
                        }
,
                    "start" : 6220,
                    "duration" : 48,
                    "mediaStart" : 0,
                    "mediaDuration" : 4874,
                    "scalar" : 1,
                    "metadata" : {
                      "AutoAppliedSmartFocus" : "False",
                      "clipSpeedAttribute" : false
                    }
                  },
                  {
                    "id" : 408,
                    "_type" : "UnifiedMedia",
                    "video" : 
                        {
                          "id" : 409,
                          "_type" : "ScreenVMFile",
                          "src" : 6,
                          "trackNumber" : 0,
                          "attributes" : {
                            "ident" : "Grabación 26-12-{AA}_018"
                          },
                          "parameters" : {
                            "sourceCrop0" : {
                              "type" : "double",
                              "defaultValue" : 0.0,
                              "interp" : "eioe"
                            },
                            "sourceCrop1" : {
                              "type" : "double",
                              "defaultValue" : 0.0,
                              "interp" : "eioe"
                            },
                            "sourceCrop2" : {
                              "type" : "double",
                              "defaultValue" : 0.0,
                              "interp" : "eioe"
                            },
                            "sourceCrop3" : {
                              "type" : "double",
                              "defaultValue" : 0.0,
                              "interp" : "eioe"
                            },
                            "geometryCrop0" : {
                              "type" : "double",
                              "defaultValue" : 0.0,
                              "interp" : "eioe"
                            },
                            "geometryCrop1" : {
                              "type" : "double",
                              "defaultValue" : 0.0,
                              "interp" : "eioe"
                            },
                            "geometryCrop2" : {
                              "type" : "double",
                              "defaultValue" : 0.0,
                              "interp" : "eioe"
                            },
                            "geometryCrop3" : {
                              "type" : "double",
                              "defaultValue" : 0.0,
                              "interp" : "eioe"
                            },
                            "cursorScale" : {
                              "type" : "double",
                              "defaultValue" : 1.0,
                              "interp" : "linr"
                            },
                            "cursorOpacity" : {
                              "type" : "double",
                              "defaultValue" : 1.0,
                              "interp" : "linr"
                            }
                          },
                          "effects" : [

                          ],
                          "start" : 6268,
                          "duration" : 65,
                          "mediaStart" : 3464,
                          "mediaDuration" : 65,
                          "scalar" : 1,
                          "animationTracks" : {

                          }
                        },
                    "audio" : 
                        {
                          "id" : 410,
                          "_type" : "AMFile",
                          "src" : 6,
                          "trackNumber" : 3,
                          "attributes" : {
                            "ident" : "",
                            "gain" : 1.0,
                            "mixToMono" : false
                          },
                            "channelNumber" : "0,1",
                          "effects" : [

                          ],
                          "start" : 6268,
                          "duration" : 65,
                          "mediaStart" : 3464,
                          "mediaDuration" : 65,
                          "scalar" : 1,
                          "animationTracks" : {

                          }
                        }
,
                    "start" : 6268,
                    "duration" : 65,
                    "mediaStart" : 0,
                    "mediaDuration" : 4874,
                    "scalar" : 1,
                    "metadata" : {
                      "AutoAppliedSmartFocus" : "False",
                      "clipSpeedAttribute" : false
                    }
                  },
                  {
                    "id" : 411,
                    "_type" : "UnifiedMedia",
                    "video" : 
                        {
                          "id" : 412,
                          "_type" : "ScreenVMFile",
                          "src" : 6,
                          "trackNumber" : 0,
                          "attributes" : {
                            "ident" : "Grabación 26-12-{AA}_018"
                          },
                          "parameters" : {
                            "sourceCrop0" : {
                              "type" : "double",
                              "defaultValue" : 0.0,
                              "interp" : "eioe"
                            },
                            "sourceCrop1" : {
                              "type" : "double",
                              "defaultValue" : 0.0,
                              "interp" : "eioe"
                            },
                            "sourceCrop2" : {
                              "type" : "double",
                              "defaultValue" : 0.0,
                              "interp" : "eioe"
                            },
                            "sourceCrop3" : {
                              "type" : "double",
                              "defaultValue" : 0.0,
                              "interp" : "eioe"
                            },
                            "geometryCrop0" : {
                              "type" : "double",
                              "defaultValue" : 0.0,
                              "interp" : "eioe"
                            },
                            "geometryCrop1" : {
                              "type" : "double",
                              "defaultValue" : 0.0,
                              "interp" : "eioe"
                            },
                            "geometryCrop2" : {
                              "type" : "double",
                              "defaultValue" : 0.0,
                              "interp" : "eioe"
                            },
                            "geometryCrop3" : {
                              "type" : "double",
                              "defaultValue" : 0.0,
                              "interp" : "eioe"
                            },
                            "cursorScale" : {
                              "type" : "double",
                              "defaultValue" : 1.0,
                              "interp" : "linr"
                            },
                            "cursorOpacity" : {
                              "type" : "double",
                              "defaultValue" : 1.0,
                              "interp" : "linr"
                            }
                          },
                          "effects" : [

                          ],
                          "start" : 6333,
                          "duration" : 70,
                          "mediaStart" : 3538,
                          "mediaDuration" : 70,
                          "scalar" : 1,
                          "animationTracks" : {

                          }
                        },
                    "audio" : 
                        {
                          "id" : 413,
                          "_type" : "AMFile",
                          "src" : 6,
                          "trackNumber" : 3,
                          "attributes" : {
                            "ident" : "",
                            "gain" : 1.0,
                            "mixToMono" : false
                          },
                            "channelNumber" : "0,1",
                          "effects" : [

                          ],
                          "start" : 6333,
                          "duration" : 70,
                          "mediaStart" : 3538,
                          "mediaDuration" : 70,
                          "scalar" : 1,
                          "animationTracks" : {

                          }
                        }
,
                    "start" : 6333,
                    "duration" : 70,
                    "mediaStart" : 0,
                    "mediaDuration" : 4874,
                    "scalar" : 1,
                    "metadata" : {
                      "AutoAppliedSmartFocus" : "False",
                      "clipSpeedAttribute" : false
                    }
                  },
                  {
                    "id" : 414,
                    "_type" : "UnifiedMedia",
                    "video" : 
                        {
                          "id" : 415,
                          "_type" : "ScreenVMFile",
                          "src" : 6,
                          "trackNumber" : 0,
                          "attributes" : {
                            "ident" : "Grabación 26-12-{AA}_018"
                          },
                          "parameters" : {
                            "sourceCrop0" : {
                              "type" : "double",
                              "defaultValue" : 0.0,
                              "interp" : "eioe"
                            },
                            "sourceCrop1" : {
                              "type" : "double",
                              "defaultValue" : 0.0,
                              "interp" : "eioe"
                            },
                            "sourceCrop2" : {
                              "type" : "double",
                              "defaultValue" : 0.0,
                              "interp" : "eioe"
                            },
                            "sourceCrop3" : {
                              "type" : "double",
                              "defaultValue" : 0.0,
                              "interp" : "eioe"
                            },
                            "geometryCrop0" : {
                              "type" : "double",
                              "defaultValue" : 0.0,
                              "interp" : "eioe"
                            },
                            "geometryCrop1" : {
                              "type" : "double",
                              "defaultValue" : 0.0,
                              "interp" : "eioe"
                            },
                            "geometryCrop2" : {
                              "type" : "double",
                              "defaultValue" : 0.0,
                              "interp" : "eioe"
                            },
                            "geometryCrop3" : {
                              "type" : "double",
                              "defaultValue" : 0.0,
                              "interp" : "eioe"
                            },
                            "cursorScale" : {
                              "type" : "double",
                              "defaultValue" : 1.0,
                              "interp" : "linr"
                            },
                            "cursorOpacity" : {
                              "type" : "double",
                              "defaultValue" : 1.0,
                              "interp" : "linr"
                            }
                          },
                          "effects" : [

                          ],
                          "start" : 6403,
                          "duration" : 154,
                          "mediaStart" : 3637,
                          "mediaDuration" : 154,
                          "scalar" : 1,
                          "animationTracks" : {

                          }
                        },
                    "audio" : 
                        {
                          "id" : 416,
                          "_type" : "AMFile",
                          "src" : 6,
                          "trackNumber" : 3,
                          "attributes" : {
                            "ident" : "",
                            "gain" : 1.0,
                            "mixToMono" : false
                          },
                            "channelNumber" : "0,1",
                          "effects" : [

                          ],
                          "start" : 6403,
                          "duration" : 154,
                          "mediaStart" : 3637,
                          "mediaDuration" : 154,
                          "scalar" : 1,
                          "animationTracks" : {

                          }
                        }
,
                    "start" : 6403,
                    "duration" : 154,
                    "mediaStart" : 0,
                    "mediaDuration" : 4874,
                    "scalar" : 1,
                    "metadata" : {
                      "AutoAppliedSmartFocus" : "False",
                      "clipSpeedAttribute" : false
                    }
                  },
                  {
                    "id" : 417,
                    "_type" : "UnifiedMedia",
                    "video" : 
                        {
                          "id" : 418,
                          "_type" : "ScreenVMFile",
                          "src" : 6,
                          "trackNumber" : 0,
                          "attributes" : {
                            "ident" : "Grabación 26-12-{AA}_018"
                          },
                          "parameters" : {
                            "sourceCrop0" : {
                              "type" : "double",
                              "defaultValue" : 0.0,
                              "interp" : "eioe"
                            },
                            "sourceCrop1" : {
                              "type" : "double",
                              "defaultValue" : 0.0,
                              "interp" : "eioe"
                            },
                            "sourceCrop2" : {
                              "type" : "double",
                              "defaultValue" : 0.0,
                              "interp" : "eioe"
                            },
                            "sourceCrop3" : {
                              "type" : "double",
                              "defaultValue" : 0.0,
                              "interp" : "eioe"
                            },
                            "geometryCrop0" : {
                              "type" : "double",
                              "defaultValue" : 0.0,
                              "interp" : "eioe"
                            },
                            "geometryCrop1" : {
                              "type" : "double",
                              "defaultValue" : 0.0,
                              "interp" : "eioe"
                            },
                            "geometryCrop2" : {
                              "type" : "double",
                              "defaultValue" : 0.0,
                              "interp" : "eioe"
                            },
                            "geometryCrop3" : {
                              "type" : "double",
                              "defaultValue" : 0.0,
                              "interp" : "eioe"
                            },
                            "cursorScale" : {
                              "type" : "double",
                              "defaultValue" : 1.0,
                              "interp" : "linr"
                            },
                            "cursorOpacity" : {
                              "type" : "double",
                              "defaultValue" : 1.0,
                              "interp" : "linr"
                            }
                          },
                          "effects" : [

                          ],
                          "start" : 6557,
                          "duration" : 142,
                          "mediaStart" : 3801,
                          "mediaDuration" : 142,
                          "scalar" : 1,
                          "animationTracks" : {

                          }
                        },
                    "audio" : 
                        {
                          "id" : 419,
                          "_type" : "AMFile",
                          "src" : 6,
                          "trackNumber" : 3,
                          "attributes" : {
                            "ident" : "",
                            "gain" : 1.0,
                            "mixToMono" : false
                          },
                            "channelNumber" : "0,1",
                          "effects" : [

                          ],
                          "start" : 6557,
                          "duration" : 142,
                          "mediaStart" : 3801,
                          "mediaDuration" : 142,
                          "scalar" : 1,
                          "animationTracks" : {

                          }
                        }
,
                    "start" : 6557,
                    "duration" : 142,
                    "mediaStart" : 0,
                    "mediaDuration" : 4874,
                    "scalar" : 1,
                    "metadata" : {
                      "AutoAppliedSmartFocus" : "False",
                      "clipSpeedAttribute" : false
                    }
                  },
                  {
                    "id" : 420,
                    "_type" : "UnifiedMedia",
                    "video" : 
                        {
                          "id" : 421,
                          "_type" : "ScreenVMFile",
                          "src" : 6,
                          "trackNumber" : 0,
                          "attributes" : {
                            "ident" : "Grabación 26-12-{AA}_018"
                          },
                          "parameters" : {
                            "sourceCrop0" : {
                              "type" : "double",
                              "defaultValue" : 0.0,
                              "interp" : "eioe"
                            },
                            "sourceCrop1" : {
                              "type" : "double",
                              "defaultValue" : 0.0,
                              "interp" : "eioe"
                            },
                            "sourceCrop2" : {
                              "type" : "double",
                              "defaultValue" : 0.0,
                              "interp" : "eioe"
                            },
                            "sourceCrop3" : {
                              "type" : "double",
                              "defaultValue" : 0.0,
                              "interp" : "eioe"
                            },
                            "geometryCrop0" : {
                              "type" : "double",
                              "defaultValue" : 0.0,
                              "interp" : "eioe"
                            },
                            "geometryCrop1" : {
                              "type" : "double",
                              "defaultValue" : 0.0,
                              "interp" : "eioe"
                            },
                            "geometryCrop2" : {
                              "type" : "double",
                              "defaultValue" : 0.0,
                              "interp" : "eioe"
                            },
                            "geometryCrop3" : {
                              "type" : "double",
                              "defaultValue" : 0.0,
                              "interp" : "eioe"
                            },
                            "cursorScale" : {
                              "type" : "double",
                              "defaultValue" : 1.0,
                              "interp" : "linr"
                            },
                            "cursorOpacity" : {
                              "type" : "double",
                              "defaultValue" : 1.0,
                              "interp" : "linr"
                            }
                          },
                          "effects" : [

                          ],
                          "start" : 6699,
                          "duration" : 85,
                          "mediaStart" : 3956,
                          "mediaDuration" : 85,
                          "scalar" : 1,
                          "animationTracks" : {

                          }
                        },
                    "audio" : 
                        {
                          "id" : 422,
                          "_type" : "AMFile",
                          "src" : 6,
                          "trackNumber" : 3,
                          "attributes" : {
                            "ident" : "",
                            "gain" : 1.0,
                            "mixToMono" : false
                          },
                            "channelNumber" : "0,1",
                          "effects" : [

                          ],
                          "start" : 6699,
                          "duration" : 85,
                          "mediaStart" : 3956,
                          "mediaDuration" : 85,
                          "scalar" : 1,
                          "animationTracks" : {

                          }
                        }
,
                    "start" : 6699,
                    "duration" : 85,
                    "mediaStart" : 0,
                    "mediaDuration" : 4874,
                    "scalar" : 1,
                    "metadata" : {
                      "AutoAppliedSmartFocus" : "False",
                      "clipSpeedAttribute" : false
                    }
                  },
                  {
                    "id" : 423,
                    "_type" : "UnifiedMedia",
                    "video" : 
                        {
                          "id" : 424,
                          "_type" : "ScreenVMFile",
                          "src" : 6,
                          "trackNumber" : 0,
                          "attributes" : {
                            "ident" : "Grabación 26-12-{AA}_018"
                          },
                          "parameters" : {
                            "sourceCrop0" : {
                              "type" : "double",
                              "defaultValue" : 0.0,
                              "interp" : "eioe"
                            },
                            "sourceCrop1" : {
                              "type" : "double",
                              "defaultValue" : 0.0,
                              "interp" : "eioe"
                            },
                            "sourceCrop2" : {
                              "type" : "double",
                              "defaultValue" : 0.0,
                              "interp" : "eioe"
                            },
                            "sourceCrop3" : {
                              "type" : "double",
                              "defaultValue" : 0.0,
                              "interp" : "eioe"
                            },
                            "geometryCrop0" : {
                              "type" : "double",
                              "defaultValue" : 0.0,
                              "interp" : "eioe"
                            },
                            "geometryCrop1" : {
                              "type" : "double",
                              "defaultValue" : 0.0,
                              "interp" : "eioe"
                            },
                            "geometryCrop2" : {
                              "type" : "double",
                              "defaultValue" : 0.0,
                              "interp" : "eioe"
                            },
                            "geometryCrop3" : {
                              "type" : "double",
                              "defaultValue" : 0.0,
                              "interp" : "eioe"
                            },
                            "cursorScale" : {
                              "type" : "double",
                              "defaultValue" : 1.0,
                              "interp" : "linr"
                            },
                            "cursorOpacity" : {
                              "type" : "double",
                              "defaultValue" : 1.0,
                              "interp" : "linr"
                            }
                          },
                          "effects" : [

                          ],
                          "start" : 6784,
                          "duration" : 61,
                          "mediaStart" : 4069,
                          "mediaDuration" : 61,
                          "scalar" : 1,
                          "animationTracks" : {

                          }
                        },
                    "audio" : 
                        {
                          "id" : 425,
                          "_type" : "AMFile",
                          "src" : 6,
                          "trackNumber" : 3,
                          "attributes" : {
                            "ident" : "",
                            "gain" : 1.0,
                            "mixToMono" : false
                          },
                            "channelNumber" : "0,1",
                          "effects" : [

                          ],
                          "start" : 6784,
                          "duration" : 61,
                          "mediaStart" : 4069,
                          "mediaDuration" : 61,
                          "scalar" : 1,
                          "animationTracks" : {

                          }
                        }
,
                    "start" : 6784,
                    "duration" : 61,
                    "mediaStart" : 0,
                    "mediaDuration" : 4874,
                    "scalar" : 1,
                    "metadata" : {
                      "AutoAppliedSmartFocus" : "False",
                      "clipSpeedAttribute" : false
                    }
                  },
                  {
                    "id" : 426,
                    "_type" : "UnifiedMedia",
                    "video" : 
                        {
                          "id" : 427,
                          "_type" : "ScreenVMFile",
                          "src" : 6,
                          "trackNumber" : 0,
                          "attributes" : {
                            "ident" : "Grabación 26-12-{AA}_018"
                          },
                          "parameters" : {
                            "sourceCrop0" : {
                              "type" : "double",
                              "defaultValue" : 0.0,
                              "interp" : "eioe"
                            },
                            "sourceCrop1" : {
                              "type" : "double",
                              "defaultValue" : 0.0,
                              "interp" : "eioe"
                            },
                            "sourceCrop2" : {
                              "type" : "double",
                              "defaultValue" : 0.0,
                              "interp" : "eioe"
                            },
                            "sourceCrop3" : {
                              "type" : "double",
                              "defaultValue" : 0.0,
                              "interp" : "eioe"
                            },
                            "geometryCrop0" : {
                              "type" : "double",
                              "defaultValue" : 0.0,
                              "interp" : "eioe"
                            },
                            "geometryCrop1" : {
                              "type" : "double",
                              "defaultValue" : 0.0,
                              "interp" : "eioe"
                            },
                            "geometryCrop2" : {
                              "type" : "double",
                              "defaultValue" : 0.0,
                              "interp" : "eioe"
                            },
                            "geometryCrop3" : {
                              "type" : "double",
                              "defaultValue" : 0.0,
                              "interp" : "eioe"
                            },
                            "cursorScale" : {
                              "type" : "double",
                              "defaultValue" : 1.0,
                              "interp" : "linr"
                            },
                            "cursorOpacity" : {
                              "type" : "double",
                              "defaultValue" : 1.0,
                              "interp" : "linr"
                            }
                          },
                          "effects" : [

                          ],
                          "start" : 6845,
                          "duration" : 50,
                          "mediaStart" : 4151,
                          "mediaDuration" : 50,
                          "scalar" : 1,
                          "animationTracks" : {

                          }
                        },
                    "audio" : 
                        {
                          "id" : 428,
                          "_type" : "AMFile",
                          "src" : 6,
                          "trackNumber" : 3,
                          "attributes" : {
                            "ident" : "",
                            "gain" : 1.0,
                            "mixToMono" : false
                          },
                            "channelNumber" : "0,1",
                          "effects" : [

                          ],
                          "start" : 6845,
                          "duration" : 50,
                          "mediaStart" : 4151,
                          "mediaDuration" : 50,
                          "scalar" : 1,
                          "animationTracks" : {

                          }
                        }
,
                    "start" : 6845,
                    "duration" : 50,
                    "mediaStart" : 0,
                    "mediaDuration" : 4874,
                    "scalar" : 1,
                    "metadata" : {
                      "AutoAppliedSmartFocus" : "False",
                      "clipSpeedAttribute" : false
                    }
                  },
                  {
                    "id" : 429,
                    "_type" : "UnifiedMedia",
                    "video" : 
                        {
                          "id" : 430,
                          "_type" : "ScreenVMFile",
                          "src" : 6,
                          "trackNumber" : 0,
                          "attributes" : {
                            "ident" : "Grabación 26-12-{AA}_018"
                          },
                          "parameters" : {
                            "sourceCrop0" : {
                              "type" : "double",
                              "defaultValue" : 0.0,
                              "interp" : "eioe"
                            },
                            "sourceCrop1" : {
                              "type" : "double",
                              "defaultValue" : 0.0,
                              "interp" : "eioe"
                            },
                            "sourceCrop2" : {
                              "type" : "double",
                              "defaultValue" : 0.0,
                              "interp" : "eioe"
                            },
                            "sourceCrop3" : {
                              "type" : "double",
                              "defaultValue" : 0.0,
                              "interp" : "eioe"
                            },
                            "geometryCrop0" : {
                              "type" : "double",
                              "defaultValue" : 0.0,
                              "interp" : "eioe"
                            },
                            "geometryCrop1" : {
                              "type" : "double",
                              "defaultValue" : 0.0,
                              "interp" : "eioe"
                            },
                            "geometryCrop2" : {
                              "type" : "double",
                              "defaultValue" : 0.0,
                              "interp" : "eioe"
                            },
                            "geometryCrop3" : {
                              "type" : "double",
                              "defaultValue" : 0.0,
                              "interp" : "eioe"
                            },
                            "cursorScale" : {
                              "type" : "double",
                              "defaultValue" : 1.0,
                              "interp" : "linr"
                            },
                            "cursorOpacity" : {
                              "type" : "double",
                              "defaultValue" : 1.0,
                              "interp" : "linr"
                            }
                          },
                          "effects" : [

                          ],
                          "start" : 6895,
                          "duration" : 130,
                          "mediaStart" : 4232,
                          "mediaDuration" : 130,
                          "scalar" : 1,
                          "animationTracks" : {

                          }
                        },
                    "audio" : 
                        {
                          "id" : 431,
                          "_type" : "AMFile",
                          "src" : 6,
                          "trackNumber" : 3,
                          "attributes" : {
                            "ident" : "",
                            "gain" : 1.0,
                            "mixToMono" : false
                          },
                            "channelNumber" : "0,1",
                          "effects" : [

                          ],
                          "start" : 6895,
                          "duration" : 130,
                          "mediaStart" : 4232,
                          "mediaDuration" : 130,
                          "scalar" : 1,
                          "animationTracks" : {

                          }
                        }
,
                    "start" : 6895,
                    "duration" : 130,
                    "mediaStart" : 0,
                    "mediaDuration" : 4874,
                    "scalar" : 1,
                    "metadata" : {
                      "AutoAppliedSmartFocus" : "False",
                      "clipSpeedAttribute" : false
                    }
                  },
                  {
                    "id" : 432,
                    "_type" : "UnifiedMedia",
                    "video" : 
                        {
                          "id" : 433,
                          "_type" : "ScreenVMFile",
                          "src" : 6,
                          "trackNumber" : 0,
                          "attributes" : {
                            "ident" : "Grabación 26-12-{AA}_018"
                          },
                          "parameters" : {
                            "sourceCrop0" : {
                              "type" : "double",
                              "defaultValue" : 0.0,
                              "interp" : "eioe"
                            },
                            "sourceCrop1" : {
                              "type" : "double",
                              "defaultValue" : 0.0,
                              "interp" : "eioe"
                            },
                            "sourceCrop2" : {
                              "type" : "double",
                              "defaultValue" : 0.0,
                              "interp" : "eioe"
                            },
                            "sourceCrop3" : {
                              "type" : "double",
                              "defaultValue" : 0.0,
                              "interp" : "eioe"
                            },
                            "geometryCrop0" : {
                              "type" : "double",
                              "defaultValue" : 0.0,
                              "interp" : "eioe"
                            },
                            "geometryCrop1" : {
                              "type" : "double",
                              "defaultValue" : 0.0,
                              "interp" : "eioe"
                            },
                            "geometryCrop2" : {
                              "type" : "double",
                              "defaultValue" : 0.0,
                              "interp" : "eioe"
                            },
                            "geometryCrop3" : {
                              "type" : "double",
                              "defaultValue" : 0.0,
                              "interp" : "eioe"
                            },
                            "cursorScale" : {
                              "type" : "double",
                              "defaultValue" : 1.0,
                              "interp" : "linr"
                            },
                            "cursorOpacity" : {
                              "type" : "double",
                              "defaultValue" : 1.0,
                              "interp" : "linr"
                            }
                          },
                          "effects" : [

                          ],
                          "start" : 7025,
                          "duration" : 176,
                          "mediaStart" : 4393,
                          "mediaDuration" : 176,
                          "scalar" : 1,
                          "animationTracks" : {

                          }
                        },
                    "audio" : 
                        {
                          "id" : 434,
                          "_type" : "AMFile",
                          "src" : 6,
                          "trackNumber" : 3,
                          "attributes" : {
                            "ident" : "",
                            "gain" : 1.0,
                            "mixToMono" : false
                          },
                            "channelNumber" : "0,1",
                          "effects" : [

                          ],
                          "start" : 7025,
                          "duration" : 176,
                          "mediaStart" : 4393,
                          "mediaDuration" : 176,
                          "scalar" : 1,
                          "animationTracks" : {

                          }
                        }
,
                    "start" : 7025,
                    "duration" : 176,
                    "mediaStart" : 0,
                    "mediaDuration" : 4874,
                    "scalar" : 1,
                    "metadata" : {
                      "AutoAppliedSmartFocus" : "False",
                      "clipSpeedAttribute" : false
                    }
                  },
                  {
                    "id" : 435,
                    "_type" : "UnifiedMedia",
                    "video" : 
                        {
                          "id" : 436,
                          "_type" : "ScreenVMFile",
                          "src" : 6,
                          "trackNumber" : 0,
                          "attributes" : {
                            "ident" : "Grabación 26-12-{AA}_018"
                          },
                          "parameters" : {
                            "sourceCrop0" : {
                              "type" : "double",
                              "defaultValue" : 0.0,
                              "interp" : "eioe"
                            },
                            "sourceCrop1" : {
                              "type" : "double",
                              "defaultValue" : 0.0,
                              "interp" : "eioe"
                            },
                            "sourceCrop2" : {
                              "type" : "double",
                              "defaultValue" : 0.0,
                              "interp" : "eioe"
                            },
                            "sourceCrop3" : {
                              "type" : "double",
                              "defaultValue" : 0.0,
                              "interp" : "eioe"
                            },
                            "geometryCrop0" : {
                              "type" : "double",
                              "defaultValue" : 0.0,
                              "interp" : "eioe"
                            },
                            "geometryCrop1" : {
                              "type" : "double",
                              "defaultValue" : 0.0,
                              "interp" : "eioe"
                            },
                            "geometryCrop2" : {
                              "type" : "double",
                              "defaultValue" : 0.0,
                              "interp" : "eioe"
                            },
                            "geometryCrop3" : {
                              "type" : "double",
                              "defaultValue" : 0.0,
                              "interp" : "eioe"
                            },
                            "cursorScale" : {
                              "type" : "double",
                              "defaultValue" : 1.0,
                              "interp" : "linr"
                            },
                            "cursorOpacity" : {
                              "type" : "double",
                              "defaultValue" : 1.0,
                              "interp" : "linr"
                            }
                          },
                          "effects" : [

                          ],
                          "start" : 7201,
                          "duration" : 44,
                          "mediaStart" : 4607,
                          "mediaDuration" : 44,
                          "scalar" : 1,
                          "animationTracks" : {

                          }
                        },
                    "audio" : 
                        {
                          "id" : 437,
                          "_type" : "AMFile",
                          "src" : 6,
                          "trackNumber" : 3,
                          "attributes" : {
                            "ident" : "",
                            "gain" : 1.0,
                            "mixToMono" : false
                          },
                            "channelNumber" : "0,1",
                          "effects" : [

                          ],
                          "start" : 7201,
                          "duration" : 44,
                          "mediaStart" : 4607,
                          "mediaDuration" : 44,
                          "scalar" : 1,
                          "animationTracks" : {

                          }
                        }
,
                    "start" : 7201,
                    "duration" : 44,
                    "mediaStart" : 0,
                    "mediaDuration" : 4874,
                    "scalar" : 1,
                    "metadata" : {
                      "AutoAppliedSmartFocus" : "False",
                      "clipSpeedAttribute" : false
                    }
                  },
                  {
                    "id" : 438,
                    "_type" : "UnifiedMedia",
                    "video" : 
                        {
                          "id" : 439,
                          "_type" : "ScreenVMFile",
                          "src" : 6,
                          "trackNumber" : 0,
                          "attributes" : {
                            "ident" : "Grabación 26-12-{AA}_018"
                          },
                          "parameters" : {
                            "sourceCrop0" : {
                              "type" : "double",
                              "defaultValue" : 0.0,
                              "interp" : "eioe"
                            },
                            "sourceCrop1" : {
                              "type" : "double",
                              "defaultValue" : 0.0,
                              "interp" : "eioe"
                            },
                            "sourceCrop2" : {
                              "type" : "double",
                              "defaultValue" : 0.0,
                              "interp" : "eioe"
                            },
                            "sourceCrop3" : {
                              "type" : "double",
                              "defaultValue" : 0.0,
                              "interp" : "eioe"
                            },
                            "geometryCrop0" : {
                              "type" : "double",
                              "defaultValue" : 0.0,
                              "interp" : "eioe"
                            },
                            "geometryCrop1" : {
                              "type" : "double",
                              "defaultValue" : 0.0,
                              "interp" : "eioe"
                            },
                            "geometryCrop2" : {
                              "type" : "double",
                              "defaultValue" : 0.0,
                              "interp" : "eioe"
                            },
                            "geometryCrop3" : {
                              "type" : "double",
                              "defaultValue" : 0.0,
                              "interp" : "eioe"
                            },
                            "cursorScale" : {
                              "type" : "double",
                              "defaultValue" : 1.0,
                              "interp" : "linr"
                            },
                            "cursorOpacity" : {
                              "type" : "double",
                              "defaultValue" : 1.0,
                              "interp" : "linr"
                            }
                          },
                          "effects" : [

                          ],
                          "start" : 7245,
                          "duration" : 59,
                          "mediaStart" : 4665,
                          "mediaDuration" : 59,
                          "scalar" : 1,
                          "animationTracks" : {

                          }
                        },
                    "audio" : 
                        {
                          "id" : 440,
                          "_type" : "AMFile",
                          "src" : 6,
                          "trackNumber" : 3,
                          "attributes" : {
                            "ident" : "",
                            "gain" : 1.0,
                            "mixToMono" : false
                          },
                            "channelNumber" : "0,1",
                          "effects" : [

                          ],
                          "start" : 7245,
                          "duration" : 59,
                          "mediaStart" : 4665,
                          "mediaDuration" : 59,
                          "scalar" : 1,
                          "animationTracks" : {

                          }
                        }
,
                    "start" : 7245,
                    "duration" : 59,
                    "mediaStart" : 0,
                    "mediaDuration" : 4874,
                    "scalar" : 1,
                    "metadata" : {
                      "AutoAppliedSmartFocus" : "False",
                      "clipSpeedAttribute" : false
                    }
                  },
                  {
                    "id" : 441,
                    "_type" : "UnifiedMedia",
                    "video" : 
                        {
                          "id" : 442,
                          "_type" : "ScreenVMFile",
                          "src" : 6,
                          "trackNumber" : 0,
                          "attributes" : {
                            "ident" : "Grabación 26-12-{AA}_018"
                          },
                          "parameters" : {
                            "sourceCrop0" : {
                              "type" : "double",
                              "defaultValue" : 0.0,
                              "interp" : "eioe"
                            },
                            "sourceCrop1" : {
                              "type" : "double",
                              "defaultValue" : 0.0,
                              "interp" : "eioe"
                            },
                            "sourceCrop2" : {
                              "type" : "double",
                              "defaultValue" : 0.0,
                              "interp" : "eioe"
                            },
                            "sourceCrop3" : {
                              "type" : "double",
                              "defaultValue" : 0.0,
                              "interp" : "eioe"
                            },
                            "geometryCrop0" : {
                              "type" : "double",
                              "defaultValue" : 0.0,
                              "interp" : "eioe"
                            },
                            "geometryCrop1" : {
                              "type" : "double",
                              "defaultValue" : 0.0,
                              "interp" : "eioe"
                            },
                            "geometryCrop2" : {
                              "type" : "double",
                              "defaultValue" : 0.0,
                              "interp" : "eioe"
                            },
                            "geometryCrop3" : {
                              "type" : "double",
                              "defaultValue" : 0.0,
                              "interp" : "eioe"
                            },
                            "cursorScale" : {
                              "type" : "double",
                              "defaultValue" : 1.0,
                              "interp" : "linr"
                            },
                            "cursorOpacity" : {
                              "type" : "double",
                              "defaultValue" : 1.0,
                              "interp" : "linr"
                            }
                          },
                          "effects" : [

                          ],
                          "start" : 7304,
                          "duration" : 41,
                          "mediaStart" : 4753,
                          "mediaDuration" : 41,
                          "scalar" : 1,
                          "animationTracks" : {

                          }
                        },
                    "audio" : 
                        {
                          "id" : 443,
                          "_type" : "AMFile",
                          "src" : 6,
                          "trackNumber" : 3,
                          "attributes" : {
                            "ident" : "",
                            "gain" : 1.0,
                            "mixToMono" : false
                          },
                            "channelNumber" : "0,1",
                          "effects" : [

                          ],
                          "start" : 7304,
                          "duration" : 41,
                          "mediaStart" : 4753,
                          "mediaDuration" : 41,
                          "scalar" : 1,
                          "animationTracks" : {

                          }
                        }
,
                    "start" : 7304,
                    "duration" : 41,
                    "mediaStart" : 0,
                    "mediaDuration" : 4874,
                    "scalar" : 1,
                    "metadata" : {
                      "AutoAppliedSmartFocus" : "False",
                      "clipSpeedAttribute" : false
                    }
                  },
                  {
                    "id" : 444,
                    "_type" : "UnifiedMedia",
                    "video" : 
                        {
                          "id" : 445,
                          "_type" : "ScreenVMFile",
                          "src" : 6,
                          "trackNumber" : 0,
                          "attributes" : {
                            "ident" : "Grabación 26-12-{AA}_018"
                          },
                          "parameters" : {
                            "sourceCrop0" : {
                              "type" : "double",
                              "defaultValue" : 0.0,
                              "interp" : "eioe"
                            },
                            "sourceCrop1" : {
                              "type" : "double",
                              "defaultValue" : 0.0,
                              "interp" : "eioe"
                            },
                            "sourceCrop2" : {
                              "type" : "double",
                              "defaultValue" : 0.0,
                              "interp" : "eioe"
                            },
                            "sourceCrop3" : {
                              "type" : "double",
                              "defaultValue" : 0.0,
                              "interp" : "eioe"
                            },
                            "geometryCrop0" : {
                              "type" : "double",
                              "defaultValue" : 0.0,
                              "interp" : "eioe"
                            },
                            "geometryCrop1" : {
                              "type" : "double",
                              "defaultValue" : 0.0,
                              "interp" : "eioe"
                            },
                            "geometryCrop2" : {
                              "type" : "double",
                              "defaultValue" : 0.0,
                              "interp" : "eioe"
                            },
                            "geometryCrop3" : {
                              "type" : "double",
                              "defaultValue" : 0.0,
                              "interp" : "eioe"
                            },
                            "cursorScale" : {
                              "type" : "double",
                              "defaultValue" : 1.0,
                              "interp" : "linr"
                            },
                            "cursorOpacity" : {
                              "type" : "double",
                              "defaultValue" : 1.0,
                              "interp" : "linr"
                            }
                          },
                          "effects" : [

                          ],
                          "start" : 7345,
                          "duration" : 9,
                          "mediaStart" : 4794,
                          "mediaDuration" : 9,
                          "scalar" : 1,
                          "animationTracks" : {

                          }
                        },
                    "audio" : 
                        {
                          "id" : 446,
                          "_type" : "AMFile",
                          "src" : 6,
                          "trackNumber" : 3,
                          "attributes" : {
                            "ident" : "",
                            "gain" : 1.0,
                            "mixToMono" : false
                          },
                            "channelNumber" : "0,1",
                          "effects" : [

                          ],
                          "start" : 7345,
                          "duration" : 9,
                          "mediaStart" : 4794,
                          "mediaDuration" : 9,
                          "scalar" : 1,
                          "animationTracks" : {

                          }
                        }
,
                    "start" : 7345,
                    "duration" : 9,
                    "mediaStart" : 0,
                    "mediaDuration" : 4874,
                    "scalar" : 1,
                    "metadata" : {
                      "AutoAppliedSmartFocus" : "False",
                      "clipSpeedAttribute" : false
                    }
                  },
                  {
                    "id" : 447,
                    "_type" : "UnifiedMedia",
                    "video" : 
                        {
                          "id" : 448,
                          "_type" : "ScreenVMFile",
                          "src" : 6,
                          "trackNumber" : 0,
                          "attributes" : {
                            "ident" : "Grabación 26-12-{AA}_018"
                          },
                          "parameters" : {
                            "sourceCrop0" : {
                              "type" : "double",
                              "defaultValue" : 0.0,
                              "interp" : "eioe"
                            },
                            "sourceCrop1" : {
                              "type" : "double",
                              "defaultValue" : 0.0,
                              "interp" : "eioe"
                            },
                            "sourceCrop2" : {
                              "type" : "double",
                              "defaultValue" : 0.0,
                              "interp" : "eioe"
                            },
                            "sourceCrop3" : {
                              "type" : "double",
                              "defaultValue" : 0.0,
                              "interp" : "eioe"
                            },
                            "geometryCrop0" : {
                              "type" : "double",
                              "defaultValue" : 0.0,
                              "interp" : "eioe"
                            },
                            "geometryCrop1" : {
                              "type" : "double",
                              "defaultValue" : 0.0,
                              "interp" : "eioe"
                            },
                            "geometryCrop2" : {
                              "type" : "double",
                              "defaultValue" : 0.0,
                              "interp" : "eioe"
                            },
                            "geometryCrop3" : {
                              "type" : "double",
                              "defaultValue" : 0.0,
                              "interp" : "eioe"
                            },
                            "cursorScale" : {
                              "type" : "double",
                              "defaultValue" : 1.0,
                              "interp" : "linr"
                            },
                            "cursorOpacity" : {
                              "type" : "double",
                              "defaultValue" : 1.0,
                              "interp" : "linr"
                            }
                          },
                          "effects" : [

                          ],
                          "start" : 7354,
                          "duration" : 24,
                          "mediaStart" : 4816,
                          "mediaDuration" : 24,
                          "scalar" : 1,
                          "animationTracks" : {

                          }
                        },
                    "audio" : 
                        {
                          "id" : 449,
                          "_type" : "AMFile",
                          "src" : 6,
                          "trackNumber" : 3,
                          "attributes" : {
                            "ident" : "",
                            "gain" : 1.0,
                            "mixToMono" : false
                          },
                            "channelNumber" : "0,1",
                          "effects" : [

                          ],
                          "start" : 7354,
                          "duration" : 24,
                          "mediaStart" : 4816,
                          "mediaDuration" : 24,
                          "scalar" : 1,
                          "animationTracks" : {

                          }
                        }
,
                    "start" : 7354,
                    "duration" : 24,
                    "mediaStart" : 0,
                    "mediaDuration" : 4874,
                    "scalar" : 1,
                    "metadata" : {
                      "AutoAppliedSmartFocus" : "False",
                      "clipSpeedAttribute" : false
                    }
                  }
                ],
                "transitions" : [
                  {
                    "name" : "PageTurn",
                    "duration" : 15,
                    "trivial" : false,
                    "reverse" : false,
                    "bypass" : false,
                    "useAudioPreRoll" : true,
                    "useVisualPreRoll" : true,
                    "leftMedia" : 309,
                    "rightMedia" : 312
                  }
                ]
              },
              {
                "trackIndex" : 2,
                "medias" : [
                  {
                    "id" : 450,
                    "_type" : "UnifiedMedia",
                    "video" : 
                        {
                          "id" : 451,
                          "_type" : "VMFile",
                          "src" : 4,
                          "trackNumber" : 1,
                          "attributes" : {
                            "ident" : "Grabación 26-12-{AA}_008"
                          },
                          "parameters" : {
                            "translation0" : 880.0,
                            "translation1" : -480.0,
                            "scale0" : 0.25,
                            "scale1" : 0.25,
                            "sourceCrop0" : 0.0,
                            "sourceCrop1" : 0.0,
                            "sourceCrop2" : 0.0,
                            "sourceCrop3" : 0.0,
                            "geometryCrop0" : 0.0,
                            "geometryCrop1" : 0.0,
                            "geometryCrop2" : 0.0,
                            "geometryCrop3" : 0.0
                          },
                          "effects" : [

                          ],
                          "start" : 957,
                          "duration" : 98,
                          "mediaStart" : 0,
                          "mediaDuration" : 98,
                          "scalar" : 1,
                          "animationTracks" : {

                          }
                        },
                    "audio" : 
                        {
                          "id" : 452,
                          "_type" : "AMFile",
                          "src" : 4,
                          "trackNumber" : 2,
                          "attributes" : {
                            "ident" : "",
                            "gain" : 1.0,
                            "mixToMono" : false
                          },
                            "channelNumber" : "0,1",
                          "effects" : [

                          ],
                          "start" : 957,
                          "duration" : 98,
                          "mediaStart" : 0,
                          "mediaDuration" : 98,
                          "scalar" : 1,
                          "animationTracks" : {

                          }
                        }
,
                    "start" : 957,
                    "duration" : 98,
                    "mediaStart" : 0,
                    "mediaDuration" : 4658,
                    "scalar" : 1,
                    "metadata" : {
                      "clipSpeedAttribute" : false
                    }
                  },
                  {
                    "id" : 453,
                    "_type" : "UnifiedMedia",
                    "video" : 
                        {
                          "id" : 454,
                          "_type" : "VMFile",
                          "src" : 4,
                          "trackNumber" : 1,
                          "attributes" : {
                            "ident" : "Grabación 26-12-{AA}_008"
                          },
                          "parameters" : {
                            "translation0" : 880.0,
                            "translation1" : -480.0,
                            "scale0" : 0.25,
                            "scale1" : 0.25,
                            "sourceCrop0" : 0.0,
                            "sourceCrop1" : 0.0,
                            "sourceCrop2" : 0.0,
                            "sourceCrop3" : 0.0,
                            "geometryCrop0" : 0.0,
                            "geometryCrop1" : 0.0,
                            "geometryCrop2" : 0.0,
                            "geometryCrop3" : 0.0
                          },
                          "effects" : [

                          ],
                          "start" : 1055,
                          "duration" : 47,
                          "mediaStart" : 112,
                          "mediaDuration" : 47,
                          "scalar" : 1,
                          "animationTracks" : {

                          }
                        },
                    "audio" : 
                        {
                          "id" : 455,
                          "_type" : "AMFile",
                          "src" : 4,
                          "trackNumber" : 2,
                          "attributes" : {
                            "ident" : "",
                            "gain" : 1.0,
                            "mixToMono" : false
                          },
                            "channelNumber" : "0,1",
                          "effects" : [

                          ],
                          "start" : 1055,
                          "duration" : 47,
                          "mediaStart" : 112,
                          "mediaDuration" : 47,
                          "scalar" : 1,
                          "animationTracks" : {

                          }
                        }
,
                    "start" : 1055,
                    "duration" : 47,
                    "mediaStart" : 0,
                    "mediaDuration" : 4658,
                    "scalar" : 1,
                    "metadata" : {
                      "clipSpeedAttribute" : false
                    }
                  },
                  {
                    "id" : 456,
                    "_type" : "UnifiedMedia",
                    "video" : 
                        {
                          "id" : 457,
                          "_type" : "VMFile",
                          "src" : 4,
                          "trackNumber" : 1,
                          "attributes" : {
                            "ident" : "Grabación 26-12-{AA}_008"
                          },
                          "parameters" : {
                            "translation0" : 880.0,
                            "translation1" : -480.0,
                            "scale0" : 0.25,
                            "scale1" : 0.25,
                            "sourceCrop0" : 0.0,
                            "sourceCrop1" : 0.0,
                            "sourceCrop2" : 0.0,
                            "sourceCrop3" : 0.0,
                            "geometryCrop0" : 0.0,
                            "geometryCrop1" : 0.0,
                            "geometryCrop2" : 0.0,
                            "geometryCrop3" : 0.0
                          },
                          "effects" : [

                          ],
                          "start" : 1102,
                          "duration" : 117,
                          "mediaStart" : 168,
                          "mediaDuration" : 117,
                          "scalar" : 1,
                          "animationTracks" : {

                          }
                        },
                    "audio" : 
                        {
                          "id" : 458,
                          "_type" : "AMFile",
                          "src" : 4,
                          "trackNumber" : 2,
                          "attributes" : {
                            "ident" : "",
                            "gain" : 1.0,
                            "mixToMono" : false
                          },
                            "channelNumber" : "0,1",
                          "effects" : [

                          ],
                          "start" : 1102,
                          "duration" : 117,
                          "mediaStart" : 168,
                          "mediaDuration" : 117,
                          "scalar" : 1,
                          "animationTracks" : {

                          }
                        }
,
                    "start" : 1102,
                    "duration" : 117,
                    "mediaStart" : 0,
                    "mediaDuration" : 4658,
                    "scalar" : 1,
                    "metadata" : {
                      "clipSpeedAttribute" : false
                    }
                  },
                  {
                    "id" : 459,
                    "_type" : "UnifiedMedia",
                    "video" : 
                        {
                          "id" : 460,
                          "_type" : "VMFile",
                          "src" : 4,
                          "trackNumber" : 1,
                          "attributes" : {
                            "ident" : "Grabación 26-12-{AA}_008"
                          },
                          "parameters" : {
                            "translation0" : 880.0,
                            "translation1" : -480.0,
                            "scale0" : 0.25,
                            "scale1" : 0.25,
                            "sourceCrop0" : 0.0,
                            "sourceCrop1" : 0.0,
                            "sourceCrop2" : 0.0,
                            "sourceCrop3" : 0.0,
                            "geometryCrop0" : 0.0,
                            "geometryCrop1" : 0.0,
                            "geometryCrop2" : 0.0,
                            "geometryCrop3" : 0.0
                          },
                          "effects" : [

                          ],
                          "start" : 1219,
                          "duration" : 28,
                          "mediaStart" : 301,
                          "mediaDuration" : 28,
                          "scalar" : 1,
                          "animationTracks" : {

                          }
                        },
                    "audio" : 
                        {
                          "id" : 461,
                          "_type" : "AMFile",
                          "src" : 4,
                          "trackNumber" : 2,
                          "attributes" : {
                            "ident" : "",
                            "gain" : 1.0,
                            "mixToMono" : false
                          },
                            "channelNumber" : "0,1",
                          "effects" : [

                          ],
                          "start" : 1219,
                          "duration" : 28,
                          "mediaStart" : 301,
                          "mediaDuration" : 28,
                          "scalar" : 1,
                          "animationTracks" : {

                          }
                        }
,
                    "start" : 1219,
                    "duration" : 28,
                    "mediaStart" : 0,
                    "mediaDuration" : 4658,
                    "scalar" : 1,
                    "metadata" : {
                      "clipSpeedAttribute" : false
                    }
                  },
                  {
                    "id" : 462,
                    "_type" : "UnifiedMedia",
                    "video" : 
                        {
                          "id" : 463,
                          "_type" : "VMFile",
                          "src" : 4,
                          "trackNumber" : 1,
                          "attributes" : {
                            "ident" : "Grabación 26-12-{AA}_008"
                          },
                          "parameters" : {
                            "translation0" : 880.0,
                            "translation1" : -480.0,
                            "scale0" : 0.25,
                            "scale1" : 0.25,
                            "sourceCrop0" : 0.0,
                            "sourceCrop1" : 0.0,
                            "sourceCrop2" : 0.0,
                            "sourceCrop3" : 0.0,
                            "geometryCrop0" : 0.0,
                            "geometryCrop1" : 0.0,
                            "geometryCrop2" : 0.0,
                            "geometryCrop3" : 0.0
                          },
                          "effects" : [

                          ],
                          "start" : 1247,
                          "duration" : 89,
                          "mediaStart" : 339,
                          "mediaDuration" : 89,
                          "scalar" : 1,
                          "animationTracks" : {

                          }
                        },
                    "audio" : 
                        {
                          "id" : 464,
                          "_type" : "AMFile",
                          "src" : 4,
                          "trackNumber" : 2,
                          "attributes" : {
                            "ident" : "",
                            "gain" : 1.0,
                            "mixToMono" : false
                          },
                            "channelNumber" : "0,1",
                          "effects" : [

                          ],
                          "start" : 1247,
                          "duration" : 89,
                          "mediaStart" : 339,
                          "mediaDuration" : 89,
                          "scalar" : 1,
                          "animationTracks" : {

                          }
                        }
,
                    "start" : 1247,
                    "duration" : 89,
                    "mediaStart" : 0,
                    "mediaDuration" : 4658,
                    "scalar" : 1,
                    "metadata" : {
                      "clipSpeedAttribute" : false
                    }
                  },
                  {
                    "id" : 465,
                    "_type" : "UnifiedMedia",
                    "video" : 
                        {
                          "id" : 466,
                          "_type" : "VMFile",
                          "src" : 4,
                          "trackNumber" : 1,
                          "attributes" : {
                            "ident" : "Grabación 26-12-{AA}_008"
                          },
                          "parameters" : {
                            "translation0" : 880.0,
                            "translation1" : -480.0,
                            "scale0" : 0.25,
                            "scale1" : 0.25,
                            "sourceCrop0" : 0.0,
                            "sourceCrop1" : 0.0,
                            "sourceCrop2" : 0.0,
                            "sourceCrop3" : 0.0,
                            "geometryCrop0" : 0.0,
                            "geometryCrop1" : 0.0,
                            "geometryCrop2" : 0.0,
                            "geometryCrop3" : 0.0
                          },
                          "effects" : [

                          ],
                          "start" : 1336,
                          "duration" : 33,
                          "mediaStart" : 436,
                          "mediaDuration" : 33,
                          "scalar" : 1,
                          "animationTracks" : {

                          }
                        },
                    "audio" : 
                        {
                          "id" : 467,
                          "_type" : "AMFile",
                          "src" : 4,
                          "trackNumber" : 2,
                          "attributes" : {
                            "ident" : "",
                            "gain" : 1.0,
                            "mixToMono" : false
                          },
                            "channelNumber" : "0,1",
                          "effects" : [

                          ],
                          "start" : 1336,
                          "duration" : 33,
                          "mediaStart" : 436,
                          "mediaDuration" : 33,
                          "scalar" : 1,
                          "animationTracks" : {

                          }
                        }
,
                    "start" : 1336,
                    "duration" : 33,
                    "mediaStart" : 0,
                    "mediaDuration" : 4658,
                    "scalar" : 1,
                    "metadata" : {
                      "clipSpeedAttribute" : false
                    }
                  },
                  {
                    "id" : 468,
                    "_type" : "UnifiedMedia",
                    "video" : 
                        {
                          "id" : 469,
                          "_type" : "VMFile",
                          "src" : 4,
                          "trackNumber" : 1,
                          "attributes" : {
                            "ident" : "Grabación 26-12-{AA}_008"
                          },
                          "parameters" : {
                            "translation0" : 880.0,
                            "translation1" : -480.0,
                            "scale0" : 0.25,
                            "scale1" : 0.25,
                            "sourceCrop0" : 0.0,
                            "sourceCrop1" : 0.0,
                            "sourceCrop2" : 0.0,
                            "sourceCrop3" : 0.0,
                            "geometryCrop0" : 0.0,
                            "geometryCrop1" : 0.0,
                            "geometryCrop2" : 0.0,
                            "geometryCrop3" : 0.0
                          },
                          "effects" : [

                          ],
                          "start" : 1369,
                          "duration" : 86,
                          "mediaStart" : 480,
                          "mediaDuration" : 86,
                          "scalar" : 1,
                          "animationTracks" : {

                          }
                        },
                    "audio" : 
                        {
                          "id" : 470,
                          "_type" : "AMFile",
                          "src" : 4,
                          "trackNumber" : 2,
                          "attributes" : {
                            "ident" : "",
                            "gain" : 1.0,
                            "mixToMono" : false
                          },
                            "channelNumber" : "0,1",
                          "effects" : [

                          ],
                          "start" : 1369,
                          "duration" : 86,
                          "mediaStart" : 480,
                          "mediaDuration" : 86,
                          "scalar" : 1,
                          "animationTracks" : {

                          }
                        }
,
                    "start" : 1369,
                    "duration" : 86,
                    "mediaStart" : 0,
                    "mediaDuration" : 4658,
                    "scalar" : 1,
                    "metadata" : {
                      "clipSpeedAttribute" : false
                    }
                  },
                  {
                    "id" : 471,
                    "_type" : "UnifiedMedia",
                    "video" : 
                        {
                          "id" : 472,
                          "_type" : "VMFile",
                          "src" : 4,
                          "trackNumber" : 1,
                          "attributes" : {
                            "ident" : "Grabación 26-12-{AA}_008"
                          },
                          "parameters" : {
                            "translation0" : 880.0,
                            "translation1" : -480.0,
                            "scale0" : 0.25,
                            "scale1" : 0.25,
                            "sourceCrop0" : 0.0,
                            "sourceCrop1" : 0.0,
                            "sourceCrop2" : 0.0,
                            "sourceCrop3" : 0.0,
                            "geometryCrop0" : 0.0,
                            "geometryCrop1" : 0.0,
                            "geometryCrop2" : 0.0,
                            "geometryCrop3" : 0.0
                          },
                          "effects" : [

                          ],
                          "start" : 1455,
                          "duration" : 190,
                          "mediaStart" : 692,
                          "mediaDuration" : 190,
                          "scalar" : 1,
                          "animationTracks" : {

                          }
                        },
                    "audio" : 
                        {
                          "id" : 473,
                          "_type" : "AMFile",
                          "src" : 4,
                          "trackNumber" : 2,
                          "attributes" : {
                            "ident" : "",
                            "gain" : 1.0,
                            "mixToMono" : false
                          },
                            "channelNumber" : "0,1",
                          "effects" : [

                          ],
                          "start" : 1455,
                          "duration" : 190,
                          "mediaStart" : 692,
                          "mediaDuration" : 190,
                          "scalar" : 1,
                          "animationTracks" : {

                          }
                        }
,
                    "start" : 1455,
                    "duration" : 190,
                    "mediaStart" : 0,
                    "mediaDuration" : 4658,
                    "scalar" : 1,
                    "metadata" : {
                      "clipSpeedAttribute" : false
                    }
                  },
                  {
                    "id" : 474,
                    "_type" : "UnifiedMedia",
                    "video" : 
                        {
                          "id" : 475,
                          "_type" : "VMFile",
                          "src" : 4,
                          "trackNumber" : 1,
                          "attributes" : {
                            "ident" : "Grabación 26-12-{AA}_008"
                          },
                          "parameters" : {
                            "translation0" : 880.0,
                            "translation1" : -480.0,
                            "scale0" : 0.25,
                            "scale1" : 0.25,
                            "sourceCrop0" : 0.0,
                            "sourceCrop1" : 0.0,
                            "sourceCrop2" : 0.0,
                            "sourceCrop3" : 0.0,
                            "geometryCrop0" : 0.0,
                            "geometryCrop1" : 0.0,
                            "geometryCrop2" : 0.0,
                            "geometryCrop3" : 0.0
                          },
                          "effects" : [

                          ],
                          "start" : 1645,
                          "duration" : 101,
                          "mediaStart" : 894,
                          "mediaDuration" : 101,
                          "scalar" : 1,
                          "animationTracks" : {

                          }
                        },
                    "audio" : 
                        {
                          "id" : 476,
                          "_type" : "AMFile",
                          "src" : 4,
                          "trackNumber" : 2,
                          "attributes" : {
                            "ident" : "",
                            "gain" : 1.0,
                            "mixToMono" : false
                          },
                            "channelNumber" : "0,1",
                          "effects" : [

                          ],
                          "start" : 1645,
                          "duration" : 101,
                          "mediaStart" : 894,
                          "mediaDuration" : 101,
                          "scalar" : 1,
                          "animationTracks" : {

                          }
                        }
,
                    "start" : 1645,
                    "duration" : 101,
                    "mediaStart" : 0,
                    "mediaDuration" : 4658,
                    "scalar" : 1,
                    "metadata" : {
                      "clipSpeedAttribute" : false
                    }
                  },
                  {
                    "id" : 477,
                    "_type" : "UnifiedMedia",
                    "video" : 
                        {
                          "id" : 478,
                          "_type" : "VMFile",
                          "src" : 4,
                          "trackNumber" : 1,
                          "attributes" : {
                            "ident" : "Grabación 26-12-{AA}_008"
                          },
                          "parameters" : {
                            "translation0" : 880.0,
                            "translation1" : -480.0,
                            "scale0" : 0.25,
                            "scale1" : 0.25,
                            "sourceCrop0" : 0.0,
                            "sourceCrop1" : 0.0,
                            "sourceCrop2" : 0.0,
                            "sourceCrop3" : 0.0,
                            "geometryCrop0" : 0.0,
                            "geometryCrop1" : 0.0,
                            "geometryCrop2" : 0.0,
                            "geometryCrop3" : 0.0
                          },
                          "effects" : [

                          ],
                          "start" : 1746,
                          "duration" : 40,
                          "mediaStart" : 1004,
                          "mediaDuration" : 40,
                          "scalar" : 1,
                          "animationTracks" : {

                          }
                        },
                    "audio" : 
                        {
                          "id" : 479,
                          "_type" : "AMFile",
                          "src" : 4,
                          "trackNumber" : 2,
                          "attributes" : {
                            "ident" : "",
                            "gain" : 1.0,
                            "mixToMono" : false
                          },
                            "channelNumber" : "0,1",
                          "effects" : [

                          ],
                          "start" : 1746,
                          "duration" : 40,
                          "mediaStart" : 1004,
                          "mediaDuration" : 40,
                          "scalar" : 1,
                          "animationTracks" : {

                          }
                        }
,
                    "start" : 1746,
                    "duration" : 40,
                    "mediaStart" : 0,
                    "mediaDuration" : 4658,
                    "scalar" : 1,
                    "metadata" : {
                      "clipSpeedAttribute" : false
                    }
                  },
                  {
                    "id" : 480,
                    "_type" : "UnifiedMedia",
                    "video" : 
                        {
                          "id" : 481,
                          "_type" : "VMFile",
                          "src" : 4,
                          "trackNumber" : 1,
                          "attributes" : {
                            "ident" : "Grabación 26-12-{AA}_008"
                          },
                          "parameters" : {
                            "translation0" : 880.0,
                            "translation1" : -480.0,
                            "scale0" : 0.25,
                            "scale1" : 0.25,
                            "sourceCrop0" : 0.0,
                            "sourceCrop1" : 0.0,
                            "sourceCrop2" : 0.0,
                            "sourceCrop3" : 0.0,
                            "geometryCrop0" : 0.0,
                            "geometryCrop1" : 0.0,
                            "geometryCrop2" : 0.0,
                            "geometryCrop3" : 0.0
                          },
                          "effects" : [

                          ],
                          "start" : 1786,
                          "duration" : 59,
                          "mediaStart" : 1107,
                          "mediaDuration" : 59,
                          "scalar" : 1,
                          "animationTracks" : {

                          }
                        },
                    "audio" : 
                        {
                          "id" : 482,
                          "_type" : "AMFile",
                          "src" : 4,
                          "trackNumber" : 2,
                          "attributes" : {
                            "ident" : "",
                            "gain" : 1.0,
                            "mixToMono" : false
                          },
                            "channelNumber" : "0,1",
                          "effects" : [

                          ],
                          "start" : 1786,
                          "duration" : 59,
                          "mediaStart" : 1107,
                          "mediaDuration" : 59,
                          "scalar" : 1,
                          "animationTracks" : {

                          }
                        }
,
                    "start" : 1786,
                    "duration" : 59,
                    "mediaStart" : 0,
                    "mediaDuration" : 4658,
                    "scalar" : 1,
                    "metadata" : {
                      "clipSpeedAttribute" : false
                    }
                  },
                  {
                    "id" : 483,
                    "_type" : "UnifiedMedia",
                    "video" : 
                        {
                          "id" : 484,
                          "_type" : "VMFile",
                          "src" : 4,
                          "trackNumber" : 1,
                          "attributes" : {
                            "ident" : "Grabación 26-12-{AA}_008"
                          },
                          "parameters" : {
                            "translation0" : 880.0,
                            "translation1" : -480.0,
                            "scale0" : 0.25,
                            "scale1" : 0.25,
                            "sourceCrop0" : 0.0,
                            "sourceCrop1" : 0.0,
                            "sourceCrop2" : 0.0,
                            "sourceCrop3" : 0.0,
                            "geometryCrop0" : 0.0,
                            "geometryCrop1" : 0.0,
                            "geometryCrop2" : 0.0,
                            "geometryCrop3" : 0.0
                          },
                          "effects" : [

                          ],
                          "start" : 1845,
                          "duration" : 23,
                          "mediaStart" : 1179,
                          "mediaDuration" : 23,
                          "scalar" : 1,
                          "animationTracks" : {

                          }
                        },
                    "audio" : 
                        {
                          "id" : 485,
                          "_type" : "AMFile",
                          "src" : 4,
                          "trackNumber" : 2,
                          "attributes" : {
                            "ident" : "",
                            "gain" : 1.0,
                            "mixToMono" : false
                          },
                            "channelNumber" : "0,1",
                          "effects" : [

                          ],
                          "start" : 1845,
                          "duration" : 23,
                          "mediaStart" : 1179,
                          "mediaDuration" : 23,
                          "scalar" : 1,
                          "animationTracks" : {

                          }
                        }
,
                    "start" : 1845,
                    "duration" : 23,
                    "mediaStart" : 0,
                    "mediaDuration" : 4658,
                    "scalar" : 1,
                    "metadata" : {
                      "clipSpeedAttribute" : false
                    }
                  },
                  {
                    "id" : 486,
                    "_type" : "UnifiedMedia",
                    "video" : 
                        {
                          "id" : 487,
                          "_type" : "VMFile",
                          "src" : 4,
                          "trackNumber" : 1,
                          "attributes" : {
                            "ident" : "Grabación 26-12-{AA}_008"
                          },
                          "parameters" : {
                            "translation0" : 880.0,
                            "translation1" : -480.0,
                            "scale0" : 0.25,
                            "scale1" : 0.25,
                            "sourceCrop0" : 0.0,
                            "sourceCrop1" : 0.0,
                            "sourceCrop2" : 0.0,
                            "sourceCrop3" : 0.0,
                            "geometryCrop0" : 0.0,
                            "geometryCrop1" : 0.0,
                            "geometryCrop2" : 0.0,
                            "geometryCrop3" : 0.0
                          },
                          "effects" : [

                          ],
                          "start" : 1868,
                          "duration" : 44,
                          "mediaStart" : 1217,
                          "mediaDuration" : 44,
                          "scalar" : 1,
                          "animationTracks" : {

                          }
                        },
                    "audio" : 
                        {
                          "id" : 488,
                          "_type" : "AMFile",
                          "src" : 4,
                          "trackNumber" : 2,
                          "attributes" : {
                            "ident" : "",
                            "gain" : 1.0,
                            "mixToMono" : false
                          },
                            "channelNumber" : "0,1",
                          "effects" : [

                          ],
                          "start" : 1868,
                          "duration" : 44,
                          "mediaStart" : 1217,
                          "mediaDuration" : 44,
                          "scalar" : 1,
                          "animationTracks" : {

                          }
                        }
,
                    "start" : 1868,
                    "duration" : 44,
                    "mediaStart" : 0,
                    "mediaDuration" : 4658,
                    "scalar" : 1,
                    "metadata" : {
                      "clipSpeedAttribute" : false
                    }
                  },
                  {
                    "id" : 489,
                    "_type" : "UnifiedMedia",
                    "video" : 
                        {
                          "id" : 490,
                          "_type" : "VMFile",
                          "src" : 4,
                          "trackNumber" : 1,
                          "attributes" : {
                            "ident" : "Grabación 26-12-{AA}_008"
                          },
                          "parameters" : {
                            "translation0" : 880.0,
                            "translation1" : -480.0,
                            "scale0" : 0.25,
                            "scale1" : 0.25,
                            "sourceCrop0" : 0.0,
                            "sourceCrop1" : 0.0,
                            "sourceCrop2" : 0.0,
                            "sourceCrop3" : 0.0,
                            "geometryCrop0" : 0.0,
                            "geometryCrop1" : 0.0,
                            "geometryCrop2" : 0.0,
                            "geometryCrop3" : 0.0
                          },
                          "effects" : [

                          ],
                          "start" : 1912,
                          "duration" : 208,
                          "mediaStart" : 1279,
                          "mediaDuration" : 208,
                          "scalar" : 1,
                          "animationTracks" : {

                          }
                        },
                    "audio" : 
                        {
                          "id" : 491,
                          "_type" : "AMFile",
                          "src" : 4,
                          "trackNumber" : 2,
                          "attributes" : {
                            "ident" : "",
                            "gain" : 1.0,
                            "mixToMono" : false
                          },
                            "channelNumber" : "0,1",
                          "effects" : [

                          ],
                          "start" : 1912,
                          "duration" : 208,
                          "mediaStart" : 1279,
                          "mediaDuration" : 208,
                          "scalar" : 1,
                          "animationTracks" : {

                          }
                        }
,
                    "start" : 1912,
                    "duration" : 208,
                    "mediaStart" : 0,
                    "mediaDuration" : 4658,
                    "scalar" : 1,
                    "metadata" : {
                      "clipSpeedAttribute" : false
                    }
                  },
                  {
                    "id" : 492,
                    "_type" : "UnifiedMedia",
                    "video" : 
                        {
                          "id" : 493,
                          "_type" : "VMFile",
                          "src" : 4,
                          "trackNumber" : 1,
                          "attributes" : {
                            "ident" : "Grabación 26-12-{AA}_008"
                          },
                          "parameters" : {
                            "translation0" : 880.0,
                            "translation1" : -480.0,
                            "scale0" : 0.25,
                            "scale1" : 0.25,
                            "sourceCrop0" : 0.0,
                            "sourceCrop1" : 0.0,
                            "sourceCrop2" : 0.0,
                            "sourceCrop3" : 0.0,
                            "geometryCrop0" : 0.0,
                            "geometryCrop1" : 0.0,
                            "geometryCrop2" : 0.0,
                            "geometryCrop3" : 0.0
                          },
                          "effects" : [

                          ],
                          "start" : 2120,
                          "duration" : 52,
                          "mediaStart" : 1498,
                          "mediaDuration" : 52,
                          "scalar" : 1,
                          "animationTracks" : {

                          }
                        },
                    "audio" : 
                        {
                          "id" : 494,
                          "_type" : "AMFile",
                          "src" : 4,
                          "trackNumber" : 2,
                          "attributes" : {
                            "ident" : "",
                            "gain" : 1.0,
                            "mixToMono" : false
                          },
                            "channelNumber" : "0,1",
                          "effects" : [

                          ],
                          "start" : 2120,
                          "duration" : 52,
                          "mediaStart" : 1498,
                          "mediaDuration" : 52,
                          "scalar" : 1,
                          "animationTracks" : {

                          }
                        }
,
                    "start" : 2120,
                    "duration" : 52,
                    "mediaStart" : 0,
                    "mediaDuration" : 4658,
                    "scalar" : 1,
                    "metadata" : {
                      "clipSpeedAttribute" : false
                    }
                  },
                  {
                    "id" : 495,
                    "_type" : "UnifiedMedia",
                    "video" : 
                        {
                          "id" : 496,
                          "_type" : "VMFile",
                          "src" : 4,
                          "trackNumber" : 1,
                          "attributes" : {
                            "ident" : "Grabación 26-12-{AA}_008"
                          },
                          "parameters" : {
                            "translation0" : 880.0,
                            "translation1" : -480.0,
                            "scale0" : 0.25,
                            "scale1" : 0.25,
                            "sourceCrop0" : 0.0,
                            "sourceCrop1" : 0.0,
                            "sourceCrop2" : 0.0,
                            "sourceCrop3" : 0.0,
                            "geometryCrop0" : 0.0,
                            "geometryCrop1" : 0.0,
                            "geometryCrop2" : 0.0,
                            "geometryCrop3" : 0.0
                          },
                          "effects" : [

                          ],
                          "start" : 2172,
                          "duration" : 31,
                          "mediaStart" : 1679,
                          "mediaDuration" : 31,
                          "scalar" : 1,
                          "animationTracks" : {

                          }
                        },
                    "audio" : 
                        {
                          "id" : 497,
                          "_type" : "AMFile",
                          "src" : 4,
                          "trackNumber" : 2,
                          "attributes" : {
                            "ident" : "",
                            "gain" : 1.0,
                            "mixToMono" : false
                          },
                            "channelNumber" : "0,1",
                          "effects" : [

                          ],
                          "start" : 2172,
                          "duration" : 31,
                          "mediaStart" : 1679,
                          "mediaDuration" : 31,
                          "scalar" : 1,
                          "animationTracks" : {

                          }
                        }
,
                    "start" : 2172,
                    "duration" : 31,
                    "mediaStart" : 0,
                    "mediaDuration" : 4658,
                    "scalar" : 1,
                    "metadata" : {
                      "clipSpeedAttribute" : false
                    }
                  },
                  {
                    "id" : 498,
                    "_type" : "UnifiedMedia",
                    "video" : 
                        {
                          "id" : 499,
                          "_type" : "VMFile",
                          "src" : 4,
                          "trackNumber" : 1,
                          "attributes" : {
                            "ident" : "Grabación 26-12-{AA}_008"
                          },
                          "parameters" : {
                            "translation0" : 880.0,
                            "translation1" : -480.0,
                            "scale0" : 0.25,
                            "scale1" : 0.25,
                            "sourceCrop0" : 0.0,
                            "sourceCrop1" : 0.0,
                            "sourceCrop2" : 0.0,
                            "sourceCrop3" : 0.0,
                            "geometryCrop0" : 0.0,
                            "geometryCrop1" : 0.0,
                            "geometryCrop2" : 0.0,
                            "geometryCrop3" : 0.0
                          },
                          "effects" : [

                          ],
                          "start" : 2203,
                          "duration" : 9,
                          "mediaStart" : 1720,
                          "mediaDuration" : 9,
                          "scalar" : 1,
                          "animationTracks" : {

                          }
                        },
                    "audio" : 
                        {
                          "id" : 500,
                          "_type" : "AMFile",
                          "src" : 4,
                          "trackNumber" : 2,
                          "attributes" : {
                            "ident" : "",
                            "gain" : 1.0,
                            "mixToMono" : false
                          },
                            "channelNumber" : "0,1",
                          "effects" : [

                          ],
                          "start" : 2203,
                          "duration" : 9,
                          "mediaStart" : 1720,
                          "mediaDuration" : 9,
                          "scalar" : 1,
                          "animationTracks" : {

                          }
                        }
,
                    "start" : 2203,
                    "duration" : 9,
                    "mediaStart" : 0,
                    "mediaDuration" : 4658,
                    "scalar" : 1,
                    "metadata" : {
                      "clipSpeedAttribute" : false
                    }
                  },
                  {
                    "id" : 501,
                    "_type" : "UnifiedMedia",
                    "video" : 
                        {
                          "id" : 502,
                          "_type" : "VMFile",
                          "src" : 4,
                          "trackNumber" : 1,
                          "attributes" : {
                            "ident" : "Grabación 26-12-{AA}_008"
                          },
                          "parameters" : {
                            "translation0" : 880.0,
                            "translation1" : -480.0,
                            "scale0" : 0.25,
                            "scale1" : 0.25,
                            "sourceCrop0" : 0.0,
                            "sourceCrop1" : 0.0,
                            "sourceCrop2" : 0.0,
                            "sourceCrop3" : 0.0,
                            "geometryCrop0" : 0.0,
                            "geometryCrop1" : 0.0,
                            "geometryCrop2" : 0.0,
                            "geometryCrop3" : 0.0
                          },
                          "effects" : [

                          ],
                          "start" : 2212,
                          "duration" : 71,
                          "mediaStart" : 1817,
                          "mediaDuration" : 71,
                          "scalar" : 1,
                          "animationTracks" : {

                          }
                        },
                    "audio" : 
                        {
                          "id" : 503,
                          "_type" : "AMFile",
                          "src" : 4,
                          "trackNumber" : 2,
                          "attributes" : {
                            "ident" : "",
                            "gain" : 1.0,
                            "mixToMono" : false
                          },
                            "channelNumber" : "0,1",
                          "effects" : [

                          ],
                          "start" : 2212,
                          "duration" : 71,
                          "mediaStart" : 1817,
                          "mediaDuration" : 71,
                          "scalar" : 1,
                          "animationTracks" : {

                          }
                        }
,
                    "start" : 2212,
                    "duration" : 71,
                    "mediaStart" : 0,
                    "mediaDuration" : 4658,
                    "scalar" : 1,
                    "metadata" : {
                      "clipSpeedAttribute" : false
                    }
                  },
                  {
                    "id" : 504,
                    "_type" : "UnifiedMedia",
                    "video" : 
                        {
                          "id" : 505,
                          "_type" : "VMFile",
                          "src" : 4,
                          "trackNumber" : 1,
                          "attributes" : {
                            "ident" : "Grabación 26-12-{AA}_008"
                          },
                          "parameters" : {
                            "translation0" : 880.0,
                            "translation1" : -480.0,
                            "scale0" : 0.25,
                            "scale1" : 0.25,
                            "sourceCrop0" : 0.0,
                            "sourceCrop1" : 0.0,
                            "sourceCrop2" : 0.0,
                            "sourceCrop3" : 0.0,
                            "geometryCrop0" : 0.0,
                            "geometryCrop1" : 0.0,
                            "geometryCrop2" : 0.0,
                            "geometryCrop3" : 0.0
                          },
                          "effects" : [

                          ],
                          "start" : 2283,
                          "duration" : 16,
                          "mediaStart" : 1910,
                          "mediaDuration" : 16,
                          "scalar" : 1,
                          "animationTracks" : {

                          }
                        },
                    "audio" : 
                        {
                          "id" : 506,
                          "_type" : "AMFile",
                          "src" : 4,
                          "trackNumber" : 2,
                          "attributes" : {
                            "ident" : "",
                            "gain" : 1.0,
                            "mixToMono" : false
                          },
                            "channelNumber" : "0,1",
                          "effects" : [

                          ],
                          "start" : 2283,
                          "duration" : 16,
                          "mediaStart" : 1910,
                          "mediaDuration" : 16,
                          "scalar" : 1,
                          "animationTracks" : {

                          }
                        }
,
                    "start" : 2283,
                    "duration" : 16,
                    "mediaStart" : 0,
                    "mediaDuration" : 4658,
                    "scalar" : 1,
                    "metadata" : {
                      "clipSpeedAttribute" : false
                    }
                  },
                  {
                    "id" : 507,
                    "_type" : "UnifiedMedia",
                    "video" : 
                        {
                          "id" : 508,
                          "_type" : "VMFile",
                          "src" : 4,
                          "trackNumber" : 1,
                          "attributes" : {
                            "ident" : "Grabación 26-12-{AA}_008"
                          },
                          "parameters" : {
                            "translation0" : 880.0,
                            "translation1" : -480.0,
                            "scale0" : 0.25,
                            "scale1" : 0.25,
                            "sourceCrop0" : 0.0,
                            "sourceCrop1" : 0.0,
                            "sourceCrop2" : 0.0,
                            "sourceCrop3" : 0.0,
                            "geometryCrop0" : 0.0,
                            "geometryCrop1" : 0.0,
                            "geometryCrop2" : 0.0,
                            "geometryCrop3" : 0.0
                          },
                          "effects" : [

                          ],
                          "start" : 2299,
                          "duration" : 4,
                          "mediaStart" : 1926,
                          "mediaDuration" : 4,
                          "scalar" : 1,
                          "animationTracks" : {

                          }
                        },
                    "audio" : 
                        {
                          "id" : 509,
                          "_type" : "AMFile",
                          "src" : 4,
                          "trackNumber" : 2,
                          "attributes" : {
                            "ident" : "",
                            "gain" : 1.0,
                            "mixToMono" : false
                          },
                            "channelNumber" : "0,1",
                          "effects" : [

                          ],
                          "start" : 2299,
                          "duration" : 4,
                          "mediaStart" : 1926,
                          "mediaDuration" : 4,
                          "scalar" : 1,
                          "animationTracks" : {

                          }
                        }
,
                    "start" : 2299,
                    "duration" : 4,
                    "mediaStart" : 0,
                    "mediaDuration" : 4658,
                    "scalar" : 1,
                    "metadata" : {
                      "clipSpeedAttribute" : false
                    }
                  },
                  {
                    "id" : 510,
                    "_type" : "UnifiedMedia",
                    "video" : 
                        {
                          "id" : 511,
                          "_type" : "VMFile",
                          "src" : 4,
                          "trackNumber" : 1,
                          "attributes" : {
                            "ident" : "Grabación 26-12-{AA}_008"
                          },
                          "parameters" : {
                            "translation0" : 880.0,
                            "translation1" : -480.0,
                            "scale0" : 0.25,
                            "scale1" : 0.25,
                            "sourceCrop0" : 0.0,
                            "sourceCrop1" : 0.0,
                            "sourceCrop2" : 0.0,
                            "sourceCrop3" : 0.0,
                            "geometryCrop0" : 0.0,
                            "geometryCrop1" : 0.0,
                            "geometryCrop2" : 0.0,
                            "geometryCrop3" : 0.0
                          },
                          "effects" : [

                          ],
                          "start" : 2303,
                          "duration" : 21,
                          "mediaStart" : 1930,
                          "mediaDuration" : 21,
                          "scalar" : 1,
                          "animationTracks" : {

                          }
                        },
                    "audio" : 
                        {
                          "id" : 512,
                          "_type" : "AMFile",
                          "src" : 4,
                          "trackNumber" : 2,
                          "attributes" : {
                            "ident" : "",
                            "gain" : 1.0,
                            "mixToMono" : false
                          },
                            "channelNumber" : "0,1",
                          "effects" : [

                          ],
                          "start" : 2303,
                          "duration" : 21,
                          "mediaStart" : 1930,
                          "mediaDuration" : 21,
                          "scalar" : 1,
                          "animationTracks" : {

                          }
                        }
,
                    "start" : 2303,
                    "duration" : 21,
                    "mediaStart" : 0,
                    "mediaDuration" : 4658,
                    "scalar" : 1,
                    "metadata" : {
                      "clipSpeedAttribute" : false
                    }
                  },
                  {
                    "id" : 513,
                    "_type" : "UnifiedMedia",
                    "video" : 
                        {
                          "id" : 514,
                          "_type" : "VMFile",
                          "src" : 4,
                          "trackNumber" : 1,
                          "attributes" : {
                            "ident" : "Grabación 26-12-{AA}_008"
                          },
                          "parameters" : {
                            "translation0" : 880.0,
                            "translation1" : -480.0,
                            "scale0" : 0.25,
                            "scale1" : 0.25,
                            "sourceCrop0" : 0.0,
                            "sourceCrop1" : 0.0,
                            "sourceCrop2" : 0.0,
                            "sourceCrop3" : 0.0,
                            "geometryCrop0" : 0.0,
                            "geometryCrop1" : 0.0,
                            "geometryCrop2" : 0.0,
                            "geometryCrop3" : 0.0
                          },
                          "effects" : [

                          ],
                          "start" : 2324,
                          "duration" : 16,
                          "mediaStart" : 1955,
                          "mediaDuration" : 16,
                          "scalar" : 1,
                          "animationTracks" : {

                          }
                        },
                    "audio" : 
                        {
                          "id" : 515,
                          "_type" : "AMFile",
                          "src" : 4,
                          "trackNumber" : 2,
                          "attributes" : {
                            "ident" : "",
                            "gain" : 1.0,
                            "mixToMono" : false
                          },
                            "channelNumber" : "0,1",
                          "effects" : [

                          ],
                          "start" : 2324,
                          "duration" : 16,
                          "mediaStart" : 1955,
                          "mediaDuration" : 16,
                          "scalar" : 1,
                          "animationTracks" : {

                          }
                        }
,
                    "start" : 2324,
                    "duration" : 16,
                    "mediaStart" : 0,
                    "mediaDuration" : 4658,
                    "scalar" : 1,
                    "metadata" : {
                      "clipSpeedAttribute" : false
                    }
                  },
                  {
                    "id" : 516,
                    "_type" : "UnifiedMedia",
                    "video" : 
                        {
                          "id" : 517,
                          "_type" : "VMFile",
                          "src" : 4,
                          "trackNumber" : 1,
                          "attributes" : {
                            "ident" : "Grabación 26-12-{AA}_008"
                          },
                          "parameters" : {
                            "translation0" : 880.0,
                            "translation1" : -480.0,
                            "scale0" : 0.25,
                            "scale1" : 0.25,
                            "sourceCrop0" : 0.0,
                            "sourceCrop1" : 0.0,
                            "sourceCrop2" : 0.0,
                            "sourceCrop3" : 0.0,
                            "geometryCrop0" : 0.0,
                            "geometryCrop1" : 0.0,
                            "geometryCrop2" : 0.0,
                            "geometryCrop3" : 0.0
                          },
                          "effects" : [

                          ],
                          "start" : 2340,
                          "duration" : 25,
                          "mediaStart" : 2003,
                          "mediaDuration" : 25,
                          "scalar" : 1,
                          "animationTracks" : {

                          }
                        },
                    "audio" : 
                        {
                          "id" : 518,
                          "_type" : "AMFile",
                          "src" : 4,
                          "trackNumber" : 2,
                          "attributes" : {
                            "ident" : "",
                            "gain" : 1.0,
                            "mixToMono" : false
                          },
                            "channelNumber" : "0,1",
                          "effects" : [

                          ],
                          "start" : 2340,
                          "duration" : 25,
                          "mediaStart" : 2003,
                          "mediaDuration" : 25,
                          "scalar" : 1,
                          "animationTracks" : {

                          }
                        }
,
                    "start" : 2340,
                    "duration" : 25,
                    "mediaStart" : 0,
                    "mediaDuration" : 4658,
                    "scalar" : 1,
                    "metadata" : {
                      "clipSpeedAttribute" : false
                    }
                  },
                  {
                    "id" : 519,
                    "_type" : "UnifiedMedia",
                    "video" : 
                        {
                          "id" : 520,
                          "_type" : "VMFile",
                          "src" : 4,
                          "trackNumber" : 1,
                          "attributes" : {
                            "ident" : "Grabación 26-12-{AA}_008"
                          },
                          "parameters" : {
                            "translation0" : 880.0,
                            "translation1" : -480.0,
                            "scale0" : 0.25,
                            "scale1" : 0.25,
                            "sourceCrop0" : 0.0,
                            "sourceCrop1" : 0.0,
                            "sourceCrop2" : 0.0,
                            "sourceCrop3" : 0.0,
                            "geometryCrop0" : 0.0,
                            "geometryCrop1" : 0.0,
                            "geometryCrop2" : 0.0,
                            "geometryCrop3" : 0.0
                          },
                          "effects" : [

                          ],
                          "start" : 2365,
                          "duration" : 56,
                          "mediaStart" : 2103,
                          "mediaDuration" : 56,
                          "scalar" : 1,
                          "animationTracks" : {

                          }
                        },
                    "audio" : 
                        {
                          "id" : 521,
                          "_type" : "AMFile",
                          "src" : 4,
                          "trackNumber" : 2,
                          "attributes" : {
                            "ident" : "",
                            "gain" : 1.0,
                            "mixToMono" : false
                          },
                            "channelNumber" : "0,1",
                          "effects" : [

                          ],
                          "start" : 2365,
                          "duration" : 56,
                          "mediaStart" : 2103,
                          "mediaDuration" : 56,
                          "scalar" : 1,
                          "animationTracks" : {

                          }
                        }
,
                    "start" : 2365,
                    "duration" : 56,
                    "mediaStart" : 0,
                    "mediaDuration" : 4658,
                    "scalar" : 1,
                    "metadata" : {
                      "clipSpeedAttribute" : false
                    }
                  },
                  {
                    "id" : 522,
                    "_type" : "UnifiedMedia",
                    "video" : 
                        {
                          "id" : 523,
                          "_type" : "VMFile",
                          "src" : 4,
                          "trackNumber" : 1,
                          "attributes" : {
                            "ident" : "Grabación 26-12-{AA}_008"
                          },
                          "parameters" : {
                            "translation0" : 880.0,
                            "translation1" : -480.0,
                            "scale0" : 0.25,
                            "scale1" : 0.25,
                            "sourceCrop0" : 0.0,
                            "sourceCrop1" : 0.0,
                            "sourceCrop2" : 0.0,
                            "sourceCrop3" : 0.0,
                            "geometryCrop0" : 0.0,
                            "geometryCrop1" : 0.0,
                            "geometryCrop2" : 0.0,
                            "geometryCrop3" : 0.0
                          },
                          "effects" : [

                          ],
                          "start" : 2421,
                          "duration" : 8,
                          "mediaStart" : 2163,
                          "mediaDuration" : 8,
                          "scalar" : 1,
                          "animationTracks" : {

                          }
                        },
                    "audio" : 
                        {
                          "id" : 524,
                          "_type" : "AMFile",
                          "src" : 4,
                          "trackNumber" : 2,
                          "attributes" : {
                            "ident" : "",
                            "gain" : 1.0,
                            "mixToMono" : false
                          },
                            "channelNumber" : "0,1",
                          "effects" : [

                          ],
                          "start" : 2421,
                          "duration" : 8,
                          "mediaStart" : 2163,
                          "mediaDuration" : 8,
                          "scalar" : 1,
                          "animationTracks" : {

                          }
                        }
,
                    "start" : 2421,
                    "duration" : 8,
                    "mediaStart" : 0,
                    "mediaDuration" : 4658,
                    "scalar" : 1,
                    "metadata" : {
                      "clipSpeedAttribute" : false
                    }
                  },
                  {
                    "id" : 525,
                    "_type" : "UnifiedMedia",
                    "video" : 
                        {
                          "id" : 526,
                          "_type" : "VMFile",
                          "src" : 4,
                          "trackNumber" : 1,
                          "attributes" : {
                            "ident" : "Grabación 26-12-{AA}_008"
                          },
                          "parameters" : {
                            "translation0" : 880.0,
                            "translation1" : -480.0,
                            "scale0" : 0.25,
                            "scale1" : 0.25,
                            "sourceCrop0" : 0.0,
                            "sourceCrop1" : 0.0,
                            "sourceCrop2" : 0.0,
                            "sourceCrop3" : 0.0,
                            "geometryCrop0" : 0.0,
                            "geometryCrop1" : 0.0,
                            "geometryCrop2" : 0.0,
                            "geometryCrop3" : 0.0
                          },
                          "effects" : [

                          ],
                          "start" : 2429,
                          "duration" : 1,
                          "mediaStart" : 2171,
                          "mediaDuration" : 1,
                          "scalar" : 1,
                          "animationTracks" : {

                          }
                        },
                    "audio" : 
                        {
                          "id" : 527,
                          "_type" : "AMFile",
                          "src" : 4,
                          "trackNumber" : 2,
                          "attributes" : {
                            "ident" : "",
                            "gain" : 1.0,
                            "mixToMono" : false
                          },
                            "channelNumber" : "0,1",
                          "effects" : [

                          ],
                          "start" : 2429,
                          "duration" : 1,
                          "mediaStart" : 2171,
                          "mediaDuration" : 1,
                          "scalar" : 1,
                          "animationTracks" : {

                          }
                        }
,
                    "start" : 2429,
                    "duration" : 1,
                    "mediaStart" : 0,
                    "mediaDuration" : 4658,
                    "scalar" : 1,
                    "metadata" : {
                      "clipSpeedAttribute" : false
                    }
                  },
                  {
                    "id" : 528,
                    "_type" : "UnifiedMedia",
                    "video" : 
                        {
                          "id" : 529,
                          "_type" : "VMFile",
                          "src" : 4,
                          "trackNumber" : 1,
                          "attributes" : {
                            "ident" : "Grabación 26-12-{AA}_008"
                          },
                          "parameters" : {
                            "translation0" : 880.0,
                            "translation1" : -480.0,
                            "scale0" : 0.25,
                            "scale1" : 0.25,
                            "sourceCrop0" : 0.0,
                            "sourceCrop1" : 0.0,
                            "sourceCrop2" : 0.0,
                            "sourceCrop3" : 0.0,
                            "geometryCrop0" : 0.0,
                            "geometryCrop1" : 0.0,
                            "geometryCrop2" : 0.0,
                            "geometryCrop3" : 0.0
                          },
                          "effects" : [

                          ],
                          "start" : 2430,
                          "duration" : 2,
                          "mediaStart" : 2172,
                          "mediaDuration" : 2,
                          "scalar" : 1,
                          "animationTracks" : {

                          }
                        },
                    "audio" : 
                        {
                          "id" : 530,
                          "_type" : "AMFile",
                          "src" : 4,
                          "trackNumber" : 2,
                          "attributes" : {
                            "ident" : "",
                            "gain" : 1.0,
                            "mixToMono" : false
                          },
                            "channelNumber" : "0,1",
                          "effects" : [

                          ],
                          "start" : 2430,
                          "duration" : 2,
                          "mediaStart" : 2172,
                          "mediaDuration" : 2,
                          "scalar" : 1,
                          "animationTracks" : {

                          }
                        }
,
                    "start" : 2430,
                    "duration" : 2,
                    "mediaStart" : 0,
                    "mediaDuration" : 4658,
                    "scalar" : 1,
                    "metadata" : {
                      "clipSpeedAttribute" : false
                    }
                  },
                  {
                    "id" : 531,
                    "_type" : "UnifiedMedia",
                    "video" : 
                        {
                          "id" : 532,
                          "_type" : "VMFile",
                          "src" : 4,
                          "trackNumber" : 1,
                          "attributes" : {
                            "ident" : "Grabación 26-12-{AA}_008"
                          },
                          "parameters" : {
                            "translation0" : 880.0,
                            "translation1" : -480.0,
                            "scale0" : 0.25,
                            "scale1" : 0.25,
                            "sourceCrop0" : 0.0,
                            "sourceCrop1" : 0.0,
                            "sourceCrop2" : 0.0,
                            "sourceCrop3" : 0.0,
                            "geometryCrop0" : 0.0,
                            "geometryCrop1" : 0.0,
                            "geometryCrop2" : 0.0,
                            "geometryCrop3" : 0.0
                          },
                          "effects" : [

                          ],
                          "start" : 2432,
                          "duration" : 8,
                          "mediaStart" : 2174,
                          "mediaDuration" : 8,
                          "scalar" : 1,
                          "animationTracks" : {

                          }
                        },
                    "audio" : 
                        {
                          "id" : 533,
                          "_type" : "AMFile",
                          "src" : 4,
                          "trackNumber" : 2,
                          "attributes" : {
                            "ident" : "",
                            "gain" : 1.0,
                            "mixToMono" : false
                          },
                            "channelNumber" : "0,1",
                          "effects" : [

                          ],
                          "start" : 2432,
                          "duration" : 8,
                          "mediaStart" : 2174,
                          "mediaDuration" : 8,
                          "scalar" : 1,
                          "animationTracks" : {

                          }
                        }
,
                    "start" : 2432,
                    "duration" : 8,
                    "mediaStart" : 0,
                    "mediaDuration" : 4658,
                    "scalar" : 1,
                    "metadata" : {
                      "clipSpeedAttribute" : false
                    }
                  },
                  {
                    "id" : 534,
                    "_type" : "UnifiedMedia",
                    "video" : 
                        {
                          "id" : 535,
                          "_type" : "VMFile",
                          "src" : 4,
                          "trackNumber" : 1,
                          "attributes" : {
                            "ident" : "Grabación 26-12-{AA}_008"
                          },
                          "parameters" : {
                            "translation0" : 880.0,
                            "translation1" : -480.0,
                            "scale0" : 0.25,
                            "scale1" : 0.25,
                            "sourceCrop0" : 0.0,
                            "sourceCrop1" : 0.0,
                            "sourceCrop2" : 0.0,
                            "sourceCrop3" : 0.0,
                            "geometryCrop0" : 0.0,
                            "geometryCrop1" : 0.0,
                            "geometryCrop2" : 0.0,
                            "geometryCrop3" : 0.0
                          },
                          "effects" : [

                          ],
                          "start" : 2440,
                          "duration" : 5,
                          "mediaStart" : 2182,
                          "mediaDuration" : 5,
                          "scalar" : 1,
                          "animationTracks" : {

                          }
                        },
                    "audio" : 
                        {
                          "id" : 536,
                          "_type" : "AMFile",
                          "src" : 4,
                          "trackNumber" : 2,
                          "attributes" : {
                            "ident" : "",
                            "gain" : 1.0,
                            "mixToMono" : false
                          },
                            "channelNumber" : "0,1",
                          "effects" : [

                          ],
                          "start" : 2440,
                          "duration" : 5,
                          "mediaStart" : 2182,
                          "mediaDuration" : 5,
                          "scalar" : 1,
                          "animationTracks" : {

                          }
                        }
,
                    "start" : 2440,
                    "duration" : 5,
                    "mediaStart" : 0,
                    "mediaDuration" : 4658,
                    "scalar" : 1,
                    "metadata" : {
                      "clipSpeedAttribute" : false
                    }
                  },
                  {
                    "id" : 537,
                    "_type" : "UnifiedMedia",
                    "video" : 
                        {
                          "id" : 538,
                          "_type" : "VMFile",
                          "src" : 4,
                          "trackNumber" : 1,
                          "attributes" : {
                            "ident" : "Grabación 26-12-{AA}_008"
                          },
                          "parameters" : {
                            "translation0" : 880.0,
                            "translation1" : -480.0,
                            "scale0" : 0.25,
                            "scale1" : 0.25,
                            "sourceCrop0" : 0.0,
                            "sourceCrop1" : 0.0,
                            "sourceCrop2" : 0.0,
                            "sourceCrop3" : 0.0,
                            "geometryCrop0" : 0.0,
                            "geometryCrop1" : 0.0,
                            "geometryCrop2" : 0.0,
                            "geometryCrop3" : 0.0
                          },
                          "effects" : [

                          ],
                          "start" : 2445,
                          "duration" : 6,
                          "mediaStart" : 2187,
                          "mediaDuration" : 6,
                          "scalar" : 1,
                          "animationTracks" : {

                          }
                        },
                    "audio" : 
                        {
                          "id" : 539,
                          "_type" : "AMFile",
                          "src" : 4,
                          "trackNumber" : 2,
                          "attributes" : {
                            "ident" : "",
                            "gain" : 1.0,
                            "mixToMono" : false
                          },
                            "channelNumber" : "0,1",
                          "effects" : [

                          ],
                          "start" : 2445,
                          "duration" : 6,
                          "mediaStart" : 2187,
                          "mediaDuration" : 6,
                          "scalar" : 1,
                          "animationTracks" : {

                          }
                        }
,
                    "start" : 2445,
                    "duration" : 6,
                    "mediaStart" : 0,
                    "mediaDuration" : 4658,
                    "scalar" : 1,
                    "metadata" : {
                      "clipSpeedAttribute" : false
                    }
                  },
                  {
                    "id" : 540,
                    "_type" : "UnifiedMedia",
                    "video" : 
                        {
                          "id" : 541,
                          "_type" : "VMFile",
                          "src" : 4,
                          "trackNumber" : 1,
                          "attributes" : {
                            "ident" : "Grabación 26-12-{AA}_008"
                          },
                          "parameters" : {
                            "translation0" : 880.0,
                            "translation1" : -480.0,
                            "scale0" : 0.25,
                            "scale1" : 0.25,
                            "sourceCrop0" : 0.0,
                            "sourceCrop1" : 0.0,
                            "sourceCrop2" : 0.0,
                            "sourceCrop3" : 0.0,
                            "geometryCrop0" : 0.0,
                            "geometryCrop1" : 0.0,
                            "geometryCrop2" : 0.0,
                            "geometryCrop3" : 0.0
                          },
                          "effects" : [

                          ],
                          "start" : 2451,
                          "duration" : 28,
                          "mediaStart" : 2222,
                          "mediaDuration" : 28,
                          "scalar" : 1,
                          "animationTracks" : {

                          }
                        },
                    "audio" : 
                        {
                          "id" : 542,
                          "_type" : "AMFile",
                          "src" : 4,
                          "trackNumber" : 2,
                          "attributes" : {
                            "ident" : "",
                            "gain" : 1.0,
                            "mixToMono" : false
                          },
                            "channelNumber" : "0,1",
                          "effects" : [

                          ],
                          "start" : 2451,
                          "duration" : 28,
                          "mediaStart" : 2222,
                          "mediaDuration" : 28,
                          "scalar" : 1,
                          "animationTracks" : {

                          }
                        }
,
                    "start" : 2451,
                    "duration" : 28,
                    "mediaStart" : 0,
                    "mediaDuration" : 4658,
                    "scalar" : 1,
                    "metadata" : {
                      "clipSpeedAttribute" : false
                    }
                  },
                  {
                    "id" : 543,
                    "_type" : "UnifiedMedia",
                    "video" : 
                        {
                          "id" : 544,
                          "_type" : "VMFile",
                          "src" : 4,
                          "trackNumber" : 1,
                          "attributes" : {
                            "ident" : "Grabación 26-12-{AA}_008"
                          },
                          "parameters" : {
                            "translation0" : 880.0,
                            "translation1" : -480.0,
                            "scale0" : 0.25,
                            "scale1" : 0.25,
                            "sourceCrop0" : 0.0,
                            "sourceCrop1" : 0.0,
                            "sourceCrop2" : 0.0,
                            "sourceCrop3" : 0.0,
                            "geometryCrop0" : 0.0,
                            "geometryCrop1" : 0.0,
                            "geometryCrop2" : 0.0,
                            "geometryCrop3" : 0.0
                          },
                          "effects" : [

                          ],
                          "start" : 2479,
                          "duration" : 58,
                          "mediaStart" : 2253,
                          "mediaDuration" : 58,
                          "scalar" : 1,
                          "animationTracks" : {

                          }
                        },
                    "audio" : 
                        {
                          "id" : 545,
                          "_type" : "AMFile",
                          "src" : 4,
                          "trackNumber" : 2,
                          "attributes" : {
                            "ident" : "",
                            "gain" : 1.0,
                            "mixToMono" : false
                          },
                            "channelNumber" : "0,1",
                          "effects" : [

                          ],
                          "start" : 2479,
                          "duration" : 58,
                          "mediaStart" : 2253,
                          "mediaDuration" : 58,
                          "scalar" : 1,
                          "animationTracks" : {

                          }
                        }
,
                    "start" : 2479,
                    "duration" : 58,
                    "mediaStart" : 0,
                    "mediaDuration" : 4658,
                    "scalar" : 1,
                    "metadata" : {
                      "clipSpeedAttribute" : false
                    }
                  },
                  {
                    "id" : 546,
                    "_type" : "UnifiedMedia",
                    "video" : 
                        {
                          "id" : 547,
                          "_type" : "VMFile",
                          "src" : 4,
                          "trackNumber" : 1,
                          "attributes" : {
                            "ident" : "Grabación 26-12-{AA}_008"
                          },
                          "parameters" : {
                            "translation0" : 880.0,
                            "translation1" : -480.0,
                            "scale0" : 0.25,
                            "scale1" : 0.25,
                            "sourceCrop0" : 0.0,
                            "sourceCrop1" : 0.0,
                            "sourceCrop2" : 0.0,
                            "sourceCrop3" : 0.0,
                            "geometryCrop0" : 0.0,
                            "geometryCrop1" : 0.0,
                            "geometryCrop2" : 0.0,
                            "geometryCrop3" : 0.0
                          },
                          "effects" : [

                          ],
                          "start" : 2537,
                          "duration" : 32,
                          "mediaStart" : 2330,
                          "mediaDuration" : 32,
                          "scalar" : 1,
                          "animationTracks" : {

                          }
                        },
                    "audio" : 
                        {
                          "id" : 548,
                          "_type" : "AMFile",
                          "src" : 4,
                          "trackNumber" : 2,
                          "attributes" : {
                            "ident" : "",
                            "gain" : 1.0,
                            "mixToMono" : false
                          },
                            "channelNumber" : "0,1",
                          "effects" : [

                          ],
                          "start" : 2537,
                          "duration" : 32,
                          "mediaStart" : 2330,
                          "mediaDuration" : 32,
                          "scalar" : 1,
                          "animationTracks" : {

                          }
                        }
,
                    "start" : 2537,
                    "duration" : 32,
                    "mediaStart" : 0,
                    "mediaDuration" : 4658,
                    "scalar" : 1,
                    "metadata" : {
                      "clipSpeedAttribute" : false
                    }
                  },
                  {
                    "id" : 549,
                    "_type" : "UnifiedMedia",
                    "video" : 
                        {
                          "id" : 550,
                          "_type" : "VMFile",
                          "src" : 4,
                          "trackNumber" : 1,
                          "attributes" : {
                            "ident" : "Grabación 26-12-{AA}_008"
                          },
                          "parameters" : {
                            "translation0" : 880.0,
                            "translation1" : -480.0,
                            "scale0" : 0.25,
                            "scale1" : 0.25,
                            "sourceCrop0" : 0.0,
                            "sourceCrop1" : 0.0,
                            "sourceCrop2" : 0.0,
                            "sourceCrop3" : 0.0,
                            "geometryCrop0" : 0.0,
                            "geometryCrop1" : 0.0,
                            "geometryCrop2" : 0.0,
                            "geometryCrop3" : 0.0
                          },
                          "effects" : [

                          ],
                          "start" : 2569,
                          "duration" : 31,
                          "mediaStart" : 2483,
                          "mediaDuration" : 31,
                          "scalar" : 1,
                          "animationTracks" : {

                          }
                        },
                    "audio" : 
                        {
                          "id" : 551,
                          "_type" : "AMFile",
                          "src" : 4,
                          "trackNumber" : 2,
                          "attributes" : {
                            "ident" : "",
                            "gain" : 1.0,
                            "mixToMono" : false
                          },
                            "channelNumber" : "0,1",
                          "effects" : [

                          ],
                          "start" : 2569,
                          "duration" : 31,
                          "mediaStart" : 2483,
                          "mediaDuration" : 31,
                          "scalar" : 1,
                          "animationTracks" : {

                          }
                        }
,
                    "start" : 2569,
                    "duration" : 31,
                    "mediaStart" : 0,
                    "mediaDuration" : 4658,
                    "scalar" : 1,
                    "metadata" : {
                      "clipSpeedAttribute" : false
                    }
                  },
                  {
                    "id" : 552,
                    "_type" : "UnifiedMedia",
                    "video" : 
                        {
                          "id" : 553,
                          "_type" : "VMFile",
                          "src" : 4,
                          "trackNumber" : 1,
                          "attributes" : {
                            "ident" : "Grabación 26-12-{AA}_008"
                          },
                          "parameters" : {
                            "translation0" : 880.0,
                            "translation1" : -480.0,
                            "scale0" : 0.25,
                            "scale1" : 0.25,
                            "sourceCrop0" : 0.0,
                            "sourceCrop1" : 0.0,
                            "sourceCrop2" : 0.0,
                            "sourceCrop3" : 0.0,
                            "geometryCrop0" : 0.0,
                            "geometryCrop1" : 0.0,
                            "geometryCrop2" : 0.0,
                            "geometryCrop3" : 0.0
                          },
                          "effects" : [

                          ],
                          "start" : 2600,
                          "duration" : 57,
                          "mediaStart" : 2564,
                          "mediaDuration" : 57,
                          "scalar" : 1,
                          "animationTracks" : {

                          }
                        },
                    "audio" : 
                        {
                          "id" : 554,
                          "_type" : "AMFile",
                          "src" : 4,
                          "trackNumber" : 2,
                          "attributes" : {
                            "ident" : "",
                            "gain" : 1.0,
                            "mixToMono" : false
                          },
                            "channelNumber" : "0,1",
                          "effects" : [

                          ],
                          "start" : 2600,
                          "duration" : 57,
                          "mediaStart" : 2564,
                          "mediaDuration" : 57,
                          "scalar" : 1,
                          "animationTracks" : {

                          }
                        }
,
                    "start" : 2600,
                    "duration" : 57,
                    "mediaStart" : 0,
                    "mediaDuration" : 4658,
                    "scalar" : 1,
                    "metadata" : {
                      "clipSpeedAttribute" : false
                    }
                  },
                  {
                    "id" : 555,
                    "_type" : "UnifiedMedia",
                    "video" : 
                        {
                          "id" : 556,
                          "_type" : "VMFile",
                          "src" : 4,
                          "trackNumber" : 1,
                          "attributes" : {
                            "ident" : "Grabación 26-12-{AA}_008"
                          },
                          "parameters" : {
                            "translation0" : 880.0,
                            "translation1" : -480.0,
                            "scale0" : 0.25,
                            "scale1" : 0.25,
                            "sourceCrop0" : 0.0,
                            "sourceCrop1" : 0.0,
                            "sourceCrop2" : 0.0,
                            "sourceCrop3" : 0.0,
                            "geometryCrop0" : 0.0,
                            "geometryCrop1" : 0.0,
                            "geometryCrop2" : 0.0,
                            "geometryCrop3" : 0.0
                          },
                          "effects" : [

                          ],
                          "start" : 2657,
                          "duration" : 8,
                          "mediaStart" : 2636,
                          "mediaDuration" : 8,
                          "scalar" : 1,
                          "animationTracks" : {

                          }
                        },
                    "audio" : 
                        {
                          "id" : 557,
                          "_type" : "AMFile",
                          "src" : 4,
                          "trackNumber" : 2,
                          "attributes" : {
                            "ident" : "",
                            "gain" : 1.0,
                            "mixToMono" : false
                          },
                            "channelNumber" : "0,1",
                          "effects" : [

                          ],
                          "start" : 2657,
                          "duration" : 8,
                          "mediaStart" : 2636,
                          "mediaDuration" : 8,
                          "scalar" : 1,
                          "animationTracks" : {

                          }
                        }
,
                    "start" : 2657,
                    "duration" : 8,
                    "mediaStart" : 0,
                    "mediaDuration" : 4658,
                    "scalar" : 1,
                    "metadata" : {
                      "clipSpeedAttribute" : false
                    }
                  },
                  {
                    "id" : 558,
                    "_type" : "UnifiedMedia",
                    "video" : 
                        {
                          "id" : 559,
                          "_type" : "VMFile",
                          "src" : 4,
                          "trackNumber" : 1,
                          "attributes" : {
                            "ident" : "Grabación 26-12-{AA}_008"
                          },
                          "parameters" : {
                            "translation0" : 880.0,
                            "translation1" : -480.0,
                            "scale0" : 0.25,
                            "scale1" : 0.25,
                            "sourceCrop0" : 0.0,
                            "sourceCrop1" : 0.0,
                            "sourceCrop2" : 0.0,
                            "sourceCrop3" : 0.0,
                            "geometryCrop0" : 0.0,
                            "geometryCrop1" : 0.0,
                            "geometryCrop2" : 0.0,
                            "geometryCrop3" : 0.0
                          },
                          "effects" : [

                          ],
                          "start" : 2665,
                          "duration" : 43,
                          "mediaStart" : 2649,
                          "mediaDuration" : 43,
                          "scalar" : 1,
                          "animationTracks" : {

                          }
                        },
                    "audio" : 
                        {
                          "id" : 560,
                          "_type" : "AMFile",
                          "src" : 4,
                          "trackNumber" : 2,
                          "attributes" : {
                            "ident" : "",
                            "gain" : 1.0,
                            "mixToMono" : false
                          },
                            "channelNumber" : "0,1",
                          "effects" : [

                          ],
                          "start" : 2665,
                          "duration" : 43,
                          "mediaStart" : 2649,
                          "mediaDuration" : 43,
                          "scalar" : 1,
                          "animationTracks" : {

                          }
                        }
,
                    "start" : 2665,
                    "duration" : 43,
                    "mediaStart" : 0,
                    "mediaDuration" : 4658,
                    "scalar" : 1,
                    "metadata" : {
                      "clipSpeedAttribute" : false
                    }
                  },
                  {
                    "id" : 561,
                    "_type" : "UnifiedMedia",
                    "video" : 
                        {
                          "id" : 562,
                          "_type" : "VMFile",
                          "src" : 4,
                          "trackNumber" : 1,
                          "attributes" : {
                            "ident" : "Grabación 26-12-{AA}_008"
                          },
                          "parameters" : {
                            "translation0" : 880.0,
                            "translation1" : -480.0,
                            "scale0" : 0.25,
                            "scale1" : 0.25,
                            "sourceCrop0" : 0.0,
                            "sourceCrop1" : 0.0,
                            "sourceCrop2" : 0.0,
                            "sourceCrop3" : 0.0,
                            "geometryCrop0" : 0.0,
                            "geometryCrop1" : 0.0,
                            "geometryCrop2" : 0.0,
                            "geometryCrop3" : 0.0
                          },
                          "effects" : [

                          ],
                          "start" : 2708,
                          "duration" : 63,
                          "mediaStart" : 2705,
                          "mediaDuration" : 63,
                          "scalar" : 1,
                          "animationTracks" : {

                          }
                        },
                    "audio" : 
                        {
                          "id" : 563,
                          "_type" : "AMFile",
                          "src" : 4,
                          "trackNumber" : 2,
                          "attributes" : {
                            "ident" : "",
                            "gain" : 1.0,
                            "mixToMono" : false
                          },
                            "channelNumber" : "0,1",
                          "effects" : [

                          ],
                          "start" : 2708,
                          "duration" : 63,
                          "mediaStart" : 2705,
                          "mediaDuration" : 63,
                          "scalar" : 1,
                          "animationTracks" : {

                          }
                        }
,
                    "start" : 2708,
                    "duration" : 63,
                    "mediaStart" : 0,
                    "mediaDuration" : 4658,
                    "scalar" : 1,
                    "metadata" : {
                      "clipSpeedAttribute" : false
                    }
                  },
                  {
                    "id" : 564,
                    "_type" : "UnifiedMedia",
                    "video" : 
                        {
                          "id" : 565,
                          "_type" : "VMFile",
                          "src" : 4,
                          "trackNumber" : 1,
                          "attributes" : {
                            "ident" : "Grabación 26-12-{AA}_008"
                          },
                          "parameters" : {
                            "translation0" : 880.0,
                            "translation1" : -480.0,
                            "scale0" : 0.25,
                            "scale1" : 0.25,
                            "sourceCrop0" : 0.0,
                            "sourceCrop1" : 0.0,
                            "sourceCrop2" : 0.0,
                            "sourceCrop3" : 0.0,
                            "geometryCrop0" : 0.0,
                            "geometryCrop1" : 0.0,
                            "geometryCrop2" : 0.0,
                            "geometryCrop3" : 0.0
                          },
                          "effects" : [

                          ],
                          "start" : 2771,
                          "duration" : 58,
                          "mediaStart" : 2778,
                          "mediaDuration" : 58,
                          "scalar" : 1,
                          "animationTracks" : {

                          }
                        },
                    "audio" : 
                        {
                          "id" : 566,
                          "_type" : "AMFile",
                          "src" : 4,
                          "trackNumber" : 2,
                          "attributes" : {
                            "ident" : "",
                            "gain" : 1.0,
                            "mixToMono" : false
                          },
                            "channelNumber" : "0,1",
                          "effects" : [

                          ],
                          "start" : 2771,
                          "duration" : 58,
                          "mediaStart" : 2778,
                          "mediaDuration" : 58,
                          "scalar" : 1,
                          "animationTracks" : {

                          }
                        }
,
                    "start" : 2771,
                    "duration" : 58,
                    "mediaStart" : 0,
                    "mediaDuration" : 4658,
                    "scalar" : 1,
                    "metadata" : {
                      "clipSpeedAttribute" : false
                    }
                  },
                  {
                    "id" : 567,
                    "_type" : "UnifiedMedia",
                    "video" : 
                        {
                          "id" : 568,
                          "_type" : "VMFile",
                          "src" : 4,
                          "trackNumber" : 1,
                          "attributes" : {
                            "ident" : "Grabación 26-12-{AA}_008"
                          },
                          "parameters" : {
                            "translation0" : 880.0,
                            "translation1" : -480.0,
                            "scale0" : 0.25,
                            "scale1" : 0.25,
                            "sourceCrop0" : 0.0,
                            "sourceCrop1" : 0.0,
                            "sourceCrop2" : 0.0,
                            "sourceCrop3" : 0.0,
                            "geometryCrop0" : 0.0,
                            "geometryCrop1" : 0.0,
                            "geometryCrop2" : 0.0,
                            "geometryCrop3" : 0.0
                          },
                          "effects" : [

                          ],
                          "start" : 2829,
                          "duration" : 16,
                          "mediaStart" : 2842,
                          "mediaDuration" : 16,
                          "scalar" : 1,
                          "animationTracks" : {

                          }
                        },
                    "audio" : 
                        {
                          "id" : 569,
                          "_type" : "AMFile",
                          "src" : 4,
                          "trackNumber" : 2,
                          "attributes" : {
                            "ident" : "",
                            "gain" : 1.0,
                            "mixToMono" : false
                          },
                            "channelNumber" : "0,1",
                          "effects" : [

                          ],
                          "start" : 2829,
                          "duration" : 16,
                          "mediaStart" : 2842,
                          "mediaDuration" : 16,
                          "scalar" : 1,
                          "animationTracks" : {

                          }
                        }
,
                    "start" : 2829,
                    "duration" : 16,
                    "mediaStart" : 0,
                    "mediaDuration" : 4658,
                    "scalar" : 1,
                    "metadata" : {
                      "clipSpeedAttribute" : false
                    }
                  },
                  {
                    "id" : 570,
                    "_type" : "UnifiedMedia",
                    "video" : 
                        {
                          "id" : 571,
                          "_type" : "VMFile",
                          "src" : 4,
                          "trackNumber" : 1,
                          "attributes" : {
                            "ident" : "Grabación 26-12-{AA}_008"
                          },
                          "parameters" : {
                            "translation0" : 880.0,
                            "translation1" : -480.0,
                            "scale0" : 0.25,
                            "scale1" : 0.25,
                            "sourceCrop0" : 0.0,
                            "sourceCrop1" : 0.0,
                            "sourceCrop2" : 0.0,
                            "sourceCrop3" : 0.0,
                            "geometryCrop0" : 0.0,
                            "geometryCrop1" : 0.0,
                            "geometryCrop2" : 0.0,
                            "geometryCrop3" : 0.0
                          },
                          "effects" : [

                          ],
                          "start" : 2845,
                          "duration" : 76,
                          "mediaStart" : 2887,
                          "mediaDuration" : 76,
                          "scalar" : 1,
                          "animationTracks" : {

                          }
                        },
                    "audio" : 
                        {
                          "id" : 572,
                          "_type" : "AMFile",
                          "src" : 4,
                          "trackNumber" : 2,
                          "attributes" : {
                            "ident" : "",
                            "gain" : 1.0,
                            "mixToMono" : false
                          },
                            "channelNumber" : "0,1",
                          "effects" : [

                          ],
                          "start" : 2845,
                          "duration" : 76,
                          "mediaStart" : 2887,
                          "mediaDuration" : 76,
                          "scalar" : 1,
                          "animationTracks" : {

                          }
                        }
,
                    "start" : 2845,
                    "duration" : 76,
                    "mediaStart" : 0,
                    "mediaDuration" : 4658,
                    "scalar" : 1,
                    "metadata" : {
                      "clipSpeedAttribute" : false
                    }
                  },
                  {
                    "id" : 573,
                    "_type" : "UnifiedMedia",
                    "video" : 
                        {
                          "id" : 574,
                          "_type" : "VMFile",
                          "src" : 4,
                          "trackNumber" : 1,
                          "attributes" : {
                            "ident" : "Grabación 26-12-{AA}_008"
                          },
                          "parameters" : {
                            "translation0" : 880.0,
                            "translation1" : -480.0,
                            "scale0" : 0.25,
                            "scale1" : 0.25,
                            "sourceCrop0" : 0.0,
                            "sourceCrop1" : 0.0,
                            "sourceCrop2" : 0.0,
                            "sourceCrop3" : 0.0,
                            "geometryCrop0" : 0.0,
                            "geometryCrop1" : 0.0,
                            "geometryCrop2" : 0.0,
                            "geometryCrop3" : 0.0
                          },
                          "effects" : [

                          ],
                          "start" : 2921,
                          "duration" : 98,
                          "mediaStart" : 2984,
                          "mediaDuration" : 98,
                          "scalar" : 1,
                          "animationTracks" : {

                          }
                        },
                    "audio" : 
                        {
                          "id" : 575,
                          "_type" : "AMFile",
                          "src" : 4,
                          "trackNumber" : 2,
                          "attributes" : {
                            "ident" : "",
                            "gain" : 1.0,
                            "mixToMono" : false
                          },
                            "channelNumber" : "0,1",
                          "effects" : [

                          ],
                          "start" : 2921,
                          "duration" : 98,
                          "mediaStart" : 2984,
                          "mediaDuration" : 98,
                          "scalar" : 1,
                          "animationTracks" : {

                          }
                        }
,
                    "start" : 2921,
                    "duration" : 98,
                    "mediaStart" : 0,
                    "mediaDuration" : 4658,
                    "scalar" : 1,
                    "metadata" : {
                      "clipSpeedAttribute" : false
                    }
                  },
                  {
                    "id" : 576,
                    "_type" : "UnifiedMedia",
                    "video" : 
                        {
                          "id" : 577,
                          "_type" : "VMFile",
                          "src" : 4,
                          "trackNumber" : 1,
                          "attributes" : {
                            "ident" : "Grabación 26-12-{AA}_008"
                          },
                          "parameters" : {
                            "translation0" : 880.0,
                            "translation1" : -480.0,
                            "scale0" : 0.25,
                            "scale1" : 0.25,
                            "sourceCrop0" : 0.0,
                            "sourceCrop1" : 0.0,
                            "sourceCrop2" : 0.0,
                            "sourceCrop3" : 0.0,
                            "geometryCrop0" : 0.0,
                            "geometryCrop1" : 0.0,
                            "geometryCrop2" : 0.0,
                            "geometryCrop3" : 0.0
                          },
                          "effects" : [

                          ],
                          "start" : 3019,
                          "duration" : 11,
                          "mediaStart" : 3086,
                          "mediaDuration" : 11,
                          "scalar" : 1,
                          "animationTracks" : {

                          }
                        },
                    "audio" : 
                        {
                          "id" : 578,
                          "_type" : "AMFile",
                          "src" : 4,
                          "trackNumber" : 2,
                          "attributes" : {
                            "ident" : "",
                            "gain" : 1.0,
                            "mixToMono" : false
                          },
                            "channelNumber" : "0,1",
                          "effects" : [

                          ],
                          "start" : 3019,
                          "duration" : 11,
                          "mediaStart" : 3086,
                          "mediaDuration" : 11,
                          "scalar" : 1,
                          "animationTracks" : {

                          }
                        }
,
                    "start" : 3019,
                    "duration" : 11,
                    "mediaStart" : 0,
                    "mediaDuration" : 4658,
                    "scalar" : 1,
                    "metadata" : {
                      "clipSpeedAttribute" : false
                    }
                  },
                  {
                    "id" : 579,
                    "_type" : "UnifiedMedia",
                    "video" : 
                        {
                          "id" : 580,
                          "_type" : "VMFile",
                          "src" : 4,
                          "trackNumber" : 1,
                          "attributes" : {
                            "ident" : "Grabación 26-12-{AA}_008"
                          },
                          "parameters" : {
                            "translation0" : 880.0,
                            "translation1" : -480.0,
                            "scale0" : 0.25,
                            "scale1" : 0.25,
                            "sourceCrop0" : 0.0,
                            "sourceCrop1" : 0.0,
                            "sourceCrop2" : 0.0,
                            "sourceCrop3" : 0.0,
                            "geometryCrop0" : 0.0,
                            "geometryCrop1" : 0.0,
                            "geometryCrop2" : 0.0,
                            "geometryCrop3" : 0.0
                          },
                          "effects" : [

                          ],
                          "start" : 3030,
                          "duration" : 156,
                          "mediaStart" : 3157,
                          "mediaDuration" : 156,
                          "scalar" : 1,
                          "animationTracks" : {

                          }
                        },
                    "audio" : 
                        {
                          "id" : 581,
                          "_type" : "AMFile",
                          "src" : 4,
                          "trackNumber" : 2,
                          "attributes" : {
                            "ident" : "",
                            "gain" : 1.0,
                            "mixToMono" : false
                          },
                            "channelNumber" : "0,1",
                          "effects" : [

                          ],
                          "start" : 3030,
                          "duration" : 156,
                          "mediaStart" : 3157,
                          "mediaDuration" : 156,
                          "scalar" : 1,
                          "animationTracks" : {

                          }
                        }
,
                    "start" : 3030,
                    "duration" : 156,
                    "mediaStart" : 0,
                    "mediaDuration" : 4658,
                    "scalar" : 1,
                    "metadata" : {
                      "clipSpeedAttribute" : false
                    }
                  },
                  {
                    "id" : 582,
                    "_type" : "UnifiedMedia",
                    "video" : 
                        {
                          "id" : 583,
                          "_type" : "VMFile",
                          "src" : 4,
                          "trackNumber" : 1,
                          "attributes" : {
                            "ident" : "Grabación 26-12-{AA}_008"
                          },
                          "parameters" : {
                            "translation0" : 880.0,
                            "translation1" : -480.0,
                            "scale0" : 0.25,
                            "scale1" : 0.25,
                            "sourceCrop0" : 0.0,
                            "sourceCrop1" : 0.0,
                            "sourceCrop2" : 0.0,
                            "sourceCrop3" : 0.0,
                            "geometryCrop0" : 0.0,
                            "geometryCrop1" : 0.0,
                            "geometryCrop2" : 0.0,
                            "geometryCrop3" : 0.0
                          },
                          "effects" : [

                          ],
                          "start" : 3186,
                          "duration" : 148,
                          "mediaStart" : 3431,
                          "mediaDuration" : 148,
                          "scalar" : 1,
                          "animationTracks" : {

                          }
                        },
                    "audio" : 
                        {
                          "id" : 584,
                          "_type" : "AMFile",
                          "src" : 4,
                          "trackNumber" : 2,
                          "attributes" : {
                            "ident" : "",
                            "gain" : 1.0,
                            "mixToMono" : false
                          },
                            "channelNumber" : "0,1",
                          "effects" : [

                          ],
                          "start" : 3186,
                          "duration" : 148,
                          "mediaStart" : 3431,
                          "mediaDuration" : 148,
                          "scalar" : 1,
                          "animationTracks" : {

                          }
                        }
,
                    "start" : 3186,
                    "duration" : 148,
                    "mediaStart" : 0,
                    "mediaDuration" : 4658,
                    "scalar" : 1,
                    "metadata" : {
                      "clipSpeedAttribute" : false
                    }
                  },
                  {
                    "id" : 585,
                    "_type" : "UnifiedMedia",
                    "video" : 
                        {
                          "id" : 586,
                          "_type" : "VMFile",
                          "src" : 4,
                          "trackNumber" : 1,
                          "attributes" : {
                            "ident" : "Grabación 26-12-{AA}_008"
                          },
                          "parameters" : {
                            "translation0" : 880.0,
                            "translation1" : -480.0,
                            "scale0" : 0.25,
                            "scale1" : 0.25,
                            "sourceCrop0" : 0.0,
                            "sourceCrop1" : 0.0,
                            "sourceCrop2" : 0.0,
                            "sourceCrop3" : 0.0,
                            "geometryCrop0" : 0.0,
                            "geometryCrop1" : 0.0,
                            "geometryCrop2" : 0.0,
                            "geometryCrop3" : 0.0
                          },
                          "effects" : [

                          ],
                          "start" : 3334,
                          "duration" : 42,
                          "mediaStart" : 3584,
                          "mediaDuration" : 42,
                          "scalar" : 1,
                          "animationTracks" : {

                          }
                        },
                    "audio" : 
                        {
                          "id" : 587,
                          "_type" : "AMFile",
                          "src" : 4,
                          "trackNumber" : 2,
                          "attributes" : {
                            "ident" : "",
                            "gain" : 1.0,
                            "mixToMono" : false
                          },
                            "channelNumber" : "0,1",
                          "effects" : [

                          ],
                          "start" : 3334,
                          "duration" : 42,
                          "mediaStart" : 3584,
                          "mediaDuration" : 42,
                          "scalar" : 1,
                          "animationTracks" : {

                          }
                        }
,
                    "start" : 3334,
                    "duration" : 42,
                    "mediaStart" : 0,
                    "mediaDuration" : 4658,
                    "scalar" : 1,
                    "metadata" : {
                      "clipSpeedAttribute" : false
                    }
                  },
                  {
                    "id" : 588,
                    "_type" : "UnifiedMedia",
                    "video" : 
                        {
                          "id" : 589,
                          "_type" : "VMFile",
                          "src" : 6,
                          "trackNumber" : 1,
                          "attributes" : {
                            "ident" : "Grabación 26-12-{AA}_018"
                          },
                          "parameters" : {
                            "translation0" : 800.0,
                            "translation1" : -450.0,
                            "scale0" : 0.25,
                            "scale1" : 0.25,
                            "sourceCrop0" : 0.0,
                            "sourceCrop1" : 0.0,
                            "sourceCrop2" : 0.0,
                            "sourceCrop3" : 0.0,
                            "geometryCrop0" : 0.0,
                            "geometryCrop1" : 0.0,
                            "geometryCrop2" : 0.0,
                            "geometryCrop3" : 0.0
                          },
                          "effects" : [

                          ],
                          "start" : 4044,
                          "duration" : 168,
                          "mediaStart" : 749,
                          "mediaDuration" : 168,
                          "scalar" : 1,
                          "animationTracks" : {

                          }
                        },
                    "audio" : 
                        {
                          "id" : 590,
                          "_type" : "AMFile",
                          "src" : 6,
                          "trackNumber" : 2,
                          "attributes" : {
                            "ident" : "",
                            "gain" : 1.0,
                            "mixToMono" : false
                          },
                            "channelNumber" : "0,1",
                          "effects" : [

                          ],
                          "start" : 4044,
                          "duration" : 168,
                          "mediaStart" : 749,
                          "mediaDuration" : 168,
                          "scalar" : 1,
                          "animationTracks" : {

                          }
                        }
,
                    "start" : 4044,
                    "duration" : 168,
                    "mediaStart" : 0,
                    "mediaDuration" : 4875,
                    "scalar" : 1,
                    "metadata" : {
                      "clipSpeedAttribute" : false
                    }
                  },
                  {
                    "id" : 591,
                    "_type" : "UnifiedMedia",
                    "video" : 
                        {
                          "id" : 592,
                          "_type" : "VMFile",
                          "src" : 6,
                          "trackNumber" : 1,
                          "attributes" : {
                            "ident" : "Grabación 26-12-{AA}_018"
                          },
                          "parameters" : {
                            "translation0" : 800.0,
                            "translation1" : -450.0,
                            "scale0" : 0.25,
                            "scale1" : 0.25,
                            "sourceCrop0" : 0.0,
                            "sourceCrop1" : 0.0,
                            "sourceCrop2" : 0.0,
                            "sourceCrop3" : 0.0,
                            "geometryCrop0" : 0.0,
                            "geometryCrop1" : 0.0,
                            "geometryCrop2" : 0.0,
                            "geometryCrop3" : 0.0
                          },
                          "effects" : [

                          ],
                          "start" : 4212,
                          "duration" : 149,
                          "mediaStart" : 933,
                          "mediaDuration" : 149,
                          "scalar" : 1,
                          "animationTracks" : {

                          }
                        },
                    "audio" : 
                        {
                          "id" : 593,
                          "_type" : "AMFile",
                          "src" : 6,
                          "trackNumber" : 2,
                          "attributes" : {
                            "ident" : "",
                            "gain" : 1.0,
                            "mixToMono" : false
                          },
                            "channelNumber" : "0,1",
                          "effects" : [

                          ],
                          "start" : 4212,
                          "duration" : 149,
                          "mediaStart" : 933,
                          "mediaDuration" : 149,
                          "scalar" : 1,
                          "animationTracks" : {

                          }
                        }
,
                    "start" : 4212,
                    "duration" : 149,
                    "mediaStart" : 0,
                    "mediaDuration" : 4875,
                    "scalar" : 1,
                    "metadata" : {
                      "clipSpeedAttribute" : false
                    }
                  },
                  {
                    "id" : 594,
                    "_type" : "UnifiedMedia",
                    "video" : 
                        {
                          "id" : 595,
                          "_type" : "VMFile",
                          "src" : 6,
                          "trackNumber" : 1,
                          "attributes" : {
                            "ident" : "Grabación 26-12-{AA}_018"
                          },
                          "parameters" : {
                            "translation0" : 800.0,
                            "translation1" : -450.0,
                            "scale0" : 0.25,
                            "scale1" : 0.25,
                            "sourceCrop0" : 0.0,
                            "sourceCrop1" : 0.0,
                            "sourceCrop2" : 0.0,
                            "sourceCrop3" : 0.0,
                            "geometryCrop0" : 0.0,
                            "geometryCrop1" : 0.0,
                            "geometryCrop2" : 0.0,
                            "geometryCrop3" : 0.0
                          },
                          "effects" : [

                          ],
                          "start" : 4361,
                          "duration" : 38,
                          "mediaStart" : 1100,
                          "mediaDuration" : 38,
                          "scalar" : 1,
                          "animationTracks" : {

                          }
                        },
                    "audio" : 
                        {
                          "id" : 596,
                          "_type" : "AMFile",
                          "src" : 6,
                          "trackNumber" : 2,
                          "attributes" : {
                            "ident" : "",
                            "gain" : 1.0,
                            "mixToMono" : false
                          },
                            "channelNumber" : "0,1",
                          "effects" : [

                          ],
                          "start" : 4361,
                          "duration" : 38,
                          "mediaStart" : 1100,
                          "mediaDuration" : 38,
                          "scalar" : 1,
                          "animationTracks" : {

                          }
                        }
,
                    "start" : 4361,
                    "duration" : 38,
                    "mediaStart" : 0,
                    "mediaDuration" : 4875,
                    "scalar" : 1,
                    "metadata" : {
                      "clipSpeedAttribute" : false
                    }
                  },
                  {
                    "id" : 597,
                    "_type" : "UnifiedMedia",
                    "video" : 
                        {
                          "id" : 598,
                          "_type" : "VMFile",
                          "src" : 6,
                          "trackNumber" : 1,
                          "attributes" : {
                            "ident" : "Grabación 26-12-{AA}_018"
                          },
                          "parameters" : {
                            "translation0" : 800.0,
                            "translation1" : -450.0,
                            "scale0" : 0.25,
                            "scale1" : 0.25,
                            "sourceCrop0" : 0.0,
                            "sourceCrop1" : 0.0,
                            "sourceCrop2" : 0.0,
                            "sourceCrop3" : 0.0,
                            "geometryCrop0" : 0.0,
                            "geometryCrop1" : 0.0,
                            "geometryCrop2" : 0.0,
                            "geometryCrop3" : 0.0
                          },
                          "effects" : [

                          ],
                          "start" : 4399,
                          "duration" : 87,
                          "mediaStart" : 1157,
                          "mediaDuration" : 87,
                          "scalar" : 1,
                          "animationTracks" : {

                          }
                        },
                    "audio" : 
                        {
                          "id" : 599,
                          "_type" : "AMFile",
                          "src" : 6,
                          "trackNumber" : 2,
                          "attributes" : {
                            "ident" : "",
                            "gain" : 1.0,
                            "mixToMono" : false
                          },
                            "channelNumber" : "0,1",
                          "effects" : [

                          ],
                          "start" : 4399,
                          "duration" : 87,
                          "mediaStart" : 1157,
                          "mediaDuration" : 87,
                          "scalar" : 1,
                          "animationTracks" : {

                          }
                        }
,
                    "start" : 4399,
                    "duration" : 87,
                    "mediaStart" : 0,
                    "mediaDuration" : 4875,
                    "scalar" : 1,
                    "metadata" : {
                      "clipSpeedAttribute" : false
                    }
                  },
                  {
                    "id" : 600,
                    "_type" : "UnifiedMedia",
                    "video" : 
                        {
                          "id" : 601,
                          "_type" : "VMFile",
                          "src" : 6,
                          "trackNumber" : 1,
                          "attributes" : {
                            "ident" : "Grabación 26-12-{AA}_018"
                          },
                          "parameters" : {
                            "translation0" : 800.0,
                            "translation1" : -450.0,
                            "scale0" : 0.25,
                            "scale1" : 0.25,
                            "sourceCrop0" : 0.0,
                            "sourceCrop1" : 0.0,
                            "sourceCrop2" : 0.0,
                            "sourceCrop3" : 0.0,
                            "geometryCrop0" : 0.0,
                            "geometryCrop1" : 0.0,
                            "geometryCrop2" : 0.0,
                            "geometryCrop3" : 0.0
                          },
                          "effects" : [

                          ],
                          "start" : 4486,
                          "duration" : 54,
                          "mediaStart" : 1256,
                          "mediaDuration" : 54,
                          "scalar" : 1,
                          "animationTracks" : {

                          }
                        },
                    "audio" : 
                        {
                          "id" : 602,
                          "_type" : "AMFile",
                          "src" : 6,
                          "trackNumber" : 2,
                          "attributes" : {
                            "ident" : "",
                            "gain" : 1.0,
                            "mixToMono" : false
                          },
                            "channelNumber" : "0,1",
                          "effects" : [

                          ],
                          "start" : 4486,
                          "duration" : 54,
                          "mediaStart" : 1256,
                          "mediaDuration" : 54,
                          "scalar" : 1,
                          "animationTracks" : {

                          }
                        }
,
                    "start" : 4486,
                    "duration" : 54,
                    "mediaStart" : 0,
                    "mediaDuration" : 4875,
                    "scalar" : 1,
                    "metadata" : {
                      "clipSpeedAttribute" : false
                    }
                  },
                  {
                    "id" : 603,
                    "_type" : "UnifiedMedia",
                    "video" : 
                        {
                          "id" : 604,
                          "_type" : "VMFile",
                          "src" : 6,
                          "trackNumber" : 1,
                          "attributes" : {
                            "ident" : "Grabación 26-12-{AA}_018"
                          },
                          "parameters" : {
                            "translation0" : 800.0,
                            "translation1" : -450.0,
                            "scale0" : 0.25,
                            "scale1" : 0.25,
                            "sourceCrop0" : 0.0,
                            "sourceCrop1" : 0.0,
                            "sourceCrop2" : 0.0,
                            "sourceCrop3" : 0.0,
                            "geometryCrop0" : 0.0,
                            "geometryCrop1" : 0.0,
                            "geometryCrop2" : 0.0,
                            "geometryCrop3" : 0.0
                          },
                          "effects" : [

                          ],
                          "start" : 4540,
                          "duration" : 35,
                          "mediaStart" : 1317,
                          "mediaDuration" : 35,
                          "scalar" : 1,
                          "animationTracks" : {

                          }
                        },
                    "audio" : 
                        {
                          "id" : 605,
                          "_type" : "AMFile",
                          "src" : 6,
                          "trackNumber" : 2,
                          "attributes" : {
                            "ident" : "",
                            "gain" : 1.0,
                            "mixToMono" : false
                          },
                            "channelNumber" : "0,1",
                          "effects" : [

                          ],
                          "start" : 4540,
                          "duration" : 35,
                          "mediaStart" : 1317,
                          "mediaDuration" : 35,
                          "scalar" : 1,
                          "animationTracks" : {

                          }
                        }
,
                    "start" : 4540,
                    "duration" : 35,
                    "mediaStart" : 0,
                    "mediaDuration" : 4875,
                    "scalar" : 1,
                    "metadata" : {
                      "clipSpeedAttribute" : false
                    }
                  },
                  {
                    "id" : 606,
                    "_type" : "UnifiedMedia",
                    "video" : 
                        {
                          "id" : 607,
                          "_type" : "VMFile",
                          "src" : 6,
                          "trackNumber" : 1,
                          "attributes" : {
                            "ident" : "Grabación 26-12-{AA}_018"
                          },
                          "parameters" : {
                            "translation0" : 800.0,
                            "translation1" : -450.0,
                            "scale0" : 0.25,
                            "scale1" : 0.25,
                            "sourceCrop0" : 0.0,
                            "sourceCrop1" : 0.0,
                            "sourceCrop2" : 0.0,
                            "sourceCrop3" : 0.0,
                            "geometryCrop0" : 0.0,
                            "geometryCrop1" : 0.0,
                            "geometryCrop2" : 0.0,
                            "geometryCrop3" : 0.0
                          },
                          "effects" : [

                          ],
                          "start" : 4575,
                          "duration" : 41,
                          "mediaStart" : 1369,
                          "mediaDuration" : 41,
                          "scalar" : 1,
                          "animationTracks" : {

                          }
                        },
                    "audio" : 
                        {
                          "id" : 608,
                          "_type" : "AMFile",
                          "src" : 6,
                          "trackNumber" : 2,
                          "attributes" : {
                            "ident" : "",
                            "gain" : 1.0,
                            "mixToMono" : false
                          },
                            "channelNumber" : "0,1",
                          "effects" : [

                          ],
                          "start" : 4575,
                          "duration" : 41,
                          "mediaStart" : 1369,
                          "mediaDuration" : 41,
                          "scalar" : 1,
                          "animationTracks" : {

                          }
                        }
,
                    "start" : 4575,
                    "duration" : 41,
                    "mediaStart" : 0,
                    "mediaDuration" : 4875,
                    "scalar" : 1,
                    "metadata" : {
                      "clipSpeedAttribute" : false
                    }
                  },
                  {
                    "id" : 609,
                    "_type" : "UnifiedMedia",
                    "video" : 
                        {
                          "id" : 610,
                          "_type" : "VMFile",
                          "src" : 6,
                          "trackNumber" : 1,
                          "attributes" : {
                            "ident" : "Grabación 26-12-{AA}_018"
                          },
                          "parameters" : {
                            "translation0" : 800.0,
                            "translation1" : -450.0,
                            "scale0" : 0.25,
                            "scale1" : 0.25,
                            "sourceCrop0" : 0.0,
                            "sourceCrop1" : 0.0,
                            "sourceCrop2" : 0.0,
                            "sourceCrop3" : 0.0,
                            "geometryCrop0" : 0.0,
                            "geometryCrop1" : 0.0,
                            "geometryCrop2" : 0.0,
                            "geometryCrop3" : 0.0
                          },
                          "effects" : [

                          ],
                          "start" : 4616,
                          "duration" : 84,
                          "mediaStart" : 1425,
                          "mediaDuration" : 84,
                          "scalar" : 1,
                          "animationTracks" : {

                          }
                        },
                    "audio" : 
                        {
                          "id" : 611,
                          "_type" : "AMFile",
                          "src" : 6,
                          "trackNumber" : 2,
                          "attributes" : {
                            "ident" : "",
                            "gain" : 1.0,
                            "mixToMono" : false
                          },
                            "channelNumber" : "0,1",
                          "effects" : [

                          ],
                          "start" : 4616,
                          "duration" : 84,
                          "mediaStart" : 1425,
                          "mediaDuration" : 84,
                          "scalar" : 1,
                          "animationTracks" : {

                          }
                        }
,
                    "start" : 4616,
                    "duration" : 84,
                    "mediaStart" : 0,
                    "mediaDuration" : 4875,
                    "scalar" : 1,
                    "metadata" : {
                      "clipSpeedAttribute" : false
                    }
                  },
                  {
                    "id" : 612,
                    "_type" : "UnifiedMedia",
                    "video" : 
                        {
                          "id" : 613,
                          "_type" : "VMFile",
                          "src" : 6,
                          "trackNumber" : 1,
                          "attributes" : {
                            "ident" : "Grabación 26-12-{AA}_018"
                          },
                          "parameters" : {
                            "translation0" : 800.0,
                            "translation1" : -450.0,
                            "scale0" : 0.25,
                            "scale1" : 0.25,
                            "sourceCrop0" : 0.0,
                            "sourceCrop1" : 0.0,
                            "sourceCrop2" : 0.0,
                            "sourceCrop3" : 0.0,
                            "geometryCrop0" : 0.0,
                            "geometryCrop1" : 0.0,
                            "geometryCrop2" : 0.0,
                            "geometryCrop3" : 0.0
                          },
                          "effects" : [

                          ],
                          "start" : 4700,
                          "duration" : 69,
                          "mediaStart" : 1521,
                          "mediaDuration" : 69,
                          "scalar" : 1,
                          "animationTracks" : {

                          }
                        },
                    "audio" : 
                        {
                          "id" : 614,
                          "_type" : "AMFile",
                          "src" : 6,
                          "trackNumber" : 2,
                          "attributes" : {
                            "ident" : "",
                            "gain" : 1.0,
                            "mixToMono" : false
                          },
                            "channelNumber" : "0,1",
                          "effects" : [

                          ],
                          "start" : 4700,
                          "duration" : 69,
                          "mediaStart" : 1521,
                          "mediaDuration" : 69,
                          "scalar" : 1,
                          "animationTracks" : {

                          }
                        }
,
                    "start" : 4700,
                    "duration" : 69,
                    "mediaStart" : 0,
                    "mediaDuration" : 4875,
                    "scalar" : 1,
                    "metadata" : {
                      "clipSpeedAttribute" : false
                    }
                  },
                  {
                    "id" : 615,
                    "_type" : "UnifiedMedia",
                    "video" : 
                        {
                          "id" : 616,
                          "_type" : "VMFile",
                          "src" : 6,
                          "trackNumber" : 1,
                          "attributes" : {
                            "ident" : "Grabación 26-12-{AA}_018"
                          },
                          "parameters" : {
                            "translation0" : 800.0,
                            "translation1" : -450.0,
                            "scale0" : 0.25,
                            "scale1" : 0.25,
                            "sourceCrop0" : 0.0,
                            "sourceCrop1" : 0.0,
                            "sourceCrop2" : 0.0,
                            "sourceCrop3" : 0.0,
                            "geometryCrop0" : 0.0,
                            "geometryCrop1" : 0.0,
                            "geometryCrop2" : 0.0,
                            "geometryCrop3" : 0.0
                          },
                          "effects" : [

                          ],
                          "start" : 4769,
                          "duration" : 63,
                          "mediaStart" : 1602,
                          "mediaDuration" : 63,
                          "scalar" : 1,
                          "animationTracks" : {

                          }
                        },
                    "audio" : 
                        {
                          "id" : 617,
                          "_type" : "AMFile",
                          "src" : 6,
                          "trackNumber" : 2,
                          "attributes" : {
                            "ident" : "",
                            "gain" : 1.0,
                            "mixToMono" : false
                          },
                            "channelNumber" : "0,1",
                          "effects" : [

                          ],
                          "start" : 4769,
                          "duration" : 63,
                          "mediaStart" : 1602,
                          "mediaDuration" : 63,
                          "scalar" : 1,
                          "animationTracks" : {

                          }
                        }
,
                    "start" : 4769,
                    "duration" : 63,
                    "mediaStart" : 0,
                    "mediaDuration" : 4875,
                    "scalar" : 1,
                    "metadata" : {
                      "clipSpeedAttribute" : false
                    }
                  },
                  {
                    "id" : 618,
                    "_type" : "UnifiedMedia",
                    "video" : 
                        {
                          "id" : 619,
                          "_type" : "VMFile",
                          "src" : 6,
                          "trackNumber" : 1,
                          "attributes" : {
                            "ident" : "Grabación 26-12-{AA}_018"
                          },
                          "parameters" : {
                            "translation0" : 800.0,
                            "translation1" : -450.0,
                            "scale0" : 0.25,
                            "scale1" : 0.25,
                            "sourceCrop0" : 0.0,
                            "sourceCrop1" : 0.0,
                            "sourceCrop2" : 0.0,
                            "sourceCrop3" : 0.0,
                            "geometryCrop0" : 0.0,
                            "geometryCrop1" : 0.0,
                            "geometryCrop2" : 0.0,
                            "geometryCrop3" : 0.0
                          },
                          "effects" : [

                          ],
                          "start" : 4832,
                          "duration" : 104,
                          "mediaStart" : 1677,
                          "mediaDuration" : 104,
                          "scalar" : 1,
                          "animationTracks" : {

                          }
                        },
                    "audio" : 
                        {
                          "id" : 620,
                          "_type" : "AMFile",
                          "src" : 6,
                          "trackNumber" : 2,
                          "attributes" : {
                            "ident" : "",
                            "gain" : 1.0,
                            "mixToMono" : false
                          },
                            "channelNumber" : "0,1",
                          "effects" : [

                          ],
                          "start" : 4832,
                          "duration" : 104,
                          "mediaStart" : 1677,
                          "mediaDuration" : 104,
                          "scalar" : 1,
                          "animationTracks" : {

                          }
                        }
,
                    "start" : 4832,
                    "duration" : 104,
                    "mediaStart" : 0,
                    "mediaDuration" : 4875,
                    "scalar" : 1,
                    "metadata" : {
                      "clipSpeedAttribute" : false
                    }
                  },
                  {
                    "id" : 621,
                    "_type" : "UnifiedMedia",
                    "video" : 
                        {
                          "id" : 622,
                          "_type" : "VMFile",
                          "src" : 6,
                          "trackNumber" : 1,
                          "attributes" : {
                            "ident" : "Grabación 26-12-{AA}_018"
                          },
                          "parameters" : {
                            "translation0" : 800.0,
                            "translation1" : -450.0,
                            "scale0" : 0.25,
                            "scale1" : 0.25,
                            "sourceCrop0" : 0.0,
                            "sourceCrop1" : 0.0,
                            "sourceCrop2" : 0.0,
                            "sourceCrop3" : 0.0,
                            "geometryCrop0" : 0.0,
                            "geometryCrop1" : 0.0,
                            "geometryCrop2" : 0.0,
                            "geometryCrop3" : 0.0
                          },
                          "effects" : [

                          ],
                          "start" : 4936,
                          "duration" : 46,
                          "mediaStart" : 1814,
                          "mediaDuration" : 46,
                          "scalar" : 1,
                          "animationTracks" : {

                          }
                        },
                    "audio" : 
                        {
                          "id" : 623,
                          "_type" : "AMFile",
                          "src" : 6,
                          "trackNumber" : 2,
                          "attributes" : {
                            "ident" : "",
                            "gain" : 1.0,
                            "mixToMono" : false
                          },
                            "channelNumber" : "0,1",
                          "effects" : [

                          ],
                          "start" : 4936,
                          "duration" : 46,
                          "mediaStart" : 1814,
                          "mediaDuration" : 46,
                          "scalar" : 1,
                          "animationTracks" : {

                          }
                        }
,
                    "start" : 4936,
                    "duration" : 46,
                    "mediaStart" : 0,
                    "mediaDuration" : 4875,
                    "scalar" : 1,
                    "metadata" : {
                      "clipSpeedAttribute" : false
                    }
                  },
                  {
                    "id" : 624,
                    "_type" : "UnifiedMedia",
                    "video" : 
                        {
                          "id" : 625,
                          "_type" : "VMFile",
                          "src" : 6,
                          "trackNumber" : 1,
                          "attributes" : {
                            "ident" : "Grabación 26-12-{AA}_018"
                          },
                          "parameters" : {
                            "translation0" : 800.0,
                            "translation1" : -450.0,
                            "scale0" : 0.25,
                            "scale1" : 0.25,
                            "sourceCrop0" : 0.0,
                            "sourceCrop1" : 0.0,
                            "sourceCrop2" : 0.0,
                            "sourceCrop3" : 0.0,
                            "geometryCrop0" : 0.0,
                            "geometryCrop1" : 0.0,
                            "geometryCrop2" : 0.0,
                            "geometryCrop3" : 0.0
                          },
                          "effects" : [

                          ],
                          "start" : 4982,
                          "duration" : 43,
                          "mediaStart" : 1871,
                          "mediaDuration" : 43,
                          "scalar" : 1,
                          "animationTracks" : {

                          }
                        },
                    "audio" : 
                        {
                          "id" : 626,
                          "_type" : "AMFile",
                          "src" : 6,
                          "trackNumber" : 2,
                          "attributes" : {
                            "ident" : "",
                            "gain" : 1.0,
                            "mixToMono" : false
                          },
                            "channelNumber" : "0,1",
                          "effects" : [

                          ],
                          "start" : 4982,
                          "duration" : 43,
                          "mediaStart" : 1871,
                          "mediaDuration" : 43,
                          "scalar" : 1,
                          "animationTracks" : {

                          }
                        }
,
                    "start" : 4982,
                    "duration" : 43,
                    "mediaStart" : 0,
                    "mediaDuration" : 4875,
                    "scalar" : 1,
                    "metadata" : {
                      "clipSpeedAttribute" : false
                    }
                  },
                  {
                    "id" : 627,
                    "_type" : "UnifiedMedia",
                    "video" : 
                        {
                          "id" : 628,
                          "_type" : "VMFile",
                          "src" : 6,
                          "trackNumber" : 1,
                          "attributes" : {
                            "ident" : "Grabación 26-12-{AA}_018"
                          },
                          "parameters" : {
                            "translation0" : 800.0,
                            "translation1" : -450.0,
                            "scale0" : 0.25,
                            "scale1" : 0.25,
                            "sourceCrop0" : 0.0,
                            "sourceCrop1" : 0.0,
                            "sourceCrop2" : 0.0,
                            "sourceCrop3" : 0.0,
                            "geometryCrop0" : 0.0,
                            "geometryCrop1" : 0.0,
                            "geometryCrop2" : 0.0,
                            "geometryCrop3" : 0.0
                          },
                          "effects" : [

                          ],
                          "start" : 5025,
                          "duration" : 99,
                          "mediaStart" : 1928,
                          "mediaDuration" : 99,
                          "scalar" : 1,
                          "animationTracks" : {

                          }
                        },
                    "audio" : 
                        {
                          "id" : 629,
                          "_type" : "AMFile",
                          "src" : 6,
                          "trackNumber" : 2,
                          "attributes" : {
                            "ident" : "",
                            "gain" : 1.0,
                            "mixToMono" : false
                          },
                            "channelNumber" : "0,1",
                          "effects" : [

                          ],
                          "start" : 5025,
                          "duration" : 99,
                          "mediaStart" : 1928,
                          "mediaDuration" : 99,
                          "scalar" : 1,
                          "animationTracks" : {

                          }
                        }
,
                    "start" : 5025,
                    "duration" : 99,
                    "mediaStart" : 0,
                    "mediaDuration" : 4875,
                    "scalar" : 1,
                    "metadata" : {
                      "clipSpeedAttribute" : false
                    }
                  },
                  {
                    "id" : 630,
                    "_type" : "UnifiedMedia",
                    "video" : 
                        {
                          "id" : 631,
                          "_type" : "VMFile",
                          "src" : 6,
                          "trackNumber" : 1,
                          "attributes" : {
                            "ident" : "Grabación 26-12-{AA}_018"
                          },
                          "parameters" : {
                            "translation0" : 800.0,
                            "translation1" : -450.0,
                            "scale0" : 0.25,
                            "scale1" : 0.25,
                            "sourceCrop0" : 0.0,
                            "sourceCrop1" : 0.0,
                            "sourceCrop2" : 0.0,
                            "sourceCrop3" : 0.0,
                            "geometryCrop0" : 0.0,
                            "geometryCrop1" : 0.0,
                            "geometryCrop2" : 0.0,
                            "geometryCrop3" : 0.0
                          },
                          "effects" : [

                          ],
                          "start" : 5124,
                          "duration" : 33,
                          "mediaStart" : 2040,
                          "mediaDuration" : 33,
                          "scalar" : 1,
                          "animationTracks" : {

                          }
                        },
                    "audio" : 
                        {
                          "id" : 632,
                          "_type" : "AMFile",
                          "src" : 6,
                          "trackNumber" : 2,
                          "attributes" : {
                            "ident" : "",
                            "gain" : 1.0,
                            "mixToMono" : false
                          },
                            "channelNumber" : "0,1",
                          "effects" : [

                          ],
                          "start" : 5124,
                          "duration" : 33,
                          "mediaStart" : 2040,
                          "mediaDuration" : 33,
                          "scalar" : 1,
                          "animationTracks" : {

                          }
                        }
,
                    "start" : 5124,
                    "duration" : 33,
                    "mediaStart" : 0,
                    "mediaDuration" : 4875,
                    "scalar" : 1,
                    "metadata" : {
                      "clipSpeedAttribute" : false
                    }
                  },
                  {
                    "id" : 633,
                    "_type" : "UnifiedMedia",
                    "video" : 
                        {
                          "id" : 634,
                          "_type" : "VMFile",
                          "src" : 6,
                          "trackNumber" : 1,
                          "attributes" : {
                            "ident" : "Grabación 26-12-{AA}_018"
                          },
                          "parameters" : {
                            "translation0" : 800.0,
                            "translation1" : -450.0,
                            "scale0" : 0.25,
                            "scale1" : 0.25,
                            "sourceCrop0" : 0.0,
                            "sourceCrop1" : 0.0,
                            "sourceCrop2" : 0.0,
                            "sourceCrop3" : 0.0,
                            "geometryCrop0" : 0.0,
                            "geometryCrop1" : 0.0,
                            "geometryCrop2" : 0.0,
                            "geometryCrop3" : 0.0
                          },
                          "effects" : [

                          ],
                          "start" : 5157,
                          "duration" : 65,
                          "mediaStart" : 2112,
                          "mediaDuration" : 65,
                          "scalar" : 1,
                          "animationTracks" : {

                          }
                        },
                    "audio" : 
                        {
                          "id" : 635,
                          "_type" : "AMFile",
                          "src" : 6,
                          "trackNumber" : 2,
                          "attributes" : {
                            "ident" : "",
                            "gain" : 1.0,
                            "mixToMono" : false
                          },
                            "channelNumber" : "0,1",
                          "effects" : [

                          ],
                          "start" : 5157,
                          "duration" : 65,
                          "mediaStart" : 2112,
                          "mediaDuration" : 65,
                          "scalar" : 1,
                          "animationTracks" : {

                          }
                        }
,
                    "start" : 5157,
                    "duration" : 65,
                    "mediaStart" : 0,
                    "mediaDuration" : 4875,
                    "scalar" : 1,
                    "metadata" : {
                      "clipSpeedAttribute" : false
                    }
                  },
                  {
                    "id" : 636,
                    "_type" : "UnifiedMedia",
                    "video" : 
                        {
                          "id" : 637,
                          "_type" : "VMFile",
                          "src" : 6,
                          "trackNumber" : 1,
                          "attributes" : {
                            "ident" : "Grabación 26-12-{AA}_018"
                          },
                          "parameters" : {
                            "translation0" : 800.0,
                            "translation1" : -450.0,
                            "scale0" : 0.25,
                            "scale1" : 0.25,
                            "sourceCrop0" : 0.0,
                            "sourceCrop1" : 0.0,
                            "sourceCrop2" : 0.0,
                            "sourceCrop3" : 0.0,
                            "geometryCrop0" : 0.0,
                            "geometryCrop1" : 0.0,
                            "geometryCrop2" : 0.0,
                            "geometryCrop3" : 0.0
                          },
                          "effects" : [

                          ],
                          "start" : 5222,
                          "duration" : 38,
                          "mediaStart" : 2189,
                          "mediaDuration" : 38,
                          "scalar" : 1,
                          "animationTracks" : {

                          }
                        },
                    "audio" : 
                        {
                          "id" : 638,
                          "_type" : "AMFile",
                          "src" : 6,
                          "trackNumber" : 2,
                          "attributes" : {
                            "ident" : "",
                            "gain" : 1.0,
                            "mixToMono" : false
                          },
                            "channelNumber" : "0,1",
                          "effects" : [

                          ],
                          "start" : 5222,
                          "duration" : 38,
                          "mediaStart" : 2189,
                          "mediaDuration" : 38,
                          "scalar" : 1,
                          "animationTracks" : {

                          }
                        }
,
                    "start" : 5222,
                    "duration" : 38,
                    "mediaStart" : 0,
                    "mediaDuration" : 4875,
                    "scalar" : 1,
                    "metadata" : {
                      "clipSpeedAttribute" : false
                    }
                  },
                  {
                    "id" : 639,
                    "_type" : "UnifiedMedia",
                    "video" : 
                        {
                          "id" : 640,
                          "_type" : "VMFile",
                          "src" : 6,
                          "trackNumber" : 1,
                          "attributes" : {
                            "ident" : "Grabación 26-12-{AA}_018"
                          },
                          "parameters" : {
                            "translation0" : 800.0,
                            "translation1" : -450.0,
                            "scale0" : 0.25,
                            "scale1" : 0.25,
                            "sourceCrop0" : 0.0,
                            "sourceCrop1" : 0.0,
                            "sourceCrop2" : 0.0,
                            "sourceCrop3" : 0.0,
                            "geometryCrop0" : 0.0,
                            "geometryCrop1" : 0.0,
                            "geometryCrop2" : 0.0,
                            "geometryCrop3" : 0.0
                          },
                          "effects" : [

                          ],
                          "start" : 5260,
                          "duration" : 130,
                          "mediaStart" : 2239,
                          "mediaDuration" : 130,
                          "scalar" : 1,
                          "animationTracks" : {

                          }
                        },
                    "audio" : 
                        {
                          "id" : 641,
                          "_type" : "AMFile",
                          "src" : 6,
                          "trackNumber" : 2,
                          "attributes" : {
                            "ident" : "",
                            "gain" : 1.0,
                            "mixToMono" : false
                          },
                            "channelNumber" : "0,1",
                          "effects" : [

                          ],
                          "start" : 5260,
                          "duration" : 130,
                          "mediaStart" : 2239,
                          "mediaDuration" : 130,
                          "scalar" : 1,
                          "animationTracks" : {

                          }
                        }
,
                    "start" : 5260,
                    "duration" : 130,
                    "mediaStart" : 0,
                    "mediaDuration" : 4875,
                    "scalar" : 1,
                    "metadata" : {
                      "clipSpeedAttribute" : false
                    }
                  },
                  {
                    "id" : 642,
                    "_type" : "UnifiedMedia",
                    "video" : 
                        {
                          "id" : 643,
                          "_type" : "VMFile",
                          "src" : 6,
                          "trackNumber" : 1,
                          "attributes" : {
                            "ident" : "Grabación 26-12-{AA}_018"
                          },
                          "parameters" : {
                            "translation0" : 800.0,
                            "translation1" : -450.0,
                            "scale0" : 0.25,
                            "scale1" : 0.25,
                            "sourceCrop0" : 0.0,
                            "sourceCrop1" : 0.0,
                            "sourceCrop2" : 0.0,
                            "sourceCrop3" : 0.0,
                            "geometryCrop0" : 0.0,
                            "geometryCrop1" : 0.0,
                            "geometryCrop2" : 0.0,
                            "geometryCrop3" : 0.0
                          },
                          "effects" : [

                          ],
                          "start" : 5390,
                          "duration" : 36,
                          "mediaStart" : 2385,
                          "mediaDuration" : 36,
                          "scalar" : 1,
                          "animationTracks" : {

                          }
                        },
                    "audio" : 
                        {
                          "id" : 644,
                          "_type" : "AMFile",
                          "src" : 6,
                          "trackNumber" : 2,
                          "attributes" : {
                            "ident" : "",
                            "gain" : 1.0,
                            "mixToMono" : false
                          },
                            "channelNumber" : "0,1",
                          "effects" : [

                          ],
                          "start" : 5390,
                          "duration" : 36,
                          "mediaStart" : 2385,
                          "mediaDuration" : 36,
                          "scalar" : 1,
                          "animationTracks" : {

                          }
                        }
,
                    "start" : 5390,
                    "duration" : 36,
                    "mediaStart" : 0,
                    "mediaDuration" : 4875,
                    "scalar" : 1,
                    "metadata" : {
                      "clipSpeedAttribute" : false
                    }
                  },
                  {
                    "id" : 645,
                    "_type" : "UnifiedMedia",
                    "video" : 
                        {
                          "id" : 646,
                          "_type" : "VMFile",
                          "src" : 6,
                          "trackNumber" : 1,
                          "attributes" : {
                            "ident" : "Grabación 26-12-{AA}_018"
                          },
                          "parameters" : {
                            "translation0" : 800.0,
                            "translation1" : -450.0,
                            "scale0" : 0.25,
                            "scale1" : 0.25,
                            "sourceCrop0" : 0.0,
                            "sourceCrop1" : 0.0,
                            "sourceCrop2" : 0.0,
                            "sourceCrop3" : 0.0,
                            "geometryCrop0" : 0.0,
                            "geometryCrop1" : 0.0,
                            "geometryCrop2" : 0.0,
                            "geometryCrop3" : 0.0
                          },
                          "effects" : [

                          ],
                          "start" : 5426,
                          "duration" : 39,
                          "mediaStart" : 2432,
                          "mediaDuration" : 39,
                          "scalar" : 1,
                          "animationTracks" : {

                          }
                        },
                    "audio" : 
                        {
                          "id" : 647,
                          "_type" : "AMFile",
                          "src" : 6,
                          "trackNumber" : 2,
                          "attributes" : {
                            "ident" : "",
                            "gain" : 1.0,
                            "mixToMono" : false
                          },
                            "channelNumber" : "0,1",
                          "effects" : [

                          ],
                          "start" : 5426,
                          "duration" : 39,
                          "mediaStart" : 2432,
                          "mediaDuration" : 39,
                          "scalar" : 1,
                          "animationTracks" : {

                          }
                        }
,
                    "start" : 5426,
                    "duration" : 39,
                    "mediaStart" : 0,
                    "mediaDuration" : 4875,
                    "scalar" : 1,
                    "metadata" : {
                      "clipSpeedAttribute" : false
                    }
                  },
                  {
                    "id" : 648,
                    "_type" : "UnifiedMedia",
                    "video" : 
                        {
                          "id" : 649,
                          "_type" : "VMFile",
                          "src" : 6,
                          "trackNumber" : 1,
                          "attributes" : {
                            "ident" : "Grabación 26-12-{AA}_018"
                          },
                          "parameters" : {
                            "translation0" : 800.0,
                            "translation1" : -450.0,
                            "scale0" : 0.25,
                            "scale1" : 0.25,
                            "sourceCrop0" : 0.0,
                            "sourceCrop1" : 0.0,
                            "sourceCrop2" : 0.0,
                            "sourceCrop3" : 0.0,
                            "geometryCrop0" : 0.0,
                            "geometryCrop1" : 0.0,
                            "geometryCrop2" : 0.0,
                            "geometryCrop3" : 0.0
                          },
                          "effects" : [

                          ],
                          "start" : 5465,
                          "duration" : 12,
                          "mediaStart" : 2483,
                          "mediaDuration" : 12,
                          "scalar" : 1,
                          "animationTracks" : {

                          }
                        },
                    "audio" : 
                        {
                          "id" : 650,
                          "_type" : "AMFile",
                          "src" : 6,
                          "trackNumber" : 2,
                          "attributes" : {
                            "ident" : "",
                            "gain" : 1.0,
                            "mixToMono" : false
                          },
                            "channelNumber" : "0,1",
                          "effects" : [

                          ],
                          "start" : 5465,
                          "duration" : 12,
                          "mediaStart" : 2483,
                          "mediaDuration" : 12,
                          "scalar" : 1,
                          "animationTracks" : {

                          }
                        }
,
                    "start" : 5465,
                    "duration" : 12,
                    "mediaStart" : 0,
                    "mediaDuration" : 4875,
                    "scalar" : 1,
                    "metadata" : {
                      "clipSpeedAttribute" : false
                    }
                  },
                  {
                    "id" : 651,
                    "_type" : "UnifiedMedia",
                    "video" : 
                        {
                          "id" : 652,
                          "_type" : "VMFile",
                          "src" : 6,
                          "trackNumber" : 1,
                          "attributes" : {
                            "ident" : "Grabación 26-12-{AA}_018"
                          },
                          "parameters" : {
                            "translation0" : 800.0,
                            "translation1" : -450.0,
                            "scale0" : 0.25,
                            "scale1" : 0.25,
                            "sourceCrop0" : 0.0,
                            "sourceCrop1" : 0.0,
                            "sourceCrop2" : 0.0,
                            "sourceCrop3" : 0.0,
                            "geometryCrop0" : 0.0,
                            "geometryCrop1" : 0.0,
                            "geometryCrop2" : 0.0,
                            "geometryCrop3" : 0.0
                          },
                          "effects" : [

                          ],
                          "start" : 5477,
                          "duration" : 44,
                          "mediaStart" : 2520,
                          "mediaDuration" : 44,
                          "scalar" : 1,
                          "animationTracks" : {

                          }
                        },
                    "audio" : 
                        {
                          "id" : 653,
                          "_type" : "AMFile",
                          "src" : 6,
                          "trackNumber" : 2,
                          "attributes" : {
                            "ident" : "",
                            "gain" : 1.0,
                            "mixToMono" : false
                          },
                            "channelNumber" : "0,1",
                          "effects" : [

                          ],
                          "start" : 5477,
                          "duration" : 44,
                          "mediaStart" : 2520,
                          "mediaDuration" : 44,
                          "scalar" : 1,
                          "animationTracks" : {

                          }
                        }
,
                    "start" : 5477,
                    "duration" : 44,
                    "mediaStart" : 0,
                    "mediaDuration" : 4875,
                    "scalar" : 1,
                    "metadata" : {
                      "clipSpeedAttribute" : false
                    }
                  },
                  {
                    "id" : 654,
                    "_type" : "UnifiedMedia",
                    "video" : 
                        {
                          "id" : 655,
                          "_type" : "VMFile",
                          "src" : 6,
                          "trackNumber" : 1,
                          "attributes" : {
                            "ident" : "Grabación 26-12-{AA}_018"
                          },
                          "parameters" : {
                            "translation0" : 800.0,
                            "translation1" : -450.0,
                            "scale0" : 0.25,
                            "scale1" : 0.25,
                            "sourceCrop0" : 0.0,
                            "sourceCrop1" : 0.0,
                            "sourceCrop2" : 0.0,
                            "sourceCrop3" : 0.0,
                            "geometryCrop0" : 0.0,
                            "geometryCrop1" : 0.0,
                            "geometryCrop2" : 0.0,
                            "geometryCrop3" : 0.0
                          },
                          "effects" : [

                          ],
                          "start" : 5521,
                          "duration" : 42,
                          "mediaStart" : 2574,
                          "mediaDuration" : 42,
                          "scalar" : 1,
                          "animationTracks" : {

                          }
                        },
                    "audio" : 
                        {
                          "id" : 656,
                          "_type" : "AMFile",
                          "src" : 6,
                          "trackNumber" : 2,
                          "attributes" : {
                            "ident" : "",
                            "gain" : 1.0,
                            "mixToMono" : false
                          },
                            "channelNumber" : "0,1",
                          "effects" : [

                          ],
                          "start" : 5521,
                          "duration" : 42,
                          "mediaStart" : 2574,
                          "mediaDuration" : 42,
                          "scalar" : 1,
                          "animationTracks" : {

                          }
                        }
,
                    "start" : 5521,
                    "duration" : 42,
                    "mediaStart" : 0,
                    "mediaDuration" : 4875,
                    "scalar" : 1,
                    "metadata" : {
                      "clipSpeedAttribute" : false
                    }
                  },
                  {
                    "id" : 657,
                    "_type" : "UnifiedMedia",
                    "video" : 
                        {
                          "id" : 658,
                          "_type" : "VMFile",
                          "src" : 6,
                          "trackNumber" : 1,
                          "attributes" : {
                            "ident" : "Grabación 26-12-{AA}_018"
                          },
                          "parameters" : {
                            "translation0" : 800.0,
                            "translation1" : -450.0,
                            "scale0" : 0.25,
                            "scale1" : 0.25,
                            "sourceCrop0" : 0.0,
                            "sourceCrop1" : 0.0,
                            "sourceCrop2" : 0.0,
                            "sourceCrop3" : 0.0,
                            "geometryCrop0" : 0.0,
                            "geometryCrop1" : 0.0,
                            "geometryCrop2" : 0.0,
                            "geometryCrop3" : 0.0
                          },
                          "effects" : [

                          ],
                          "start" : 5563,
                          "duration" : 54,
                          "mediaStart" : 2646,
                          "mediaDuration" : 54,
                          "scalar" : 1,
                          "animationTracks" : {

                          }
                        },
                    "audio" : 
                        {
                          "id" : 659,
                          "_type" : "AMFile",
                          "src" : 6,
                          "trackNumber" : 2,
                          "attributes" : {
                            "ident" : "",
                            "gain" : 1.0,
                            "mixToMono" : false
                          },
                            "channelNumber" : "0,1",
                          "effects" : [

                          ],
                          "start" : 5563,
                          "duration" : 54,
                          "mediaStart" : 2646,
                          "mediaDuration" : 54,
                          "scalar" : 1,
                          "animationTracks" : {

                          }
                        }
,
                    "start" : 5563,
                    "duration" : 54,
                    "mediaStart" : 0,
                    "mediaDuration" : 4875,
                    "scalar" : 1,
                    "metadata" : {
                      "clipSpeedAttribute" : false
                    }
                  },
                  {
                    "id" : 660,
                    "_type" : "UnifiedMedia",
                    "video" : 
                        {
                          "id" : 661,
                          "_type" : "VMFile",
                          "src" : 6,
                          "trackNumber" : 1,
                          "attributes" : {
                            "ident" : "Grabación 26-12-{AA}_018"
                          },
                          "parameters" : {
                            "translation0" : 800.0,
                            "translation1" : -450.0,
                            "scale0" : 0.25,
                            "scale1" : 0.25,
                            "sourceCrop0" : 0.0,
                            "sourceCrop1" : 0.0,
                            "sourceCrop2" : 0.0,
                            "sourceCrop3" : 0.0,
                            "geometryCrop0" : 0.0,
                            "geometryCrop1" : 0.0,
                            "geometryCrop2" : 0.0,
                            "geometryCrop3" : 0.0
                          },
                          "effects" : [

                          ],
                          "start" : 5617,
                          "duration" : 25,
                          "mediaStart" : 2705,
                          "mediaDuration" : 25,
                          "scalar" : 1,
                          "animationTracks" : {

                          }
                        },
                    "audio" : 
                        {
                          "id" : 662,
                          "_type" : "AMFile",
                          "src" : 6,
                          "trackNumber" : 2,
                          "attributes" : {
                            "ident" : "",
                            "gain" : 1.0,
                            "mixToMono" : false
                          },
                            "channelNumber" : "0,1",
                          "effects" : [

                          ],
                          "start" : 5617,
                          "duration" : 25,
                          "mediaStart" : 2705,
                          "mediaDuration" : 25,
                          "scalar" : 1,
                          "animationTracks" : {

                          }
                        }
,
                    "start" : 5617,
                    "duration" : 25,
                    "mediaStart" : 0,
                    "mediaDuration" : 4875,
                    "scalar" : 1,
                    "metadata" : {
                      "clipSpeedAttribute" : false
                    }
                  },
                  {
                    "id" : 663,
                    "_type" : "UnifiedMedia",
                    "video" : 
                        {
                          "id" : 664,
                          "_type" : "VMFile",
                          "src" : 6,
                          "trackNumber" : 1,
                          "attributes" : {
                            "ident" : "Grabación 26-12-{AA}_018"
                          },
                          "parameters" : {
                            "translation0" : 800.0,
                            "translation1" : -450.0,
                            "scale0" : 0.25,
                            "scale1" : 0.25,
                            "sourceCrop0" : 0.0,
                            "sourceCrop1" : 0.0,
                            "sourceCrop2" : 0.0,
                            "sourceCrop3" : 0.0,
                            "geometryCrop0" : 0.0,
                            "geometryCrop1" : 0.0,
                            "geometryCrop2" : 0.0,
                            "geometryCrop3" : 0.0
                          },
                          "effects" : [

                          ],
                          "start" : 5642,
                          "duration" : 54,
                          "mediaStart" : 2742,
                          "mediaDuration" : 54,
                          "scalar" : 1,
                          "animationTracks" : {

                          }
                        },
                    "audio" : 
                        {
                          "id" : 665,
                          "_type" : "AMFile",
                          "src" : 6,
                          "trackNumber" : 2,
                          "attributes" : {
                            "ident" : "",
                            "gain" : 1.0,
                            "mixToMono" : false
                          },
                            "channelNumber" : "0,1",
                          "effects" : [

                          ],
                          "start" : 5642,
                          "duration" : 54,
                          "mediaStart" : 2742,
                          "mediaDuration" : 54,
                          "scalar" : 1,
                          "animationTracks" : {

                          }
                        }
,
                    "start" : 5642,
                    "duration" : 54,
                    "mediaStart" : 0,
                    "mediaDuration" : 4875,
                    "scalar" : 1,
                    "metadata" : {
                      "clipSpeedAttribute" : false
                    }
                  },
                  {
                    "id" : 666,
                    "_type" : "UnifiedMedia",
                    "video" : 
                        {
                          "id" : 667,
                          "_type" : "VMFile",
                          "src" : 6,
                          "trackNumber" : 1,
                          "attributes" : {
                            "ident" : "Grabación 26-12-{AA}_018"
                          },
                          "parameters" : {
                            "translation0" : 800.0,
                            "translation1" : -450.0,
                            "scale0" : 0.25,
                            "scale1" : 0.25,
                            "sourceCrop0" : 0.0,
                            "sourceCrop1" : 0.0,
                            "sourceCrop2" : 0.0,
                            "sourceCrop3" : 0.0,
                            "geometryCrop0" : 0.0,
                            "geometryCrop1" : 0.0,
                            "geometryCrop2" : 0.0,
                            "geometryCrop3" : 0.0
                          },
                          "effects" : [

                          ],
                          "start" : 5696,
                          "duration" : 124,
                          "mediaStart" : 2807,
                          "mediaDuration" : 124,
                          "scalar" : 1,
                          "animationTracks" : {

                          }
                        },
                    "audio" : 
                        {
                          "id" : 668,
                          "_type" : "AMFile",
                          "src" : 6,
                          "trackNumber" : 2,
                          "attributes" : {
                            "ident" : "",
                            "gain" : 1.0,
                            "mixToMono" : false
                          },
                            "channelNumber" : "0,1",
                          "effects" : [

                          ],
                          "start" : 5696,
                          "duration" : 124,
                          "mediaStart" : 2807,
                          "mediaDuration" : 124,
                          "scalar" : 1,
                          "animationTracks" : {

                          }
                        }
,
                    "start" : 5696,
                    "duration" : 124,
                    "mediaStart" : 0,
                    "mediaDuration" : 4875,
                    "scalar" : 1,
                    "metadata" : {
                      "clipSpeedAttribute" : false
                    }
                  },
                  {
                    "id" : 669,
                    "_type" : "UnifiedMedia",
                    "video" : 
                        {
                          "id" : 670,
                          "_type" : "VMFile",
                          "src" : 6,
                          "trackNumber" : 1,
                          "attributes" : {
                            "ident" : "Grabación 26-12-{AA}_018"
                          },
                          "parameters" : {
                            "translation0" : 800.0,
                            "translation1" : -450.0,
                            "scale0" : 0.25,
                            "scale1" : 0.25,
                            "sourceCrop0" : 0.0,
                            "sourceCrop1" : 0.0,
                            "sourceCrop2" : 0.0,
                            "sourceCrop3" : 0.0,
                            "geometryCrop0" : 0.0,
                            "geometryCrop1" : 0.0,
                            "geometryCrop2" : 0.0,
                            "geometryCrop3" : 0.0
                          },
                          "effects" : [

                          ],
                          "start" : 5820,
                          "duration" : 105,
                          "mediaStart" : 2943,
                          "mediaDuration" : 105,
                          "scalar" : 1,
                          "animationTracks" : {

                          }
                        },
                    "audio" : 
                        {
                          "id" : 671,
                          "_type" : "AMFile",
                          "src" : 6,
                          "trackNumber" : 2,
                          "attributes" : {
                            "ident" : "",
                            "gain" : 1.0,
                            "mixToMono" : false
                          },
                            "channelNumber" : "0,1",
                          "effects" : [

                          ],
                          "start" : 5820,
                          "duration" : 105,
                          "mediaStart" : 2943,
                          "mediaDuration" : 105,
                          "scalar" : 1,
                          "animationTracks" : {

                          }
                        }
,
                    "start" : 5820,
                    "duration" : 105,
                    "mediaStart" : 0,
                    "mediaDuration" : 4875,
                    "scalar" : 1,
                    "metadata" : {
                      "clipSpeedAttribute" : false
                    }
                  },
                  {
                    "id" : 672,
                    "_type" : "UnifiedMedia",
                    "video" : 
                        {
                          "id" : 673,
                          "_type" : "VMFile",
                          "src" : 6,
                          "trackNumber" : 1,
                          "attributes" : {
                            "ident" : "Grabación 26-12-{AA}_018"
                          },
                          "parameters" : {
                            "translation0" : 800.0,
                            "translation1" : -450.0,
                            "scale0" : 0.25,
                            "scale1" : 0.25,
                            "sourceCrop0" : 0.0,
                            "sourceCrop1" : 0.0,
                            "sourceCrop2" : 0.0,
                            "sourceCrop3" : 0.0,
                            "geometryCrop0" : 0.0,
                            "geometryCrop1" : 0.0,
                            "geometryCrop2" : 0.0,
                            "geometryCrop3" : 0.0
                          },
                          "effects" : [

                          ],
                          "start" : 5925,
                          "duration" : 148,
                          "mediaStart" : 3077,
                          "mediaDuration" : 148,
                          "scalar" : 1,
                          "animationTracks" : {

                          }
                        },
                    "audio" : 
                        {
                          "id" : 674,
                          "_type" : "AMFile",
                          "src" : 6,
                          "trackNumber" : 2,
                          "attributes" : {
                            "ident" : "",
                            "gain" : 1.0,
                            "mixToMono" : false
                          },
                            "channelNumber" : "0,1",
                          "effects" : [

                          ],
                          "start" : 5925,
                          "duration" : 148,
                          "mediaStart" : 3077,
                          "mediaDuration" : 148,
                          "scalar" : 1,
                          "animationTracks" : {

                          }
                        }
,
                    "start" : 5925,
                    "duration" : 148,
                    "mediaStart" : 0,
                    "mediaDuration" : 4875,
                    "scalar" : 1,
                    "metadata" : {
                      "clipSpeedAttribute" : false
                    }
                  },
                  {
                    "id" : 675,
                    "_type" : "UnifiedMedia",
                    "video" : 
                        {
                          "id" : 676,
                          "_type" : "VMFile",
                          "src" : 6,
                          "trackNumber" : 1,
                          "attributes" : {
                            "ident" : "Grabación 26-12-{AA}_018"
                          },
                          "parameters" : {
                            "translation0" : 800.0,
                            "translation1" : -450.0,
                            "scale0" : 0.25,
                            "scale1" : 0.25,
                            "sourceCrop0" : 0.0,
                            "sourceCrop1" : 0.0,
                            "sourceCrop2" : 0.0,
                            "sourceCrop3" : 0.0,
                            "geometryCrop0" : 0.0,
                            "geometryCrop1" : 0.0,
                            "geometryCrop2" : 0.0,
                            "geometryCrop3" : 0.0
                          },
                          "effects" : [

                          ],
                          "start" : 6073,
                          "duration" : 116,
                          "mediaStart" : 3235,
                          "mediaDuration" : 116,
                          "scalar" : 1,
                          "animationTracks" : {

                          }
                        },
                    "audio" : 
                        {
                          "id" : 677,
                          "_type" : "AMFile",
                          "src" : 6,
                          "trackNumber" : 2,
                          "attributes" : {
                            "ident" : "",
                            "gain" : 1.0,
                            "mixToMono" : false
                          },
                            "channelNumber" : "0,1",
                          "effects" : [

                          ],
                          "start" : 6073,
                          "duration" : 116,
                          "mediaStart" : 3235,
                          "mediaDuration" : 116,
                          "scalar" : 1,
                          "animationTracks" : {

                          }
                        }
,
                    "start" : 6073,
                    "duration" : 116,
                    "mediaStart" : 0,
                    "mediaDuration" : 4875,
                    "scalar" : 1,
                    "metadata" : {
                      "clipSpeedAttribute" : false
                    }
                  },
                  {
                    "id" : 678,
                    "_type" : "UnifiedMedia",
                    "video" : 
                        {
                          "id" : 679,
                          "_type" : "VMFile",
                          "src" : 6,
                          "trackNumber" : 1,
                          "attributes" : {
                            "ident" : "Grabación 26-12-{AA}_018"
                          },
                          "parameters" : {
                            "translation0" : 800.0,
                            "translation1" : -450.0,
                            "scale0" : 0.25,
                            "scale1" : 0.25,
                            "sourceCrop0" : 0.0,
                            "sourceCrop1" : 0.0,
                            "sourceCrop2" : 0.0,
                            "sourceCrop3" : 0.0,
                            "geometryCrop0" : 0.0,
                            "geometryCrop1" : 0.0,
                            "geometryCrop2" : 0.0,
                            "geometryCrop3" : 0.0
                          },
                          "effects" : [

                          ],
                          "start" : 6189,
                          "duration" : 31,
                          "mediaStart" : 3363,
                          "mediaDuration" : 31,
                          "scalar" : 1,
                          "animationTracks" : {

                          }
                        },
                    "audio" : 
                        {
                          "id" : 680,
                          "_type" : "AMFile",
                          "src" : 6,
                          "trackNumber" : 2,
                          "attributes" : {
                            "ident" : "",
                            "gain" : 1.0,
                            "mixToMono" : false
                          },
                            "channelNumber" : "0,1",
                          "effects" : [

                          ],
                          "start" : 6189,
                          "duration" : 31,
                          "mediaStart" : 3363,
                          "mediaDuration" : 31,
                          "scalar" : 1,
                          "animationTracks" : {

                          }
                        }
,
                    "start" : 6189,
                    "duration" : 31,
                    "mediaStart" : 0,
                    "mediaDuration" : 4875,
                    "scalar" : 1,
                    "metadata" : {
                      "clipSpeedAttribute" : false
                    }
                  },
                  {
                    "id" : 681,
                    "_type" : "UnifiedMedia",
                    "video" : 
                        {
                          "id" : 682,
                          "_type" : "VMFile",
                          "src" : 6,
                          "trackNumber" : 1,
                          "attributes" : {
                            "ident" : "Grabación 26-12-{AA}_018"
                          },
                          "parameters" : {
                            "translation0" : 800.0,
                            "translation1" : -450.0,
                            "scale0" : 0.25,
                            "scale1" : 0.25,
                            "sourceCrop0" : 0.0,
                            "sourceCrop1" : 0.0,
                            "sourceCrop2" : 0.0,
                            "sourceCrop3" : 0.0,
                            "geometryCrop0" : 0.0,
                            "geometryCrop1" : 0.0,
                            "geometryCrop2" : 0.0,
                            "geometryCrop3" : 0.0
                          },
                          "effects" : [

                          ],
                          "start" : 6220,
                          "duration" : 48,
                          "mediaStart" : 3404,
                          "mediaDuration" : 48,
                          "scalar" : 1,
                          "animationTracks" : {

                          }
                        },
                    "audio" : 
                        {
                          "id" : 683,
                          "_type" : "AMFile",
                          "src" : 6,
                          "trackNumber" : 2,
                          "attributes" : {
                            "ident" : "",
                            "gain" : 1.0,
                            "mixToMono" : false
                          },
                            "channelNumber" : "0,1",
                          "effects" : [

                          ],
                          "start" : 6220,
                          "duration" : 48,
                          "mediaStart" : 3404,
                          "mediaDuration" : 48,
                          "scalar" : 1,
                          "animationTracks" : {

                          }
                        }
,
                    "start" : 6220,
                    "duration" : 48,
                    "mediaStart" : 0,
                    "mediaDuration" : 4875,
                    "scalar" : 1,
                    "metadata" : {
                      "clipSpeedAttribute" : false
                    }
                  },
                  {
                    "id" : 684,
                    "_type" : "UnifiedMedia",
                    "video" : 
                        {
                          "id" : 685,
                          "_type" : "VMFile",
                          "src" : 6,
                          "trackNumber" : 1,
                          "attributes" : {
                            "ident" : "Grabación 26-12-{AA}_018"
                          },
                          "parameters" : {
                            "translation0" : 800.0,
                            "translation1" : -450.0,
                            "scale0" : 0.25,
                            "scale1" : 0.25,
                            "sourceCrop0" : 0.0,
                            "sourceCrop1" : 0.0,
                            "sourceCrop2" : 0.0,
                            "sourceCrop3" : 0.0,
                            "geometryCrop0" : 0.0,
                            "geometryCrop1" : 0.0,
                            "geometryCrop2" : 0.0,
                            "geometryCrop3" : 0.0
                          },
                          "effects" : [

                          ],
                          "start" : 6268,
                          "duration" : 65,
                          "mediaStart" : 3464,
                          "mediaDuration" : 65,
                          "scalar" : 1,
                          "animationTracks" : {

                          }
                        },
                    "audio" : 
                        {
                          "id" : 686,
                          "_type" : "AMFile",
                          "src" : 6,
                          "trackNumber" : 2,
                          "attributes" : {
                            "ident" : "",
                            "gain" : 1.0,
                            "mixToMono" : false
                          },
                            "channelNumber" : "0,1",
                          "effects" : [

                          ],
                          "start" : 6268,
                          "duration" : 65,
                          "mediaStart" : 3464,
                          "mediaDuration" : 65,
                          "scalar" : 1,
                          "animationTracks" : {

                          }
                        }
,
                    "start" : 6268,
                    "duration" : 65,
                    "mediaStart" : 0,
                    "mediaDuration" : 4875,
                    "scalar" : 1,
                    "metadata" : {
                      "clipSpeedAttribute" : false
                    }
                  },
                  {
                    "id" : 687,
                    "_type" : "UnifiedMedia",
                    "video" : 
                        {
                          "id" : 688,
                          "_type" : "VMFile",
                          "src" : 6,
                          "trackNumber" : 1,
                          "attributes" : {
                            "ident" : "Grabación 26-12-{AA}_018"
                          },
                          "parameters" : {
                            "translation0" : 800.0,
                            "translation1" : -450.0,
                            "scale0" : 0.25,
                            "scale1" : 0.25,
                            "sourceCrop0" : 0.0,
                            "sourceCrop1" : 0.0,
                            "sourceCrop2" : 0.0,
                            "sourceCrop3" : 0.0,
                            "geometryCrop0" : 0.0,
                            "geometryCrop1" : 0.0,
                            "geometryCrop2" : 0.0,
                            "geometryCrop3" : 0.0
                          },
                          "effects" : [

                          ],
                          "start" : 6333,
                          "duration" : 70,
                          "mediaStart" : 3538,
                          "mediaDuration" : 70,
                          "scalar" : 1,
                          "animationTracks" : {

                          }
                        },
                    "audio" : 
                        {
                          "id" : 689,
                          "_type" : "AMFile",
                          "src" : 6,
                          "trackNumber" : 2,
                          "attributes" : {
                            "ident" : "",
                            "gain" : 1.0,
                            "mixToMono" : false
                          },
                            "channelNumber" : "0,1",
                          "effects" : [

                          ],
                          "start" : 6333,
                          "duration" : 70,
                          "mediaStart" : 3538,
                          "mediaDuration" : 70,
                          "scalar" : 1,
                          "animationTracks" : {

                          }
                        }
,
                    "start" : 6333,
                    "duration" : 70,
                    "mediaStart" : 0,
                    "mediaDuration" : 4875,
                    "scalar" : 1,
                    "metadata" : {
                      "clipSpeedAttribute" : false
                    }
                  },
                  {
                    "id" : 690,
                    "_type" : "UnifiedMedia",
                    "video" : 
                        {
                          "id" : 691,
                          "_type" : "VMFile",
                          "src" : 6,
                          "trackNumber" : 1,
                          "attributes" : {
                            "ident" : "Grabación 26-12-{AA}_018"
                          },
                          "parameters" : {
                            "translation0" : 800.0,
                            "translation1" : -450.0,
                            "scale0" : 0.25,
                            "scale1" : 0.25,
                            "sourceCrop0" : 0.0,
                            "sourceCrop1" : 0.0,
                            "sourceCrop2" : 0.0,
                            "sourceCrop3" : 0.0,
                            "geometryCrop0" : 0.0,
                            "geometryCrop1" : 0.0,
                            "geometryCrop2" : 0.0,
                            "geometryCrop3" : 0.0
                          },
                          "effects" : [

                          ],
                          "start" : 6403,
                          "duration" : 154,
                          "mediaStart" : 3637,
                          "mediaDuration" : 154,
                          "scalar" : 1,
                          "animationTracks" : {

                          }
                        },
                    "audio" : 
                        {
                          "id" : 692,
                          "_type" : "AMFile",
                          "src" : 6,
                          "trackNumber" : 2,
                          "attributes" : {
                            "ident" : "",
                            "gain" : 1.0,
                            "mixToMono" : false
                          },
                            "channelNumber" : "0,1",
                          "effects" : [

                          ],
                          "start" : 6403,
                          "duration" : 154,
                          "mediaStart" : 3637,
                          "mediaDuration" : 154,
                          "scalar" : 1,
                          "animationTracks" : {

                          }
                        }
,
                    "start" : 6403,
                    "duration" : 154,
                    "mediaStart" : 0,
                    "mediaDuration" : 4875,
                    "scalar" : 1,
                    "metadata" : {
                      "clipSpeedAttribute" : false
                    }
                  },
                  {
                    "id" : 693,
                    "_type" : "UnifiedMedia",
                    "video" : 
                        {
                          "id" : 694,
                          "_type" : "VMFile",
                          "src" : 6,
                          "trackNumber" : 1,
                          "attributes" : {
                            "ident" : "Grabación 26-12-{AA}_018"
                          },
                          "parameters" : {
                            "translation0" : 800.0,
                            "translation1" : -450.0,
                            "scale0" : 0.25,
                            "scale1" : 0.25,
                            "sourceCrop0" : 0.0,
                            "sourceCrop1" : 0.0,
                            "sourceCrop2" : 0.0,
                            "sourceCrop3" : 0.0,
                            "geometryCrop0" : 0.0,
                            "geometryCrop1" : 0.0,
                            "geometryCrop2" : 0.0,
                            "geometryCrop3" : 0.0
                          },
                          "effects" : [

                          ],
                          "start" : 6557,
                          "duration" : 142,
                          "mediaStart" : 3801,
                          "mediaDuration" : 142,
                          "scalar" : 1,
                          "animationTracks" : {

                          }
                        },
                    "audio" : 
                        {
                          "id" : 695,
                          "_type" : "AMFile",
                          "src" : 6,
                          "trackNumber" : 2,
                          "attributes" : {
                            "ident" : "",
                            "gain" : 1.0,
                            "mixToMono" : false
                          },
                            "channelNumber" : "0,1",
                          "effects" : [

                          ],
                          "start" : 6557,
                          "duration" : 142,
                          "mediaStart" : 3801,
                          "mediaDuration" : 142,
                          "scalar" : 1,
                          "animationTracks" : {

                          }
                        }
,
                    "start" : 6557,
                    "duration" : 142,
                    "mediaStart" : 0,
                    "mediaDuration" : 4875,
                    "scalar" : 1,
                    "metadata" : {
                      "clipSpeedAttribute" : false
                    }
                  },
                  {
                    "id" : 696,
                    "_type" : "UnifiedMedia",
                    "video" : 
                        {
                          "id" : 697,
                          "_type" : "VMFile",
                          "src" : 6,
                          "trackNumber" : 1,
                          "attributes" : {
                            "ident" : "Grabación 26-12-{AA}_018"
                          },
                          "parameters" : {
                            "translation0" : 800.0,
                            "translation1" : -450.0,
                            "scale0" : 0.25,
                            "scale1" : 0.25,
                            "sourceCrop0" : 0.0,
                            "sourceCrop1" : 0.0,
                            "sourceCrop2" : 0.0,
                            "sourceCrop3" : 0.0,
                            "geometryCrop0" : 0.0,
                            "geometryCrop1" : 0.0,
                            "geometryCrop2" : 0.0,
                            "geometryCrop3" : 0.0
                          },
                          "effects" : [

                          ],
                          "start" : 6699,
                          "duration" : 85,
                          "mediaStart" : 3956,
                          "mediaDuration" : 85,
                          "scalar" : 1,
                          "animationTracks" : {

                          }
                        },
                    "audio" : 
                        {
                          "id" : 698,
                          "_type" : "AMFile",
                          "src" : 6,
                          "trackNumber" : 2,
                          "attributes" : {
                            "ident" : "",
                            "gain" : 1.0,
                            "mixToMono" : false
                          },
                            "channelNumber" : "0,1",
                          "effects" : [

                          ],
                          "start" : 6699,
                          "duration" : 85,
                          "mediaStart" : 3956,
                          "mediaDuration" : 85,
                          "scalar" : 1,
                          "animationTracks" : {

                          }
                        }
,
                    "start" : 6699,
                    "duration" : 85,
                    "mediaStart" : 0,
                    "mediaDuration" : 4875,
                    "scalar" : 1,
                    "metadata" : {
                      "clipSpeedAttribute" : false
                    }
                  },
                  {
                    "id" : 699,
                    "_type" : "UnifiedMedia",
                    "video" : 
                        {
                          "id" : 700,
                          "_type" : "VMFile",
                          "src" : 6,
                          "trackNumber" : 1,
                          "attributes" : {
                            "ident" : "Grabación 26-12-{AA}_018"
                          },
                          "parameters" : {
                            "translation0" : 800.0,
                            "translation1" : -450.0,
                            "scale0" : 0.25,
                            "scale1" : 0.25,
                            "sourceCrop0" : 0.0,
                            "sourceCrop1" : 0.0,
                            "sourceCrop2" : 0.0,
                            "sourceCrop3" : 0.0,
                            "geometryCrop0" : 0.0,
                            "geometryCrop1" : 0.0,
                            "geometryCrop2" : 0.0,
                            "geometryCrop3" : 0.0
                          },
                          "effects" : [

                          ],
                          "start" : 6784,
                          "duration" : 61,
                          "mediaStart" : 4069,
                          "mediaDuration" : 61,
                          "scalar" : 1,
                          "animationTracks" : {

                          }
                        },
                    "audio" : 
                        {
                          "id" : 701,
                          "_type" : "AMFile",
                          "src" : 6,
                          "trackNumber" : 2,
                          "attributes" : {
                            "ident" : "",
                            "gain" : 1.0,
                            "mixToMono" : false
                          },
                            "channelNumber" : "0,1",
                          "effects" : [

                          ],
                          "start" : 6784,
                          "duration" : 61,
                          "mediaStart" : 4069,
                          "mediaDuration" : 61,
                          "scalar" : 1,
                          "animationTracks" : {

                          }
                        }
,
                    "start" : 6784,
                    "duration" : 61,
                    "mediaStart" : 0,
                    "mediaDuration" : 4875,
                    "scalar" : 1,
                    "metadata" : {
                      "clipSpeedAttribute" : false
                    }
                  },
                  {
                    "id" : 702,
                    "_type" : "UnifiedMedia",
                    "video" : 
                        {
                          "id" : 703,
                          "_type" : "VMFile",
                          "src" : 6,
                          "trackNumber" : 1,
                          "attributes" : {
                            "ident" : "Grabación 26-12-{AA}_018"
                          },
                          "parameters" : {
                            "translation0" : 800.0,
                            "translation1" : -450.0,
                            "scale0" : 0.25,
                            "scale1" : 0.25,
                            "sourceCrop0" : 0.0,
                            "sourceCrop1" : 0.0,
                            "sourceCrop2" : 0.0,
                            "sourceCrop3" : 0.0,
                            "geometryCrop0" : 0.0,
                            "geometryCrop1" : 0.0,
                            "geometryCrop2" : 0.0,
                            "geometryCrop3" : 0.0
                          },
                          "effects" : [

                          ],
                          "start" : 6845,
                          "duration" : 50,
                          "mediaStart" : 4151,
                          "mediaDuration" : 50,
                          "scalar" : 1,
                          "animationTracks" : {

                          }
                        },
                    "audio" : 
                        {
                          "id" : 704,
                          "_type" : "AMFile",
                          "src" : 6,
                          "trackNumber" : 2,
                          "attributes" : {
                            "ident" : "",
                            "gain" : 1.0,
                            "mixToMono" : false
                          },
                            "channelNumber" : "0,1",
                          "effects" : [

                          ],
                          "start" : 6845,
                          "duration" : 50,
                          "mediaStart" : 4151,
                          "mediaDuration" : 50,
                          "scalar" : 1,
                          "animationTracks" : {

                          }
                        }
,
                    "start" : 6845,
                    "duration" : 50,
                    "mediaStart" : 0,
                    "mediaDuration" : 4875,
                    "scalar" : 1,
                    "metadata" : {
                      "clipSpeedAttribute" : false
                    }
                  },
                  {
                    "id" : 705,
                    "_type" : "UnifiedMedia",
                    "video" : 
                        {
                          "id" : 706,
                          "_type" : "VMFile",
                          "src" : 6,
                          "trackNumber" : 1,
                          "attributes" : {
                            "ident" : "Grabación 26-12-{AA}_018"
                          },
                          "parameters" : {
                            "translation0" : 800.0,
                            "translation1" : -450.0,
                            "scale0" : 0.25,
                            "scale1" : 0.25,
                            "sourceCrop0" : 0.0,
                            "sourceCrop1" : 0.0,
                            "sourceCrop2" : 0.0,
                            "sourceCrop3" : 0.0,
                            "geometryCrop0" : 0.0,
                            "geometryCrop1" : 0.0,
                            "geometryCrop2" : 0.0,
                            "geometryCrop3" : 0.0
                          },
                          "effects" : [

                          ],
                          "start" : 6895,
                          "duration" : 130,
                          "mediaStart" : 4232,
                          "mediaDuration" : 130,
                          "scalar" : 1,
                          "animationTracks" : {

                          }
                        },
                    "audio" : 
                        {
                          "id" : 707,
                          "_type" : "AMFile",
                          "src" : 6,
                          "trackNumber" : 2,
                          "attributes" : {
                            "ident" : "",
                            "gain" : 1.0,
                            "mixToMono" : false
                          },
                            "channelNumber" : "0,1",
                          "effects" : [

                          ],
                          "start" : 6895,
                          "duration" : 130,
                          "mediaStart" : 4232,
                          "mediaDuration" : 130,
                          "scalar" : 1,
                          "animationTracks" : {

                          }
                        }
,
                    "start" : 6895,
                    "duration" : 130,
                    "mediaStart" : 0,
                    "mediaDuration" : 4875,
                    "scalar" : 1,
                    "metadata" : {
                      "clipSpeedAttribute" : false
                    }
                  },
                  {
                    "id" : 708,
                    "_type" : "UnifiedMedia",
                    "video" : 
                        {
                          "id" : 709,
                          "_type" : "VMFile",
                          "src" : 6,
                          "trackNumber" : 1,
                          "attributes" : {
                            "ident" : "Grabación 26-12-{AA}_018"
                          },
                          "parameters" : {
                            "translation0" : 800.0,
                            "translation1" : -450.0,
                            "scale0" : 0.25,
                            "scale1" : 0.25,
                            "sourceCrop0" : 0.0,
                            "sourceCrop1" : 0.0,
                            "sourceCrop2" : 0.0,
                            "sourceCrop3" : 0.0,
                            "geometryCrop0" : 0.0,
                            "geometryCrop1" : 0.0,
                            "geometryCrop2" : 0.0,
                            "geometryCrop3" : 0.0
                          },
                          "effects" : [

                          ],
                          "start" : 7025,
                          "duration" : 176,
                          "mediaStart" : 4393,
                          "mediaDuration" : 176,
                          "scalar" : 1,
                          "animationTracks" : {

                          }
                        },
                    "audio" : 
                        {
                          "id" : 710,
                          "_type" : "AMFile",
                          "src" : 6,
                          "trackNumber" : 2,
                          "attributes" : {
                            "ident" : "",
                            "gain" : 1.0,
                            "mixToMono" : false
                          },
                            "channelNumber" : "0,1",
                          "effects" : [

                          ],
                          "start" : 7025,
                          "duration" : 176,
                          "mediaStart" : 4393,
                          "mediaDuration" : 176,
                          "scalar" : 1,
                          "animationTracks" : {

                          }
                        }
,
                    "start" : 7025,
                    "duration" : 176,
                    "mediaStart" : 0,
                    "mediaDuration" : 4875,
                    "scalar" : 1,
                    "metadata" : {
                      "clipSpeedAttribute" : false
                    }
                  },
                  {
                    "id" : 711,
                    "_type" : "UnifiedMedia",
                    "video" : 
                        {
                          "id" : 712,
                          "_type" : "VMFile",
                          "src" : 6,
                          "trackNumber" : 1,
                          "attributes" : {
                            "ident" : "Grabación 26-12-{AA}_018"
                          },
                          "parameters" : {
                            "translation0" : 800.0,
                            "translation1" : -450.0,
                            "scale0" : 0.25,
                            "scale1" : 0.25,
                            "sourceCrop0" : 0.0,
                            "sourceCrop1" : 0.0,
                            "sourceCrop2" : 0.0,
                            "sourceCrop3" : 0.0,
                            "geometryCrop0" : 0.0,
                            "geometryCrop1" : 0.0,
                            "geometryCrop2" : 0.0,
                            "geometryCrop3" : 0.0
                          },
                          "effects" : [

                          ],
                          "start" : 7201,
                          "duration" : 44,
                          "mediaStart" : 4607,
                          "mediaDuration" : 44,
                          "scalar" : 1,
                          "animationTracks" : {

                          }
                        },
                    "audio" : 
                        {
                          "id" : 713,
                          "_type" : "AMFile",
                          "src" : 6,
                          "trackNumber" : 2,
                          "attributes" : {
                            "ident" : "",
                            "gain" : 1.0,
                            "mixToMono" : false
                          },
                            "channelNumber" : "0,1",
                          "effects" : [

                          ],
                          "start" : 7201,
                          "duration" : 44,
                          "mediaStart" : 4607,
                          "mediaDuration" : 44,
                          "scalar" : 1,
                          "animationTracks" : {

                          }
                        }
,
                    "start" : 7201,
                    "duration" : 44,
                    "mediaStart" : 0,
                    "mediaDuration" : 4875,
                    "scalar" : 1,
                    "metadata" : {
                      "clipSpeedAttribute" : false
                    }
                  },
                  {
                    "id" : 714,
                    "_type" : "UnifiedMedia",
                    "video" : 
                        {
                          "id" : 715,
                          "_type" : "VMFile",
                          "src" : 6,
                          "trackNumber" : 1,
                          "attributes" : {
                            "ident" : "Grabación 26-12-{AA}_018"
                          },
                          "parameters" : {
                            "translation0" : 800.0,
                            "translation1" : -450.0,
                            "scale0" : 0.25,
                            "scale1" : 0.25,
                            "sourceCrop0" : 0.0,
                            "sourceCrop1" : 0.0,
                            "sourceCrop2" : 0.0,
                            "sourceCrop3" : 0.0,
                            "geometryCrop0" : 0.0,
                            "geometryCrop1" : 0.0,
                            "geometryCrop2" : 0.0,
                            "geometryCrop3" : 0.0
                          },
                          "effects" : [

                          ],
                          "start" : 7245,
                          "duration" : 59,
                          "mediaStart" : 4665,
                          "mediaDuration" : 59,
                          "scalar" : 1,
                          "animationTracks" : {

                          }
                        },
                    "audio" : 
                        {
                          "id" : 716,
                          "_type" : "AMFile",
                          "src" : 6,
                          "trackNumber" : 2,
                          "attributes" : {
                            "ident" : "",
                            "gain" : 1.0,
                            "mixToMono" : false
                          },
                            "channelNumber" : "0,1",
                          "effects" : [

                          ],
                          "start" : 7245,
                          "duration" : 59,
                          "mediaStart" : 4665,
                          "mediaDuration" : 59,
                          "scalar" : 1,
                          "animationTracks" : {

                          }
                        }
,
                    "start" : 7245,
                    "duration" : 59,
                    "mediaStart" : 0,
                    "mediaDuration" : 4875,
                    "scalar" : 1,
                    "metadata" : {
                      "clipSpeedAttribute" : false
                    }
                  },
                  {
                    "id" : 717,
                    "_type" : "UnifiedMedia",
                    "video" : 
                        {
                          "id" : 718,
                          "_type" : "VMFile",
                          "src" : 6,
                          "trackNumber" : 1,
                          "attributes" : {
                            "ident" : "Grabación 26-12-{AA}_018"
                          },
                          "parameters" : {
                            "translation0" : 800.0,
                            "translation1" : -450.0,
                            "scale0" : 0.25,
                            "scale1" : 0.25,
                            "sourceCrop0" : 0.0,
                            "sourceCrop1" : 0.0,
                            "sourceCrop2" : 0.0,
                            "sourceCrop3" : 0.0,
                            "geometryCrop0" : 0.0,
                            "geometryCrop1" : 0.0,
                            "geometryCrop2" : 0.0,
                            "geometryCrop3" : 0.0
                          },
                          "effects" : [

                          ],
                          "start" : 7304,
                          "duration" : 41,
                          "mediaStart" : 4753,
                          "mediaDuration" : 41,
                          "scalar" : 1,
                          "animationTracks" : {

                          }
                        },
                    "audio" : 
                        {
                          "id" : 719,
                          "_type" : "AMFile",
                          "src" : 6,
                          "trackNumber" : 2,
                          "attributes" : {
                            "ident" : "",
                            "gain" : 1.0,
                            "mixToMono" : false
                          },
                            "channelNumber" : "0,1",
                          "effects" : [

                          ],
                          "start" : 7304,
                          "duration" : 41,
                          "mediaStart" : 4753,
                          "mediaDuration" : 41,
                          "scalar" : 1,
                          "animationTracks" : {

                          }
                        }
,
                    "start" : 7304,
                    "duration" : 41,
                    "mediaStart" : 0,
                    "mediaDuration" : 4875,
                    "scalar" : 1,
                    "metadata" : {
                      "clipSpeedAttribute" : false
                    }
                  },
                  {
                    "id" : 720,
                    "_type" : "UnifiedMedia",
                    "video" : 
                        {
                          "id" : 721,
                          "_type" : "VMFile",
                          "src" : 6,
                          "trackNumber" : 1,
                          "attributes" : {
                            "ident" : "Grabación 26-12-{AA}_018"
                          },
                          "parameters" : {
                            "translation0" : 800.0,
                            "translation1" : -450.0,
                            "scale0" : 0.25,
                            "scale1" : 0.25,
                            "sourceCrop0" : 0.0,
                            "sourceCrop1" : 0.0,
                            "sourceCrop2" : 0.0,
                            "sourceCrop3" : 0.0,
                            "geometryCrop0" : 0.0,
                            "geometryCrop1" : 0.0,
                            "geometryCrop2" : 0.0,
                            "geometryCrop3" : 0.0
                          },
                          "effects" : [

                          ],
                          "start" : 7345,
                          "duration" : 9,
                          "mediaStart" : 4794,
                          "mediaDuration" : 9,
                          "scalar" : 1,
                          "animationTracks" : {

                          }
                        },
                    "audio" : 
                        {
                          "id" : 722,
                          "_type" : "AMFile",
                          "src" : 6,
                          "trackNumber" : 2,
                          "attributes" : {
                            "ident" : "",
                            "gain" : 1.0,
                            "mixToMono" : false
                          },
                            "channelNumber" : "0,1",
                          "effects" : [

                          ],
                          "start" : 7345,
                          "duration" : 9,
                          "mediaStart" : 4794,
                          "mediaDuration" : 9,
                          "scalar" : 1,
                          "animationTracks" : {

                          }
                        }
,
                    "start" : 7345,
                    "duration" : 9,
                    "mediaStart" : 0,
                    "mediaDuration" : 4875,
                    "scalar" : 1,
                    "metadata" : {
                      "clipSpeedAttribute" : false
                    }
                  },
                  {
                    "id" : 723,
                    "_type" : "UnifiedMedia",
                    "video" : 
                        {
                          "id" : 724,
                          "_type" : "VMFile",
                          "src" : 6,
                          "trackNumber" : 1,
                          "attributes" : {
                            "ident" : "Grabación 26-12-{AA}_018"
                          },
                          "parameters" : {
                            "translation0" : 800.0,
                            "translation1" : -450.0,
                            "scale0" : 0.25,
                            "scale1" : 0.25,
                            "sourceCrop0" : 0.0,
                            "sourceCrop1" : 0.0,
                            "sourceCrop2" : 0.0,
                            "sourceCrop3" : 0.0,
                            "geometryCrop0" : 0.0,
                            "geometryCrop1" : 0.0,
                            "geometryCrop2" : 0.0,
                            "geometryCrop3" : 0.0
                          },
                          "effects" : [

                          ],
                          "start" : 7354,
                          "duration" : 24,
                          "mediaStart" : 4816,
                          "mediaDuration" : 24,
                          "scalar" : 1,
                          "animationTracks" : {

                          }
                        },
                    "audio" : 
                        {
                          "id" : 725,
                          "_type" : "AMFile",
                          "src" : 6,
                          "trackNumber" : 2,
                          "attributes" : {
                            "ident" : "",
                            "gain" : 1.0,
                            "mixToMono" : false
                          },
                            "channelNumber" : "0,1",
                          "effects" : [

                          ],
                          "start" : 7354,
                          "duration" : 24,
                          "mediaStart" : 4816,
                          "mediaDuration" : 24,
                          "scalar" : 1,
                          "animationTracks" : {

                          }
                        }
,
                    "start" : 7354,
                    "duration" : 24,
                    "mediaStart" : 0,
                    "mediaDuration" : 4875,
                    "scalar" : 1,
                    "metadata" : {
                      "clipSpeedAttribute" : false
                    }
                  },
                  {
                    "id" : 726,
                    "_type" : "UnifiedMedia",
                    "video" : 
                        {
                          "id" : 727,
                          "_type" : "VMFile",
                          "src" : 7,
                          "trackNumber" : 0,
                          "attributes" : {
                            "ident" : "Luis_Alberto"
                          },
                          "parameters" : {
                            "sourceCrop0" : 0.0,
                            "sourceCrop1" : 0.0,
                            "sourceCrop2" : 0.0,
                            "sourceCrop3" : 0.0,
                            "geometryCrop0" : 0.0,
                            "geometryCrop1" : 0.0,
                            "geometryCrop2" : 0.0,
                            "geometryCrop3" : 0.0
                          },
                          "effects" : [

                          ],
                          "start" : 7378,
                          "duration" : 167,
                          "mediaStart" : 14,
                          "mediaDuration" : 167,
                          "scalar" : 1,
                          "animationTracks" : {

                          }
                        },
                    "audio" : 
                        {
                          "id" : 728,
                          "_type" : "AMFile",
                          "src" : 7,
                          "trackNumber" : 1,
                          "attributes" : {
                            "ident" : "",
                            "gain" : 1.0,
                            "mixToMono" : false
                          },
                            "channelNumber" : "0,1",
                          "effects" : [

                          ],
                          "start" : 7378,
                          "duration" : 167,
                          "mediaStart" : 14,
                          "mediaDuration" : 167,
                          "scalar" : 1,
                          "animationTracks" : {

                          }
                        }
,
                    "start" : 7378,
                    "duration" : 167,
                    "mediaStart" : 0,
                    "mediaDuration" : 3804,
                    "scalar" : 1,
                    "metadata" : {
                      "clipSpeedAttribute" : false
                    }
                  },
                  {
                    "id" : 729,
                    "_type" : "UnifiedMedia",
                    "video" : 
                        {
                          "id" : 730,
                          "_type" : "VMFile",
                          "src" : 7,
                          "trackNumber" : 0,
                          "attributes" : {
                            "ident" : "Luis_Alberto"
                          },
                          "parameters" : {
                            "sourceCrop0" : 0.0,
                            "sourceCrop1" : 0.0,
                            "sourceCrop2" : 0.0,
                            "sourceCrop3" : 0.0,
                            "geometryCrop0" : 0.0,
                            "geometryCrop1" : 0.0,
                            "geometryCrop2" : 0.0,
                            "geometryCrop3" : 0.0
                          },
                          "effects" : [

                          ],
                          "start" : 7545,
                          "duration" : 79,
                          "mediaStart" : 193,
                          "mediaDuration" : 79,
                          "scalar" : 1,
                          "animationTracks" : {

                          }
                        },
                    "audio" : 
                        {
                          "id" : 731,
                          "_type" : "AMFile",
                          "src" : 7,
                          "trackNumber" : 1,
                          "attributes" : {
                            "ident" : "",
                            "gain" : 1.0,
                            "mixToMono" : false
                          },
                            "channelNumber" : "0,1",
                          "effects" : [

                          ],
                          "start" : 7545,
                          "duration" : 79,
                          "mediaStart" : 193,
                          "mediaDuration" : 79,
                          "scalar" : 1,
                          "animationTracks" : {

                          }
                        }
,
                    "start" : 7545,
                    "duration" : 79,
                    "mediaStart" : 0,
                    "mediaDuration" : 3804,
                    "scalar" : 1,
                    "metadata" : {
                      "clipSpeedAttribute" : false
                    }
                  },
                  {
                    "id" : 732,
                    "_type" : "UnifiedMedia",
                    "video" : 
                        {
                          "id" : 733,
                          "_type" : "VMFile",
                          "src" : 7,
                          "trackNumber" : 0,
                          "attributes" : {
                            "ident" : "Luis_Alberto"
                          },
                          "parameters" : {
                            "sourceCrop0" : 0.0,
                            "sourceCrop1" : 0.0,
                            "sourceCrop2" : 0.0,
                            "sourceCrop3" : 0.0,
                            "geometryCrop0" : 0.0,
                            "geometryCrop1" : 0.0,
                            "geometryCrop2" : 0.0,
                            "geometryCrop3" : 0.0
                          },
                          "effects" : [

                          ],
                          "start" : 7624,
                          "duration" : 21,
                          "mediaStart" : 310,
                          "mediaDuration" : 21,
                          "scalar" : 1,
                          "animationTracks" : {

                          }
                        },
                    "audio" : 
                        {
                          "id" : 734,
                          "_type" : "AMFile",
                          "src" : 7,
                          "trackNumber" : 1,
                          "attributes" : {
                            "ident" : "",
                            "gain" : 1.0,
                            "mixToMono" : false
                          },
                            "channelNumber" : "0,1",
                          "effects" : [

                          ],
                          "start" : 7624,
                          "duration" : 21,
                          "mediaStart" : 310,
                          "mediaDuration" : 21,
                          "scalar" : 1,
                          "animationTracks" : {

                          }
                        }
,
                    "start" : 7624,
                    "duration" : 21,
                    "mediaStart" : 0,
                    "mediaDuration" : 3804,
                    "scalar" : 1,
                    "metadata" : {
                      "clipSpeedAttribute" : false
                    }
                  },
                  {
                    "id" : 735,
                    "_type" : "UnifiedMedia",
                    "video" : 
                        {
                          "id" : 736,
                          "_type" : "VMFile",
                          "src" : 7,
                          "trackNumber" : 0,
                          "attributes" : {
                            "ident" : "Luis_Alberto"
                          },
                          "parameters" : {
                            "sourceCrop0" : 0.0,
                            "sourceCrop1" : 0.0,
                            "sourceCrop2" : 0.0,
                            "sourceCrop3" : 0.0,
                            "geometryCrop0" : 0.0,
                            "geometryCrop1" : 0.0,
                            "geometryCrop2" : 0.0,
                            "geometryCrop3" : 0.0
                          },
                          "effects" : [

                          ],
                          "start" : 7645,
                          "duration" : 138,
                          "mediaStart" : 395,
                          "mediaDuration" : 138,
                          "scalar" : 1,
                          "animationTracks" : {

                          }
                        },
                    "audio" : 
                        {
                          "id" : 737,
                          "_type" : "AMFile",
                          "src" : 7,
                          "trackNumber" : 1,
                          "attributes" : {
                            "ident" : "",
                            "gain" : 1.0,
                            "mixToMono" : false
                          },
                            "channelNumber" : "0,1",
                          "effects" : [

                          ],
                          "start" : 7645,
                          "duration" : 138,
                          "mediaStart" : 395,
                          "mediaDuration" : 138,
                          "scalar" : 1,
                          "animationTracks" : {

                          }
                        }
,
                    "start" : 7645,
                    "duration" : 138,
                    "mediaStart" : 0,
                    "mediaDuration" : 3804,
                    "scalar" : 1,
                    "metadata" : {
                      "clipSpeedAttribute" : false
                    }
                  },
                  {
                    "id" : 738,
                    "_type" : "UnifiedMedia",
                    "video" : 
                        {
                          "id" : 739,
                          "_type" : "VMFile",
                          "src" : 7,
                          "trackNumber" : 0,
                          "attributes" : {
                            "ident" : "Luis_Alberto"
                          },
                          "parameters" : {
                            "sourceCrop0" : 0.0,
                            "sourceCrop1" : 0.0,
                            "sourceCrop2" : 0.0,
                            "sourceCrop3" : 0.0,
                            "geometryCrop0" : 0.0,
                            "geometryCrop1" : 0.0,
                            "geometryCrop2" : 0.0,
                            "geometryCrop3" : 0.0
                          },
                          "effects" : [

                          ],
                          "start" : 7783,
                          "duration" : 18,
                          "mediaStart" : 579,
                          "mediaDuration" : 18,
                          "scalar" : 1,
                          "animationTracks" : {

                          }
                        },
                    "audio" : 
                        {
                          "id" : 740,
                          "_type" : "AMFile",
                          "src" : 7,
                          "trackNumber" : 1,
                          "attributes" : {
                            "ident" : "",
                            "gain" : 1.0,
                            "mixToMono" : false
                          },
                            "channelNumber" : "0,1",
                          "effects" : [

                          ],
                          "start" : 7783,
                          "duration" : 18,
                          "mediaStart" : 579,
                          "mediaDuration" : 18,
                          "scalar" : 1,
                          "animationTracks" : {

                          }
                        }
,
                    "start" : 7783,
                    "duration" : 18,
                    "mediaStart" : 0,
                    "mediaDuration" : 3804,
                    "scalar" : 1,
                    "metadata" : {
                      "clipSpeedAttribute" : false
                    }
                  },
                  {
                    "id" : 741,
                    "_type" : "UnifiedMedia",
                    "video" : 
                        {
                          "id" : 742,
                          "_type" : "VMFile",
                          "src" : 7,
                          "trackNumber" : 0,
                          "attributes" : {
                            "ident" : "Luis_Alberto"
                          },
                          "parameters" : {
                            "sourceCrop0" : 0.0,
                            "sourceCrop1" : 0.0,
                            "sourceCrop2" : 0.0,
                            "sourceCrop3" : 0.0,
                            "geometryCrop0" : 0.0,
                            "geometryCrop1" : 0.0,
                            "geometryCrop2" : 0.0,
                            "geometryCrop3" : 0.0
                          },
                          "effects" : [

                          ],
                          "start" : 7801,
                          "duration" : 59,
                          "mediaStart" : 628,
                          "mediaDuration" : 59,
                          "scalar" : 1,
                          "animationTracks" : {

                          }
                        },
                    "audio" : 
                        {
                          "id" : 743,
                          "_type" : "AMFile",
                          "src" : 7,
                          "trackNumber" : 1,
                          "attributes" : {
                            "ident" : "",
                            "gain" : 1.0,
                            "mixToMono" : false
                          },
                            "channelNumber" : "0,1",
                          "effects" : [

                          ],
                          "start" : 7801,
                          "duration" : 59,
                          "mediaStart" : 628,
                          "mediaDuration" : 59,
                          "scalar" : 1,
                          "animationTracks" : {

                          }
                        }
,
                    "start" : 7801,
                    "duration" : 59,
                    "mediaStart" : 0,
                    "mediaDuration" : 3804,
                    "scalar" : 1,
                    "metadata" : {
                      "clipSpeedAttribute" : false
                    }
                  },
                  {
                    "id" : 744,
                    "_type" : "UnifiedMedia",
                    "video" : 
                        {
                          "id" : 745,
                          "_type" : "VMFile",
                          "src" : 7,
                          "trackNumber" : 0,
                          "attributes" : {
                            "ident" : "Luis_Alberto"
                          },
                          "parameters" : {
                            "sourceCrop0" : 0.0,
                            "sourceCrop1" : 0.0,
                            "sourceCrop2" : 0.0,
                            "sourceCrop3" : 0.0,
                            "geometryCrop0" : 0.0,
                            "geometryCrop1" : 0.0,
                            "geometryCrop2" : 0.0,
                            "geometryCrop3" : 0.0
                          },
                          "effects" : [

                          ],
                          "start" : 7860,
                          "duration" : 7,
                          "mediaStart" : 702,
                          "mediaDuration" : 7,
                          "scalar" : 1,
                          "animationTracks" : {

                          }
                        },
                    "audio" : 
                        {
                          "id" : 746,
                          "_type" : "AMFile",
                          "src" : 7,
                          "trackNumber" : 1,
                          "attributes" : {
                            "ident" : "",
                            "gain" : 1.0,
                            "mixToMono" : false
                          },
                            "channelNumber" : "0,1",
                          "effects" : [

                          ],
                          "start" : 7860,
                          "duration" : 7,
                          "mediaStart" : 702,
                          "mediaDuration" : 7,
                          "scalar" : 1,
                          "animationTracks" : {

                          }
                        }
,
                    "start" : 7860,
                    "duration" : 7,
                    "mediaStart" : 0,
                    "mediaDuration" : 3804,
                    "scalar" : 1,
                    "metadata" : {
                      "clipSpeedAttribute" : false
                    }
                  },
                  {
                    "id" : 747,
                    "_type" : "UnifiedMedia",
                    "video" : 
                        {
                          "id" : 748,
                          "_type" : "VMFile",
                          "src" : 7,
                          "trackNumber" : 0,
                          "attributes" : {
                            "ident" : "Luis_Alberto"
                          },
                          "parameters" : {
                            "sourceCrop0" : 0.0,
                            "sourceCrop1" : 0.0,
                            "sourceCrop2" : 0.0,
                            "sourceCrop3" : 0.0,
                            "geometryCrop0" : 0.0,
                            "geometryCrop1" : 0.0,
                            "geometryCrop2" : 0.0,
                            "geometryCrop3" : 0.0
                          },
                          "effects" : [

                          ],
                          "start" : 7867,
                          "duration" : 103,
                          "mediaStart" : 716,
                          "mediaDuration" : 103,
                          "scalar" : 1,
                          "animationTracks" : {

                          }
                        },
                    "audio" : 
                        {
                          "id" : 749,
                          "_type" : "AMFile",
                          "src" : 7,
                          "trackNumber" : 1,
                          "attributes" : {
                            "ident" : "",
                            "gain" : 1.0,
                            "mixToMono" : false
                          },
                            "channelNumber" : "0,1",
                          "effects" : [

                          ],
                          "start" : 7867,
                          "duration" : 103,
                          "mediaStart" : 716,
                          "mediaDuration" : 103,
                          "scalar" : 1,
                          "animationTracks" : {

                          }
                        }
,
                    "start" : 7867,
                    "duration" : 103,
                    "mediaStart" : 0,
                    "mediaDuration" : 3804,
                    "scalar" : 1,
                    "metadata" : {
                      "clipSpeedAttribute" : false
                    }
                  },
                  {
                    "id" : 750,
                    "_type" : "UnifiedMedia",
                    "video" : 
                        {
                          "id" : 751,
                          "_type" : "VMFile",
                          "src" : 7,
                          "trackNumber" : 0,
                          "attributes" : {
                            "ident" : "Luis_Alberto"
                          },
                          "parameters" : {
                            "sourceCrop0" : 0.0,
                            "sourceCrop1" : 0.0,
                            "sourceCrop2" : 0.0,
                            "sourceCrop3" : 0.0,
                            "geometryCrop0" : 0.0,
                            "geometryCrop1" : 0.0,
                            "geometryCrop2" : 0.0,
                            "geometryCrop3" : 0.0
                          },
                          "effects" : [

                          ],
                          "start" : 7970,
                          "duration" : 53,
                          "mediaStart" : 835,
                          "mediaDuration" : 53,
                          "scalar" : 1,
                          "animationTracks" : {

                          }
                        },
                    "audio" : 
                        {
                          "id" : 752,
                          "_type" : "AMFile",
                          "src" : 7,
                          "trackNumber" : 1,
                          "attributes" : {
                            "ident" : "",
                            "gain" : 1.0,
                            "mixToMono" : false
                          },
                            "channelNumber" : "0,1",
                          "effects" : [

                          ],
                          "start" : 7970,
                          "duration" : 53,
                          "mediaStart" : 835,
                          "mediaDuration" : 53,
                          "scalar" : 1,
                          "animationTracks" : {

                          }
                        }
,
                    "start" : 7970,
                    "duration" : 53,
                    "mediaStart" : 0,
                    "mediaDuration" : 3804,
                    "scalar" : 1,
                    "metadata" : {
                      "clipSpeedAttribute" : false
                    }
                  },
                  {
                    "id" : 753,
                    "_type" : "UnifiedMedia",
                    "video" : 
                        {
                          "id" : 754,
                          "_type" : "VMFile",
                          "src" : 7,
                          "trackNumber" : 0,
                          "attributes" : {
                            "ident" : "Luis_Alberto"
                          },
                          "parameters" : {
                            "sourceCrop0" : 0.0,
                            "sourceCrop1" : 0.0,
                            "sourceCrop2" : 0.0,
                            "sourceCrop3" : 0.0,
                            "geometryCrop0" : 0.0,
                            "geometryCrop1" : 0.0,
                            "geometryCrop2" : 0.0,
                            "geometryCrop3" : 0.0
                          },
                          "effects" : [

                          ],
                          "start" : 8023,
                          "duration" : 40,
                          "mediaStart" : 897,
                          "mediaDuration" : 40,
                          "scalar" : 1,
                          "animationTracks" : {

                          }
                        },
                    "audio" : 
                        {
                          "id" : 755,
                          "_type" : "AMFile",
                          "src" : 7,
                          "trackNumber" : 1,
                          "attributes" : {
                            "ident" : "",
                            "gain" : 1.0,
                            "mixToMono" : false
                          },
                            "channelNumber" : "0,1",
                          "effects" : [

                          ],
                          "start" : 8023,
                          "duration" : 40,
                          "mediaStart" : 897,
                          "mediaDuration" : 40,
                          "scalar" : 1,
                          "animationTracks" : {

                          }
                        }
,
                    "start" : 8023,
                    "duration" : 40,
                    "mediaStart" : 0,
                    "mediaDuration" : 3804,
                    "scalar" : 1,
                    "metadata" : {
                      "clipSpeedAttribute" : false
                    }
                  },
                  {
                    "id" : 756,
                    "_type" : "UnifiedMedia",
                    "video" : 
                        {
                          "id" : 757,
                          "_type" : "VMFile",
                          "src" : 7,
                          "trackNumber" : 0,
                          "attributes" : {
                            "ident" : "Luis_Alberto"
                          },
                          "parameters" : {
                            "sourceCrop0" : 0.0,
                            "sourceCrop1" : 0.0,
                            "sourceCrop2" : 0.0,
                            "sourceCrop3" : 0.0,
                            "geometryCrop0" : 0.0,
                            "geometryCrop1" : 0.0,
                            "geometryCrop2" : 0.0,
                            "geometryCrop3" : 0.0
                          },
                          "effects" : [

                          ],
                          "start" : 8063,
                          "duration" : 13,
                          "mediaStart" : 978,
                          "mediaDuration" : 13,
                          "scalar" : 1,
                          "animationTracks" : {

                          }
                        },
                    "audio" : 
                        {
                          "id" : 758,
                          "_type" : "AMFile",
                          "src" : 7,
                          "trackNumber" : 1,
                          "attributes" : {
                            "ident" : "",
                            "gain" : 1.0,
                            "mixToMono" : false
                          },
                            "channelNumber" : "0,1",
                          "effects" : [

                          ],
                          "start" : 8063,
                          "duration" : 13,
                          "mediaStart" : 978,
                          "mediaDuration" : 13,
                          "scalar" : 1,
                          "animationTracks" : {

                          }
                        }
,
                    "start" : 8063,
                    "duration" : 13,
                    "mediaStart" : 0,
                    "mediaDuration" : 3804,
                    "scalar" : 1,
                    "metadata" : {
                      "clipSpeedAttribute" : false
                    }
                  },
                  {
                    "id" : 759,
                    "_type" : "UnifiedMedia",
                    "video" : 
                        {
                          "id" : 760,
                          "_type" : "VMFile",
                          "src" : 7,
                          "trackNumber" : 0,
                          "attributes" : {
                            "ident" : "Luis_Alberto"
                          },
                          "parameters" : {
                            "sourceCrop0" : 0.0,
                            "sourceCrop1" : 0.0,
                            "sourceCrop2" : 0.0,
                            "sourceCrop3" : 0.0,
                            "geometryCrop0" : 0.0,
                            "geometryCrop1" : 0.0,
                            "geometryCrop2" : 0.0,
                            "geometryCrop3" : 0.0
                          },
                          "effects" : [

                          ],
                          "start" : 8076,
                          "duration" : 39,
                          "mediaStart" : 998,
                          "mediaDuration" : 39,
                          "scalar" : 1,
                          "animationTracks" : {

                          }
                        },
                    "audio" : 
                        {
                          "id" : 761,
                          "_type" : "AMFile",
                          "src" : 7,
                          "trackNumber" : 1,
                          "attributes" : {
                            "ident" : "",
                            "gain" : 1.0,
                            "mixToMono" : false
                          },
                            "channelNumber" : "0,1",
                          "effects" : [

                          ],
                          "start" : 8076,
                          "duration" : 39,
                          "mediaStart" : 998,
                          "mediaDuration" : 39,
                          "scalar" : 1,
                          "animationTracks" : {

                          }
                        }
,
                    "start" : 8076,
                    "duration" : 39,
                    "mediaStart" : 0,
                    "mediaDuration" : 3804,
                    "scalar" : 1,
                    "metadata" : {
                      "clipSpeedAttribute" : false
                    }
                  },
                  {
                    "id" : 762,
                    "_type" : "UnifiedMedia",
                    "video" : 
                        {
                          "id" : 763,
                          "_type" : "VMFile",
                          "src" : 7,
                          "trackNumber" : 0,
                          "attributes" : {
                            "ident" : "Luis_Alberto"
                          },
                          "parameters" : {
                            "sourceCrop0" : 0.0,
                            "sourceCrop1" : 0.0,
                            "sourceCrop2" : 0.0,
                            "sourceCrop3" : 0.0,
                            "geometryCrop0" : 0.0,
                            "geometryCrop1" : 0.0,
                            "geometryCrop2" : 0.0,
                            "geometryCrop3" : 0.0
                          },
                          "effects" : [

                          ],
                          "start" : 8115,
                          "duration" : 36,
                          "mediaStart" : 1043,
                          "mediaDuration" : 36,
                          "scalar" : 1,
                          "animationTracks" : {

                          }
                        },
                    "audio" : 
                        {
                          "id" : 764,
                          "_type" : "AMFile",
                          "src" : 7,
                          "trackNumber" : 1,
                          "attributes" : {
                            "ident" : "",
                            "gain" : 1.0,
                            "mixToMono" : false
                          },
                            "channelNumber" : "0,1",
                          "effects" : [

                          ],
                          "start" : 8115,
                          "duration" : 36,
                          "mediaStart" : 1043,
                          "mediaDuration" : 36,
                          "scalar" : 1,
                          "animationTracks" : {

                          }
                        }
,
                    "start" : 8115,
                    "duration" : 36,
                    "mediaStart" : 0,
                    "mediaDuration" : 3804,
                    "scalar" : 1,
                    "metadata" : {
                      "clipSpeedAttribute" : false
                    }
                  },
                  {
                    "id" : 765,
                    "_type" : "UnifiedMedia",
                    "video" : 
                        {
                          "id" : 766,
                          "_type" : "VMFile",
                          "src" : 7,
                          "trackNumber" : 0,
                          "attributes" : {
                            "ident" : "Luis_Alberto"
                          },
                          "parameters" : {
                            "sourceCrop0" : 0.0,
                            "sourceCrop1" : 0.0,
                            "sourceCrop2" : 0.0,
                            "sourceCrop3" : 0.0,
                            "geometryCrop0" : 0.0,
                            "geometryCrop1" : 0.0,
                            "geometryCrop2" : 0.0,
                            "geometryCrop3" : 0.0
                          },
                          "effects" : [

                          ],
                          "start" : 8151,
                          "duration" : 11,
                          "mediaStart" : 1088,
                          "mediaDuration" : 11,
                          "scalar" : 1,
                          "animationTracks" : {

                          }
                        },
                    "audio" : 
                        {
                          "id" : 767,
                          "_type" : "AMFile",
                          "src" : 7,
                          "trackNumber" : 1,
                          "attributes" : {
                            "ident" : "",
                            "gain" : 1.0,
                            "mixToMono" : false
                          },
                            "channelNumber" : "0,1",
                          "effects" : [

                          ],
                          "start" : 8151,
                          "duration" : 11,
                          "mediaStart" : 1088,
                          "mediaDuration" : 11,
                          "scalar" : 1,
                          "animationTracks" : {

                          }
                        }
,
                    "start" : 8151,
                    "duration" : 11,
                    "mediaStart" : 0,
                    "mediaDuration" : 3804,
                    "scalar" : 1,
                    "metadata" : {
                      "clipSpeedAttribute" : false
                    }
                  },
                  {
                    "id" : 768,
                    "_type" : "UnifiedMedia",
                    "video" : 
                        {
                          "id" : 769,
                          "_type" : "VMFile",
                          "src" : 7,
                          "trackNumber" : 0,
                          "attributes" : {
                            "ident" : "Luis_Alberto"
                          },
                          "parameters" : {
                            "sourceCrop0" : 0.0,
                            "sourceCrop1" : 0.0,
                            "sourceCrop2" : 0.0,
                            "sourceCrop3" : 0.0,
                            "geometryCrop0" : 0.0,
                            "geometryCrop1" : 0.0,
                            "geometryCrop2" : 0.0,
                            "geometryCrop3" : 0.0
                          },
                          "effects" : [

                          ],
                          "start" : 8162,
                          "duration" : 59,
                          "mediaStart" : 1117,
                          "mediaDuration" : 59,
                          "scalar" : 1,
                          "animationTracks" : {

                          }
                        },
                    "audio" : 
                        {
                          "id" : 770,
                          "_type" : "AMFile",
                          "src" : 7,
                          "trackNumber" : 1,
                          "attributes" : {
                            "ident" : "",
                            "gain" : 1.0,
                            "mixToMono" : false
                          },
                            "channelNumber" : "0,1",
                          "effects" : [

                          ],
                          "start" : 8162,
                          "duration" : 59,
                          "mediaStart" : 1117,
                          "mediaDuration" : 59,
                          "scalar" : 1,
                          "animationTracks" : {

                          }
                        }
,
                    "start" : 8162,
                    "duration" : 59,
                    "mediaStart" : 0,
                    "mediaDuration" : 3804,
                    "scalar" : 1,
                    "metadata" : {
                      "clipSpeedAttribute" : false
                    }
                  },
                  {
                    "id" : 771,
                    "_type" : "UnifiedMedia",
                    "video" : 
                        {
                          "id" : 772,
                          "_type" : "VMFile",
                          "src" : 7,
                          "trackNumber" : 0,
                          "attributes" : {
                            "ident" : "Luis_Alberto"
                          },
                          "parameters" : {
                            "sourceCrop0" : 0.0,
                            "sourceCrop1" : 0.0,
                            "sourceCrop2" : 0.0,
                            "sourceCrop3" : 0.0,
                            "geometryCrop0" : 0.0,
                            "geometryCrop1" : 0.0,
                            "geometryCrop2" : 0.0,
                            "geometryCrop3" : 0.0
                          },
                          "effects" : [

                          ],
                          "start" : 8221,
                          "duration" : 82,
                          "mediaStart" : 1183,
                          "mediaDuration" : 82,
                          "scalar" : 1,
                          "animationTracks" : {

                          }
                        },
                    "audio" : 
                        {
                          "id" : 773,
                          "_type" : "AMFile",
                          "src" : 7,
                          "trackNumber" : 1,
                          "attributes" : {
                            "ident" : "",
                            "gain" : 1.0,
                            "mixToMono" : false
                          },
                            "channelNumber" : "0,1",
                          "effects" : [

                          ],
                          "start" : 8221,
                          "duration" : 82,
                          "mediaStart" : 1183,
                          "mediaDuration" : 82,
                          "scalar" : 1,
                          "animationTracks" : {

                          }
                        }
,
                    "start" : 8221,
                    "duration" : 82,
                    "mediaStart" : 0,
                    "mediaDuration" : 3804,
                    "scalar" : 1,
                    "metadata" : {
                      "clipSpeedAttribute" : false
                    }
                  },
                  {
                    "id" : 774,
                    "_type" : "UnifiedMedia",
                    "video" : 
                        {
                          "id" : 775,
                          "_type" : "VMFile",
                          "src" : 7,
                          "trackNumber" : 0,
                          "attributes" : {
                            "ident" : "Luis_Alberto"
                          },
                          "parameters" : {
                            "sourceCrop0" : 0.0,
                            "sourceCrop1" : 0.0,
                            "sourceCrop2" : 0.0,
                            "sourceCrop3" : 0.0,
                            "geometryCrop0" : 0.0,
                            "geometryCrop1" : 0.0,
                            "geometryCrop2" : 0.0,
                            "geometryCrop3" : 0.0
                          },
                          "effects" : [

                          ],
                          "start" : 8303,
                          "duration" : 50,
                          "mediaStart" : 1323,
                          "mediaDuration" : 50,
                          "scalar" : 1,
                          "animationTracks" : {

                          }
                        },
                    "audio" : 
                        {
                          "id" : 776,
                          "_type" : "AMFile",
                          "src" : 7,
                          "trackNumber" : 1,
                          "attributes" : {
                            "ident" : "",
                            "gain" : 1.0,
                            "mixToMono" : false
                          },
                            "channelNumber" : "0,1",
                          "effects" : [

                          ],
                          "start" : 8303,
                          "duration" : 50,
                          "mediaStart" : 1323,
                          "mediaDuration" : 50,
                          "scalar" : 1,
                          "animationTracks" : {

                          }
                        }
,
                    "start" : 8303,
                    "duration" : 50,
                    "mediaStart" : 0,
                    "mediaDuration" : 3804,
                    "scalar" : 1,
                    "metadata" : {
                      "clipSpeedAttribute" : false
                    }
                  },
                  {
                    "id" : 777,
                    "_type" : "UnifiedMedia",
                    "video" : 
                        {
                          "id" : 778,
                          "_type" : "VMFile",
                          "src" : 7,
                          "trackNumber" : 0,
                          "attributes" : {
                            "ident" : "Luis_Alberto"
                          },
                          "parameters" : {
                            "sourceCrop0" : 0.0,
                            "sourceCrop1" : 0.0,
                            "sourceCrop2" : 0.0,
                            "sourceCrop3" : 0.0,
                            "geometryCrop0" : 0.0,
                            "geometryCrop1" : 0.0,
                            "geometryCrop2" : 0.0,
                            "geometryCrop3" : 0.0
                          },
                          "effects" : [

                          ],
                          "start" : 8353,
                          "duration" : 41,
                          "mediaStart" : 1425,
                          "mediaDuration" : 41,
                          "scalar" : 1,
                          "animationTracks" : {

                          }
                        },
                    "audio" : 
                        {
                          "id" : 779,
                          "_type" : "AMFile",
                          "src" : 7,
                          "trackNumber" : 1,
                          "attributes" : {
                            "ident" : "",
                            "gain" : 1.0,
                            "mixToMono" : false
                          },
                            "channelNumber" : "0,1",
                          "effects" : [

                          ],
                          "start" : 8353,
                          "duration" : 41,
                          "mediaStart" : 1425,
                          "mediaDuration" : 41,
                          "scalar" : 1,
                          "animationTracks" : {

                          }
                        }
,
                    "start" : 8353,
                    "duration" : 41,
                    "mediaStart" : 0,
                    "mediaDuration" : 3804,
                    "scalar" : 1,
                    "metadata" : {
                      "clipSpeedAttribute" : false
                    }
                  },
                  {
                    "id" : 780,
                    "_type" : "UnifiedMedia",
                    "video" : 
                        {
                          "id" : 781,
                          "_type" : "VMFile",
                          "src" : 7,
                          "trackNumber" : 0,
                          "attributes" : {
                            "ident" : "Luis_Alberto"
                          },
                          "parameters" : {
                            "sourceCrop0" : 0.0,
                            "sourceCrop1" : 0.0,
                            "sourceCrop2" : 0.0,
                            "sourceCrop3" : 0.0,
                            "geometryCrop0" : 0.0,
                            "geometryCrop1" : 0.0,
                            "geometryCrop2" : 0.0,
                            "geometryCrop3" : 0.0
                          },
                          "effects" : [

                          ],
                          "start" : 8394,
                          "duration" : 107,
                          "mediaStart" : 1565,
                          "mediaDuration" : 107,
                          "scalar" : 1,
                          "animationTracks" : {

                          }
                        },
                    "audio" : 
                        {
                          "id" : 782,
                          "_type" : "AMFile",
                          "src" : 7,
                          "trackNumber" : 1,
                          "attributes" : {
                            "ident" : "",
                            "gain" : 1.0,
                            "mixToMono" : false
                          },
                            "channelNumber" : "0,1",
                          "effects" : [

                          ],
                          "start" : 8394,
                          "duration" : 107,
                          "mediaStart" : 1565,
                          "mediaDuration" : 107,
                          "scalar" : 1,
                          "animationTracks" : {

                          }
                        }
,
                    "start" : 8394,
                    "duration" : 107,
                    "mediaStart" : 0,
                    "mediaDuration" : 3804,
                    "scalar" : 1,
                    "metadata" : {
                      "clipSpeedAttribute" : false
                    }
                  },
                  {
                    "id" : 783,
                    "_type" : "UnifiedMedia",
                    "video" : 
                        {
                          "id" : 784,
                          "_type" : "VMFile",
                          "src" : 7,
                          "trackNumber" : 0,
                          "attributes" : {
                            "ident" : "Luis_Alberto"
                          },
                          "parameters" : {
                            "sourceCrop0" : 0.0,
                            "sourceCrop1" : 0.0,
                            "sourceCrop2" : 0.0,
                            "sourceCrop3" : 0.0,
                            "geometryCrop0" : 0.0,
                            "geometryCrop1" : 0.0,
                            "geometryCrop2" : 0.0,
                            "geometryCrop3" : 0.0
                          },
                          "effects" : [

                          ],
                          "start" : 8501,
                          "duration" : 42,
                          "mediaStart" : 1684,
                          "mediaDuration" : 42,
                          "scalar" : 1,
                          "animationTracks" : {

                          }
                        },
                    "audio" : 
                        {
                          "id" : 785,
                          "_type" : "AMFile",
                          "src" : 7,
                          "trackNumber" : 1,
                          "attributes" : {
                            "ident" : "",
                            "gain" : 1.0,
                            "mixToMono" : false
                          },
                            "channelNumber" : "0,1",
                          "effects" : [

                          ],
                          "start" : 8501,
                          "duration" : 42,
                          "mediaStart" : 1684,
                          "mediaDuration" : 42,
                          "scalar" : 1,
                          "animationTracks" : {

                          }
                        }
,
                    "start" : 8501,
                    "duration" : 42,
                    "mediaStart" : 0,
                    "mediaDuration" : 3804,
                    "scalar" : 1,
                    "metadata" : {
                      "clipSpeedAttribute" : false
                    }
                  },
                  {
                    "id" : 786,
                    "_type" : "UnifiedMedia",
                    "video" : 
                        {
                          "id" : 787,
                          "_type" : "VMFile",
                          "src" : 7,
                          "trackNumber" : 0,
                          "attributes" : {
                            "ident" : "Luis_Alberto"
                          },
                          "parameters" : {
                            "sourceCrop0" : 0.0,
                            "sourceCrop1" : 0.0,
                            "sourceCrop2" : 0.0,
                            "sourceCrop3" : 0.0,
                            "geometryCrop0" : 0.0,
                            "geometryCrop1" : 0.0,
                            "geometryCrop2" : 0.0,
                            "geometryCrop3" : 0.0
                          },
                          "effects" : [

                          ],
                          "start" : 8543,
                          "duration" : 40,
                          "mediaStart" : 1735,
                          "mediaDuration" : 40,
                          "scalar" : 1,
                          "animationTracks" : {

                          }
                        },
                    "audio" : 
                        {
                          "id" : 788,
                          "_type" : "AMFile",
                          "src" : 7,
                          "trackNumber" : 1,
                          "attributes" : {
                            "ident" : "",
                            "gain" : 1.0,
                            "mixToMono" : false
                          },
                            "channelNumber" : "0,1",
                          "effects" : [

                          ],
                          "start" : 8543,
                          "duration" : 40,
                          "mediaStart" : 1735,
                          "mediaDuration" : 40,
                          "scalar" : 1,
                          "animationTracks" : {

                          }
                        }
,
                    "start" : 8543,
                    "duration" : 40,
                    "mediaStart" : 0,
                    "mediaDuration" : 3804,
                    "scalar" : 1,
                    "metadata" : {
                      "clipSpeedAttribute" : false
                    }
                  },
                  {
                    "id" : 789,
                    "_type" : "UnifiedMedia",
                    "video" : 
                        {
                          "id" : 790,
                          "_type" : "VMFile",
                          "src" : 7,
                          "trackNumber" : 0,
                          "attributes" : {
                            "ident" : "Luis_Alberto"
                          },
                          "parameters" : {
                            "sourceCrop0" : 0.0,
                            "sourceCrop1" : 0.0,
                            "sourceCrop2" : 0.0,
                            "sourceCrop3" : 0.0,
                            "geometryCrop0" : 0.0,
                            "geometryCrop1" : 0.0,
                            "geometryCrop2" : 0.0,
                            "geometryCrop3" : 0.0
                          },
                          "effects" : [

                          ],
                          "start" : 8583,
                          "duration" : 132,
                          "mediaStart" : 1803,
                          "mediaDuration" : 132,
                          "scalar" : 1,
                          "animationTracks" : {

                          }
                        },
                    "audio" : 
                        {
                          "id" : 791,
                          "_type" : "AMFile",
                          "src" : 7,
                          "trackNumber" : 1,
                          "attributes" : {
                            "ident" : "",
                            "gain" : 1.0,
                            "mixToMono" : false
                          },
                            "channelNumber" : "0,1",
                          "effects" : [

                          ],
                          "start" : 8583,
                          "duration" : 132,
                          "mediaStart" : 1803,
                          "mediaDuration" : 132,
                          "scalar" : 1,
                          "animationTracks" : {

                          }
                        }
,
                    "start" : 8583,
                    "duration" : 132,
                    "mediaStart" : 0,
                    "mediaDuration" : 3804,
                    "scalar" : 1,
                    "metadata" : {
                      "clipSpeedAttribute" : false
                    }
                  },
                  {
                    "id" : 792,
                    "_type" : "UnifiedMedia",
                    "video" : 
                        {
                          "id" : 793,
                          "_type" : "VMFile",
                          "src" : 7,
                          "trackNumber" : 0,
                          "attributes" : {
                            "ident" : "Luis_Alberto"
                          },
                          "parameters" : {
                            "sourceCrop0" : 0.0,
                            "sourceCrop1" : 0.0,
                            "sourceCrop2" : 0.0,
                            "sourceCrop3" : 0.0,
                            "geometryCrop0" : 0.0,
                            "geometryCrop1" : 0.0,
                            "geometryCrop2" : 0.0,
                            "geometryCrop3" : 0.0
                          },
                          "effects" : [

                          ],
                          "start" : 8715,
                          "duration" : 84,
                          "mediaStart" : 1948,
                          "mediaDuration" : 84,
                          "scalar" : 1,
                          "animationTracks" : {

                          }
                        },
                    "audio" : 
                        {
                          "id" : 794,
                          "_type" : "AMFile",
                          "src" : 7,
                          "trackNumber" : 1,
                          "attributes" : {
                            "ident" : "",
                            "gain" : 1.0,
                            "mixToMono" : false
                          },
                            "channelNumber" : "0,1",
                          "effects" : [

                          ],
                          "start" : 8715,
                          "duration" : 84,
                          "mediaStart" : 1948,
                          "mediaDuration" : 84,
                          "scalar" : 1,
                          "animationTracks" : {

                          }
                        }
,
                    "start" : 8715,
                    "duration" : 84,
                    "mediaStart" : 0,
                    "mediaDuration" : 3804,
                    "scalar" : 1,
                    "metadata" : {
                      "clipSpeedAttribute" : false
                    }
                  },
                  {
                    "id" : 795,
                    "_type" : "UnifiedMedia",
                    "video" : 
                        {
                          "id" : 796,
                          "_type" : "VMFile",
                          "src" : 7,
                          "trackNumber" : 0,
                          "attributes" : {
                            "ident" : "Luis_Alberto"
                          },
                          "parameters" : {
                            "sourceCrop0" : 0.0,
                            "sourceCrop1" : 0.0,
                            "sourceCrop2" : 0.0,
                            "sourceCrop3" : 0.0,
                            "geometryCrop0" : 0.0,
                            "geometryCrop1" : 0.0,
                            "geometryCrop2" : 0.0,
                            "geometryCrop3" : 0.0
                          },
                          "effects" : [

                          ],
                          "start" : 8799,
                          "duration" : 42,
                          "mediaStart" : 2096,
                          "mediaDuration" : 42,
                          "scalar" : 1,
                          "animationTracks" : {

                          }
                        },
                    "audio" : 
                        {
                          "id" : 797,
                          "_type" : "AMFile",
                          "src" : 7,
                          "trackNumber" : 1,
                          "attributes" : {
                            "ident" : "",
                            "gain" : 1.0,
                            "mixToMono" : false
                          },
                            "channelNumber" : "0,1",
                          "effects" : [

                          ],
                          "start" : 8799,
                          "duration" : 42,
                          "mediaStart" : 2096,
                          "mediaDuration" : 42,
                          "scalar" : 1,
                          "animationTracks" : {

                          }
                        }
,
                    "start" : 8799,
                    "duration" : 42,
                    "mediaStart" : 0,
                    "mediaDuration" : 3804,
                    "scalar" : 1,
                    "metadata" : {
                      "clipSpeedAttribute" : false
                    }
                  },
                  {
                    "id" : 798,
                    "_type" : "UnifiedMedia",
                    "video" : 
                        {
                          "id" : 799,
                          "_type" : "VMFile",
                          "src" : 7,
                          "trackNumber" : 0,
                          "attributes" : {
                            "ident" : "Luis_Alberto"
                          },
                          "parameters" : {
                            "sourceCrop0" : 0.0,
                            "sourceCrop1" : 0.0,
                            "sourceCrop2" : 0.0,
                            "sourceCrop3" : 0.0,
                            "geometryCrop0" : 0.0,
                            "geometryCrop1" : 0.0,
                            "geometryCrop2" : 0.0,
                            "geometryCrop3" : 0.0
                          },
                          "effects" : [

                          ],
                          "start" : 8841,
                          "duration" : 49,
                          "mediaStart" : 2181,
                          "mediaDuration" : 49,
                          "scalar" : 1,
                          "animationTracks" : {

                          }
                        },
                    "audio" : 
                        {
                          "id" : 800,
                          "_type" : "AMFile",
                          "src" : 7,
                          "trackNumber" : 1,
                          "attributes" : {
                            "ident" : "",
                            "gain" : 1.0,
                            "mixToMono" : false
                          },
                            "channelNumber" : "0,1",
                          "effects" : [

                          ],
                          "start" : 8841,
                          "duration" : 49,
                          "mediaStart" : 2181,
                          "mediaDuration" : 49,
                          "scalar" : 1,
                          "animationTracks" : {

                          }
                        }
,
                    "start" : 8841,
                    "duration" : 49,
                    "mediaStart" : 0,
                    "mediaDuration" : 3804,
                    "scalar" : 1,
                    "metadata" : {
                      "clipSpeedAttribute" : false
                    }
                  },
                  {
                    "id" : 801,
                    "_type" : "UnifiedMedia",
                    "video" : 
                        {
                          "id" : 802,
                          "_type" : "VMFile",
                          "src" : 7,
                          "trackNumber" : 0,
                          "attributes" : {
                            "ident" : "Luis_Alberto"
                          },
                          "parameters" : {
                            "sourceCrop0" : 0.0,
                            "sourceCrop1" : 0.0,
                            "sourceCrop2" : 0.0,
                            "sourceCrop3" : 0.0,
                            "geometryCrop0" : 0.0,
                            "geometryCrop1" : 0.0,
                            "geometryCrop2" : 0.0,
                            "geometryCrop3" : 0.0
                          },
                          "effects" : [

                          ],
                          "start" : 8890,
                          "duration" : 42,
                          "mediaStart" : 2250,
                          "mediaDuration" : 42,
                          "scalar" : 1,
                          "animationTracks" : {

                          }
                        },
                    "audio" : 
                        {
                          "id" : 803,
                          "_type" : "AMFile",
                          "src" : 7,
                          "trackNumber" : 1,
                          "attributes" : {
                            "ident" : "",
                            "gain" : 1.0,
                            "mixToMono" : false
                          },
                            "channelNumber" : "0,1",
                          "effects" : [

                          ],
                          "start" : 8890,
                          "duration" : 42,
                          "mediaStart" : 2250,
                          "mediaDuration" : 42,
                          "scalar" : 1,
                          "animationTracks" : {

                          }
                        }
,
                    "start" : 8890,
                    "duration" : 42,
                    "mediaStart" : 0,
                    "mediaDuration" : 3804,
                    "scalar" : 1,
                    "metadata" : {
                      "clipSpeedAttribute" : false
                    }
                  },
                  {
                    "id" : 804,
                    "_type" : "UnifiedMedia",
                    "video" : 
                        {
                          "id" : 805,
                          "_type" : "VMFile",
                          "src" : 7,
                          "trackNumber" : 0,
                          "attributes" : {
                            "ident" : "Luis_Alberto"
                          },
                          "parameters" : {
                            "sourceCrop0" : 0.0,
                            "sourceCrop1" : 0.0,
                            "sourceCrop2" : 0.0,
                            "sourceCrop3" : 0.0,
                            "geometryCrop0" : 0.0,
                            "geometryCrop1" : 0.0,
                            "geometryCrop2" : 0.0,
                            "geometryCrop3" : 0.0
                          },
                          "effects" : [

                          ],
                          "start" : 8932,
                          "duration" : 21,
                          "mediaStart" : 2329,
                          "mediaDuration" : 21,
                          "scalar" : 1,
                          "animationTracks" : {

                          }
                        },
                    "audio" : 
                        {
                          "id" : 806,
                          "_type" : "AMFile",
                          "src" : 7,
                          "trackNumber" : 1,
                          "attributes" : {
                            "ident" : "",
                            "gain" : 1.0,
                            "mixToMono" : false
                          },
                            "channelNumber" : "0,1",
                          "effects" : [

                          ],
                          "start" : 8932,
                          "duration" : 21,
                          "mediaStart" : 2329,
                          "mediaDuration" : 21,
                          "scalar" : 1,
                          "animationTracks" : {

                          }
                        }
,
                    "start" : 8932,
                    "duration" : 21,
                    "mediaStart" : 0,
                    "mediaDuration" : 3804,
                    "scalar" : 1,
                    "metadata" : {
                      "clipSpeedAttribute" : false
                    }
                  },
                  {
                    "id" : 807,
                    "_type" : "UnifiedMedia",
                    "video" : 
                        {
                          "id" : 808,
                          "_type" : "VMFile",
                          "src" : 7,
                          "trackNumber" : 0,
                          "attributes" : {
                            "ident" : "Luis_Alberto"
                          },
                          "parameters" : {
                            "sourceCrop0" : 0.0,
                            "sourceCrop1" : 0.0,
                            "sourceCrop2" : 0.0,
                            "sourceCrop3" : 0.0,
                            "geometryCrop0" : 0.0,
                            "geometryCrop1" : 0.0,
                            "geometryCrop2" : 0.0,
                            "geometryCrop3" : 0.0
                          },
                          "effects" : [

                          ],
                          "start" : 8953,
                          "duration" : 110,
                          "mediaStart" : 2461,
                          "mediaDuration" : 110,
                          "scalar" : 1,
                          "animationTracks" : {

                          }
                        },
                    "audio" : 
                        {
                          "id" : 809,
                          "_type" : "AMFile",
                          "src" : 7,
                          "trackNumber" : 1,
                          "attributes" : {
                            "ident" : "",
                            "gain" : 1.0,
                            "mixToMono" : false
                          },
                            "channelNumber" : "0,1",
                          "effects" : [

                          ],
                          "start" : 8953,
                          "duration" : 110,
                          "mediaStart" : 2461,
                          "mediaDuration" : 110,
                          "scalar" : 1,
                          "animationTracks" : {

                          }
                        }
,
                    "start" : 8953,
                    "duration" : 110,
                    "mediaStart" : 0,
                    "mediaDuration" : 3804,
                    "scalar" : 1,
                    "metadata" : {
                      "clipSpeedAttribute" : false
                    }
                  },
                  {
                    "id" : 810,
                    "_type" : "UnifiedMedia",
                    "video" : 
                        {
                          "id" : 811,
                          "_type" : "VMFile",
                          "src" : 7,
                          "trackNumber" : 0,
                          "attributes" : {
                            "ident" : "Luis_Alberto"
                          },
                          "parameters" : {
                            "sourceCrop0" : 0.0,
                            "sourceCrop1" : 0.0,
                            "sourceCrop2" : 0.0,
                            "sourceCrop3" : 0.0,
                            "geometryCrop0" : 0.0,
                            "geometryCrop1" : 0.0,
                            "geometryCrop2" : 0.0,
                            "geometryCrop3" : 0.0
                          },
                          "effects" : [

                          ],
                          "start" : 9063,
                          "duration" : 60,
                          "mediaStart" : 2657,
                          "mediaDuration" : 60,
                          "scalar" : 1,
                          "animationTracks" : {

                          }
                        },
                    "audio" : 
                        {
                          "id" : 812,
                          "_type" : "AMFile",
                          "src" : 7,
                          "trackNumber" : 1,
                          "attributes" : {
                            "ident" : "",
                            "gain" : 1.0,
                            "mixToMono" : false
                          },
                            "channelNumber" : "0,1",
                          "effects" : [

                          ],
                          "start" : 9063,
                          "duration" : 60,
                          "mediaStart" : 2657,
                          "mediaDuration" : 60,
                          "scalar" : 1,
                          "animationTracks" : {

                          }
                        }
,
                    "start" : 9063,
                    "duration" : 60,
                    "mediaStart" : 0,
                    "mediaDuration" : 3804,
                    "scalar" : 1,
                    "metadata" : {
                      "clipSpeedAttribute" : false
                    }
                  },
                  {
                    "id" : 813,
                    "_type" : "UnifiedMedia",
                    "video" : 
                        {
                          "id" : 814,
                          "_type" : "VMFile",
                          "src" : 7,
                          "trackNumber" : 0,
                          "attributes" : {
                            "ident" : "Luis_Alberto"
                          },
                          "parameters" : {
                            "sourceCrop0" : 0.0,
                            "sourceCrop1" : 0.0,
                            "sourceCrop2" : 0.0,
                            "sourceCrop3" : 0.0,
                            "geometryCrop0" : 0.0,
                            "geometryCrop1" : 0.0,
                            "geometryCrop2" : 0.0,
                            "geometryCrop3" : 0.0
                          },
                          "effects" : [

                          ],
                          "start" : 9123,
                          "duration" : 37,
                          "mediaStart" : 2755,
                          "mediaDuration" : 37,
                          "scalar" : 1,
                          "animationTracks" : {

                          }
                        },
                    "audio" : 
                        {
                          "id" : 815,
                          "_type" : "AMFile",
                          "src" : 7,
                          "trackNumber" : 1,
                          "attributes" : {
                            "ident" : "",
                            "gain" : 1.0,
                            "mixToMono" : false
                          },
                            "channelNumber" : "0,1",
                          "effects" : [

                          ],
                          "start" : 9123,
                          "duration" : 37,
                          "mediaStart" : 2755,
                          "mediaDuration" : 37,
                          "scalar" : 1,
                          "animationTracks" : {

                          }
                        }
,
                    "start" : 9123,
                    "duration" : 37,
                    "mediaStart" : 0,
                    "mediaDuration" : 3804,
                    "scalar" : 1,
                    "metadata" : {
                      "clipSpeedAttribute" : false
                    }
                  },
                  {
                    "id" : 816,
                    "_type" : "UnifiedMedia",
                    "video" : 
                        {
                          "id" : 817,
                          "_type" : "VMFile",
                          "src" : 7,
                          "trackNumber" : 0,
                          "attributes" : {
                            "ident" : "Luis_Alberto"
                          },
                          "parameters" : {
                            "sourceCrop0" : 0.0,
                            "sourceCrop1" : 0.0,
                            "sourceCrop2" : 0.0,
                            "sourceCrop3" : 0.0,
                            "geometryCrop0" : 0.0,
                            "geometryCrop1" : 0.0,
                            "geometryCrop2" : 0.0,
                            "geometryCrop3" : 0.0
                          },
                          "effects" : [

                          ],
                          "start" : 9160,
                          "duration" : 75,
                          "mediaStart" : 2827,
                          "mediaDuration" : 75,
                          "scalar" : 1,
                          "animationTracks" : {

                          }
                        },
                    "audio" : 
                        {
                          "id" : 818,
                          "_type" : "AMFile",
                          "src" : 7,
                          "trackNumber" : 1,
                          "attributes" : {
                            "ident" : "",
                            "gain" : 1.0,
                            "mixToMono" : false
                          },
                            "channelNumber" : "0,1",
                          "effects" : [

                          ],
                          "start" : 9160,
                          "duration" : 75,
                          "mediaStart" : 2827,
                          "mediaDuration" : 75,
                          "scalar" : 1,
                          "animationTracks" : {

                          }
                        }
,
                    "start" : 9160,
                    "duration" : 75,
                    "mediaStart" : 0,
                    "mediaDuration" : 3804,
                    "scalar" : 1,
                    "metadata" : {
                      "clipSpeedAttribute" : false
                    }
                  },
                  {
                    "id" : 819,
                    "_type" : "UnifiedMedia",
                    "video" : 
                        {
                          "id" : 820,
                          "_type" : "VMFile",
                          "src" : 7,
                          "trackNumber" : 0,
                          "attributes" : {
                            "ident" : "Luis_Alberto"
                          },
                          "parameters" : {
                            "sourceCrop0" : 0.0,
                            "sourceCrop1" : 0.0,
                            "sourceCrop2" : 0.0,
                            "sourceCrop3" : 0.0,
                            "geometryCrop0" : 0.0,
                            "geometryCrop1" : 0.0,
                            "geometryCrop2" : 0.0,
                            "geometryCrop3" : 0.0
                          },
                          "effects" : [

                          ],
                          "start" : 9235,
                          "duration" : 120,
                          "mediaStart" : 2944,
                          "mediaDuration" : 120,
                          "scalar" : 1,
                          "animationTracks" : {

                          }
                        },
                    "audio" : 
                        {
                          "id" : 821,
                          "_type" : "AMFile",
                          "src" : 7,
                          "trackNumber" : 1,
                          "attributes" : {
                            "ident" : "",
                            "gain" : 1.0,
                            "mixToMono" : false
                          },
                            "channelNumber" : "0,1",
                          "effects" : [

                          ],
                          "start" : 9235,
                          "duration" : 120,
                          "mediaStart" : 2944,
                          "mediaDuration" : 120,
                          "scalar" : 1,
                          "animationTracks" : {

                          }
                        }
,
                    "start" : 9235,
                    "duration" : 120,
                    "mediaStart" : 0,
                    "mediaDuration" : 3804,
                    "scalar" : 1,
                    "metadata" : {
                      "clipSpeedAttribute" : false
                    }
                  },
                  {
                    "id" : 822,
                    "_type" : "UnifiedMedia",
                    "video" : 
                        {
                          "id" : 823,
                          "_type" : "VMFile",
                          "src" : 7,
                          "trackNumber" : 0,
                          "attributes" : {
                            "ident" : "Luis_Alberto"
                          },
                          "parameters" : {
                            "sourceCrop0" : 0.0,
                            "sourceCrop1" : 0.0,
                            "sourceCrop2" : 0.0,
                            "sourceCrop3" : 0.0,
                            "geometryCrop0" : 0.0,
                            "geometryCrop1" : 0.0,
                            "geometryCrop2" : 0.0,
                            "geometryCrop3" : 0.0
                          },
                          "effects" : [

                          ],
                          "start" : 9355,
                          "duration" : 127,
                          "mediaStart" : 3064,
                          "mediaDuration" : 127,
                          "scalar" : 1,
                          "animationTracks" : {

                          }
                        },
                    "audio" : 
                        {
                          "id" : 824,
                          "_type" : "AMFile",
                          "src" : 7,
                          "trackNumber" : 1,
                          "attributes" : {
                            "ident" : "",
                            "gain" : 1.0,
                            "mixToMono" : false
                          },
                            "channelNumber" : "0,1",
                          "effects" : [

                          ],
                          "start" : 9355,
                          "duration" : 127,
                          "mediaStart" : 3064,
                          "mediaDuration" : 127,
                          "scalar" : 1,
                          "animationTracks" : {

                          }
                        }
,
                    "start" : 9355,
                    "duration" : 127,
                    "mediaStart" : 0,
                    "mediaDuration" : 3804,
                    "scalar" : 1,
                    "metadata" : {
                      "clipSpeedAttribute" : false
                    }
                  },
                  {
                    "id" : 825,
                    "_type" : "UnifiedMedia",
                    "video" : 
                        {
                          "id" : 826,
                          "_type" : "VMFile",
                          "src" : 7,
                          "trackNumber" : 0,
                          "attributes" : {
                            "ident" : "Luis_Alberto"
                          },
                          "parameters" : {
                            "sourceCrop0" : 0.0,
                            "sourceCrop1" : 0.0,
                            "sourceCrop2" : 0.0,
                            "sourceCrop3" : 0.0,
                            "geometryCrop0" : 0.0,
                            "geometryCrop1" : 0.0,
                            "geometryCrop2" : 0.0,
                            "geometryCrop3" : 0.0
                          },
                          "effects" : [

                          ],
                          "start" : 9482,
                          "duration" : 67,
                          "mediaStart" : 3202,
                          "mediaDuration" : 67,
                          "scalar" : 1,
                          "animationTracks" : {

                          }
                        },
                    "audio" : 
                        {
                          "id" : 827,
                          "_type" : "AMFile",
                          "src" : 7,
                          "trackNumber" : 1,
                          "attributes" : {
                            "ident" : "",
                            "gain" : 1.0,
                            "mixToMono" : false
                          },
                            "channelNumber" : "0,1",
                          "effects" : [

                          ],
                          "start" : 9482,
                          "duration" : 67,
                          "mediaStart" : 3202,
                          "mediaDuration" : 67,
                          "scalar" : 1,
                          "animationTracks" : {

                          }
                        }
,
                    "start" : 9482,
                    "duration" : 67,
                    "mediaStart" : 0,
                    "mediaDuration" : 3804,
                    "scalar" : 1,
                    "metadata" : {
                      "clipSpeedAttribute" : false
                    }
                  },
                  {
                    "id" : 828,
                    "_type" : "UnifiedMedia",
                    "video" : 
                        {
                          "id" : 829,
                          "_type" : "VMFile",
                          "src" : 7,
                          "trackNumber" : 0,
                          "attributes" : {
                            "ident" : "Luis_Alberto"
                          },
                          "parameters" : {
                            "sourceCrop0" : 0.0,
                            "sourceCrop1" : 0.0,
                            "sourceCrop2" : 0.0,
                            "sourceCrop3" : 0.0,
                            "geometryCrop0" : 0.0,
                            "geometryCrop1" : 0.0,
                            "geometryCrop2" : 0.0,
                            "geometryCrop3" : 0.0
                          },
                          "effects" : [

                          ],
                          "start" : 9549,
                          "duration" : 41,
                          "mediaStart" : 3281,
                          "mediaDuration" : 41,
                          "scalar" : 1,
                          "animationTracks" : {

                          }
                        },
                    "audio" : 
                        {
                          "id" : 830,
                          "_type" : "AMFile",
                          "src" : 7,
                          "trackNumber" : 1,
                          "attributes" : {
                            "ident" : "",
                            "gain" : 1.0,
                            "mixToMono" : false
                          },
                            "channelNumber" : "0,1",
                          "effects" : [

                          ],
                          "start" : 9549,
                          "duration" : 41,
                          "mediaStart" : 3281,
                          "mediaDuration" : 41,
                          "scalar" : 1,
                          "animationTracks" : {

                          }
                        }
,
                    "start" : 9549,
                    "duration" : 41,
                    "mediaStart" : 0,
                    "mediaDuration" : 3804,
                    "scalar" : 1,
                    "metadata" : {
                      "clipSpeedAttribute" : false
                    }
                  },
                  {
                    "id" : 831,
                    "_type" : "UnifiedMedia",
                    "video" : 
                        {
                          "id" : 832,
                          "_type" : "VMFile",
                          "src" : 7,
                          "trackNumber" : 0,
                          "attributes" : {
                            "ident" : "Luis_Alberto"
                          },
                          "parameters" : {
                            "sourceCrop0" : 0.0,
                            "sourceCrop1" : 0.0,
                            "sourceCrop2" : 0.0,
                            "sourceCrop3" : 0.0,
                            "geometryCrop0" : 0.0,
                            "geometryCrop1" : 0.0,
                            "geometryCrop2" : 0.0,
                            "geometryCrop3" : 0.0
                          },
                          "effects" : [

                          ],
                          "start" : 9590,
                          "duration" : 29,
                          "mediaStart" : 3322,
                          "mediaDuration" : 29,
                          "scalar" : 1,
                          "animationTracks" : {

                          }
                        },
                    "audio" : 
                        {
                          "id" : 833,
                          "_type" : "AMFile",
                          "src" : 7,
                          "trackNumber" : 1,
                          "attributes" : {
                            "ident" : "",
                            "gain" : 1.0,
                            "mixToMono" : false
                          },
                            "channelNumber" : "0,1",
                          "effects" : [

                          ],
                          "start" : 9590,
                          "duration" : 29,
                          "mediaStart" : 3322,
                          "mediaDuration" : 29,
                          "scalar" : 1,
                          "animationTracks" : {

                          }
                        }
,
                    "start" : 9590,
                    "duration" : 29,
                    "mediaStart" : 0,
                    "mediaDuration" : 3804,
                    "scalar" : 1,
                    "metadata" : {
                      "clipSpeedAttribute" : false
                    }
                  },
                  {
                    "id" : 834,
                    "_type" : "UnifiedMedia",
                    "video" : 
                        {
                          "id" : 835,
                          "_type" : "VMFile",
                          "src" : 7,
                          "trackNumber" : 0,
                          "attributes" : {
                            "ident" : "Luis_Alberto"
                          },
                          "parameters" : {
                            "sourceCrop0" : 0.0,
                            "sourceCrop1" : 0.0,
                            "sourceCrop2" : 0.0,
                            "sourceCrop3" : 0.0,
                            "geometryCrop0" : 0.0,
                            "geometryCrop1" : 0.0,
                            "geometryCrop2" : 0.0,
                            "geometryCrop3" : 0.0
                          },
                          "effects" : [

                          ],
                          "start" : 9619,
                          "duration" : 44,
                          "mediaStart" : 3351,
                          "mediaDuration" : 44,
                          "scalar" : 1,
                          "animationTracks" : {

                          }
                        },
                    "audio" : 
                        {
                          "id" : 836,
                          "_type" : "AMFile",
                          "src" : 7,
                          "trackNumber" : 1,
                          "attributes" : {
                            "ident" : "",
                            "gain" : 1.0,
                            "mixToMono" : false
                          },
                            "channelNumber" : "0,1",
                          "effects" : [

                          ],
                          "start" : 9619,
                          "duration" : 44,
                          "mediaStart" : 3351,
                          "mediaDuration" : 44,
                          "scalar" : 1,
                          "animationTracks" : {

                          }
                        }
,
                    "start" : 9619,
                    "duration" : 44,
                    "mediaStart" : 0,
                    "mediaDuration" : 3804,
                    "scalar" : 1,
                    "metadata" : {
                      "clipSpeedAttribute" : false
                    }
                  },
                  {
                    "id" : 837,
                    "_type" : "UnifiedMedia",
                    "video" : 
                        {
                          "id" : 838,
                          "_type" : "VMFile",
                          "src" : 7,
                          "trackNumber" : 0,
                          "attributes" : {
                            "ident" : "Luis_Alberto"
                          },
                          "parameters" : {
                            "sourceCrop0" : 0.0,
                            "sourceCrop1" : 0.0,
                            "sourceCrop2" : 0.0,
                            "sourceCrop3" : 0.0,
                            "geometryCrop0" : 0.0,
                            "geometryCrop1" : 0.0,
                            "geometryCrop2" : 0.0,
                            "geometryCrop3" : 0.0
                          },
                          "effects" : [

                          ],
                          "start" : 9663,
                          "duration" : 157,
                          "mediaStart" : 3414,
                          "mediaDuration" : 157,
                          "scalar" : 1,
                          "animationTracks" : {

                          }
                        },
                    "audio" : 
                        {
                          "id" : 839,
                          "_type" : "AMFile",
                          "src" : 7,
                          "trackNumber" : 1,
                          "attributes" : {
                            "ident" : "",
                            "gain" : 1.0,
                            "mixToMono" : false
                          },
                            "channelNumber" : "0,1",
                          "effects" : [

                          ],
                          "start" : 9663,
                          "duration" : 157,
                          "mediaStart" : 3414,
                          "mediaDuration" : 157,
                          "scalar" : 1,
                          "animationTracks" : {

                          }
                        }
,
                    "start" : 9663,
                    "duration" : 157,
                    "mediaStart" : 0,
                    "mediaDuration" : 3804,
                    "scalar" : 1,
                    "metadata" : {
                      "clipSpeedAttribute" : false
                    }
                  },
                  {
                    "id" : 840,
                    "_type" : "UnifiedMedia",
                    "video" : 
                        {
                          "id" : 841,
                          "_type" : "VMFile",
                          "src" : 7,
                          "trackNumber" : 0,
                          "attributes" : {
                            "ident" : "Luis_Alberto"
                          },
                          "parameters" : {
                            "sourceCrop0" : 0.0,
                            "sourceCrop1" : 0.0,
                            "sourceCrop2" : 0.0,
                            "sourceCrop3" : 0.0,
                            "geometryCrop0" : 0.0,
                            "geometryCrop1" : 0.0,
                            "geometryCrop2" : 0.0,
                            "geometryCrop3" : 0.0
                          },
                          "effects" : [

                          ],
                          "start" : 9820,
                          "duration" : 82,
                          "mediaStart" : 3634,
                          "mediaDuration" : 82,
                          "scalar" : 1,
                          "animationTracks" : {

                          }
                        },
                    "audio" : 
                        {
                          "id" : 842,
                          "_type" : "AMFile",
                          "src" : 7,
                          "trackNumber" : 1,
                          "attributes" : {
                            "ident" : "",
                            "gain" : 1.0,
                            "mixToMono" : false
                          },
                            "channelNumber" : "0,1",
                          "effects" : [

                          ],
                          "start" : 9820,
                          "duration" : 82,
                          "mediaStart" : 3634,
                          "mediaDuration" : 82,
                          "scalar" : 1,
                          "animationTracks" : {

                          }
                        }
,
                    "start" : 9820,
                    "duration" : 82,
                    "mediaStart" : 0,
                    "mediaDuration" : 3804,
                    "scalar" : 1,
                    "metadata" : {
                      "clipSpeedAttribute" : false
                    }
                  },
                  {
                    "id" : 843,
                    "_type" : "UnifiedMedia",
                    "video" : 
                        {
                          "id" : 844,
                          "_type" : "VMFile",
                          "src" : 7,
                          "trackNumber" : 0,
                          "attributes" : {
                            "ident" : "Luis_Alberto"
                          },
                          "parameters" : {
                            "sourceCrop0" : 0.0,
                            "sourceCrop1" : 0.0,
                            "sourceCrop2" : 0.0,
                            "sourceCrop3" : 0.0,
                            "geometryCrop0" : 0.0,
                            "geometryCrop1" : 0.0,
                            "geometryCrop2" : 0.0,
                            "geometryCrop3" : 0.0
                          },
                          "effects" : [

                          ],
                          "start" : 9902,
                          "duration" : 54,
                          "mediaStart" : 3728,
                          "mediaDuration" : 54,
                          "scalar" : 1,
                          "animationTracks" : {

                          }
                        },
                    "audio" : 
                        {
                          "id" : 845,
                          "_type" : "AMFile",
                          "src" : 7,
                          "trackNumber" : 1,
                          "attributes" : {
                            "ident" : "",
                            "gain" : 1.0,
                            "mixToMono" : false
                          },
                            "channelNumber" : "0,1",
                          "effects" : [

                          ],
                          "start" : 9902,
                          "duration" : 54,
                          "mediaStart" : 3728,
                          "mediaDuration" : 54,
                          "scalar" : 1,
                          "animationTracks" : {

                          }
                        }
,
                    "start" : 9902,
                    "duration" : 54,
                    "mediaStart" : 0,
                    "mediaDuration" : 3804,
                    "scalar" : 1,
                    "metadata" : {
                      "clipSpeedAttribute" : false
                    }
                  },
                  {
                    "id" : 846,
                    "_type" : "UnifiedMedia",
                    "video" : 
                        {
                          "id" : 847,
                          "_type" : "VMFile",
                          "src" : 8,
                          "trackNumber" : 0,
                          "attributes" : {
                            "ident" : "WhatsApp Video 2020-12-26 at 14.43.15"
                          },
                          "parameters" : {
                            "sourceCrop0" : {
                              "type" : "double",
                              "defaultValue" : 0.0,
                              "interp" : "eioe"
                            },
                            "sourceCrop1" : {
                              "type" : "double",
                              "defaultValue" : 0.0,
                              "interp" : "eioe"
                            },
                            "sourceCrop2" : {
                              "type" : "double",
                              "defaultValue" : 0.0,
                              "interp" : "eioe"
                            },
                            "sourceCrop3" : {
                              "type" : "double",
                              "defaultValue" : 0.0,
                              "interp" : "eioe"
                            },
                            "geometryCrop0" : {
                              "type" : "double",
                              "defaultValue" : 0.0,
                              "interp" : "eioe"
                            },
                            "geometryCrop1" : {
                              "type" : "double",
                              "defaultValue" : 0.0,
                              "interp" : "eioe"
                            },
                            "geometryCrop2" : {
                              "type" : "double",
                              "defaultValue" : 0.0,
                              "interp" : "eioe"
                            },
                            "geometryCrop3" : {
                              "type" : "double",
                              "defaultValue" : 0.0,
                              "interp" : "eioe"
                            }
                          },
                          "effects" : [

                          ],
                          "start" : 9956,
                          "duration" : 1017,
                          "mediaStart" : 0,
                          "mediaDuration" : 1017,
                          "scalar" : 1,
                          "animationTracks" : {

                          }
                        },
                    "audio" : 
                        {
                          "id" : 848,
                          "_type" : "AMFile",
                          "src" : 8,
                          "trackNumber" : 1,
                          "attributes" : {
                            "ident" : "",
                            "gain" : 1.0,
                            "mixToMono" : false
                          },
                            "channelNumber" : "0,1",
                          "effects" : [

                          ],
                          "start" : 9956,
                          "duration" : 1017,
                          "mediaStart" : 0,
                          "mediaDuration" : 1017,
                          "scalar" : 1,
                          "animationTracks" : {

                          }
                        }
,
                    "start" : 9956,
                    "duration" : 1017,
                    "mediaStart" : 0,
                    "mediaDuration" : 4149,
                    "scalar" : 1,
                    "metadata" : {
                      "clipSpeedAttribute" : false
                    }
                  },
                  {
                    "id" : 849,
                    "_type" : "UnifiedMedia",
                    "video" : 
                        {
                          "id" : 850,
                          "_type" : "VMFile",
                          "src" : 8,
                          "trackNumber" : 0,
                          "attributes" : {
                            "ident" : "WhatsApp Video 2020-12-26 at 14.43.15"
                          },
                          "parameters" : {
                            "sourceCrop0" : {
                              "type" : "double",
                              "defaultValue" : 0.0,
                              "interp" : "eioe"
                            },
                            "sourceCrop1" : {
                              "type" : "double",
                              "defaultValue" : 0.0,
                              "interp" : "eioe"
                            },
                            "sourceCrop2" : {
                              "type" : "double",
                              "defaultValue" : 0.0,
                              "interp" : "eioe"
                            },
                            "sourceCrop3" : {
                              "type" : "double",
                              "defaultValue" : 0.0,
                              "interp" : "eioe"
                            },
                            "geometryCrop0" : {
                              "type" : "double",
                              "defaultValue" : 0.0,
                              "interp" : "eioe"
                            },
                            "geometryCrop1" : {
                              "type" : "double",
                              "defaultValue" : 0.0,
                              "interp" : "eioe"
                            },
                            "geometryCrop2" : {
                              "type" : "double",
                              "defaultValue" : 0.0,
                              "interp" : "eioe"
                            },
                            "geometryCrop3" : {
                              "type" : "double",
                              "defaultValue" : 0.0,
                              "interp" : "eioe"
                            }
                          },
                          "effects" : [

                          ],
                          "start" : 10973,
                          "duration" : 171,
                          "mediaStart" : 1029,
                          "mediaDuration" : 171,
                          "scalar" : 1,
                          "animationTracks" : {

                          }
                        },
                    "audio" : 
                        {
                          "id" : 851,
                          "_type" : "AMFile",
                          "src" : 8,
                          "trackNumber" : 1,
                          "attributes" : {
                            "ident" : "",
                            "gain" : 1.0,
                            "mixToMono" : false
                          },
                            "channelNumber" : "0,1",
                          "effects" : [

                          ],
                          "start" : 10973,
                          "duration" : 171,
                          "mediaStart" : 1029,
                          "mediaDuration" : 171,
                          "scalar" : 1,
                          "animationTracks" : {

                          }
                        }
,
                    "start" : 10973,
                    "duration" : 171,
                    "mediaStart" : 0,
                    "mediaDuration" : 4149,
                    "scalar" : 1,
                    "metadata" : {
                      "clipSpeedAttribute" : false
                    }
                  },
                  {
                    "id" : 852,
                    "_type" : "UnifiedMedia",
                    "video" : 
                        {
                          "id" : 853,
                          "_type" : "VMFile",
                          "src" : 8,
                          "trackNumber" : 0,
                          "attributes" : {
                            "ident" : "WhatsApp Video 2020-12-26 at 14.43.15"
                          },
                          "parameters" : {
                            "sourceCrop0" : {
                              "type" : "double",
                              "defaultValue" : 0.0,
                              "interp" : "eioe"
                            },
                            "sourceCrop1" : {
                              "type" : "double",
                              "defaultValue" : 0.0,
                              "interp" : "eioe"
                            },
                            "sourceCrop2" : {
                              "type" : "double",
                              "defaultValue" : 0.0,
                              "interp" : "eioe"
                            },
                            "sourceCrop3" : {
                              "type" : "double",
                              "defaultValue" : 0.0,
                              "interp" : "eioe"
                            },
                            "geometryCrop0" : {
                              "type" : "double",
                              "defaultValue" : 0.0,
                              "interp" : "eioe"
                            },
                            "geometryCrop1" : {
                              "type" : "double",
                              "defaultValue" : 0.0,
                              "interp" : "eioe"
                            },
                            "geometryCrop2" : {
                              "type" : "double",
                              "defaultValue" : 0.0,
                              "interp" : "eioe"
                            },
                            "geometryCrop3" : {
                              "type" : "double",
                              "defaultValue" : 0.0,
                              "interp" : "eioe"
                            }
                          },
                          "effects" : [

                          ],
                          "start" : 11144,
                          "duration" : 544,
                          "mediaStart" : 1215,
                          "mediaDuration" : 544,
                          "scalar" : 1,
                          "animationTracks" : {

                          }
                        },
                    "audio" : 
                        {
                          "id" : 854,
                          "_type" : "AMFile",
                          "src" : 8,
                          "trackNumber" : 1,
                          "attributes" : {
                            "ident" : "",
                            "gain" : 1.0,
                            "mixToMono" : false
                          },
                            "channelNumber" : "0,1",
                          "effects" : [

                          ],
                          "start" : 11144,
                          "duration" : 544,
                          "mediaStart" : 1215,
                          "mediaDuration" : 544,
                          "scalar" : 1,
                          "animationTracks" : {

                          }
                        }
,
                    "start" : 11144,
                    "duration" : 544,
                    "mediaStart" : 0,
                    "mediaDuration" : 4149,
                    "scalar" : 1,
                    "metadata" : {
                      "clipSpeedAttribute" : false
                    }
                  },
                  {
                    "id" : 855,
                    "_type" : "UnifiedMedia",
                    "video" : 
                        {
                          "id" : 856,
                          "_type" : "VMFile",
                          "src" : 8,
                          "trackNumber" : 0,
                          "attributes" : {
                            "ident" : "WhatsApp Video 2020-12-26 at 14.43.15"
                          },
                          "parameters" : {
                            "sourceCrop0" : {
                              "type" : "double",
                              "defaultValue" : 0.0,
                              "interp" : "eioe"
                            },
                            "sourceCrop1" : {
                              "type" : "double",
                              "defaultValue" : 0.0,
                              "interp" : "eioe"
                            },
                            "sourceCrop2" : {
                              "type" : "double",
                              "defaultValue" : 0.0,
                              "interp" : "eioe"
                            },
                            "sourceCrop3" : {
                              "type" : "double",
                              "defaultValue" : 0.0,
                              "interp" : "eioe"
                            },
                            "geometryCrop0" : {
                              "type" : "double",
                              "defaultValue" : 0.0,
                              "interp" : "eioe"
                            },
                            "geometryCrop1" : {
                              "type" : "double",
                              "defaultValue" : 0.0,
                              "interp" : "eioe"
                            },
                            "geometryCrop2" : {
                              "type" : "double",
                              "defaultValue" : 0.0,
                              "interp" : "eioe"
                            },
                            "geometryCrop3" : {
                              "type" : "double",
                              "defaultValue" : 0.0,
                              "interp" : "eioe"
                            }
                          },
                          "effects" : [

                          ],
                          "start" : 11688,
                          "duration" : 22,
                          "mediaStart" : 1772,
                          "mediaDuration" : 22,
                          "scalar" : 1,
                          "animationTracks" : {

                          }
                        },
                    "audio" : 
                        {
                          "id" : 857,
                          "_type" : "AMFile",
                          "src" : 8,
                          "trackNumber" : 1,
                          "attributes" : {
                            "ident" : "",
                            "gain" : 1.0,
                            "mixToMono" : false
                          },
                            "channelNumber" : "0,1",
                          "effects" : [

                          ],
                          "start" : 11688,
                          "duration" : 22,
                          "mediaStart" : 1772,
                          "mediaDuration" : 22,
                          "scalar" : 1,
                          "animationTracks" : {

                          }
                        }
,
                    "start" : 11688,
                    "duration" : 22,
                    "mediaStart" : 0,
                    "mediaDuration" : 4149,
                    "scalar" : 1,
                    "metadata" : {
                      "clipSpeedAttribute" : false
                    }
                  },
                  {
                    "id" : 858,
                    "_type" : "UnifiedMedia",
                    "video" : 
                        {
                          "id" : 859,
                          "_type" : "VMFile",
                          "src" : 8,
                          "trackNumber" : 0,
                          "attributes" : {
                            "ident" : "WhatsApp Video 2020-12-26 at 14.43.15"
                          },
                          "parameters" : {
                            "sourceCrop0" : {
                              "type" : "double",
                              "defaultValue" : 0.0,
                              "interp" : "eioe"
                            },
                            "sourceCrop1" : {
                              "type" : "double",
                              "defaultValue" : 0.0,
                              "interp" : "eioe"
                            },
                            "sourceCrop2" : {
                              "type" : "double",
                              "defaultValue" : 0.0,
                              "interp" : "eioe"
                            },
                            "sourceCrop3" : {
                              "type" : "double",
                              "defaultValue" : 0.0,
                              "interp" : "eioe"
                            },
                            "geometryCrop0" : {
                              "type" : "double",
                              "defaultValue" : 0.0,
                              "interp" : "eioe"
                            },
                            "geometryCrop1" : {
                              "type" : "double",
                              "defaultValue" : 0.0,
                              "interp" : "eioe"
                            },
                            "geometryCrop2" : {
                              "type" : "double",
                              "defaultValue" : 0.0,
                              "interp" : "eioe"
                            },
                            "geometryCrop3" : {
                              "type" : "double",
                              "defaultValue" : 0.0,
                              "interp" : "eioe"
                            }
                          },
                          "effects" : [

                          ],
                          "start" : 11710,
                          "duration" : 50,
                          "mediaStart" : 1812,
                          "mediaDuration" : 50,
                          "scalar" : 1,
                          "animationTracks" : {

                          }
                        },
                    "audio" : 
                        {
                          "id" : 860,
                          "_type" : "AMFile",
                          "src" : 8,
                          "trackNumber" : 1,
                          "attributes" : {
                            "ident" : "",
                            "gain" : 1.0,
                            "mixToMono" : false
                          },
                            "channelNumber" : "0,1",
                          "effects" : [

                          ],
                          "start" : 11710,
                          "duration" : 50,
                          "mediaStart" : 1812,
                          "mediaDuration" : 50,
                          "scalar" : 1,
                          "animationTracks" : {

                          }
                        }
,
                    "start" : 11710,
                    "duration" : 50,
                    "mediaStart" : 0,
                    "mediaDuration" : 4149,
                    "scalar" : 1,
                    "metadata" : {
                      "clipSpeedAttribute" : false
                    }
                  },
                  {
                    "id" : 861,
                    "_type" : "UnifiedMedia",
                    "video" : 
                        {
                          "id" : 862,
                          "_type" : "VMFile",
                          "src" : 8,
                          "trackNumber" : 0,
                          "attributes" : {
                            "ident" : "WhatsApp Video 2020-12-26 at 14.43.15"
                          },
                          "parameters" : {
                            "sourceCrop0" : {
                              "type" : "double",
                              "defaultValue" : 0.0,
                              "interp" : "eioe"
                            },
                            "sourceCrop1" : {
                              "type" : "double",
                              "defaultValue" : 0.0,
                              "interp" : "eioe"
                            },
                            "sourceCrop2" : {
                              "type" : "double",
                              "defaultValue" : 0.0,
                              "interp" : "eioe"
                            },
                            "sourceCrop3" : {
                              "type" : "double",
                              "defaultValue" : 0.0,
                              "interp" : "eioe"
                            },
                            "geometryCrop0" : {
                              "type" : "double",
                              "defaultValue" : 0.0,
                              "interp" : "eioe"
                            },
                            "geometryCrop1" : {
                              "type" : "double",
                              "defaultValue" : 0.0,
                              "interp" : "eioe"
                            },
                            "geometryCrop2" : {
                              "type" : "double",
                              "defaultValue" : 0.0,
                              "interp" : "eioe"
                            },
                            "geometryCrop3" : {
                              "type" : "double",
                              "defaultValue" : 0.0,
                              "interp" : "eioe"
                            }
                          },
                          "effects" : [

                          ],
                          "start" : 11760,
                          "duration" : 32,
                          "mediaStart" : 1874,
                          "mediaDuration" : 32,
                          "scalar" : 1,
                          "animationTracks" : {

                          }
                        },
                    "audio" : 
                        {
                          "id" : 863,
                          "_type" : "AMFile",
                          "src" : 8,
                          "trackNumber" : 1,
                          "attributes" : {
                            "ident" : "",
                            "gain" : 1.0,
                            "mixToMono" : false
                          },
                            "channelNumber" : "0,1",
                          "effects" : [

                          ],
                          "start" : 11760,
                          "duration" : 32,
                          "mediaStart" : 1874,
                          "mediaDuration" : 32,
                          "scalar" : 1,
                          "animationTracks" : {

                          }
                        }
,
                    "start" : 11760,
                    "duration" : 32,
                    "mediaStart" : 0,
                    "mediaDuration" : 4149,
                    "scalar" : 1,
                    "metadata" : {
                      "clipSpeedAttribute" : false
                    }
                  },
                  {
                    "id" : 864,
                    "_type" : "UnifiedMedia",
                    "video" : 
                        {
                          "id" : 865,
                          "_type" : "VMFile",
                          "src" : 8,
                          "trackNumber" : 0,
                          "attributes" : {
                            "ident" : "WhatsApp Video 2020-12-26 at 14.43.15"
                          },
                          "parameters" : {
                            "sourceCrop0" : {
                              "type" : "double",
                              "defaultValue" : 0.0,
                              "interp" : "eioe"
                            },
                            "sourceCrop1" : {
                              "type" : "double",
                              "defaultValue" : 0.0,
                              "interp" : "eioe"
                            },
                            "sourceCrop2" : {
                              "type" : "double",
                              "defaultValue" : 0.0,
                              "interp" : "eioe"
                            },
                            "sourceCrop3" : {
                              "type" : "double",
                              "defaultValue" : 0.0,
                              "interp" : "eioe"
                            },
                            "geometryCrop0" : {
                              "type" : "double",
                              "defaultValue" : 0.0,
                              "interp" : "eioe"
                            },
                            "geometryCrop1" : {
                              "type" : "double",
                              "defaultValue" : 0.0,
                              "interp" : "eioe"
                            },
                            "geometryCrop2" : {
                              "type" : "double",
                              "defaultValue" : 0.0,
                              "interp" : "eioe"
                            },
                            "geometryCrop3" : {
                              "type" : "double",
                              "defaultValue" : 0.0,
                              "interp" : "eioe"
                            }
                          },
                          "effects" : [

                          ],
                          "start" : 11792,
                          "duration" : 112,
                          "mediaStart" : 1917,
                          "mediaDuration" : 112,
                          "scalar" : 1,
                          "animationTracks" : {

                          }
                        },
                    "audio" : 
                        {
                          "id" : 866,
                          "_type" : "AMFile",
                          "src" : 8,
                          "trackNumber" : 1,
                          "attributes" : {
                            "ident" : "",
                            "gain" : 1.0,
                            "mixToMono" : false
                          },
                            "channelNumber" : "0,1",
                          "effects" : [

                          ],
                          "start" : 11792,
                          "duration" : 112,
                          "mediaStart" : 1917,
                          "mediaDuration" : 112,
                          "scalar" : 1,
                          "animationTracks" : {

                          }
                        }
,
                    "start" : 11792,
                    "duration" : 112,
                    "mediaStart" : 0,
                    "mediaDuration" : 4149,
                    "scalar" : 1,
                    "metadata" : {
                      "clipSpeedAttribute" : false
                    }
                  },
                  {
                    "id" : 867,
                    "_type" : "UnifiedMedia",
                    "video" : 
                        {
                          "id" : 868,
                          "_type" : "VMFile",
                          "src" : 8,
                          "trackNumber" : 0,
                          "attributes" : {
                            "ident" : "WhatsApp Video 2020-12-26 at 14.43.15"
                          },
                          "parameters" : {
                            "sourceCrop0" : {
                              "type" : "double",
                              "defaultValue" : 0.0,
                              "interp" : "eioe"
                            },
                            "sourceCrop1" : {
                              "type" : "double",
                              "defaultValue" : 0.0,
                              "interp" : "eioe"
                            },
                            "sourceCrop2" : {
                              "type" : "double",
                              "defaultValue" : 0.0,
                              "interp" : "eioe"
                            },
                            "sourceCrop3" : {
                              "type" : "double",
                              "defaultValue" : 0.0,
                              "interp" : "eioe"
                            },
                            "geometryCrop0" : {
                              "type" : "double",
                              "defaultValue" : 0.0,
                              "interp" : "eioe"
                            },
                            "geometryCrop1" : {
                              "type" : "double",
                              "defaultValue" : 0.0,
                              "interp" : "eioe"
                            },
                            "geometryCrop2" : {
                              "type" : "double",
                              "defaultValue" : 0.0,
                              "interp" : "eioe"
                            },
                            "geometryCrop3" : {
                              "type" : "double",
                              "defaultValue" : 0.0,
                              "interp" : "eioe"
                            }
                          },
                          "effects" : [

                          ],
                          "start" : 11904,
                          "duration" : 155,
                          "mediaStart" : 2043,
                          "mediaDuration" : 155,
                          "scalar" : 1,
                          "animationTracks" : {

                          }
                        },
                    "audio" : 
                        {
                          "id" : 869,
                          "_type" : "AMFile",
                          "src" : 8,
                          "trackNumber" : 1,
                          "attributes" : {
                            "ident" : "",
                            "gain" : 1.0,
                            "mixToMono" : false
                          },
                            "channelNumber" : "0,1",
                          "effects" : [

                          ],
                          "start" : 11904,
                          "duration" : 155,
                          "mediaStart" : 2043,
                          "mediaDuration" : 155,
                          "scalar" : 1,
                          "animationTracks" : {

                          }
                        }
,
                    "start" : 11904,
                    "duration" : 155,
                    "mediaStart" : 0,
                    "mediaDuration" : 4149,
                    "scalar" : 1,
                    "metadata" : {
                      "clipSpeedAttribute" : false
                    }
                  },
                  {
                    "id" : 870,
                    "_type" : "UnifiedMedia",
                    "video" : 
                        {
                          "id" : 871,
                          "_type" : "VMFile",
                          "src" : 8,
                          "trackNumber" : 0,
                          "attributes" : {
                            "ident" : "WhatsApp Video 2020-12-26 at 14.43.15"
                          },
                          "parameters" : {
                            "sourceCrop0" : {
                              "type" : "double",
                              "defaultValue" : 0.0,
                              "interp" : "eioe"
                            },
                            "sourceCrop1" : {
                              "type" : "double",
                              "defaultValue" : 0.0,
                              "interp" : "eioe"
                            },
                            "sourceCrop2" : {
                              "type" : "double",
                              "defaultValue" : 0.0,
                              "interp" : "eioe"
                            },
                            "sourceCrop3" : {
                              "type" : "double",
                              "defaultValue" : 0.0,
                              "interp" : "eioe"
                            },
                            "geometryCrop0" : {
                              "type" : "double",
                              "defaultValue" : 0.0,
                              "interp" : "eioe"
                            },
                            "geometryCrop1" : {
                              "type" : "double",
                              "defaultValue" : 0.0,
                              "interp" : "eioe"
                            },
                            "geometryCrop2" : {
                              "type" : "double",
                              "defaultValue" : 0.0,
                              "interp" : "eioe"
                            },
                            "geometryCrop3" : {
                              "type" : "double",
                              "defaultValue" : 0.0,
                              "interp" : "eioe"
                            }
                          },
                          "effects" : [

                          ],
                          "start" : 12059,
                          "duration" : 34,
                          "mediaStart" : 2210,
                          "mediaDuration" : 34,
                          "scalar" : 1,
                          "animationTracks" : {

                          }
                        },
                    "audio" : 
                        {
                          "id" : 872,
                          "_type" : "AMFile",
                          "src" : 8,
                          "trackNumber" : 1,
                          "attributes" : {
                            "ident" : "",
                            "gain" : 1.0,
                            "mixToMono" : false
                          },
                            "channelNumber" : "0,1",
                          "effects" : [

                          ],
                          "start" : 12059,
                          "duration" : 34,
                          "mediaStart" : 2210,
                          "mediaDuration" : 34,
                          "scalar" : 1,
                          "animationTracks" : {

                          }
                        }
,
                    "start" : 12059,
                    "duration" : 34,
                    "mediaStart" : 0,
                    "mediaDuration" : 4149,
                    "scalar" : 1,
                    "metadata" : {
                      "clipSpeedAttribute" : false
                    }
                  },
                  {
                    "id" : 873,
                    "_type" : "UnifiedMedia",
                    "video" : 
                        {
                          "id" : 874,
                          "_type" : "VMFile",
                          "src" : 8,
                          "trackNumber" : 0,
                          "attributes" : {
                            "ident" : "WhatsApp Video 2020-12-26 at 14.43.15"
                          },
                          "parameters" : {
                            "sourceCrop0" : {
                              "type" : "double",
                              "defaultValue" : 0.0,
                              "interp" : "eioe"
                            },
                            "sourceCrop1" : {
                              "type" : "double",
                              "defaultValue" : 0.0,
                              "interp" : "eioe"
                            },
                            "sourceCrop2" : {
                              "type" : "double",
                              "defaultValue" : 0.0,
                              "interp" : "eioe"
                            },
                            "sourceCrop3" : {
                              "type" : "double",
                              "defaultValue" : 0.0,
                              "interp" : "eioe"
                            },
                            "geometryCrop0" : {
                              "type" : "double",
                              "defaultValue" : 0.0,
                              "interp" : "eioe"
                            },
                            "geometryCrop1" : {
                              "type" : "double",
                              "defaultValue" : 0.0,
                              "interp" : "eioe"
                            },
                            "geometryCrop2" : {
                              "type" : "double",
                              "defaultValue" : 0.0,
                              "interp" : "eioe"
                            },
                            "geometryCrop3" : {
                              "type" : "double",
                              "defaultValue" : 0.0,
                              "interp" : "eioe"
                            }
                          },
                          "effects" : [

                          ],
                          "start" : 12093,
                          "duration" : 91,
                          "mediaStart" : 2254,
                          "mediaDuration" : 91,
                          "scalar" : 1,
                          "animationTracks" : {

                          }
                        },
                    "audio" : 
                        {
                          "id" : 875,
                          "_type" : "AMFile",
                          "src" : 8,
                          "trackNumber" : 1,
                          "attributes" : {
                            "ident" : "",
                            "gain" : 1.0,
                            "mixToMono" : false
                          },
                            "channelNumber" : "0,1",
                          "effects" : [

                          ],
                          "start" : 12093,
                          "duration" : 91,
                          "mediaStart" : 2254,
                          "mediaDuration" : 91,
                          "scalar" : 1,
                          "animationTracks" : {

                          }
                        }
,
                    "start" : 12093,
                    "duration" : 91,
                    "mediaStart" : 0,
                    "mediaDuration" : 4149,
                    "scalar" : 1,
                    "metadata" : {
                      "clipSpeedAttribute" : false
                    }
                  },
                  {
                    "id" : 876,
                    "_type" : "UnifiedMedia",
                    "video" : 
                        {
                          "id" : 877,
                          "_type" : "VMFile",
                          "src" : 8,
                          "trackNumber" : 0,
                          "attributes" : {
                            "ident" : "WhatsApp Video 2020-12-26 at 14.43.15"
                          },
                          "parameters" : {
                            "sourceCrop0" : {
                              "type" : "double",
                              "defaultValue" : 0.0,
                              "interp" : "eioe"
                            },
                            "sourceCrop1" : {
                              "type" : "double",
                              "defaultValue" : 0.0,
                              "interp" : "eioe"
                            },
                            "sourceCrop2" : {
                              "type" : "double",
                              "defaultValue" : 0.0,
                              "interp" : "eioe"
                            },
                            "sourceCrop3" : {
                              "type" : "double",
                              "defaultValue" : 0.0,
                              "interp" : "eioe"
                            },
                            "geometryCrop0" : {
                              "type" : "double",
                              "defaultValue" : 0.0,
                              "interp" : "eioe"
                            },
                            "geometryCrop1" : {
                              "type" : "double",
                              "defaultValue" : 0.0,
                              "interp" : "eioe"
                            },
                            "geometryCrop2" : {
                              "type" : "double",
                              "defaultValue" : 0.0,
                              "interp" : "eioe"
                            },
                            "geometryCrop3" : {
                              "type" : "double",
                              "defaultValue" : 0.0,
                              "interp" : "eioe"
                            }
                          },
                          "effects" : [

                          ],
                          "start" : 12184,
                          "duration" : 20,
                          "mediaStart" : 2359,
                          "mediaDuration" : 20,
                          "scalar" : 1,
                          "animationTracks" : {

                          }
                        },
                    "audio" : 
                        {
                          "id" : 878,
                          "_type" : "AMFile",
                          "src" : 8,
                          "trackNumber" : 1,
                          "attributes" : {
                            "ident" : "",
                            "gain" : 1.0,
                            "mixToMono" : false
                          },
                            "channelNumber" : "0,1",
                          "effects" : [

                          ],
                          "start" : 12184,
                          "duration" : 20,
                          "mediaStart" : 2359,
                          "mediaDuration" : 20,
                          "scalar" : 1,
                          "animationTracks" : {

                          }
                        }
,
                    "start" : 12184,
                    "duration" : 20,
                    "mediaStart" : 0,
                    "mediaDuration" : 4149,
                    "scalar" : 1,
                    "metadata" : {
                      "clipSpeedAttribute" : false
                    }
                  },
                  {
                    "id" : 879,
                    "_type" : "UnifiedMedia",
                    "video" : 
                        {
                          "id" : 880,
                          "_type" : "VMFile",
                          "src" : 8,
                          "trackNumber" : 0,
                          "attributes" : {
                            "ident" : "WhatsApp Video 2020-12-26 at 14.43.15"
                          },
                          "parameters" : {
                            "sourceCrop0" : {
                              "type" : "double",
                              "defaultValue" : 0.0,
                              "interp" : "eioe"
                            },
                            "sourceCrop1" : {
                              "type" : "double",
                              "defaultValue" : 0.0,
                              "interp" : "eioe"
                            },
                            "sourceCrop2" : {
                              "type" : "double",
                              "defaultValue" : 0.0,
                              "interp" : "eioe"
                            },
                            "sourceCrop3" : {
                              "type" : "double",
                              "defaultValue" : 0.0,
                              "interp" : "eioe"
                            },
                            "geometryCrop0" : {
                              "type" : "double",
                              "defaultValue" : 0.0,
                              "interp" : "eioe"
                            },
                            "geometryCrop1" : {
                              "type" : "double",
                              "defaultValue" : 0.0,
                              "interp" : "eioe"
                            },
                            "geometryCrop2" : {
                              "type" : "double",
                              "defaultValue" : 0.0,
                              "interp" : "eioe"
                            },
                            "geometryCrop3" : {
                              "type" : "double",
                              "defaultValue" : 0.0,
                              "interp" : "eioe"
                            }
                          },
                          "effects" : [

                          ],
                          "start" : 12204,
                          "duration" : 67,
                          "mediaStart" : 2426,
                          "mediaDuration" : 67,
                          "scalar" : 1,
                          "animationTracks" : {

                          }
                        },
                    "audio" : 
                        {
                          "id" : 881,
                          "_type" : "AMFile",
                          "src" : 8,
                          "trackNumber" : 1,
                          "attributes" : {
                            "ident" : "",
                            "gain" : 1.0,
                            "mixToMono" : false
                          },
                            "channelNumber" : "0,1",
                          "effects" : [

                          ],
                          "start" : 12204,
                          "duration" : 67,
                          "mediaStart" : 2426,
                          "mediaDuration" : 67,
                          "scalar" : 1,
                          "animationTracks" : {

                          }
                        }
,
                    "start" : 12204,
                    "duration" : 67,
                    "mediaStart" : 0,
                    "mediaDuration" : 4149,
                    "scalar" : 1,
                    "metadata" : {
                      "clipSpeedAttribute" : false
                    }
                  },
                  {
                    "id" : 882,
                    "_type" : "UnifiedMedia",
                    "video" : 
                        {
                          "id" : 883,
                          "_type" : "VMFile",
                          "src" : 8,
                          "trackNumber" : 0,
                          "attributes" : {
                            "ident" : "WhatsApp Video 2020-12-26 at 14.43.15"
                          },
                          "parameters" : {
                            "sourceCrop0" : {
                              "type" : "double",
                              "defaultValue" : 0.0,
                              "interp" : "eioe"
                            },
                            "sourceCrop1" : {
                              "type" : "double",
                              "defaultValue" : 0.0,
                              "interp" : "eioe"
                            },
                            "sourceCrop2" : {
                              "type" : "double",
                              "defaultValue" : 0.0,
                              "interp" : "eioe"
                            },
                            "sourceCrop3" : {
                              "type" : "double",
                              "defaultValue" : 0.0,
                              "interp" : "eioe"
                            },
                            "geometryCrop0" : {
                              "type" : "double",
                              "defaultValue" : 0.0,
                              "interp" : "eioe"
                            },
                            "geometryCrop1" : {
                              "type" : "double",
                              "defaultValue" : 0.0,
                              "interp" : "eioe"
                            },
                            "geometryCrop2" : {
                              "type" : "double",
                              "defaultValue" : 0.0,
                              "interp" : "eioe"
                            },
                            "geometryCrop3" : {
                              "type" : "double",
                              "defaultValue" : 0.0,
                              "interp" : "eioe"
                            }
                          },
                          "effects" : [

                          ],
                          "start" : 12271,
                          "duration" : 183,
                          "mediaStart" : 2511,
                          "mediaDuration" : 183,
                          "scalar" : 1,
                          "animationTracks" : {

                          }
                        },
                    "audio" : 
                        {
                          "id" : 884,
                          "_type" : "AMFile",
                          "src" : 8,
                          "trackNumber" : 1,
                          "attributes" : {
                            "ident" : "",
                            "gain" : 1.0,
                            "mixToMono" : false
                          },
                            "channelNumber" : "0,1",
                          "effects" : [

                          ],
                          "start" : 12271,
                          "duration" : 183,
                          "mediaStart" : 2511,
                          "mediaDuration" : 183,
                          "scalar" : 1,
                          "animationTracks" : {

                          }
                        }
,
                    "start" : 12271,
                    "duration" : 183,
                    "mediaStart" : 0,
                    "mediaDuration" : 4149,
                    "scalar" : 1,
                    "metadata" : {
                      "clipSpeedAttribute" : false
                    }
                  },
                  {
                    "id" : 885,
                    "_type" : "UnifiedMedia",
                    "video" : 
                        {
                          "id" : 886,
                          "_type" : "VMFile",
                          "src" : 8,
                          "trackNumber" : 0,
                          "attributes" : {
                            "ident" : "WhatsApp Video 2020-12-26 at 14.43.15"
                          },
                          "parameters" : {
                            "sourceCrop0" : {
                              "type" : "double",
                              "defaultValue" : 0.0,
                              "interp" : "eioe"
                            },
                            "sourceCrop1" : {
                              "type" : "double",
                              "defaultValue" : 0.0,
                              "interp" : "eioe"
                            },
                            "sourceCrop2" : {
                              "type" : "double",
                              "defaultValue" : 0.0,
                              "interp" : "eioe"
                            },
                            "sourceCrop3" : {
                              "type" : "double",
                              "defaultValue" : 0.0,
                              "interp" : "eioe"
                            },
                            "geometryCrop0" : {
                              "type" : "double",
                              "defaultValue" : 0.0,
                              "interp" : "eioe"
                            },
                            "geometryCrop1" : {
                              "type" : "double",
                              "defaultValue" : 0.0,
                              "interp" : "eioe"
                            },
                            "geometryCrop2" : {
                              "type" : "double",
                              "defaultValue" : 0.0,
                              "interp" : "eioe"
                            },
                            "geometryCrop3" : {
                              "type" : "double",
                              "defaultValue" : 0.0,
                              "interp" : "eioe"
                            }
                          },
                          "effects" : [

                          ],
                          "start" : 12454,
                          "duration" : 29,
                          "mediaStart" : 2714,
                          "mediaDuration" : 29,
                          "scalar" : 1,
                          "animationTracks" : {

                          }
                        },
                    "audio" : 
                        {
                          "id" : 887,
                          "_type" : "AMFile",
                          "src" : 8,
                          "trackNumber" : 1,
                          "attributes" : {
                            "ident" : "",
                            "gain" : 1.0,
                            "mixToMono" : false
                          },
                            "channelNumber" : "0,1",
                          "effects" : [

                          ],
                          "start" : 12454,
                          "duration" : 29,
                          "mediaStart" : 2714,
                          "mediaDuration" : 29,
                          "scalar" : 1,
                          "animationTracks" : {

                          }
                        }
,
                    "start" : 12454,
                    "duration" : 29,
                    "mediaStart" : 0,
                    "mediaDuration" : 4149,
                    "scalar" : 1,
                    "metadata" : {
                      "clipSpeedAttribute" : false
                    }
                  },
                  {
                    "id" : 888,
                    "_type" : "UnifiedMedia",
                    "video" : 
                        {
                          "id" : 889,
                          "_type" : "VMFile",
                          "src" : 8,
                          "trackNumber" : 0,
                          "attributes" : {
                            "ident" : "WhatsApp Video 2020-12-26 at 14.43.15"
                          },
                          "parameters" : {
                            "sourceCrop0" : {
                              "type" : "double",
                              "defaultValue" : 0.0,
                              "interp" : "eioe"
                            },
                            "sourceCrop1" : {
                              "type" : "double",
                              "defaultValue" : 0.0,
                              "interp" : "eioe"
                            },
                            "sourceCrop2" : {
                              "type" : "double",
                              "defaultValue" : 0.0,
                              "interp" : "eioe"
                            },
                            "sourceCrop3" : {
                              "type" : "double",
                              "defaultValue" : 0.0,
                              "interp" : "eioe"
                            },
                            "geometryCrop0" : {
                              "type" : "double",
                              "defaultValue" : 0.0,
                              "interp" : "eioe"
                            },
                            "geometryCrop1" : {
                              "type" : "double",
                              "defaultValue" : 0.0,
                              "interp" : "eioe"
                            },
                            "geometryCrop2" : {
                              "type" : "double",
                              "defaultValue" : 0.0,
                              "interp" : "eioe"
                            },
                            "geometryCrop3" : {
                              "type" : "double",
                              "defaultValue" : 0.0,
                              "interp" : "eioe"
                            }
                          },
                          "effects" : [

                          ],
                          "start" : 12483,
                          "duration" : 203,
                          "mediaStart" : 2756,
                          "mediaDuration" : 203,
                          "scalar" : 1,
                          "animationTracks" : {

                          }
                        },
                    "audio" : 
                        {
                          "id" : 890,
                          "_type" : "AMFile",
                          "src" : 8,
                          "trackNumber" : 1,
                          "attributes" : {
                            "ident" : "",
                            "gain" : 1.0,
                            "mixToMono" : false
                          },
                            "channelNumber" : "0,1",
                          "effects" : [

                          ],
                          "start" : 12483,
                          "duration" : 203,
                          "mediaStart" : 2756,
                          "mediaDuration" : 203,
                          "scalar" : 1,
                          "animationTracks" : {

                          }
                        }
,
                    "start" : 12483,
                    "duration" : 203,
                    "mediaStart" : 0,
                    "mediaDuration" : 4149,
                    "scalar" : 1,
                    "metadata" : {
                      "clipSpeedAttribute" : false
                    }
                  },
                  {
                    "id" : 891,
                    "_type" : "UnifiedMedia",
                    "video" : 
                        {
                          "id" : 892,
                          "_type" : "VMFile",
                          "src" : 8,
                          "trackNumber" : 0,
                          "attributes" : {
                            "ident" : "WhatsApp Video 2020-12-26 at 14.43.15"
                          },
                          "parameters" : {
                            "sourceCrop0" : {
                              "type" : "double",
                              "defaultValue" : 0.0,
                              "interp" : "eioe"
                            },
                            "sourceCrop1" : {
                              "type" : "double",
                              "defaultValue" : 0.0,
                              "interp" : "eioe"
                            },
                            "sourceCrop2" : {
                              "type" : "double",
                              "defaultValue" : 0.0,
                              "interp" : "eioe"
                            },
                            "sourceCrop3" : {
                              "type" : "double",
                              "defaultValue" : 0.0,
                              "interp" : "eioe"
                            },
                            "geometryCrop0" : {
                              "type" : "double",
                              "defaultValue" : 0.0,
                              "interp" : "eioe"
                            },
                            "geometryCrop1" : {
                              "type" : "double",
                              "defaultValue" : 0.0,
                              "interp" : "eioe"
                            },
                            "geometryCrop2" : {
                              "type" : "double",
                              "defaultValue" : 0.0,
                              "interp" : "eioe"
                            },
                            "geometryCrop3" : {
                              "type" : "double",
                              "defaultValue" : 0.0,
                              "interp" : "eioe"
                            }
                          },
                          "effects" : [

                          ],
                          "start" : 12686,
                          "duration" : 137,
                          "mediaStart" : 2972,
                          "mediaDuration" : 137,
                          "scalar" : 1,
                          "animationTracks" : {

                          }
                        },
                    "audio" : 
                        {
                          "id" : 893,
                          "_type" : "AMFile",
                          "src" : 8,
                          "trackNumber" : 1,
                          "attributes" : {
                            "ident" : "",
                            "gain" : 1.0,
                            "mixToMono" : false
                          },
                            "channelNumber" : "0,1",
                          "effects" : [

                          ],
                          "start" : 12686,
                          "duration" : 137,
                          "mediaStart" : 2972,
                          "mediaDuration" : 137,
                          "scalar" : 1,
                          "animationTracks" : {

                          }
                        }
,
                    "start" : 12686,
                    "duration" : 137,
                    "mediaStart" : 0,
                    "mediaDuration" : 4149,
                    "scalar" : 1,
                    "metadata" : {
                      "clipSpeedAttribute" : false
                    }
                  },
                  {
                    "id" : 894,
                    "_type" : "UnifiedMedia",
                    "video" : 
                        {
                          "id" : 895,
                          "_type" : "VMFile",
                          "src" : 8,
                          "trackNumber" : 0,
                          "attributes" : {
                            "ident" : "WhatsApp Video 2020-12-26 at 14.43.15"
                          },
                          "parameters" : {
                            "sourceCrop0" : {
                              "type" : "double",
                              "defaultValue" : 0.0,
                              "interp" : "eioe"
                            },
                            "sourceCrop1" : {
                              "type" : "double",
                              "defaultValue" : 0.0,
                              "interp" : "eioe"
                            },
                            "sourceCrop2" : {
                              "type" : "double",
                              "defaultValue" : 0.0,
                              "interp" : "eioe"
                            },
                            "sourceCrop3" : {
                              "type" : "double",
                              "defaultValue" : 0.0,
                              "interp" : "eioe"
                            },
                            "geometryCrop0" : {
                              "type" : "double",
                              "defaultValue" : 0.0,
                              "interp" : "eioe"
                            },
                            "geometryCrop1" : {
                              "type" : "double",
                              "defaultValue" : 0.0,
                              "interp" : "eioe"
                            },
                            "geometryCrop2" : {
                              "type" : "double",
                              "defaultValue" : 0.0,
                              "interp" : "eioe"
                            },
                            "geometryCrop3" : {
                              "type" : "double",
                              "defaultValue" : 0.0,
                              "interp" : "eioe"
                            }
                          },
                          "effects" : [

                          ],
                          "start" : 12823,
                          "duration" : 199,
                          "mediaStart" : 3124,
                          "mediaDuration" : 199,
                          "scalar" : 1,
                          "animationTracks" : {

                          }
                        },
                    "audio" : 
                        {
                          "id" : 896,
                          "_type" : "AMFile",
                          "src" : 8,
                          "trackNumber" : 1,
                          "attributes" : {
                            "ident" : "",
                            "gain" : 1.0,
                            "mixToMono" : false
                          },
                            "channelNumber" : "0,1",
                          "effects" : [

                          ],
                          "start" : 12823,
                          "duration" : 199,
                          "mediaStart" : 3124,
                          "mediaDuration" : 199,
                          "scalar" : 1,
                          "animationTracks" : {

                          }
                        }
,
                    "start" : 12823,
                    "duration" : 199,
                    "mediaStart" : 0,
                    "mediaDuration" : 4149,
                    "scalar" : 1,
                    "metadata" : {
                      "clipSpeedAttribute" : false
                    }
                  },
                  {
                    "id" : 897,
                    "_type" : "UnifiedMedia",
                    "video" : 
                        {
                          "id" : 898,
                          "_type" : "VMFile",
                          "src" : 8,
                          "trackNumber" : 0,
                          "attributes" : {
                            "ident" : "WhatsApp Video 2020-12-26 at 14.43.15"
                          },
                          "parameters" : {
                            "sourceCrop0" : {
                              "type" : "double",
                              "defaultValue" : 0.0,
                              "interp" : "eioe"
                            },
                            "sourceCrop1" : {
                              "type" : "double",
                              "defaultValue" : 0.0,
                              "interp" : "eioe"
                            },
                            "sourceCrop2" : {
                              "type" : "double",
                              "defaultValue" : 0.0,
                              "interp" : "eioe"
                            },
                            "sourceCrop3" : {
                              "type" : "double",
                              "defaultValue" : 0.0,
                              "interp" : "eioe"
                            },
                            "geometryCrop0" : {
                              "type" : "double",
                              "defaultValue" : 0.0,
                              "interp" : "eioe"
                            },
                            "geometryCrop1" : {
                              "type" : "double",
                              "defaultValue" : 0.0,
                              "interp" : "eioe"
                            },
                            "geometryCrop2" : {
                              "type" : "double",
                              "defaultValue" : 0.0,
                              "interp" : "eioe"
                            },
                            "geometryCrop3" : {
                              "type" : "double",
                              "defaultValue" : 0.0,
                              "interp" : "eioe"
                            }
                          },
                          "effects" : [

                          ],
                          "start" : 13022,
                          "duration" : 167,
                          "mediaStart" : 3342,
                          "mediaDuration" : 167,
                          "scalar" : 1,
                          "animationTracks" : {

                          }
                        },
                    "audio" : 
                        {
                          "id" : 899,
                          "_type" : "AMFile",
                          "src" : 8,
                          "trackNumber" : 1,
                          "attributes" : {
                            "ident" : "",
                            "gain" : 1.0,
                            "mixToMono" : false
                          },
                            "channelNumber" : "0,1",
                          "effects" : [

                          ],
                          "start" : 13022,
                          "duration" : 167,
                          "mediaStart" : 3342,
                          "mediaDuration" : 167,
                          "scalar" : 1,
                          "animationTracks" : {

                          }
                        }
,
                    "start" : 13022,
                    "duration" : 167,
                    "mediaStart" : 0,
                    "mediaDuration" : 4149,
                    "scalar" : 1,
                    "metadata" : {
                      "clipSpeedAttribute" : false
                    }
                  },
                  {
                    "id" : 900,
                    "_type" : "UnifiedMedia",
                    "video" : 
                        {
                          "id" : 901,
                          "_type" : "VMFile",
                          "src" : 8,
                          "trackNumber" : 0,
                          "attributes" : {
                            "ident" : "WhatsApp Video 2020-12-26 at 14.43.15"
                          },
                          "parameters" : {
                            "sourceCrop0" : {
                              "type" : "double",
                              "defaultValue" : 0.0,
                              "interp" : "eioe"
                            },
                            "sourceCrop1" : {
                              "type" : "double",
                              "defaultValue" : 0.0,
                              "interp" : "eioe"
                            },
                            "sourceCrop2" : {
                              "type" : "double",
                              "defaultValue" : 0.0,
                              "interp" : "eioe"
                            },
                            "sourceCrop3" : {
                              "type" : "double",
                              "defaultValue" : 0.0,
                              "interp" : "eioe"
                            },
                            "geometryCrop0" : {
                              "type" : "double",
                              "defaultValue" : 0.0,
                              "interp" : "eioe"
                            },
                            "geometryCrop1" : {
                              "type" : "double",
                              "defaultValue" : 0.0,
                              "interp" : "eioe"
                            },
                            "geometryCrop2" : {
                              "type" : "double",
                              "defaultValue" : 0.0,
                              "interp" : "eioe"
                            },
                            "geometryCrop3" : {
                              "type" : "double",
                              "defaultValue" : 0.0,
                              "interp" : "eioe"
                            }
                          },
                          "effects" : [

                          ],
                          "start" : 13189,
                          "duration" : 20,
                          "mediaStart" : 3517,
                          "mediaDuration" : 20,
                          "scalar" : 1,
                          "animationTracks" : {

                          }
                        },
                    "audio" : 
                        {
                          "id" : 902,
                          "_type" : "AMFile",
                          "src" : 8,
                          "trackNumber" : 1,
                          "attributes" : {
                            "ident" : "",
                            "gain" : 1.0,
                            "mixToMono" : false
                          },
                            "channelNumber" : "0,1",
                          "effects" : [

                          ],
                          "start" : 13189,
                          "duration" : 20,
                          "mediaStart" : 3517,
                          "mediaDuration" : 20,
                          "scalar" : 1,
                          "animationTracks" : {

                          }
                        }
,
                    "start" : 13189,
                    "duration" : 20,
                    "mediaStart" : 0,
                    "mediaDuration" : 4149,
                    "scalar" : 1,
                    "metadata" : {
                      "clipSpeedAttribute" : false
                    }
                  },
                  {
                    "id" : 903,
                    "_type" : "UnifiedMedia",
                    "video" : 
                        {
                          "id" : 904,
                          "_type" : "VMFile",
                          "src" : 8,
                          "trackNumber" : 0,
                          "attributes" : {
                            "ident" : "WhatsApp Video 2020-12-26 at 14.43.15"
                          },
                          "parameters" : {
                            "sourceCrop0" : {
                              "type" : "double",
                              "defaultValue" : 0.0,
                              "interp" : "eioe"
                            },
                            "sourceCrop1" : {
                              "type" : "double",
                              "defaultValue" : 0.0,
                              "interp" : "eioe"
                            },
                            "sourceCrop2" : {
                              "type" : "double",
                              "defaultValue" : 0.0,
                              "interp" : "eioe"
                            },
                            "sourceCrop3" : {
                              "type" : "double",
                              "defaultValue" : 0.0,
                              "interp" : "eioe"
                            },
                            "geometryCrop0" : {
                              "type" : "double",
                              "defaultValue" : 0.0,
                              "interp" : "eioe"
                            },
                            "geometryCrop1" : {
                              "type" : "double",
                              "defaultValue" : 0.0,
                              "interp" : "eioe"
                            },
                            "geometryCrop2" : {
                              "type" : "double",
                              "defaultValue" : 0.0,
                              "interp" : "eioe"
                            },
                            "geometryCrop3" : {
                              "type" : "double",
                              "defaultValue" : 0.0,
                              "interp" : "eioe"
                            }
                          },
                          "effects" : [

                          ],
                          "start" : 13209,
                          "duration" : 516,
                          "mediaStart" : 3563,
                          "mediaDuration" : 516,
                          "scalar" : 1,
                          "animationTracks" : {

                          }
                        },
                    "audio" : 
                        {
                          "id" : 905,
                          "_type" : "AMFile",
                          "src" : 8,
                          "trackNumber" : 1,
                          "attributes" : {
                            "ident" : "",
                            "gain" : 1.0,
                            "mixToMono" : false
                          },
                            "channelNumber" : "0,1",
                          "effects" : [

                          ],
                          "start" : 13209,
                          "duration" : 516,
                          "mediaStart" : 3563,
                          "mediaDuration" : 516,
                          "scalar" : 1,
                          "animationTracks" : {

                          }
                        }
,
                    "start" : 13209,
                    "duration" : 516,
                    "mediaStart" : 0,
                    "mediaDuration" : 4149,
                    "scalar" : 1,
                    "metadata" : {
                      "clipSpeedAttribute" : false
                    }
                  },
                  {
                    "id" : 906,
                    "_type" : "UnifiedMedia",
                    "video" : 
                        {
                          "id" : 907,
                          "_type" : "ScreenVMFile",
                          "src" : 10,
                          "trackNumber" : 0,
                          "attributes" : {
                            "ident" : "Grabación 27-12-{AA}_001"
                          },
                          "parameters" : {
                            "sourceCrop0" : {
                              "type" : "double",
                              "defaultValue" : 0.0,
                              "interp" : "eioe"
                            },
                            "sourceCrop1" : {
                              "type" : "double",
                              "defaultValue" : 0.0,
                              "interp" : "eioe"
                            },
                            "sourceCrop2" : {
                              "type" : "double",
                              "defaultValue" : 0.0,
                              "interp" : "eioe"
                            },
                            "sourceCrop3" : {
                              "type" : "double",
                              "defaultValue" : 0.0,
                              "interp" : "eioe"
                            },
                            "geometryCrop0" : {
                              "type" : "double",
                              "defaultValue" : 0.0,
                              "interp" : "eioe"
                            },
                            "geometryCrop1" : {
                              "type" : "double",
                              "defaultValue" : 0.0,
                              "interp" : "eioe"
                            },
                            "geometryCrop2" : {
                              "type" : "double",
                              "defaultValue" : 0.0,
                              "interp" : "eioe"
                            },
                            "geometryCrop3" : {
                              "type" : "double",
                              "defaultValue" : 0.0,
                              "interp" : "eioe"
                            },
                            "cursorScale" : {
                              "type" : "double",
                              "defaultValue" : 1.0,
                              "interp" : "linr"
                            },
                            "cursorOpacity" : {
                              "type" : "double",
                              "defaultValue" : 1.0,
                              "interp" : "linr"
                            }
                          },
                          "effects" : [

                          ],
                          "start" : 13725,
                          "duration" : 222,
                          "mediaStart" : 0,
                          "mediaDuration" : 222,
                          "scalar" : 1,
                          "animationTracks" : {

                          }
                        },
                    "audio" : 
                        {
                          "id" : 908,
                          "_type" : "AMFile",
                          "src" : 10,
                          "trackNumber" : 3,
                          "attributes" : {
                            "ident" : "",
                            "gain" : 1.0,
                            "mixToMono" : false
                          },
                            "channelNumber" : "0,1",
                          "effects" : [

                          ],
                          "start" : 13725,
                          "duration" : 222,
                          "mediaStart" : 0,
                          "mediaDuration" : 222,
                          "scalar" : 1,
                          "animationTracks" : {

                          }
                        }
,
                    "start" : 13725,
                    "duration" : 222,
                    "mediaStart" : 0,
                    "mediaDuration" : 795,
                    "scalar" : 1,
                    "metadata" : {
                      "AutoAppliedSmartFocus" : "False",
                      "clipSpeedAttribute" : false
                    }
                  },
                  {
                    "id" : 909,
                    "_type" : "UnifiedMedia",
                    "video" : 
                        {
                          "id" : 910,
                          "_type" : "ScreenVMFile",
                          "src" : 10,
                          "trackNumber" : 0,
                          "attributes" : {
                            "ident" : "Grabación 27-12-{AA}_001"
                          },
                          "parameters" : {
                            "sourceCrop0" : {
                              "type" : "double",
                              "defaultValue" : 0.0,
                              "interp" : "eioe"
                            },
                            "sourceCrop1" : {
                              "type" : "double",
                              "defaultValue" : 0.0,
                              "interp" : "eioe"
                            },
                            "sourceCrop2" : {
                              "type" : "double",
                              "defaultValue" : 0.0,
                              "interp" : "eioe"
                            },
                            "sourceCrop3" : {
                              "type" : "double",
                              "defaultValue" : 0.0,
                              "interp" : "eioe"
                            },
                            "geometryCrop0" : {
                              "type" : "double",
                              "defaultValue" : 0.0,
                              "interp" : "eioe"
                            },
                            "geometryCrop1" : {
                              "type" : "double",
                              "defaultValue" : 0.0,
                              "interp" : "eioe"
                            },
                            "geometryCrop2" : {
                              "type" : "double",
                              "defaultValue" : 0.0,
                              "interp" : "eioe"
                            },
                            "geometryCrop3" : {
                              "type" : "double",
                              "defaultValue" : 0.0,
                              "interp" : "eioe"
                            },
                            "cursorScale" : {
                              "type" : "double",
                              "defaultValue" : 1.0,
                              "interp" : "linr"
                            },
                            "cursorOpacity" : {
                              "type" : "double",
                              "defaultValue" : 1.0,
                              "interp" : "linr"
                            }
                          },
                          "effects" : [

                          ],
                          "start" : 13947,
                          "duration" : 76,
                          "mediaStart" : 239,
                          "mediaDuration" : 76,
                          "scalar" : 1,
                          "animationTracks" : {

                          }
                        },
                    "audio" : 
                        {
                          "id" : 911,
                          "_type" : "AMFile",
                          "src" : 10,
                          "trackNumber" : 3,
                          "attributes" : {
                            "ident" : "",
                            "gain" : 1.0,
                            "mixToMono" : false
                          },
                            "channelNumber" : "0,1",
                          "effects" : [

                          ],
                          "start" : 13947,
                          "duration" : 76,
                          "mediaStart" : 239,
                          "mediaDuration" : 76,
                          "scalar" : 1,
                          "animationTracks" : {

                          }
                        }
,
                    "start" : 13947,
                    "duration" : 76,
                    "mediaStart" : 0,
                    "mediaDuration" : 795,
                    "scalar" : 1,
                    "metadata" : {
                      "AutoAppliedSmartFocus" : "False",
                      "clipSpeedAttribute" : false
                    }
                  },
                  {
                    "id" : 912,
                    "_type" : "UnifiedMedia",
                    "video" : 
                        {
                          "id" : 913,
                          "_type" : "ScreenVMFile",
                          "src" : 10,
                          "trackNumber" : 0,
                          "attributes" : {
                            "ident" : "Grabación 27-12-{AA}_001"
                          },
                          "parameters" : {
                            "sourceCrop0" : {
                              "type" : "double",
                              "defaultValue" : 0.0,
                              "interp" : "eioe"
                            },
                            "sourceCrop1" : {
                              "type" : "double",
                              "defaultValue" : 0.0,
                              "interp" : "eioe"
                            },
                            "sourceCrop2" : {
                              "type" : "double",
                              "defaultValue" : 0.0,
                              "interp" : "eioe"
                            },
                            "sourceCrop3" : {
                              "type" : "double",
                              "defaultValue" : 0.0,
                              "interp" : "eioe"
                            },
                            "geometryCrop0" : {
                              "type" : "double",
                              "defaultValue" : 0.0,
                              "interp" : "eioe"
                            },
                            "geometryCrop1" : {
                              "type" : "double",
                              "defaultValue" : 0.0,
                              "interp" : "eioe"
                            },
                            "geometryCrop2" : {
                              "type" : "double",
                              "defaultValue" : 0.0,
                              "interp" : "eioe"
                            },
                            "geometryCrop3" : {
                              "type" : "double",
                              "defaultValue" : 0.0,
                              "interp" : "eioe"
                            },
                            "cursorScale" : {
                              "type" : "double",
                              "defaultValue" : 1.0,
                              "interp" : "linr"
                            },
                            "cursorOpacity" : {
                              "type" : "double",
                              "defaultValue" : 1.0,
                              "interp" : "linr"
                            }
                          },
                          "effects" : [

                          ],
                          "start" : 14023,
                          "duration" : 159,
                          "mediaStart" : 331,
                          "mediaDuration" : 159,
                          "scalar" : 1,
                          "animationTracks" : {

                          }
                        },
                    "audio" : 
                        {
                          "id" : 914,
                          "_type" : "AMFile",
                          "src" : 10,
                          "trackNumber" : 3,
                          "attributes" : {
                            "ident" : "",
                            "gain" : 1.0,
                            "mixToMono" : false
                          },
                            "channelNumber" : "0,1",
                          "effects" : [

                          ],
                          "start" : 14023,
                          "duration" : 159,
                          "mediaStart" : 331,
                          "mediaDuration" : 159,
                          "scalar" : 1,
                          "animationTracks" : {

                          }
                        }
,
                    "start" : 14023,
                    "duration" : 159,
                    "mediaStart" : 0,
                    "mediaDuration" : 795,
                    "scalar" : 1,
                    "metadata" : {
                      "AutoAppliedSmartFocus" : "False",
                      "clipSpeedAttribute" : false
                    }
                  },
                  {
                    "id" : 915,
                    "_type" : "UnifiedMedia",
                    "video" : 
                        {
                          "id" : 916,
                          "_type" : "ScreenVMFile",
                          "src" : 10,
                          "trackNumber" : 0,
                          "attributes" : {
                            "ident" : "Grabación 27-12-{AA}_001"
                          },
                          "parameters" : {
                            "sourceCrop0" : {
                              "type" : "double",
                              "defaultValue" : 0.0,
                              "interp" : "eioe"
                            },
                            "sourceCrop1" : {
                              "type" : "double",
                              "defaultValue" : 0.0,
                              "interp" : "eioe"
                            },
                            "sourceCrop2" : {
                              "type" : "double",
                              "defaultValue" : 0.0,
                              "interp" : "eioe"
                            },
                            "sourceCrop3" : {
                              "type" : "double",
                              "defaultValue" : 0.0,
                              "interp" : "eioe"
                            },
                            "geometryCrop0" : {
                              "type" : "double",
                              "defaultValue" : 0.0,
                              "interp" : "eioe"
                            },
                            "geometryCrop1" : {
                              "type" : "double",
                              "defaultValue" : 0.0,
                              "interp" : "eioe"
                            },
                            "geometryCrop2" : {
                              "type" : "double",
                              "defaultValue" : 0.0,
                              "interp" : "eioe"
                            },
                            "geometryCrop3" : {
                              "type" : "double",
                              "defaultValue" : 0.0,
                              "interp" : "eioe"
                            },
                            "cursorScale" : {
                              "type" : "double",
                              "defaultValue" : 1.0,
                              "interp" : "linr"
                            },
                            "cursorOpacity" : {
                              "type" : "double",
                              "defaultValue" : 1.0,
                              "interp" : "linr"
                            }
                          },
                          "effects" : [

                          ],
                          "start" : 14182,
                          "duration" : 84,
                          "mediaStart" : 507,
                          "mediaDuration" : 84,
                          "scalar" : 1,
                          "animationTracks" : {

                          }
                        },
                    "audio" : 
                        {
                          "id" : 917,
                          "_type" : "AMFile",
                          "src" : 10,
                          "trackNumber" : 3,
                          "attributes" : {
                            "ident" : "",
                            "gain" : 1.0,
                            "mixToMono" : false
                          },
                            "channelNumber" : "0,1",
                          "effects" : [

                          ],
                          "start" : 14182,
                          "duration" : 84,
                          "mediaStart" : 507,
                          "mediaDuration" : 84,
                          "scalar" : 1,
                          "animationTracks" : {

                          }
                        }
,
                    "start" : 14182,
                    "duration" : 84,
                    "mediaStart" : 0,
                    "mediaDuration" : 795,
                    "scalar" : 1,
                    "metadata" : {
                      "AutoAppliedSmartFocus" : "False",
                      "clipSpeedAttribute" : false
                    }
                  },
                  {
                    "id" : 918,
                    "_type" : "UnifiedMedia",
                    "video" : 
                        {
                          "id" : 919,
                          "_type" : "ScreenVMFile",
                          "src" : 10,
                          "trackNumber" : 0,
                          "attributes" : {
                            "ident" : "Grabación 27-12-{AA}_001"
                          },
                          "parameters" : {
                            "sourceCrop0" : {
                              "type" : "double",
                              "defaultValue" : 0.0,
                              "interp" : "eioe"
                            },
                            "sourceCrop1" : {
                              "type" : "double",
                              "defaultValue" : 0.0,
                              "interp" : "eioe"
                            },
                            "sourceCrop2" : {
                              "type" : "double",
                              "defaultValue" : 0.0,
                              "interp" : "eioe"
                            },
                            "sourceCrop3" : {
                              "type" : "double",
                              "defaultValue" : 0.0,
                              "interp" : "eioe"
                            },
                            "geometryCrop0" : {
                              "type" : "double",
                              "defaultValue" : 0.0,
                              "interp" : "eioe"
                            },
                            "geometryCrop1" : {
                              "type" : "double",
                              "defaultValue" : 0.0,
                              "interp" : "eioe"
                            },
                            "geometryCrop2" : {
                              "type" : "double",
                              "defaultValue" : 0.0,
                              "interp" : "eioe"
                            },
                            "geometryCrop3" : {
                              "type" : "double",
                              "defaultValue" : 0.0,
                              "interp" : "eioe"
                            },
                            "cursorScale" : {
                              "type" : "double",
                              "defaultValue" : 1.0,
                              "interp" : "linr"
                            },
                            "cursorOpacity" : {
                              "type" : "double",
                              "defaultValue" : 1.0,
                              "interp" : "linr"
                            }
                          },
                          "effects" : [

                          ],
                          "start" : 14266,
                          "duration" : 31,
                          "mediaStart" : 605,
                          "mediaDuration" : 31,
                          "scalar" : 1,
                          "animationTracks" : {

                          }
                        },
                    "audio" : 
                        {
                          "id" : 920,
                          "_type" : "AMFile",
                          "src" : 10,
                          "trackNumber" : 3,
                          "attributes" : {
                            "ident" : "",
                            "gain" : 1.0,
                            "mixToMono" : false
                          },
                            "channelNumber" : "0,1",
                          "effects" : [

                          ],
                          "start" : 14266,
                          "duration" : 31,
                          "mediaStart" : 605,
                          "mediaDuration" : 31,
                          "scalar" : 1,
                          "animationTracks" : {

                          }
                        }
,
                    "start" : 14266,
                    "duration" : 31,
                    "mediaStart" : 0,
                    "mediaDuration" : 795,
                    "scalar" : 1,
                    "metadata" : {
                      "AutoAppliedSmartFocus" : "False",
                      "clipSpeedAttribute" : false
                    }
                  },
                  {
                    "id" : 921,
                    "_type" : "UnifiedMedia",
                    "video" : 
                        {
                          "id" : 922,
                          "_type" : "ScreenVMFile",
                          "src" : 10,
                          "trackNumber" : 0,
                          "attributes" : {
                            "ident" : "Grabación 27-12-{AA}_001"
                          },
                          "parameters" : {
                            "sourceCrop0" : {
                              "type" : "double",
                              "defaultValue" : 0.0,
                              "interp" : "eioe"
                            },
                            "sourceCrop1" : {
                              "type" : "double",
                              "defaultValue" : 0.0,
                              "interp" : "eioe"
                            },
                            "sourceCrop2" : {
                              "type" : "double",
                              "defaultValue" : 0.0,
                              "interp" : "eioe"
                            },
                            "sourceCrop3" : {
                              "type" : "double",
                              "defaultValue" : 0.0,
                              "interp" : "eioe"
                            },
                            "geometryCrop0" : {
                              "type" : "double",
                              "defaultValue" : 0.0,
                              "interp" : "eioe"
                            },
                            "geometryCrop1" : {
                              "type" : "double",
                              "defaultValue" : 0.0,
                              "interp" : "eioe"
                            },
                            "geometryCrop2" : {
                              "type" : "double",
                              "defaultValue" : 0.0,
                              "interp" : "eioe"
                            },
                            "geometryCrop3" : {
                              "type" : "double",
                              "defaultValue" : 0.0,
                              "interp" : "eioe"
                            },
                            "cursorScale" : {
                              "type" : "double",
                              "defaultValue" : 1.0,
                              "interp" : "linr"
                            },
                            "cursorOpacity" : {
                              "type" : "double",
                              "defaultValue" : 1.0,
                              "interp" : "linr"
                            }
                          },
                          "effects" : [

                          ],
                          "start" : 14297,
                          "duration" : 98,
                          "mediaStart" : 684,
                          "mediaDuration" : 98,
                          "scalar" : 1,
                          "animationTracks" : {

                          }
                        },
                    "audio" : 
                        {
                          "id" : 923,
                          "_type" : "AMFile",
                          "src" : 10,
                          "trackNumber" : 3,
                          "attributes" : {
                            "ident" : "",
                            "gain" : 1.0,
                            "mixToMono" : false
                          },
                            "channelNumber" : "0,1",
                          "effects" : [

                          ],
                          "start" : 14297,
                          "duration" : 98,
                          "mediaStart" : 684,
                          "mediaDuration" : 98,
                          "scalar" : 1,
                          "animationTracks" : {

                          }
                        }
,
                    "start" : 14297,
                    "duration" : 98,
                    "mediaStart" : 0,
                    "mediaDuration" : 795,
                    "scalar" : 1,
                    "metadata" : {
                      "AutoAppliedSmartFocus" : "False",
                      "clipSpeedAttribute" : false
                    }
                  }
                ],
                "transitions" : [
                  {
                    "name" : "SphericalSpin",
                    "duration" : 15,
                    "trivial" : false,
                    "reverse" : false,
                    "bypass" : false,
                    "useAudioPreRoll" : true,
                    "useVisualPreRoll" : true,
                    "leftMedia" : 723,
                    "rightMedia" : 726
                  },
                  {
                    "name" : "SphericalSpin",
                    "duration" : 15,
                    "trivial" : false,
                    "reverse" : false,
                    "bypass" : false,
                    "useAudioPreRoll" : true,
                    "useVisualPreRoll" : true,
                    "leftMedia" : 843,
                    "rightMedia" : 846
                  },
                  {
                    "name" : "CheckerBoard",
                    "duration" : 15,
                    "trivial" : false,
                    "reverse" : false,
                    "bypass" : false,
                    "useAudioPreRoll" : true,
                    "useVisualPreRoll" : true,
                    "leftMedia" : 903,
                    "rightMedia" : 906
                  }
                ]
              },
              {
                "trackIndex" : 3,
                "medias" : [
                  {
                    "id" : 924,
                    "_type" : "Callout",
                    "def" : {
                      "kind" : "remix",
                      "shape" : "text-rectangle",
                      "style" : "basic",
                      "fill-color-blue" : 1.0,
                      "fill-color-green" : 1.0,
                      "fill-color-opacity" : 1.0,
                      "fill-color-red" : 1.0,
                      "height" : 103.999999999963,
                      "line-spacing" : 0.0,
                      "stroke-color-blue" : 0.56078431372549,
                      "stroke-color-green" : 0.686274509803922,
                      "stroke-color-opacity" : 1.0,
                      "stroke-color-red" : 0.0196078431372549,
                      "stroke-width" : 2.0,
                      "tail-x" : 4.00000000011268,
                      "tail-y" : 3.00000000001849,
                      "width" : 181.999999999773,
                      "word-wrap" : 1.0,
                      "fill-style" : "solid",
                      "horizontal-alignment" : "center",
                      "resize-behavior" : "resizeText",
                      "stroke-style" : "solid",
                      "text" : "Ilias",
                      "vertical-alignment" : "center",
                      "font" : {
                        "color-blue" : 0.266666666666667,
                        "color-green" : 0.231372549019608,
                        "color-opacity" : 1.0,
                        "color-red" : 0.184313725490196,
                        "size" : 64.0,
                        "tracking" : 0.0,
                        "name" : "Montserrat",
                        "weight" : "Regular"
                      },
                      "textAttributes" : {
                        "type" : "textAttributeList",
                        "keyframes" : [
                          {
                            "endTime" : 0,
                            "time" : 0,
                            "value" : [{"name":"fontSize","rangeEnd":5,"rangeStart":0,"value":64,"valueType":"double"},{"name":"fgColor","rangeEnd":5,"rangeStart":0,"value":"(47,59,68,255)","valueType":"color"},{"name":"underline","rangeEnd":5,"rangeStart":0,"value":0,"valueType":"int"},{"name":"kerning","rangeEnd":5,"rangeStart":0,"value":0,"valueType":"double"},{"name":"fontName","rangeEnd":5,"rangeStart":0,"value":"Montserrat","valueType":"string"},{"name":"fontItalic","rangeEnd":5,"rangeStart":0,"value":0,"valueType":"int"},{"name":"fontWeight","rangeEnd":5,"rangeStart":0,"value":400,"valueType":"int"},{"name":"strikethrough","rangeEnd":5,"rangeStart":0,"value":0,"valueType":"int"}],
                            "duration" : 0
                          }
                        ]
                      }
                    },
                    "attributes" : {
                      "autoRotateText" : true
                    },
                    "parameters" : {
                      "translation0" : 828.000000000038,
                      "translation1" : 254.999999999952,
                      "sourceCrop0" : 0.0,
                      "sourceCrop1" : 0.0,
                      "sourceCrop2" : 0.0,
                      "sourceCrop3" : 0.0,
                      "geometryCrop0" : 0.0,
                      "geometryCrop1" : 0.0,
                      "geometryCrop2" : 0.0,
                      "geometryCrop3" : 0.0
                    },
                    "effects" : [

                    ],
                    "start" : 10005,
                    "duration" : 507,
                    "mediaStart" : 0,
                    "mediaDuration" : 507,
                    "scalar" : 1,
                    "metadata" : {
                      "clipSpeedAttribute" : false,
                      "default-HAlign" : "center",
                      "default-LineSpace" : 0.0,
                      "default-VAlign" : "center",
                      "default-height" : 176.0,
                      "default-text-attributes" : null,
                      "default-translation0" : 0.0,
                      "default-translation1" : 0.0,
                      "default-width" : 376.0
                    },
                    "animationTracks" : {

                    }
                  },
                  {
                    "id" : 925,
                    "_type" : "UnifiedMedia",
                    "video" : 
                        {
                          "id" : 926,
                          "_type" : "VMFile",
                          "src" : 10,
                          "trackNumber" : 1,
                          "attributes" : {
                            "ident" : "Grabación 27-12-{AA}_001"
                          },
                          "parameters" : {
                            "translation0" : {
                              "type" : "double",
                              "defaultValue" : 880.0,
                              "interp" : "eioe"
                            },
                            "translation1" : {
                              "type" : "double",
                              "defaultValue" : -480.0,
                              "interp" : "eioe"
                            },
                            "scale0" : {
                              "type" : "double",
                              "defaultValue" : 0.25,
                              "interp" : "eioe"
                            },
                            "scale1" : {
                              "type" : "double",
                              "defaultValue" : 0.25,
                              "interp" : "eioe"
                            },
                            "sourceCrop0" : {
                              "type" : "double",
                              "defaultValue" : 0.0,
                              "interp" : "eioe"
                            },
                            "sourceCrop1" : {
                              "type" : "double",
                              "defaultValue" : 0.0,
                              "interp" : "eioe"
                            },
                            "sourceCrop2" : {
                              "type" : "double",
                              "defaultValue" : 0.0,
                              "interp" : "eioe"
                            },
                            "sourceCrop3" : {
                              "type" : "double",
                              "defaultValue" : 0.0,
                              "interp" : "eioe"
                            },
                            "geometryCrop0" : {
                              "type" : "double",
                              "defaultValue" : 0.0,
                              "interp" : "eioe"
                            },
                            "geometryCrop1" : {
                              "type" : "double",
                              "defaultValue" : 0.0,
                              "interp" : "eioe"
                            },
                            "geometryCrop2" : {
                              "type" : "double",
                              "defaultValue" : 0.0,
                              "interp" : "eioe"
                            },
                            "geometryCrop3" : {
                              "type" : "double",
                              "defaultValue" : 0.0,
                              "interp" : "eioe"
                            }
                          },
                          "effects" : [

                          ],
                          "start" : 13725,
                          "duration" : 222,
                          "mediaStart" : 0,
                          "mediaDuration" : 222,
                          "scalar" : 1,
                          "animationTracks" : {

                          }
                        },
                    "audio" : 
                        {
                          "id" : 927,
                          "_type" : "AMFile",
                          "src" : 10,
                          "trackNumber" : 2,
                          "attributes" : {
                            "ident" : "",
                            "gain" : 1.0,
                            "mixToMono" : false
                          },
                            "channelNumber" : "0,1",
                          "effects" : [

                          ],
                          "start" : 13725,
                          "duration" : 222,
                          "mediaStart" : 0,
                          "mediaDuration" : 222,
                          "scalar" : 1,
                          "animationTracks" : {

                          }
                        }
,
                    "start" : 13725,
                    "duration" : 222,
                    "mediaStart" : 0,
                    "mediaDuration" : 803,
                    "scalar" : 1,
                    "metadata" : {
                      "clipSpeedAttribute" : false
                    }
                  },
                  {
                    "id" : 928,
                    "_type" : "UnifiedMedia",
                    "video" : 
                        {
                          "id" : 929,
                          "_type" : "VMFile",
                          "src" : 10,
                          "trackNumber" : 1,
                          "attributes" : {
                            "ident" : "Grabación 27-12-{AA}_001"
                          },
                          "parameters" : {
                            "translation0" : {
                              "type" : "double",
                              "defaultValue" : 880.0,
                              "interp" : "eioe"
                            },
                            "translation1" : {
                              "type" : "double",
                              "defaultValue" : -480.0,
                              "interp" : "eioe"
                            },
                            "scale0" : {
                              "type" : "double",
                              "defaultValue" : 0.25,
                              "interp" : "eioe"
                            },
                            "scale1" : {
                              "type" : "double",
                              "defaultValue" : 0.25,
                              "interp" : "eioe"
                            },
                            "sourceCrop0" : {
                              "type" : "double",
                              "defaultValue" : 0.0,
                              "interp" : "eioe"
                            },
                            "sourceCrop1" : {
                              "type" : "double",
                              "defaultValue" : 0.0,
                              "interp" : "eioe"
                            },
                            "sourceCrop2" : {
                              "type" : "double",
                              "defaultValue" : 0.0,
                              "interp" : "eioe"
                            },
                            "sourceCrop3" : {
                              "type" : "double",
                              "defaultValue" : 0.0,
                              "interp" : "eioe"
                            },
                            "geometryCrop0" : {
                              "type" : "double",
                              "defaultValue" : 0.0,
                              "interp" : "eioe"
                            },
                            "geometryCrop1" : {
                              "type" : "double",
                              "defaultValue" : 0.0,
                              "interp" : "eioe"
                            },
                            "geometryCrop2" : {
                              "type" : "double",
                              "defaultValue" : 0.0,
                              "interp" : "eioe"
                            },
                            "geometryCrop3" : {
                              "type" : "double",
                              "defaultValue" : 0.0,
                              "interp" : "eioe"
                            }
                          },
                          "effects" : [

                          ],
                          "start" : 13947,
                          "duration" : 76,
                          "mediaStart" : 239,
                          "mediaDuration" : 76,
                          "scalar" : 1,
                          "animationTracks" : {

                          }
                        },
                    "audio" : 
                        {
                          "id" : 930,
                          "_type" : "AMFile",
                          "src" : 10,
                          "trackNumber" : 2,
                          "attributes" : {
                            "ident" : "",
                            "gain" : 1.0,
                            "mixToMono" : false
                          },
                            "channelNumber" : "0,1",
                          "effects" : [

                          ],
                          "start" : 13947,
                          "duration" : 76,
                          "mediaStart" : 239,
                          "mediaDuration" : 76,
                          "scalar" : 1,
                          "animationTracks" : {

                          }
                        }
,
                    "start" : 13947,
                    "duration" : 76,
                    "mediaStart" : 0,
                    "mediaDuration" : 803,
                    "scalar" : 1,
                    "metadata" : {
                      "clipSpeedAttribute" : false
                    }
                  },
                  {
                    "id" : 931,
                    "_type" : "UnifiedMedia",
                    "video" : 
                        {
                          "id" : 932,
                          "_type" : "VMFile",
                          "src" : 10,
                          "trackNumber" : 1,
                          "attributes" : {
                            "ident" : "Grabación 27-12-{AA}_001"
                          },
                          "parameters" : {
                            "translation0" : {
                              "type" : "double",
                              "defaultValue" : 880.0,
                              "interp" : "eioe"
                            },
                            "translation1" : {
                              "type" : "double",
                              "defaultValue" : -480.0,
                              "interp" : "eioe"
                            },
                            "scale0" : {
                              "type" : "double",
                              "defaultValue" : 0.25,
                              "interp" : "eioe"
                            },
                            "scale1" : {
                              "type" : "double",
                              "defaultValue" : 0.25,
                              "interp" : "eioe"
                            },
                            "sourceCrop0" : {
                              "type" : "double",
                              "defaultValue" : 0.0,
                              "interp" : "eioe"
                            },
                            "sourceCrop1" : {
                              "type" : "double",
                              "defaultValue" : 0.0,
                              "interp" : "eioe"
                            },
                            "sourceCrop2" : {
                              "type" : "double",
                              "defaultValue" : 0.0,
                              "interp" : "eioe"
                            },
                            "sourceCrop3" : {
                              "type" : "double",
                              "defaultValue" : 0.0,
                              "interp" : "eioe"
                            },
                            "geometryCrop0" : {
                              "type" : "double",
                              "defaultValue" : 0.0,
                              "interp" : "eioe"
                            },
                            "geometryCrop1" : {
                              "type" : "double",
                              "defaultValue" : 0.0,
                              "interp" : "eioe"
                            },
                            "geometryCrop2" : {
                              "type" : "double",
                              "defaultValue" : 0.0,
                              "interp" : "eioe"
                            },
                            "geometryCrop3" : {
                              "type" : "double",
                              "defaultValue" : 0.0,
                              "interp" : "eioe"
                            }
                          },
                          "effects" : [

                          ],
                          "start" : 14023,
                          "duration" : 159,
                          "mediaStart" : 331,
                          "mediaDuration" : 159,
                          "scalar" : 1,
                          "animationTracks" : {

                          }
                        },
                    "audio" : 
                        {
                          "id" : 933,
                          "_type" : "AMFile",
                          "src" : 10,
                          "trackNumber" : 2,
                          "attributes" : {
                            "ident" : "",
                            "gain" : 1.0,
                            "mixToMono" : false
                          },
                            "channelNumber" : "0,1",
                          "effects" : [

                          ],
                          "start" : 14023,
                          "duration" : 159,
                          "mediaStart" : 331,
                          "mediaDuration" : 159,
                          "scalar" : 1,
                          "animationTracks" : {

                          }
                        }
,
                    "start" : 14023,
                    "duration" : 159,
                    "mediaStart" : 0,
                    "mediaDuration" : 803,
                    "scalar" : 1,
                    "metadata" : {
                      "clipSpeedAttribute" : false
                    }
                  },
                  {
                    "id" : 934,
                    "_type" : "UnifiedMedia",
                    "video" : 
                        {
                          "id" : 935,
                          "_type" : "VMFile",
                          "src" : 10,
                          "trackNumber" : 1,
                          "attributes" : {
                            "ident" : "Grabación 27-12-{AA}_001"
                          },
                          "parameters" : {
                            "translation0" : {
                              "type" : "double",
                              "defaultValue" : 880.0,
                              "interp" : "eioe"
                            },
                            "translation1" : {
                              "type" : "double",
                              "defaultValue" : -480.0,
                              "interp" : "eioe"
                            },
                            "scale0" : {
                              "type" : "double",
                              "defaultValue" : 0.25,
                              "interp" : "eioe"
                            },
                            "scale1" : {
                              "type" : "double",
                              "defaultValue" : 0.25,
                              "interp" : "eioe"
                            },
                            "sourceCrop0" : {
                              "type" : "double",
                              "defaultValue" : 0.0,
                              "interp" : "eioe"
                            },
                            "sourceCrop1" : {
                              "type" : "double",
                              "defaultValue" : 0.0,
                              "interp" : "eioe"
                            },
                            "sourceCrop2" : {
                              "type" : "double",
                              "defaultValue" : 0.0,
                              "interp" : "eioe"
                            },
                            "sourceCrop3" : {
                              "type" : "double",
                              "defaultValue" : 0.0,
                              "interp" : "eioe"
                            },
                            "geometryCrop0" : {
                              "type" : "double",
                              "defaultValue" : 0.0,
                              "interp" : "eioe"
                            },
                            "geometryCrop1" : {
                              "type" : "double",
                              "defaultValue" : 0.0,
                              "interp" : "eioe"
                            },
                            "geometryCrop2" : {
                              "type" : "double",
                              "defaultValue" : 0.0,
                              "interp" : "eioe"
                            },
                            "geometryCrop3" : {
                              "type" : "double",
                              "defaultValue" : 0.0,
                              "interp" : "eioe"
                            }
                          },
                          "effects" : [

                          ],
                          "start" : 14182,
                          "duration" : 84,
                          "mediaStart" : 507,
                          "mediaDuration" : 84,
                          "scalar" : 1,
                          "animationTracks" : {

                          }
                        },
                    "audio" : 
                        {
                          "id" : 936,
                          "_type" : "AMFile",
                          "src" : 10,
                          "trackNumber" : 2,
                          "attributes" : {
                            "ident" : "",
                            "gain" : 1.0,
                            "mixToMono" : false
                          },
                            "channelNumber" : "0,1",
                          "effects" : [

                          ],
                          "start" : 14182,
                          "duration" : 84,
                          "mediaStart" : 507,
                          "mediaDuration" : 84,
                          "scalar" : 1,
                          "animationTracks" : {

                          }
                        }
,
                    "start" : 14182,
                    "duration" : 84,
                    "mediaStart" : 0,
                    "mediaDuration" : 803,
                    "scalar" : 1,
                    "metadata" : {
                      "clipSpeedAttribute" : false
                    }
                  },
                  {
                    "id" : 937,
                    "_type" : "UnifiedMedia",
                    "video" : 
                        {
                          "id" : 938,
                          "_type" : "VMFile",
                          "src" : 10,
                          "trackNumber" : 1,
                          "attributes" : {
                            "ident" : "Grabación 27-12-{AA}_001"
                          },
                          "parameters" : {
                            "translation0" : {
                              "type" : "double",
                              "defaultValue" : 880.0,
                              "interp" : "eioe"
                            },
                            "translation1" : {
                              "type" : "double",
                              "defaultValue" : -480.0,
                              "interp" : "eioe"
                            },
                            "scale0" : {
                              "type" : "double",
                              "defaultValue" : 0.25,
                              "interp" : "eioe"
                            },
                            "scale1" : {
                              "type" : "double",
                              "defaultValue" : 0.25,
                              "interp" : "eioe"
                            },
                            "sourceCrop0" : {
                              "type" : "double",
                              "defaultValue" : 0.0,
                              "interp" : "eioe"
                            },
                            "sourceCrop1" : {
                              "type" : "double",
                              "defaultValue" : 0.0,
                              "interp" : "eioe"
                            },
                            "sourceCrop2" : {
                              "type" : "double",
                              "defaultValue" : 0.0,
                              "interp" : "eioe"
                            },
                            "sourceCrop3" : {
                              "type" : "double",
                              "defaultValue" : 0.0,
                              "interp" : "eioe"
                            },
                            "geometryCrop0" : {
                              "type" : "double",
                              "defaultValue" : 0.0,
                              "interp" : "eioe"
                            },
                            "geometryCrop1" : {
                              "type" : "double",
                              "defaultValue" : 0.0,
                              "interp" : "eioe"
                            },
                            "geometryCrop2" : {
                              "type" : "double",
                              "defaultValue" : 0.0,
                              "interp" : "eioe"
                            },
                            "geometryCrop3" : {
                              "type" : "double",
                              "defaultValue" : 0.0,
                              "interp" : "eioe"
                            }
                          },
                          "effects" : [

                          ],
                          "start" : 14266,
                          "duration" : 31,
                          "mediaStart" : 605,
                          "mediaDuration" : 31,
                          "scalar" : 1,
                          "animationTracks" : {

                          }
                        },
                    "audio" : 
                        {
                          "id" : 939,
                          "_type" : "AMFile",
                          "src" : 10,
                          "trackNumber" : 2,
                          "attributes" : {
                            "ident" : "",
                            "gain" : 1.0,
                            "mixToMono" : false
                          },
                            "channelNumber" : "0,1",
                          "effects" : [

                          ],
                          "start" : 14266,
                          "duration" : 31,
                          "mediaStart" : 605,
                          "mediaDuration" : 31,
                          "scalar" : 1,
                          "animationTracks" : {

                          }
                        }
,
                    "start" : 14266,
                    "duration" : 31,
                    "mediaStart" : 0,
                    "mediaDuration" : 803,
                    "scalar" : 1,
                    "metadata" : {
                      "clipSpeedAttribute" : false
                    }
                  },
                  {
                    "id" : 940,
                    "_type" : "UnifiedMedia",
                    "video" : 
                        {
                          "id" : 941,
                          "_type" : "VMFile",
                          "src" : 10,
                          "trackNumber" : 1,
                          "attributes" : {
                            "ident" : "Grabación 27-12-{AA}_001"
                          },
                          "parameters" : {
                            "translation0" : {
                              "type" : "double",
                              "defaultValue" : 880.0,
                              "interp" : "eioe"
                            },
                            "translation1" : {
                              "type" : "double",
                              "defaultValue" : -480.0,
                              "interp" : "eioe"
                            },
                            "scale0" : {
                              "type" : "double",
                              "defaultValue" : 0.25,
                              "interp" : "eioe"
                            },
                            "scale1" : {
                              "type" : "double",
                              "defaultValue" : 0.25,
                              "interp" : "eioe"
                            },
                            "sourceCrop0" : {
                              "type" : "double",
                              "defaultValue" : 0.0,
                              "interp" : "eioe"
                            },
                            "sourceCrop1" : {
                              "type" : "double",
                              "defaultValue" : 0.0,
                              "interp" : "eioe"
                            },
                            "sourceCrop2" : {
                              "type" : "double",
                              "defaultValue" : 0.0,
                              "interp" : "eioe"
                            },
                            "sourceCrop3" : {
                              "type" : "double",
                              "defaultValue" : 0.0,
                              "interp" : "eioe"
                            },
                            "geometryCrop0" : {
                              "type" : "double",
                              "defaultValue" : 0.0,
                              "interp" : "eioe"
                            },
                            "geometryCrop1" : {
                              "type" : "double",
                              "defaultValue" : 0.0,
                              "interp" : "eioe"
                            },
                            "geometryCrop2" : {
                              "type" : "double",
                              "defaultValue" : 0.0,
                              "interp" : "eioe"
                            },
                            "geometryCrop3" : {
                              "type" : "double",
                              "defaultValue" : 0.0,
                              "interp" : "eioe"
                            }
                          },
                          "effects" : [

                          ],
                          "start" : 14297,
                          "duration" : 98,
                          "mediaStart" : 684,
                          "mediaDuration" : 98,
                          "scalar" : 1,
                          "animationTracks" : {

                          }
                        },
                    "audio" : 
                        {
                          "id" : 942,
                          "_type" : "AMFile",
                          "src" : 10,
                          "trackNumber" : 2,
                          "attributes" : {
                            "ident" : "",
                            "gain" : 1.0,
                            "mixToMono" : false
                          },
                            "channelNumber" : "0,1",
                          "effects" : [

                          ],
                          "start" : 14297,
                          "duration" : 98,
                          "mediaStart" : 684,
                          "mediaDuration" : 98,
                          "scalar" : 1,
                          "animationTracks" : {

                          }
                        }
,
                    "start" : 14297,
                    "duration" : 98,
                    "mediaStart" : 0,
                    "mediaDuration" : 803,
                    "scalar" : 1,
                    "metadata" : {
                      "clipSpeedAttribute" : false
                    }
                  }
                ],
                "transitions" : [
                  {
                    "name" : "RandomDissolve",
                    "duration" : 30,
                    "trivial" : false,
                    "reverse" : false,
                    "bypass" : false,
                    "useAudioPreRoll" : true,
                    "useVisualPreRoll" : true,
                    "rightMedia" : 924
                  },
                  {
                    "name" : "RandomDissolve",
                    "duration" : 30,
                    "trivial" : false,
                    "reverse" : false,
                    "bypass" : false,
                    "useAudioPreRoll" : true,
                    "useVisualPreRoll" : true,
                    "leftMedia" : 924
                  }
                ]
              },
              {
                "trackIndex" : 4,
                "medias" : [
                ]
              },
              {
                "trackIndex" : 5,
                "medias" : [
                ]
              }            ]
          }
        }
      ]
    },
    "trackAttributes" : [
      {
        "ident" : "",
        "audioMuted" : false,
        "videoHidden" : false,
        "magnetic" : false,
        "matte" : 0,
        "solo" : false,
        "metadata" : {
          "IsLocked" : "False",
          "WinTrackHeight" : "56"
        }
      },
      {
        "ident" : "",
        "audioMuted" : false,
        "videoHidden" : false,
        "magnetic" : false,
        "matte" : 0,
        "solo" : false,
        "metadata" : {
          "IsLocked" : "False",
          "WinTrackHeight" : "56"
        }
      },
      {
        "ident" : "",
        "audioMuted" : false,
        "videoHidden" : false,
        "magnetic" : false,
        "matte" : 0,
        "solo" : false,
        "metadata" : {
          "IsLocked" : "False",
          "WinTrackHeight" : "56"
        }
      },
      {
        "ident" : "",
        "audioMuted" : false,
        "videoHidden" : false,
        "magnetic" : false,
        "matte" : 0,
        "solo" : false,
        "metadata" : {
          "IsLocked" : "False",
          "WinTrackHeight" : "56"
        }
      },
      {
        "ident" : "",
        "audioMuted" : false,
        "videoHidden" : false,
        "magnetic" : false,
        "matte" : 0,
        "solo" : false,
        "metadata" : {
          "IsLocked" : "False",
          "WinTrackHeight" : "56"
        }
      },
      {
        "ident" : "",
        "audioMuted" : false,
        "videoHidden" : false,
        "magnetic" : false,
        "matte" : 0,
        "solo" : false,
        "metadata" : {
          "IsLocked" : "False",
          "WinTrackHeight" : "56"
        }
      }
    ],
    "captionAttributes" : {
      "enabled" : true,
      "fontName" : "Arial",
      "fontSize" : 64,
      "backgroundColor" : [ 0, 0, 0, 191],
      "foregroundColor" : [ 255, 255, 255, 255],
      "lang" : "en",
      "alignment" : 0,
      "defaultFontSize" : true,
      "opacity" : 0.5,
      "backgroundEnabled" : true,
      "backgroundOnlyAroundText" : true
    },
    "backgroundColor" : [ 0, 0, 0, 255]
  },
  "metadata" : {
    "AutoSaveFile" : "C:\\Users\\David\\AppData\\Local\\TechSmith\\Camtasia Studio\\20.0\\Auto-Saves\\Proyecto sin título520a412.autosave.tscproj",
    "CanvasZoom" : 50,
    "Date" : "domingo-12-27 05:13:12 ",
    "Fit" : 1,
    "IsAutoSave" : false,
    "Language" : "ESN",
    "ProfileName" : "",
    "ProjectDimensionsChanged" : "1",
    "Title" : "Vídeo - lógica",
    "audioNarrationNotes" : "",
    "calloutStyle" : "Basic"
  }
}
